<svg xmlns="http://www.w3.org/2000/svg" width="380" height="210" viewBox="0 0 380 210">
  <title>Circle Word icon</title>
  <svg x="120" y="35" width="140" height="140" viewBox="0 0 512 512">
<polygon style="fill:#62ccfe;" points="256,376.5 256,181 0,181 68.97,376.5 "/>
<polygon style="fill:#27baff;" points="443.03,376.5 512,181 256,181 256,376.5 "/>
<polygon style="fill:#e8f6b7;" points="422,0 256,0 226,386.5 422,346.5 "/>
<polygon style="fill:#eff8d7;" points="256,0 90,0 90,346.5 256,386.5 256,76.5 240,61.5 256,46.5 "/>
<rect x="150" y="46.5" style="fill:#444b61;" width="106" height="30"/>
<polygon style="fill:#1d2236;" points="362,210 256,210 246,225 256,240 362,240 "/>
<rect x="150" y="210" style="fill:#444b61;" width="106" height="30"/>
<polygon style="fill:#1d2236;" points="362,270 256,270 246,285 256,300 362,300 "/>
<rect x="150" y="270" style="fill:#444b61;" width="106" height="30"/>
<polygon style="fill:#1d2236;" points="362,150 256,150 246,165 256,180 362,180 "/>
<rect x="150" y="150" style="fill:#444b61;" width="106" height="30"/>
<polygon style="fill:#94dbfd;" points="60,346.5 0,512 256,512 256,346.5 "/>
<polygon style="fill:#62ccfe;" points="256,346.5 256,512 512,512 452,346.5 "/>
<polygon style="fill:#94dbfd;" points="422,346.5 512,512 512,181 "/>
<polygon style="fill:#d7f0fc;" points="0,181 0,512 90,346.5 "/>
<g>
</g>
<g>
</g>
<g>
</g>
<g>
</g>
<g>
</g>
<g>
</g>
<g>
</g>
<g>
</g>
<g>
</g>
<g>
</g>
<g>
</g>
<g>
</g>
<g>
</g>
<g>
</g>
<g>
</g>
  </svg>
</svg>
