
<svg xmlns="http://www.w3.org/2000/svg" version="1.1" xmlns:xlink="http://www.w3.org/1999/xlink" preserveAspectRatio="none" x="0px" y="0px" width="512px" height="512px" viewBox="0 0 512 512">
<defs>
<path id="grid2_0_Layer0_0_1_STROKES" stroke="#FFFFFF" stroke-opacity="0.09803921568627451" stroke-width="1" stroke-linejoin="miter" stroke-linecap="butt" stroke-miterlimit="3" fill="none" d="
M 4.05 0
L 0 0 0 4.05
M -4.05 0
L 0 0 0 -4.05"/>
</defs>

<g transform="matrix( 1, 0, 0, 1, 0,0) ">
<g transform="matrix( 1, 0, 0, 1, 0,0) ">
<use xlink:href="#grid2_0_Layer0_0_1_STROKES"/>
</g>
</g>

<g transform="matrix( 1, 0, 0, 1, 32,0) ">
<g transform="matrix( 1, 0, 0, 1, 0,0) ">
<use xlink:href="#grid2_0_Layer0_0_1_STROKES"/>
</g>
</g>

<g transform="matrix( 1, 0, 0, 1, 64,0) ">
<g transform="matrix( 1, 0, 0, 1, 0,0) ">
<use xlink:href="#grid2_0_Layer0_0_1_STROKES"/>
</g>
</g>

<g transform="matrix( 1, 0, 0, 1, 96,0) ">
<g transform="matrix( 1, 0, 0, 1, 0,0) ">
<use xlink:href="#grid2_0_Layer0_0_1_STROKES"/>
</g>
</g>

<g transform="matrix( 1, 0, 0, 1, 128,0) ">
<g transform="matrix( 1, 0, 0, 1, 0,0) ">
<use xlink:href="#grid2_0_Layer0_0_1_STROKES"/>
</g>
</g>

<g transform="matrix( 1, 0, 0, 1, 160,0) ">
<g transform="matrix( 1, 0, 0, 1, 0,0) ">
<use xlink:href="#grid2_0_Layer0_0_1_STROKES"/>
</g>
</g>

<g transform="matrix( 1, 0, 0, 1, 192,0) ">
<g transform="matrix( 1, 0, 0, 1, 0,0) ">
<use xlink:href="#grid2_0_Layer0_0_1_STROKES"/>
</g>
</g>

<g transform="matrix( 1, 0, 0, 1, 224,0) ">
<g transform="matrix( 1, 0, 0, 1, 0,0) ">
<use xlink:href="#grid2_0_Layer0_0_1_STROKES"/>
</g>
</g>

<g transform="matrix( 1, 0, 0, 1, 256,0) ">
<g transform="matrix( 1, 0, 0, 1, 0,0) ">
<use xlink:href="#grid2_0_Layer0_0_1_STROKES"/>
</g>
</g>

<g transform="matrix( 1, 0, 0, 1, 288,0) ">
<g transform="matrix( 1, 0, 0, 1, 0,0) ">
<use xlink:href="#grid2_0_Layer0_0_1_STROKES"/>
</g>
</g>

<g transform="matrix( 1, 0, 0, 1, 320,0) ">
<g transform="matrix( 1, 0, 0, 1, 0,0) ">
<use xlink:href="#grid2_0_Layer0_0_1_STROKES"/>
</g>
</g>

<g transform="matrix( 1, 0, 0, 1, 352,0) ">
<g transform="matrix( 1, 0, 0, 1, 0,0) ">
<use xlink:href="#grid2_0_Layer0_0_1_STROKES"/>
</g>
</g>

<g transform="matrix( 1, 0, 0, 1, 384,0) ">
<g transform="matrix( 1, 0, 0, 1, 0,0) ">
<use xlink:href="#grid2_0_Layer0_0_1_STROKES"/>
</g>
</g>

<g transform="matrix( 1, 0, 0, 1, 416,0) ">
<g transform="matrix( 1, 0, 0, 1, 0,0) ">
<use xlink:href="#grid2_0_Layer0_0_1_STROKES"/>
</g>
</g>

<g transform="matrix( 1, 0, 0, 1, 448,0) ">
<g transform="matrix( 1, 0, 0, 1, 0,0) ">
<use xlink:href="#grid2_0_Layer0_0_1_STROKES"/>
</g>
</g>

<g transform="matrix( 1, 0, 0, 1, 480,0) ">
<g transform="matrix( 1, 0, 0, 1, 0,0) ">
<use xlink:href="#grid2_0_Layer0_0_1_STROKES"/>
</g>
</g>

<g transform="matrix( 1, 0, 0, 1, 0,32) ">
<g transform="matrix( 1, 0, 0, 1, 0,0) ">
<use xlink:href="#grid2_0_Layer0_0_1_STROKES"/>
</g>
</g>

<g transform="matrix( 1, 0, 0, 1, 32,32) ">
<g transform="matrix( 1, 0, 0, 1, 0,0) ">
<use xlink:href="#grid2_0_Layer0_0_1_STROKES"/>
</g>
</g>

<g transform="matrix( 1, 0, 0, 1, 64,32) ">
<g transform="matrix( 1, 0, 0, 1, 0,0) ">
<use xlink:href="#grid2_0_Layer0_0_1_STROKES"/>
</g>
</g>

<g transform="matrix( 1, 0, 0, 1, 96,32) ">
<g transform="matrix( 1, 0, 0, 1, 0,0) ">
<use xlink:href="#grid2_0_Layer0_0_1_STROKES"/>
</g>
</g>

<g transform="matrix( 1, 0, 0, 1, 128,32) ">
<g transform="matrix( 1, 0, 0, 1, 0,0) ">
<use xlink:href="#grid2_0_Layer0_0_1_STROKES"/>
</g>
</g>

<g transform="matrix( 1, 0, 0, 1, 160,32) ">
<g transform="matrix( 1, 0, 0, 1, 0,0) ">
<use xlink:href="#grid2_0_Layer0_0_1_STROKES"/>
</g>
</g>

<g transform="matrix( 1, 0, 0, 1, 192,32) ">
<g transform="matrix( 1, 0, 0, 1, 0,0) ">
<use xlink:href="#grid2_0_Layer0_0_1_STROKES"/>
</g>
</g>

<g transform="matrix( 1, 0, 0, 1, 224,32) ">
<g transform="matrix( 1, 0, 0, 1, 0,0) ">
<use xlink:href="#grid2_0_Layer0_0_1_STROKES"/>
</g>
</g>

<g transform="matrix( 1, 0, 0, 1, 256,32) ">
<g transform="matrix( 1, 0, 0, 1, 0,0) ">
<use xlink:href="#grid2_0_Layer0_0_1_STROKES"/>
</g>
</g>

<g transform="matrix( 1, 0, 0, 1, 288,32) ">
<g transform="matrix( 1, 0, 0, 1, 0,0) ">
<use xlink:href="#grid2_0_Layer0_0_1_STROKES"/>
</g>
</g>

<g transform="matrix( 1, 0, 0, 1, 320,32) ">
<g transform="matrix( 1, 0, 0, 1, 0,0) ">
<use xlink:href="#grid2_0_Layer0_0_1_STROKES"/>
</g>
</g>

<g transform="matrix( 1, 0, 0, 1, 352,32) ">
<g transform="matrix( 1, 0, 0, 1, 0,0) ">
<use xlink:href="#grid2_0_Layer0_0_1_STROKES"/>
</g>
</g>

<g transform="matrix( 1, 0, 0, 1, 384,32) ">
<g transform="matrix( 1, 0, 0, 1, 0,0) ">
<use xlink:href="#grid2_0_Layer0_0_1_STROKES"/>
</g>
</g>

<g transform="matrix( 1, 0, 0, 1, 416,32) ">
<g transform="matrix( 1, 0, 0, 1, 0,0) ">
<use xlink:href="#grid2_0_Layer0_0_1_STROKES"/>
</g>
</g>

<g transform="matrix( 1, 0, 0, 1, 448,32) ">
<g transform="matrix( 1, 0, 0, 1, 0,0) ">
<use xlink:href="#grid2_0_Layer0_0_1_STROKES"/>
</g>
</g>

<g transform="matrix( 1, 0, 0, 1, 480,32) ">
<g transform="matrix( 1, 0, 0, 1, 0,0) ">
<use xlink:href="#grid2_0_Layer0_0_1_STROKES"/>
</g>
</g>

<g transform="matrix( 1, 0, 0, 1, 0,64) ">
<g transform="matrix( 1, 0, 0, 1, 0,0) ">
<use xlink:href="#grid2_0_Layer0_0_1_STROKES"/>
</g>
</g>

<g transform="matrix( 1, 0, 0, 1, 32,64) ">
<g transform="matrix( 1, 0, 0, 1, 0,0) ">
<use xlink:href="#grid2_0_Layer0_0_1_STROKES"/>
</g>
</g>

<g transform="matrix( 1, 0, 0, 1, 64,64) ">
<g transform="matrix( 1, 0, 0, 1, 0,0) ">
<use xlink:href="#grid2_0_Layer0_0_1_STROKES"/>
</g>
</g>

<g transform="matrix( 1, 0, 0, 1, 96,64) ">
<g transform="matrix( 1, 0, 0, 1, 0,0) ">
<use xlink:href="#grid2_0_Layer0_0_1_STROKES"/>
</g>
</g>

<g transform="matrix( 1, 0, 0, 1, 128,64) ">
<g transform="matrix( 1, 0, 0, 1, 0,0) ">
<use xlink:href="#grid2_0_Layer0_0_1_STROKES"/>
</g>
</g>

<g transform="matrix( 1, 0, 0, 1, 160,64) ">
<g transform="matrix( 1, 0, 0, 1, 0,0) ">
<use xlink:href="#grid2_0_Layer0_0_1_STROKES"/>
</g>
</g>

<g transform="matrix( 1, 0, 0, 1, 192,64) ">
<g transform="matrix( 1, 0, 0, 1, 0,0) ">
<use xlink:href="#grid2_0_Layer0_0_1_STROKES"/>
</g>
</g>

<g transform="matrix( 1, 0, 0, 1, 224,64) ">
<g transform="matrix( 1, 0, 0, 1, 0,0) ">
<use xlink:href="#grid2_0_Layer0_0_1_STROKES"/>
</g>
</g>

<g transform="matrix( 1, 0, 0, 1, 256,64) ">
<g transform="matrix( 1, 0, 0, 1, 0,0) ">
<use xlink:href="#grid2_0_Layer0_0_1_STROKES"/>
</g>
</g>

<g transform="matrix( 1, 0, 0, 1, 288,64) ">
<g transform="matrix( 1, 0, 0, 1, 0,0) ">
<use xlink:href="#grid2_0_Layer0_0_1_STROKES"/>
</g>
</g>

<g transform="matrix( 1, 0, 0, 1, 320,64) ">
<g transform="matrix( 1, 0, 0, 1, 0,0) ">
<use xlink:href="#grid2_0_Layer0_0_1_STROKES"/>
</g>
</g>

<g transform="matrix( 1, 0, 0, 1, 352,64) ">
<g transform="matrix( 1, 0, 0, 1, 0,0) ">
<use xlink:href="#grid2_0_Layer0_0_1_STROKES"/>
</g>
</g>

<g transform="matrix( 1, 0, 0, 1, 384,64) ">
<g transform="matrix( 1, 0, 0, 1, 0,0) ">
<use xlink:href="#grid2_0_Layer0_0_1_STROKES"/>
</g>
</g>

<g transform="matrix( 1, 0, 0, 1, 416,64) ">
<g transform="matrix( 1, 0, 0, 1, 0,0) ">
<use xlink:href="#grid2_0_Layer0_0_1_STROKES"/>
</g>
</g>

<g transform="matrix( 1, 0, 0, 1, 448,64) ">
<g transform="matrix( 1, 0, 0, 1, 0,0) ">
<use xlink:href="#grid2_0_Layer0_0_1_STROKES"/>
</g>
</g>

<g transform="matrix( 1, 0, 0, 1, 480,64) ">
<g transform="matrix( 1, 0, 0, 1, 0,0) ">
<use xlink:href="#grid2_0_Layer0_0_1_STROKES"/>
</g>
</g>

<g transform="matrix( 1, 0, 0, 1, 0,96) ">
<g transform="matrix( 1, 0, 0, 1, 0,0) ">
<use xlink:href="#grid2_0_Layer0_0_1_STROKES"/>
</g>
</g>

<g transform="matrix( 1, 0, 0, 1, 32,96) ">
<g transform="matrix( 1, 0, 0, 1, 0,0) ">
<use xlink:href="#grid2_0_Layer0_0_1_STROKES"/>
</g>
</g>

<g transform="matrix( 1, 0, 0, 1, 64,96) ">
<g transform="matrix( 1, 0, 0, 1, 0,0) ">
<use xlink:href="#grid2_0_Layer0_0_1_STROKES"/>
</g>
</g>

<g transform="matrix( 1, 0, 0, 1, 96,96) ">
<g transform="matrix( 1, 0, 0, 1, 0,0) ">
<use xlink:href="#grid2_0_Layer0_0_1_STROKES"/>
</g>
</g>

<g transform="matrix( 1, 0, 0, 1, 128,96) ">
<g transform="matrix( 1, 0, 0, 1, 0,0) ">
<use xlink:href="#grid2_0_Layer0_0_1_STROKES"/>
</g>
</g>

<g transform="matrix( 1, 0, 0, 1, 160,96) ">
<g transform="matrix( 1, 0, 0, 1, 0,0) ">
<use xlink:href="#grid2_0_Layer0_0_1_STROKES"/>
</g>
</g>

<g transform="matrix( 1, 0, 0, 1, 192,96) ">
<g transform="matrix( 1, 0, 0, 1, 0,0) ">
<use xlink:href="#grid2_0_Layer0_0_1_STROKES"/>
</g>
</g>

<g transform="matrix( 1, 0, 0, 1, 224,96) ">
<g transform="matrix( 1, 0, 0, 1, 0,0) ">
<use xlink:href="#grid2_0_Layer0_0_1_STROKES"/>
</g>
</g>

<g transform="matrix( 1, 0, 0, 1, 256,96) ">
<g transform="matrix( 1, 0, 0, 1, 0,0) ">
<use xlink:href="#grid2_0_Layer0_0_1_STROKES"/>
</g>
</g>

<g transform="matrix( 1, 0, 0, 1, 288,96) ">
<g transform="matrix( 1, 0, 0, 1, 0,0) ">
<use xlink:href="#grid2_0_Layer0_0_1_STROKES"/>
</g>
</g>

<g transform="matrix( 1, 0, 0, 1, 320,96) ">
<g transform="matrix( 1, 0, 0, 1, 0,0) ">
<use xlink:href="#grid2_0_Layer0_0_1_STROKES"/>
</g>
</g>

<g transform="matrix( 1, 0, 0, 1, 352,96) ">
<g transform="matrix( 1, 0, 0, 1, 0,0) ">
<use xlink:href="#grid2_0_Layer0_0_1_STROKES"/>
</g>
</g>

<g transform="matrix( 1, 0, 0, 1, 384,96) ">
<g transform="matrix( 1, 0, 0, 1, 0,0) ">
<use xlink:href="#grid2_0_Layer0_0_1_STROKES"/>
</g>
</g>

<g transform="matrix( 1, 0, 0, 1, 416,96) ">
<g transform="matrix( 1, 0, 0, 1, 0,0) ">
<use xlink:href="#grid2_0_Layer0_0_1_STROKES"/>
</g>
</g>

<g transform="matrix( 1, 0, 0, 1, 448,96) ">
<g transform="matrix( 1, 0, 0, 1, 0,0) ">
<use xlink:href="#grid2_0_Layer0_0_1_STROKES"/>
</g>
</g>

<g transform="matrix( 1, 0, 0, 1, 480,96) ">
<g transform="matrix( 1, 0, 0, 1, 0,0) ">
<use xlink:href="#grid2_0_Layer0_0_1_STROKES"/>
</g>
</g>

<g transform="matrix( 1, 0, 0, 1, 0,128) ">
<g transform="matrix( 1, 0, 0, 1, 0,0) ">
<use xlink:href="#grid2_0_Layer0_0_1_STROKES"/>
</g>
</g>

<g transform="matrix( 1, 0, 0, 1, 32,128) ">
<g transform="matrix( 1, 0, 0, 1, 0,0) ">
<use xlink:href="#grid2_0_Layer0_0_1_STROKES"/>
</g>
</g>

<g transform="matrix( 1, 0, 0, 1, 64,128) ">
<g transform="matrix( 1, 0, 0, 1, 0,0) ">
<use xlink:href="#grid2_0_Layer0_0_1_STROKES"/>
</g>
</g>

<g transform="matrix( 1, 0, 0, 1, 96,128) ">
<g transform="matrix( 1, 0, 0, 1, 0,0) ">
<use xlink:href="#grid2_0_Layer0_0_1_STROKES"/>
</g>
</g>

<g transform="matrix( 1, 0, 0, 1, 128,128) ">
<g transform="matrix( 1, 0, 0, 1, 0,0) ">
<use xlink:href="#grid2_0_Layer0_0_1_STROKES"/>
</g>
</g>

<g transform="matrix( 1, 0, 0, 1, 160,128) ">
<g transform="matrix( 1, 0, 0, 1, 0,0) ">
<use xlink:href="#grid2_0_Layer0_0_1_STROKES"/>
</g>
</g>

<g transform="matrix( 1, 0, 0, 1, 192,128) ">
<g transform="matrix( 1, 0, 0, 1, 0,0) ">
<use xlink:href="#grid2_0_Layer0_0_1_STROKES"/>
</g>
</g>

<g transform="matrix( 1, 0, 0, 1, 224,128) ">
<g transform="matrix( 1, 0, 0, 1, 0,0) ">
<use xlink:href="#grid2_0_Layer0_0_1_STROKES"/>
</g>
</g>

<g transform="matrix( 1, 0, 0, 1, 256,128) ">
<g transform="matrix( 1, 0, 0, 1, 0,0) ">
<use xlink:href="#grid2_0_Layer0_0_1_STROKES"/>
</g>
</g>

<g transform="matrix( 1, 0, 0, 1, 288,128) ">
<g transform="matrix( 1, 0, 0, 1, 0,0) ">
<use xlink:href="#grid2_0_Layer0_0_1_STROKES"/>
</g>
</g>

<g transform="matrix( 1, 0, 0, 1, 320,128) ">
<g transform="matrix( 1, 0, 0, 1, 0,0) ">
<use xlink:href="#grid2_0_Layer0_0_1_STROKES"/>
</g>
</g>

<g transform="matrix( 1, 0, 0, 1, 352,128) ">
<g transform="matrix( 1, 0, 0, 1, 0,0) ">
<use xlink:href="#grid2_0_Layer0_0_1_STROKES"/>
</g>
</g>

<g transform="matrix( 1, 0, 0, 1, 384,128) ">
<g transform="matrix( 1, 0, 0, 1, 0,0) ">
<use xlink:href="#grid2_0_Layer0_0_1_STROKES"/>
</g>
</g>

<g transform="matrix( 1, 0, 0, 1, 416,128) ">
<g transform="matrix( 1, 0, 0, 1, 0,0) ">
<use xlink:href="#grid2_0_Layer0_0_1_STROKES"/>
</g>
</g>

<g transform="matrix( 1, 0, 0, 1, 448,128) ">
<g transform="matrix( 1, 0, 0, 1, 0,0) ">
<use xlink:href="#grid2_0_Layer0_0_1_STROKES"/>
</g>
</g>

<g transform="matrix( 1, 0, 0, 1, 480,128) ">
<g transform="matrix( 1, 0, 0, 1, 0,0) ">
<use xlink:href="#grid2_0_Layer0_0_1_STROKES"/>
</g>
</g>

<g transform="matrix( 1, 0, 0, 1, 0,160) ">
<g transform="matrix( 1, 0, 0, 1, 0,0) ">
<use xlink:href="#grid2_0_Layer0_0_1_STROKES"/>
</g>
</g>

<g transform="matrix( 1, 0, 0, 1, 32,160) ">
<g transform="matrix( 1, 0, 0, 1, 0,0) ">
<use xlink:href="#grid2_0_Layer0_0_1_STROKES"/>
</g>
</g>

<g transform="matrix( 1, 0, 0, 1, 64,160) ">
<g transform="matrix( 1, 0, 0, 1, 0,0) ">
<use xlink:href="#grid2_0_Layer0_0_1_STROKES"/>
</g>
</g>

<g transform="matrix( 1, 0, 0, 1, 96,160) ">
<g transform="matrix( 1, 0, 0, 1, 0,0) ">
<use xlink:href="#grid2_0_Layer0_0_1_STROKES"/>
</g>
</g>

<g transform="matrix( 1, 0, 0, 1, 128,160) ">
<g transform="matrix( 1, 0, 0, 1, 0,0) ">
<use xlink:href="#grid2_0_Layer0_0_1_STROKES"/>
</g>
</g>

<g transform="matrix( 1, 0, 0, 1, 160,160) ">
<g transform="matrix( 1, 0, 0, 1, 0,0) ">
<use xlink:href="#grid2_0_Layer0_0_1_STROKES"/>
</g>
</g>

<g transform="matrix( 1, 0, 0, 1, 192,160) ">
<g transform="matrix( 1, 0, 0, 1, 0,0) ">
<use xlink:href="#grid2_0_Layer0_0_1_STROKES"/>
</g>
</g>

<g transform="matrix( 1, 0, 0, 1, 224,160) ">
<g transform="matrix( 1, 0, 0, 1, 0,0) ">
<use xlink:href="#grid2_0_Layer0_0_1_STROKES"/>
</g>
</g>

<g transform="matrix( 1, 0, 0, 1, 256,160) ">
<g transform="matrix( 1, 0, 0, 1, 0,0) ">
<use xlink:href="#grid2_0_Layer0_0_1_STROKES"/>
</g>
</g>

<g transform="matrix( 1, 0, 0, 1, 288,160) ">
<g transform="matrix( 1, 0, 0, 1, 0,0) ">
<use xlink:href="#grid2_0_Layer0_0_1_STROKES"/>
</g>
</g>

<g transform="matrix( 1, 0, 0, 1, 320,160) ">
<g transform="matrix( 1, 0, 0, 1, 0,0) ">
<use xlink:href="#grid2_0_Layer0_0_1_STROKES"/>
</g>
</g>

<g transform="matrix( 1, 0, 0, 1, 352,160) ">
<g transform="matrix( 1, 0, 0, 1, 0,0) ">
<use xlink:href="#grid2_0_Layer0_0_1_STROKES"/>
</g>
</g>

<g transform="matrix( 1, 0, 0, 1, 384,160) ">
<g transform="matrix( 1, 0, 0, 1, 0,0) ">
<use xlink:href="#grid2_0_Layer0_0_1_STROKES"/>
</g>
</g>

<g transform="matrix( 1, 0, 0, 1, 416,160) ">
<g transform="matrix( 1, 0, 0, 1, 0,0) ">
<use xlink:href="#grid2_0_Layer0_0_1_STROKES"/>
</g>
</g>

<g transform="matrix( 1, 0, 0, 1, 448,160) ">
<g transform="matrix( 1, 0, 0, 1, 0,0) ">
<use xlink:href="#grid2_0_Layer0_0_1_STROKES"/>
</g>
</g>

<g transform="matrix( 1, 0, 0, 1, 480,160) ">
<g transform="matrix( 1, 0, 0, 1, 0,0) ">
<use xlink:href="#grid2_0_Layer0_0_1_STROKES"/>
</g>
</g>

<g transform="matrix( 1, 0, 0, 1, 0,192) ">
<g transform="matrix( 1, 0, 0, 1, 0,0) ">
<use xlink:href="#grid2_0_Layer0_0_1_STROKES"/>
</g>
</g>

<g transform="matrix( 1, 0, 0, 1, 32,192) ">
<g transform="matrix( 1, 0, 0, 1, 0,0) ">
<use xlink:href="#grid2_0_Layer0_0_1_STROKES"/>
</g>
</g>

<g transform="matrix( 1, 0, 0, 1, 64,192) ">
<g transform="matrix( 1, 0, 0, 1, 0,0) ">
<use xlink:href="#grid2_0_Layer0_0_1_STROKES"/>
</g>
</g>

<g transform="matrix( 1, 0, 0, 1, 96,192) ">
<g transform="matrix( 1, 0, 0, 1, 0,0) ">
<use xlink:href="#grid2_0_Layer0_0_1_STROKES"/>
</g>
</g>

<g transform="matrix( 1, 0, 0, 1, 128,192) ">
<g transform="matrix( 1, 0, 0, 1, 0,0) ">
<use xlink:href="#grid2_0_Layer0_0_1_STROKES"/>
</g>
</g>

<g transform="matrix( 1, 0, 0, 1, 160,192) ">
<g transform="matrix( 1, 0, 0, 1, 0,0) ">
<use xlink:href="#grid2_0_Layer0_0_1_STROKES"/>
</g>
</g>

<g transform="matrix( 1, 0, 0, 1, 192,192) ">
<g transform="matrix( 1, 0, 0, 1, 0,0) ">
<use xlink:href="#grid2_0_Layer0_0_1_STROKES"/>
</g>
</g>

<g transform="matrix( 1, 0, 0, 1, 224,192) ">
<g transform="matrix( 1, 0, 0, 1, 0,0) ">
<use xlink:href="#grid2_0_Layer0_0_1_STROKES"/>
</g>
</g>

<g transform="matrix( 1, 0, 0, 1, 256,192) ">
<g transform="matrix( 1, 0, 0, 1, 0,0) ">
<use xlink:href="#grid2_0_Layer0_0_1_STROKES"/>
</g>
</g>

<g transform="matrix( 1, 0, 0, 1, 288,192) ">
<g transform="matrix( 1, 0, 0, 1, 0,0) ">
<use xlink:href="#grid2_0_Layer0_0_1_STROKES"/>
</g>
</g>

<g transform="matrix( 1, 0, 0, 1, 320,192) ">
<g transform="matrix( 1, 0, 0, 1, 0,0) ">
<use xlink:href="#grid2_0_Layer0_0_1_STROKES"/>
</g>
</g>

<g transform="matrix( 1, 0, 0, 1, 352,192) ">
<g transform="matrix( 1, 0, 0, 1, 0,0) ">
<use xlink:href="#grid2_0_Layer0_0_1_STROKES"/>
</g>
</g>

<g transform="matrix( 1, 0, 0, 1, 384,192) ">
<g transform="matrix( 1, 0, 0, 1, 0,0) ">
<use xlink:href="#grid2_0_Layer0_0_1_STROKES"/>
</g>
</g>

<g transform="matrix( 1, 0, 0, 1, 416,192) ">
<g transform="matrix( 1, 0, 0, 1, 0,0) ">
<use xlink:href="#grid2_0_Layer0_0_1_STROKES"/>
</g>
</g>

<g transform="matrix( 1, 0, 0, 1, 448,192) ">
<g transform="matrix( 1, 0, 0, 1, 0,0) ">
<use xlink:href="#grid2_0_Layer0_0_1_STROKES"/>
</g>
</g>

<g transform="matrix( 1, 0, 0, 1, 480,192) ">
<g transform="matrix( 1, 0, 0, 1, 0,0) ">
<use xlink:href="#grid2_0_Layer0_0_1_STROKES"/>
</g>
</g>

<g transform="matrix( 1, 0, 0, 1, 0,224) ">
<g transform="matrix( 1, 0, 0, 1, 0,0) ">
<use xlink:href="#grid2_0_Layer0_0_1_STROKES"/>
</g>
</g>

<g transform="matrix( 1, 0, 0, 1, 32,224) ">
<g transform="matrix( 1, 0, 0, 1, 0,0) ">
<use xlink:href="#grid2_0_Layer0_0_1_STROKES"/>
</g>
</g>

<g transform="matrix( 1, 0, 0, 1, 64,224) ">
<g transform="matrix( 1, 0, 0, 1, 0,0) ">
<use xlink:href="#grid2_0_Layer0_0_1_STROKES"/>
</g>
</g>

<g transform="matrix( 1, 0, 0, 1, 96,224) ">
<g transform="matrix( 1, 0, 0, 1, 0,0) ">
<use xlink:href="#grid2_0_Layer0_0_1_STROKES"/>
</g>
</g>

<g transform="matrix( 1, 0, 0, 1, 128,224) ">
<g transform="matrix( 1, 0, 0, 1, 0,0) ">
<use xlink:href="#grid2_0_Layer0_0_1_STROKES"/>
</g>
</g>

<g transform="matrix( 1, 0, 0, 1, 160,224) ">
<g transform="matrix( 1, 0, 0, 1, 0,0) ">
<use xlink:href="#grid2_0_Layer0_0_1_STROKES"/>
</g>
</g>

<g transform="matrix( 1, 0, 0, 1, 192,224) ">
<g transform="matrix( 1, 0, 0, 1, 0,0) ">
<use xlink:href="#grid2_0_Layer0_0_1_STROKES"/>
</g>
</g>

<g transform="matrix( 1, 0, 0, 1, 224,224) ">
<g transform="matrix( 1, 0, 0, 1, 0,0) ">
<use xlink:href="#grid2_0_Layer0_0_1_STROKES"/>
</g>
</g>

<g transform="matrix( 1, 0, 0, 1, 256,224) ">
<g transform="matrix( 1, 0, 0, 1, 0,0) ">
<use xlink:href="#grid2_0_Layer0_0_1_STROKES"/>
</g>
</g>

<g transform="matrix( 1, 0, 0, 1, 288,224) ">
<g transform="matrix( 1, 0, 0, 1, 0,0) ">
<use xlink:href="#grid2_0_Layer0_0_1_STROKES"/>
</g>
</g>

<g transform="matrix( 1, 0, 0, 1, 320,224) ">
<g transform="matrix( 1, 0, 0, 1, 0,0) ">
<use xlink:href="#grid2_0_Layer0_0_1_STROKES"/>
</g>
</g>

<g transform="matrix( 1, 0, 0, 1, 352,224) ">
<g transform="matrix( 1, 0, 0, 1, 0,0) ">
<use xlink:href="#grid2_0_Layer0_0_1_STROKES"/>
</g>
</g>

<g transform="matrix( 1, 0, 0, 1, 384,224) ">
<g transform="matrix( 1, 0, 0, 1, 0,0) ">
<use xlink:href="#grid2_0_Layer0_0_1_STROKES"/>
</g>
</g>

<g transform="matrix( 1, 0, 0, 1, 416,224) ">
<g transform="matrix( 1, 0, 0, 1, 0,0) ">
<use xlink:href="#grid2_0_Layer0_0_1_STROKES"/>
</g>
</g>

<g transform="matrix( 1, 0, 0, 1, 448,224) ">
<g transform="matrix( 1, 0, 0, 1, 0,0) ">
<use xlink:href="#grid2_0_Layer0_0_1_STROKES"/>
</g>
</g>

<g transform="matrix( 1, 0, 0, 1, 480,224) ">
<g transform="matrix( 1, 0, 0, 1, 0,0) ">
<use xlink:href="#grid2_0_Layer0_0_1_STROKES"/>
</g>
</g>

<g transform="matrix( 1, 0, 0, 1, 0,256) ">
<g transform="matrix( 1, 0, 0, 1, 0,0) ">
<use xlink:href="#grid2_0_Layer0_0_1_STROKES"/>
</g>
</g>

<g transform="matrix( 1, 0, 0, 1, 32,256) ">
<g transform="matrix( 1, 0, 0, 1, 0,0) ">
<use xlink:href="#grid2_0_Layer0_0_1_STROKES"/>
</g>
</g>

<g transform="matrix( 1, 0, 0, 1, 64,256) ">
<g transform="matrix( 1, 0, 0, 1, 0,0) ">
<use xlink:href="#grid2_0_Layer0_0_1_STROKES"/>
</g>
</g>

<g transform="matrix( 1, 0, 0, 1, 96,256) ">
<g transform="matrix( 1, 0, 0, 1, 0,0) ">
<use xlink:href="#grid2_0_Layer0_0_1_STROKES"/>
</g>
</g>

<g transform="matrix( 1, 0, 0, 1, 128,256) ">
<g transform="matrix( 1, 0, 0, 1, 0,0) ">
<use xlink:href="#grid2_0_Layer0_0_1_STROKES"/>
</g>
</g>

<g transform="matrix( 1, 0, 0, 1, 160,256) ">
<g transform="matrix( 1, 0, 0, 1, 0,0) ">
<use xlink:href="#grid2_0_Layer0_0_1_STROKES"/>
</g>
</g>

<g transform="matrix( 1, 0, 0, 1, 192,256) ">
<g transform="matrix( 1, 0, 0, 1, 0,0) ">
<use xlink:href="#grid2_0_Layer0_0_1_STROKES"/>
</g>
</g>

<g transform="matrix( 1, 0, 0, 1, 224,256) ">
<g transform="matrix( 1, 0, 0, 1, 0,0) ">
<use xlink:href="#grid2_0_Layer0_0_1_STROKES"/>
</g>
</g>

<g transform="matrix( 1, 0, 0, 1, 256,256) ">
<g transform="matrix( 1, 0, 0, 1, 0,0) ">
<use xlink:href="#grid2_0_Layer0_0_1_STROKES"/>
</g>
</g>

<g transform="matrix( 1, 0, 0, 1, 288,256) ">
<g transform="matrix( 1, 0, 0, 1, 0,0) ">
<use xlink:href="#grid2_0_Layer0_0_1_STROKES"/>
</g>
</g>

<g transform="matrix( 1, 0, 0, 1, 320,256) ">
<g transform="matrix( 1, 0, 0, 1, 0,0) ">
<use xlink:href="#grid2_0_Layer0_0_1_STROKES"/>
</g>
</g>

<g transform="matrix( 1, 0, 0, 1, 352,256) ">
<g transform="matrix( 1, 0, 0, 1, 0,0) ">
<use xlink:href="#grid2_0_Layer0_0_1_STROKES"/>
</g>
</g>

<g transform="matrix( 1, 0, 0, 1, 384,256) ">
<g transform="matrix( 1, 0, 0, 1, 0,0) ">
<use xlink:href="#grid2_0_Layer0_0_1_STROKES"/>
</g>
</g>

<g transform="matrix( 1, 0, 0, 1, 416,256) ">
<g transform="matrix( 1, 0, 0, 1, 0,0) ">
<use xlink:href="#grid2_0_Layer0_0_1_STROKES"/>
</g>
</g>

<g transform="matrix( 1, 0, 0, 1, 448,256) ">
<g transform="matrix( 1, 0, 0, 1, 0,0) ">
<use xlink:href="#grid2_0_Layer0_0_1_STROKES"/>
</g>
</g>

<g transform="matrix( 1, 0, 0, 1, 480,256) ">
<g transform="matrix( 1, 0, 0, 1, 0,0) ">
<use xlink:href="#grid2_0_Layer0_0_1_STROKES"/>
</g>
</g>

<g transform="matrix( 1, 0, 0, 1, 0,288) ">
<g transform="matrix( 1, 0, 0, 1, 0,0) ">
<use xlink:href="#grid2_0_Layer0_0_1_STROKES"/>
</g>
</g>

<g transform="matrix( 1, 0, 0, 1, 32,288) ">
<g transform="matrix( 1, 0, 0, 1, 0,0) ">
<use xlink:href="#grid2_0_Layer0_0_1_STROKES"/>
</g>
</g>

<g transform="matrix( 1, 0, 0, 1, 64,288) ">
<g transform="matrix( 1, 0, 0, 1, 0,0) ">
<use xlink:href="#grid2_0_Layer0_0_1_STROKES"/>
</g>
</g>

<g transform="matrix( 1, 0, 0, 1, 96,288) ">
<g transform="matrix( 1, 0, 0, 1, 0,0) ">
<use xlink:href="#grid2_0_Layer0_0_1_STROKES"/>
</g>
</g>

<g transform="matrix( 1, 0, 0, 1, 128,288) ">
<g transform="matrix( 1, 0, 0, 1, 0,0) ">
<use xlink:href="#grid2_0_Layer0_0_1_STROKES"/>
</g>
</g>

<g transform="matrix( 1, 0, 0, 1, 160,288) ">
<g transform="matrix( 1, 0, 0, 1, 0,0) ">
<use xlink:href="#grid2_0_Layer0_0_1_STROKES"/>
</g>
</g>

<g transform="matrix( 1, 0, 0, 1, 192,288) ">
<g transform="matrix( 1, 0, 0, 1, 0,0) ">
<use xlink:href="#grid2_0_Layer0_0_1_STROKES"/>
</g>
</g>

<g transform="matrix( 1, 0, 0, 1, 224,288) ">
<g transform="matrix( 1, 0, 0, 1, 0,0) ">
<use xlink:href="#grid2_0_Layer0_0_1_STROKES"/>
</g>
</g>

<g transform="matrix( 1, 0, 0, 1, 256,288) ">
<g transform="matrix( 1, 0, 0, 1, 0,0) ">
<use xlink:href="#grid2_0_Layer0_0_1_STROKES"/>
</g>
</g>

<g transform="matrix( 1, 0, 0, 1, 288,288) ">
<g transform="matrix( 1, 0, 0, 1, 0,0) ">
<use xlink:href="#grid2_0_Layer0_0_1_STROKES"/>
</g>
</g>

<g transform="matrix( 1, 0, 0, 1, 320,288) ">
<g transform="matrix( 1, 0, 0, 1, 0,0) ">
<use xlink:href="#grid2_0_Layer0_0_1_STROKES"/>
</g>
</g>

<g transform="matrix( 1, 0, 0, 1, 352,288) ">
<g transform="matrix( 1, 0, 0, 1, 0,0) ">
<use xlink:href="#grid2_0_Layer0_0_1_STROKES"/>
</g>
</g>

<g transform="matrix( 1, 0, 0, 1, 384,288) ">
<g transform="matrix( 1, 0, 0, 1, 0,0) ">
<use xlink:href="#grid2_0_Layer0_0_1_STROKES"/>
</g>
</g>

<g transform="matrix( 1, 0, 0, 1, 416,288) ">
<g transform="matrix( 1, 0, 0, 1, 0,0) ">
<use xlink:href="#grid2_0_Layer0_0_1_STROKES"/>
</g>
</g>

<g transform="matrix( 1, 0, 0, 1, 448,288) ">
<g transform="matrix( 1, 0, 0, 1, 0,0) ">
<use xlink:href="#grid2_0_Layer0_0_1_STROKES"/>
</g>
</g>

<g transform="matrix( 1, 0, 0, 1, 480,288) ">
<g transform="matrix( 1, 0, 0, 1, 0,0) ">
<use xlink:href="#grid2_0_Layer0_0_1_STROKES"/>
</g>
</g>

<g transform="matrix( 1, 0, 0, 1, 0,320) ">
<g transform="matrix( 1, 0, 0, 1, 0,0) ">
<use xlink:href="#grid2_0_Layer0_0_1_STROKES"/>
</g>
</g>

<g transform="matrix( 1, 0, 0, 1, 32,320) ">
<g transform="matrix( 1, 0, 0, 1, 0,0) ">
<use xlink:href="#grid2_0_Layer0_0_1_STROKES"/>
</g>
</g>

<g transform="matrix( 1, 0, 0, 1, 64,320) ">
<g transform="matrix( 1, 0, 0, 1, 0,0) ">
<use xlink:href="#grid2_0_Layer0_0_1_STROKES"/>
</g>
</g>

<g transform="matrix( 1, 0, 0, 1, 96,320) ">
<g transform="matrix( 1, 0, 0, 1, 0,0) ">
<use xlink:href="#grid2_0_Layer0_0_1_STROKES"/>
</g>
</g>

<g transform="matrix( 1, 0, 0, 1, 128,320) ">
<g transform="matrix( 1, 0, 0, 1, 0,0) ">
<use xlink:href="#grid2_0_Layer0_0_1_STROKES"/>
</g>
</g>

<g transform="matrix( 1, 0, 0, 1, 160,320) ">
<g transform="matrix( 1, 0, 0, 1, 0,0) ">
<use xlink:href="#grid2_0_Layer0_0_1_STROKES"/>
</g>
</g>

<g transform="matrix( 1, 0, 0, 1, 192,320) ">
<g transform="matrix( 1, 0, 0, 1, 0,0) ">
<use xlink:href="#grid2_0_Layer0_0_1_STROKES"/>
</g>
</g>

<g transform="matrix( 1, 0, 0, 1, 224,320) ">
<g transform="matrix( 1, 0, 0, 1, 0,0) ">
<use xlink:href="#grid2_0_Layer0_0_1_STROKES"/>
</g>
</g>

<g transform="matrix( 1, 0, 0, 1, 256,320) ">
<g transform="matrix( 1, 0, 0, 1, 0,0) ">
<use xlink:href="#grid2_0_Layer0_0_1_STROKES"/>
</g>
</g>

<g transform="matrix( 1, 0, 0, 1, 288,320) ">
<g transform="matrix( 1, 0, 0, 1, 0,0) ">
<use xlink:href="#grid2_0_Layer0_0_1_STROKES"/>
</g>
</g>

<g transform="matrix( 1, 0, 0, 1, 320,320) ">
<g transform="matrix( 1, 0, 0, 1, 0,0) ">
<use xlink:href="#grid2_0_Layer0_0_1_STROKES"/>
</g>
</g>

<g transform="matrix( 1, 0, 0, 1, 352,320) ">
<g transform="matrix( 1, 0, 0, 1, 0,0) ">
<use xlink:href="#grid2_0_Layer0_0_1_STROKES"/>
</g>
</g>

<g transform="matrix( 1, 0, 0, 1, 384,320) ">
<g transform="matrix( 1, 0, 0, 1, 0,0) ">
<use xlink:href="#grid2_0_Layer0_0_1_STROKES"/>
</g>
</g>

<g transform="matrix( 1, 0, 0, 1, 416,320) ">
<g transform="matrix( 1, 0, 0, 1, 0,0) ">
<use xlink:href="#grid2_0_Layer0_0_1_STROKES"/>
</g>
</g>

<g transform="matrix( 1, 0, 0, 1, 448,320) ">
<g transform="matrix( 1, 0, 0, 1, 0,0) ">
<use xlink:href="#grid2_0_Layer0_0_1_STROKES"/>
</g>
</g>

<g transform="matrix( 1, 0, 0, 1, 480,320) ">
<g transform="matrix( 1, 0, 0, 1, 0,0) ">
<use xlink:href="#grid2_0_Layer0_0_1_STROKES"/>
</g>
</g>

<g transform="matrix( 1, 0, 0, 1, 0,352) ">
<g transform="matrix( 1, 0, 0, 1, 0,0) ">
<use xlink:href="#grid2_0_Layer0_0_1_STROKES"/>
</g>
</g>

<g transform="matrix( 1, 0, 0, 1, 32,352) ">
<g transform="matrix( 1, 0, 0, 1, 0,0) ">
<use xlink:href="#grid2_0_Layer0_0_1_STROKES"/>
</g>
</g>

<g transform="matrix( 1, 0, 0, 1, 64,352) ">
<g transform="matrix( 1, 0, 0, 1, 0,0) ">
<use xlink:href="#grid2_0_Layer0_0_1_STROKES"/>
</g>
</g>

<g transform="matrix( 1, 0, 0, 1, 96,352) ">
<g transform="matrix( 1, 0, 0, 1, 0,0) ">
<use xlink:href="#grid2_0_Layer0_0_1_STROKES"/>
</g>
</g>

<g transform="matrix( 1, 0, 0, 1, 128,352) ">
<g transform="matrix( 1, 0, 0, 1, 0,0) ">
<use xlink:href="#grid2_0_Layer0_0_1_STROKES"/>
</g>
</g>

<g transform="matrix( 1, 0, 0, 1, 160,352) ">
<g transform="matrix( 1, 0, 0, 1, 0,0) ">
<use xlink:href="#grid2_0_Layer0_0_1_STROKES"/>
</g>
</g>

<g transform="matrix( 1, 0, 0, 1, 192,352) ">
<g transform="matrix( 1, 0, 0, 1, 0,0) ">
<use xlink:href="#grid2_0_Layer0_0_1_STROKES"/>
</g>
</g>

<g transform="matrix( 1, 0, 0, 1, 224,352) ">
<g transform="matrix( 1, 0, 0, 1, 0,0) ">
<use xlink:href="#grid2_0_Layer0_0_1_STROKES"/>
</g>
</g>

<g transform="matrix( 1, 0, 0, 1, 256,352) ">
<g transform="matrix( 1, 0, 0, 1, 0,0) ">
<use xlink:href="#grid2_0_Layer0_0_1_STROKES"/>
</g>
</g>

<g transform="matrix( 1, 0, 0, 1, 288,352) ">
<g transform="matrix( 1, 0, 0, 1, 0,0) ">
<use xlink:href="#grid2_0_Layer0_0_1_STROKES"/>
</g>
</g>

<g transform="matrix( 1, 0, 0, 1, 320,352) ">
<g transform="matrix( 1, 0, 0, 1, 0,0) ">
<use xlink:href="#grid2_0_Layer0_0_1_STROKES"/>
</g>
</g>

<g transform="matrix( 1, 0, 0, 1, 352,352) ">
<g transform="matrix( 1, 0, 0, 1, 0,0) ">
<use xlink:href="#grid2_0_Layer0_0_1_STROKES"/>
</g>
</g>

<g transform="matrix( 1, 0, 0, 1, 384,352) ">
<g transform="matrix( 1, 0, 0, 1, 0,0) ">
<use xlink:href="#grid2_0_Layer0_0_1_STROKES"/>
</g>
</g>

<g transform="matrix( 1, 0, 0, 1, 416,352) ">
<g transform="matrix( 1, 0, 0, 1, 0,0) ">
<use xlink:href="#grid2_0_Layer0_0_1_STROKES"/>
</g>
</g>

<g transform="matrix( 1, 0, 0, 1, 448,352) ">
<g transform="matrix( 1, 0, 0, 1, 0,0) ">
<use xlink:href="#grid2_0_Layer0_0_1_STROKES"/>
</g>
</g>

<g transform="matrix( 1, 0, 0, 1, 480,352) ">
<g transform="matrix( 1, 0, 0, 1, 0,0) ">
<use xlink:href="#grid2_0_Layer0_0_1_STROKES"/>
</g>
</g>

<g transform="matrix( 1, 0, 0, 1, 0,384) ">
<g transform="matrix( 1, 0, 0, 1, 0,0) ">
<use xlink:href="#grid2_0_Layer0_0_1_STROKES"/>
</g>
</g>

<g transform="matrix( 1, 0, 0, 1, 32,384) ">
<g transform="matrix( 1, 0, 0, 1, 0,0) ">
<use xlink:href="#grid2_0_Layer0_0_1_STROKES"/>
</g>
</g>

<g transform="matrix( 1, 0, 0, 1, 64,384) ">
<g transform="matrix( 1, 0, 0, 1, 0,0) ">
<use xlink:href="#grid2_0_Layer0_0_1_STROKES"/>
</g>
</g>

<g transform="matrix( 1, 0, 0, 1, 96,384) ">
<g transform="matrix( 1, 0, 0, 1, 0,0) ">
<use xlink:href="#grid2_0_Layer0_0_1_STROKES"/>
</g>
</g>

<g transform="matrix( 1, 0, 0, 1, 128,384) ">
<g transform="matrix( 1, 0, 0, 1, 0,0) ">
<use xlink:href="#grid2_0_Layer0_0_1_STROKES"/>
</g>
</g>

<g transform="matrix( 1, 0, 0, 1, 160,384) ">
<g transform="matrix( 1, 0, 0, 1, 0,0) ">
<use xlink:href="#grid2_0_Layer0_0_1_STROKES"/>
</g>
</g>

<g transform="matrix( 1, 0, 0, 1, 192,384) ">
<g transform="matrix( 1, 0, 0, 1, 0,0) ">
<use xlink:href="#grid2_0_Layer0_0_1_STROKES"/>
</g>
</g>

<g transform="matrix( 1, 0, 0, 1, 224,384) ">
<g transform="matrix( 1, 0, 0, 1, 0,0) ">
<use xlink:href="#grid2_0_Layer0_0_1_STROKES"/>
</g>
</g>

<g transform="matrix( 1, 0, 0, 1, 256,384) ">
<g transform="matrix( 1, 0, 0, 1, 0,0) ">
<use xlink:href="#grid2_0_Layer0_0_1_STROKES"/>
</g>
</g>

<g transform="matrix( 1, 0, 0, 1, 288,384) ">
<g transform="matrix( 1, 0, 0, 1, 0,0) ">
<use xlink:href="#grid2_0_Layer0_0_1_STROKES"/>
</g>
</g>

<g transform="matrix( 1, 0, 0, 1, 320,384) ">
<g transform="matrix( 1, 0, 0, 1, 0,0) ">
<use xlink:href="#grid2_0_Layer0_0_1_STROKES"/>
</g>
</g>

<g transform="matrix( 1, 0, 0, 1, 352,384) ">
<g transform="matrix( 1, 0, 0, 1, 0,0) ">
<use xlink:href="#grid2_0_Layer0_0_1_STROKES"/>
</g>
</g>

<g transform="matrix( 1, 0, 0, 1, 384,384) ">
<g transform="matrix( 1, 0, 0, 1, 0,0) ">
<use xlink:href="#grid2_0_Layer0_0_1_STROKES"/>
</g>
</g>

<g transform="matrix( 1, 0, 0, 1, 416,384) ">
<g transform="matrix( 1, 0, 0, 1, 0,0) ">
<use xlink:href="#grid2_0_Layer0_0_1_STROKES"/>
</g>
</g>

<g transform="matrix( 1, 0, 0, 1, 448,384) ">
<g transform="matrix( 1, 0, 0, 1, 0,0) ">
<use xlink:href="#grid2_0_Layer0_0_1_STROKES"/>
</g>
</g>

<g transform="matrix( 1, 0, 0, 1, 480,384) ">
<g transform="matrix( 1, 0, 0, 1, 0,0) ">
<use xlink:href="#grid2_0_Layer0_0_1_STROKES"/>
</g>
</g>

<g transform="matrix( 1, 0, 0, 1, 0,416) ">
<g transform="matrix( 1, 0, 0, 1, 0,0) ">
<use xlink:href="#grid2_0_Layer0_0_1_STROKES"/>
</g>
</g>

<g transform="matrix( 1, 0, 0, 1, 32,416) ">
<g transform="matrix( 1, 0, 0, 1, 0,0) ">
<use xlink:href="#grid2_0_Layer0_0_1_STROKES"/>
</g>
</g>

<g transform="matrix( 1, 0, 0, 1, 64,416) ">
<g transform="matrix( 1, 0, 0, 1, 0,0) ">
<use xlink:href="#grid2_0_Layer0_0_1_STROKES"/>
</g>
</g>

<g transform="matrix( 1, 0, 0, 1, 96,416) ">
<g transform="matrix( 1, 0, 0, 1, 0,0) ">
<use xlink:href="#grid2_0_Layer0_0_1_STROKES"/>
</g>
</g>

<g transform="matrix( 1, 0, 0, 1, 128,416) ">
<g transform="matrix( 1, 0, 0, 1, 0,0) ">
<use xlink:href="#grid2_0_Layer0_0_1_STROKES"/>
</g>
</g>

<g transform="matrix( 1, 0, 0, 1, 160,416) ">
<g transform="matrix( 1, 0, 0, 1, 0,0) ">
<use xlink:href="#grid2_0_Layer0_0_1_STROKES"/>
</g>
</g>

<g transform="matrix( 1, 0, 0, 1, 192,416) ">
<g transform="matrix( 1, 0, 0, 1, 0,0) ">
<use xlink:href="#grid2_0_Layer0_0_1_STROKES"/>
</g>
</g>

<g transform="matrix( 1, 0, 0, 1, 224,416) ">
<g transform="matrix( 1, 0, 0, 1, 0,0) ">
<use xlink:href="#grid2_0_Layer0_0_1_STROKES"/>
</g>
</g>

<g transform="matrix( 1, 0, 0, 1, 256,416) ">
<g transform="matrix( 1, 0, 0, 1, 0,0) ">
<use xlink:href="#grid2_0_Layer0_0_1_STROKES"/>
</g>
</g>

<g transform="matrix( 1, 0, 0, 1, 288,416) ">
<g transform="matrix( 1, 0, 0, 1, 0,0) ">
<use xlink:href="#grid2_0_Layer0_0_1_STROKES"/>
</g>
</g>

<g transform="matrix( 1, 0, 0, 1, 320,416) ">
<g transform="matrix( 1, 0, 0, 1, 0,0) ">
<use xlink:href="#grid2_0_Layer0_0_1_STROKES"/>
</g>
</g>

<g transform="matrix( 1, 0, 0, 1, 352,416) ">
<g transform="matrix( 1, 0, 0, 1, 0,0) ">
<use xlink:href="#grid2_0_Layer0_0_1_STROKES"/>
</g>
</g>

<g transform="matrix( 1, 0, 0, 1, 384,416) ">
<g transform="matrix( 1, 0, 0, 1, 0,0) ">
<use xlink:href="#grid2_0_Layer0_0_1_STROKES"/>
</g>
</g>

<g transform="matrix( 1, 0, 0, 1, 416,416) ">
<g transform="matrix( 1, 0, 0, 1, 0,0) ">
<use xlink:href="#grid2_0_Layer0_0_1_STROKES"/>
</g>
</g>

<g transform="matrix( 1, 0, 0, 1, 448,416) ">
<g transform="matrix( 1, 0, 0, 1, 0,0) ">
<use xlink:href="#grid2_0_Layer0_0_1_STROKES"/>
</g>
</g>

<g transform="matrix( 1, 0, 0, 1, 480,416) ">
<g transform="matrix( 1, 0, 0, 1, 0,0) ">
<use xlink:href="#grid2_0_Layer0_0_1_STROKES"/>
</g>
</g>

<g transform="matrix( 1, 0, 0, 1, 0,448) ">
<g transform="matrix( 1, 0, 0, 1, 0,0) ">
<use xlink:href="#grid2_0_Layer0_0_1_STROKES"/>
</g>
</g>

<g transform="matrix( 1, 0, 0, 1, 32,448) ">
<g transform="matrix( 1, 0, 0, 1, 0,0) ">
<use xlink:href="#grid2_0_Layer0_0_1_STROKES"/>
</g>
</g>

<g transform="matrix( 1, 0, 0, 1, 64,448) ">
<g transform="matrix( 1, 0, 0, 1, 0,0) ">
<use xlink:href="#grid2_0_Layer0_0_1_STROKES"/>
</g>
</g>

<g transform="matrix( 1, 0, 0, 1, 96,448) ">
<g transform="matrix( 1, 0, 0, 1, 0,0) ">
<use xlink:href="#grid2_0_Layer0_0_1_STROKES"/>
</g>
</g>

<g transform="matrix( 1, 0, 0, 1, 128,448) ">
<g transform="matrix( 1, 0, 0, 1, 0,0) ">
<use xlink:href="#grid2_0_Layer0_0_1_STROKES"/>
</g>
</g>

<g transform="matrix( 1, 0, 0, 1, 160,448) ">
<g transform="matrix( 1, 0, 0, 1, 0,0) ">
<use xlink:href="#grid2_0_Layer0_0_1_STROKES"/>
</g>
</g>

<g transform="matrix( 1, 0, 0, 1, 192,448) ">
<g transform="matrix( 1, 0, 0, 1, 0,0) ">
<use xlink:href="#grid2_0_Layer0_0_1_STROKES"/>
</g>
</g>

<g transform="matrix( 1, 0, 0, 1, 224,448) ">
<g transform="matrix( 1, 0, 0, 1, 0,0) ">
<use xlink:href="#grid2_0_Layer0_0_1_STROKES"/>
</g>
</g>

<g transform="matrix( 1, 0, 0, 1, 256,448) ">
<g transform="matrix( 1, 0, 0, 1, 0,0) ">
<use xlink:href="#grid2_0_Layer0_0_1_STROKES"/>
</g>
</g>

<g transform="matrix( 1, 0, 0, 1, 288,448) ">
<g transform="matrix( 1, 0, 0, 1, 0,0) ">
<use xlink:href="#grid2_0_Layer0_0_1_STROKES"/>
</g>
</g>

<g transform="matrix( 1, 0, 0, 1, 320,448) ">
<g transform="matrix( 1, 0, 0, 1, 0,0) ">
<use xlink:href="#grid2_0_Layer0_0_1_STROKES"/>
</g>
</g>

<g transform="matrix( 1, 0, 0, 1, 352,448) ">
<g transform="matrix( 1, 0, 0, 1, 0,0) ">
<use xlink:href="#grid2_0_Layer0_0_1_STROKES"/>
</g>
</g>

<g transform="matrix( 1, 0, 0, 1, 384,448) ">
<g transform="matrix( 1, 0, 0, 1, 0,0) ">
<use xlink:href="#grid2_0_Layer0_0_1_STROKES"/>
</g>
</g>

<g transform="matrix( 1, 0, 0, 1, 416,448) ">
<g transform="matrix( 1, 0, 0, 1, 0,0) ">
<use xlink:href="#grid2_0_Layer0_0_1_STROKES"/>
</g>
</g>

<g transform="matrix( 1, 0, 0, 1, 448,448) ">
<g transform="matrix( 1, 0, 0, 1, 0,0) ">
<use xlink:href="#grid2_0_Layer0_0_1_STROKES"/>
</g>
</g>

<g transform="matrix( 1, 0, 0, 1, 480,448) ">
<g transform="matrix( 1, 0, 0, 1, 0,0) ">
<use xlink:href="#grid2_0_Layer0_0_1_STROKES"/>
</g>
</g>

<g transform="matrix( 1, 0, 0, 1, 0,480) ">
<g transform="matrix( 1, 0, 0, 1, 0,0) ">
<use xlink:href="#grid2_0_Layer0_0_1_STROKES"/>
</g>
</g>

<g transform="matrix( 1, 0, 0, 1, 32,480) ">
<g transform="matrix( 1, 0, 0, 1, 0,0) ">
<use xlink:href="#grid2_0_Layer0_0_1_STROKES"/>
</g>
</g>

<g transform="matrix( 1, 0, 0, 1, 64,480) ">
<g transform="matrix( 1, 0, 0, 1, 0,0) ">
<use xlink:href="#grid2_0_Layer0_0_1_STROKES"/>
</g>
</g>

<g transform="matrix( 1, 0, 0, 1, 96,480) ">
<g transform="matrix( 1, 0, 0, 1, 0,0) ">
<use xlink:href="#grid2_0_Layer0_0_1_STROKES"/>
</g>
</g>

<g transform="matrix( 1, 0, 0, 1, 128,480) ">
<g transform="matrix( 1, 0, 0, 1, 0,0) ">
<use xlink:href="#grid2_0_Layer0_0_1_STROKES"/>
</g>
</g>

<g transform="matrix( 1, 0, 0, 1, 160,480) ">
<g transform="matrix( 1, 0, 0, 1, 0,0) ">
<use xlink:href="#grid2_0_Layer0_0_1_STROKES"/>
</g>
</g>

<g transform="matrix( 1, 0, 0, 1, 192,480) ">
<g transform="matrix( 1, 0, 0, 1, 0,0) ">
<use xlink:href="#grid2_0_Layer0_0_1_STROKES"/>
</g>
</g>

<g transform="matrix( 1, 0, 0, 1, 224,480) ">
<g transform="matrix( 1, 0, 0, 1, 0,0) ">
<use xlink:href="#grid2_0_Layer0_0_1_STROKES"/>
</g>
</g>

<g transform="matrix( 1, 0, 0, 1, 256,480) ">
<g transform="matrix( 1, 0, 0, 1, 0,0) ">
<use xlink:href="#grid2_0_Layer0_0_1_STROKES"/>
</g>
</g>

<g transform="matrix( 1, 0, 0, 1, 288,480) ">
<g transform="matrix( 1, 0, 0, 1, 0,0) ">
<use xlink:href="#grid2_0_Layer0_0_1_STROKES"/>
</g>
</g>

<g transform="matrix( 1, 0, 0, 1, 320,480) ">
<g transform="matrix( 1, 0, 0, 1, 0,0) ">
<use xlink:href="#grid2_0_Layer0_0_1_STROKES"/>
</g>
</g>

<g transform="matrix( 1, 0, 0, 1, 352,480) ">
<g transform="matrix( 1, 0, 0, 1, 0,0) ">
<use xlink:href="#grid2_0_Layer0_0_1_STROKES"/>
</g>
</g>

<g transform="matrix( 1, 0, 0, 1, 384,480) ">
<g transform="matrix( 1, 0, 0, 1, 0,0) ">
<use xlink:href="#grid2_0_Layer0_0_1_STROKES"/>
</g>
</g>

<g transform="matrix( 1, 0, 0, 1, 416,480) ">
<g transform="matrix( 1, 0, 0, 1, 0,0) ">
<use xlink:href="#grid2_0_Layer0_0_1_STROKES"/>
</g>
</g>

<g transform="matrix( 1, 0, 0, 1, 448,480) ">
<g transform="matrix( 1, 0, 0, 1, 0,0) ">
<use xlink:href="#grid2_0_Layer0_0_1_STROKES"/>
</g>
</g>

<g transform="matrix( 1, 0, 0, 1, 480,480) ">
<g transform="matrix( 1, 0, 0, 1, 0,0) ">
<use xlink:href="#grid2_0_Layer0_0_1_STROKES"/>
</g>
</g>

<g transform="matrix( 1, 0, 0, 1, 512,0) ">
<g transform="matrix( 1, 0, 0, 1, 0,0) ">
<use xlink:href="#grid2_0_Layer0_0_1_STROKES"/>
</g>
</g>

<g transform="matrix( 1, 0, 0, 1, 512,32) ">
<g transform="matrix( 1, 0, 0, 1, 0,0) ">
<use xlink:href="#grid2_0_Layer0_0_1_STROKES"/>
</g>
</g>

<g transform="matrix( 1, 0, 0, 1, 512,64) ">
<g transform="matrix( 1, 0, 0, 1, 0,0) ">
<use xlink:href="#grid2_0_Layer0_0_1_STROKES"/>
</g>
</g>

<g transform="matrix( 1, 0, 0, 1, 512,96) ">
<g transform="matrix( 1, 0, 0, 1, 0,0) ">
<use xlink:href="#grid2_0_Layer0_0_1_STROKES"/>
</g>
</g>

<g transform="matrix( 1, 0, 0, 1, 512,128) ">
<g transform="matrix( 1, 0, 0, 1, 0,0) ">
<use xlink:href="#grid2_0_Layer0_0_1_STROKES"/>
</g>
</g>

<g transform="matrix( 1, 0, 0, 1, 512,160) ">
<g transform="matrix( 1, 0, 0, 1, 0,0) ">
<use xlink:href="#grid2_0_Layer0_0_1_STROKES"/>
</g>
</g>

<g transform="matrix( 1, 0, 0, 1, 512,192) ">
<g transform="matrix( 1, 0, 0, 1, 0,0) ">
<use xlink:href="#grid2_0_Layer0_0_1_STROKES"/>
</g>
</g>

<g transform="matrix( 1, 0, 0, 1, 512,224) ">
<g transform="matrix( 1, 0, 0, 1, 0,0) ">
<use xlink:href="#grid2_0_Layer0_0_1_STROKES"/>
</g>
</g>

<g transform="matrix( 1, 0, 0, 1, 512,256) ">
<g transform="matrix( 1, 0, 0, 1, 0,0) ">
<use xlink:href="#grid2_0_Layer0_0_1_STROKES"/>
</g>
</g>

<g transform="matrix( 1, 0, 0, 1, 512,288) ">
<g transform="matrix( 1, 0, 0, 1, 0,0) ">
<use xlink:href="#grid2_0_Layer0_0_1_STROKES"/>
</g>
</g>

<g transform="matrix( 1, 0, 0, 1, 512,320) ">
<g transform="matrix( 1, 0, 0, 1, 0,0) ">
<use xlink:href="#grid2_0_Layer0_0_1_STROKES"/>
</g>
</g>

<g transform="matrix( 1, 0, 0, 1, 512,352) ">
<g transform="matrix( 1, 0, 0, 1, 0,0) ">
<use xlink:href="#grid2_0_Layer0_0_1_STROKES"/>
</g>
</g>

<g transform="matrix( 1, 0, 0, 1, 512,384) ">
<g transform="matrix( 1, 0, 0, 1, 0,0) ">
<use xlink:href="#grid2_0_Layer0_0_1_STROKES"/>
</g>
</g>

<g transform="matrix( 1, 0, 0, 1, 512,416) ">
<g transform="matrix( 1, 0, 0, 1, 0,0) ">
<use xlink:href="#grid2_0_Layer0_0_1_STROKES"/>
</g>
</g>

<g transform="matrix( 1, 0, 0, 1, 512,448) ">
<g transform="matrix( 1, 0, 0, 1, 0,0) ">
<use xlink:href="#grid2_0_Layer0_0_1_STROKES"/>
</g>
</g>

<g transform="matrix( 1, 0, 0, 1, 512,480) ">
<g transform="matrix( 1, 0, 0, 1, 0,0) ">
<use xlink:href="#grid2_0_Layer0_0_1_STROKES"/>
</g>
</g>

<g transform="matrix( 1, 0, 0, 1, 0,512) ">
<g transform="matrix( 1, 0, 0, 1, 0,0) ">
<use xlink:href="#grid2_0_Layer0_0_1_STROKES"/>
</g>
</g>

<g transform="matrix( 1, 0, 0, 1, 32,512) ">
<g transform="matrix( 1, 0, 0, 1, 0,0) ">
<use xlink:href="#grid2_0_Layer0_0_1_STROKES"/>
</g>
</g>

<g transform="matrix( 1, 0, 0, 1, 64,512) ">
<g transform="matrix( 1, 0, 0, 1, 0,0) ">
<use xlink:href="#grid2_0_Layer0_0_1_STROKES"/>
</g>
</g>

<g transform="matrix( 1, 0, 0, 1, 96,512) ">
<g transform="matrix( 1, 0, 0, 1, 0,0) ">
<use xlink:href="#grid2_0_Layer0_0_1_STROKES"/>
</g>
</g>

<g transform="matrix( 1, 0, 0, 1, 128,512) ">
<g transform="matrix( 1, 0, 0, 1, 0,0) ">
<use xlink:href="#grid2_0_Layer0_0_1_STROKES"/>
</g>
</g>

<g transform="matrix( 1, 0, 0, 1, 160,512) ">
<g transform="matrix( 1, 0, 0, 1, 0,0) ">
<use xlink:href="#grid2_0_Layer0_0_1_STROKES"/>
</g>
</g>

<g transform="matrix( 1, 0, 0, 1, 192,512) ">
<g transform="matrix( 1, 0, 0, 1, 0,0) ">
<use xlink:href="#grid2_0_Layer0_0_1_STROKES"/>
</g>
</g>

<g transform="matrix( 1, 0, 0, 1, 224,512) ">
<g transform="matrix( 1, 0, 0, 1, 0,0) ">
<use xlink:href="#grid2_0_Layer0_0_1_STROKES"/>
</g>
</g>

<g transform="matrix( 1, 0, 0, 1, 256,512) ">
<g transform="matrix( 1, 0, 0, 1, 0,0) ">
<use xlink:href="#grid2_0_Layer0_0_1_STROKES"/>
</g>
</g>

<g transform="matrix( 1, 0, 0, 1, 288,512) ">
<g transform="matrix( 1, 0, 0, 1, 0,0) ">
<use xlink:href="#grid2_0_Layer0_0_1_STROKES"/>
</g>
</g>

<g transform="matrix( 1, 0, 0, 1, 320,512) ">
<g transform="matrix( 1, 0, 0, 1, 0,0) ">
<use xlink:href="#grid2_0_Layer0_0_1_STROKES"/>
</g>
</g>

<g transform="matrix( 1, 0, 0, 1, 352,512) ">
<g transform="matrix( 1, 0, 0, 1, 0,0) ">
<use xlink:href="#grid2_0_Layer0_0_1_STROKES"/>
</g>
</g>

<g transform="matrix( 1, 0, 0, 1, 384,512) ">
<g transform="matrix( 1, 0, 0, 1, 0,0) ">
<use xlink:href="#grid2_0_Layer0_0_1_STROKES"/>
</g>
</g>

<g transform="matrix( 1, 0, 0, 1, 416,512) ">
<g transform="matrix( 1, 0, 0, 1, 0,0) ">
<use xlink:href="#grid2_0_Layer0_0_1_STROKES"/>
</g>
</g>

<g transform="matrix( 1, 0, 0, 1, 448,512) ">
<g transform="matrix( 1, 0, 0, 1, 0,0) ">
<use xlink:href="#grid2_0_Layer0_0_1_STROKES"/>
</g>
</g>

<g transform="matrix( 1, 0, 0, 1, 480,512) ">
<g transform="matrix( 1, 0, 0, 1, 0,0) ">
<use xlink:href="#grid2_0_Layer0_0_1_STROKES"/>
</g>
</g>

<g transform="matrix( 1, 0, 0, 1, 512,512) ">
<g transform="matrix( 1, 0, 0, 1, 0,0) ">
<use xlink:href="#grid2_0_Layer0_0_1_STROKES"/>
</g>
</g>
</svg>
