<?xml version="1.0" encoding="UTF-8" standalone="no"?>
<!DOCTYPE svg  PUBLIC '-//W3C//DTD SVG 1.1//EN'  'http://www.w3.org/Graphics/SVG/1.1/DTD/svg11.dtd'>
<svg version="1.1" xmlns="http://www.w3.org/2000/svg">
<defs>
<font id="Odin-Bold" horiz-adv-x="547">
<font-face underline-position="-150" ascent="800" panose-1="2 15 0 0 0 0 0 0 0 0" x-height="467" underline-thickness="50" cap-height="700" unicode-range="U+0020-FB02" bbox="-15 -1044 3336 937.019" font-weight="700" descent="-200" units-per-em="1000" font-family="Odin"/>
<missing-glyph horiz-adv-x="360"/>
<glyph horiz-adv-x="867" glyph-name="AE" unicode="AELIGA" d="M243 262h177l-88 223zM604 117h165q24 0 41 -17t17 -42q0 -24 -17 -41t-41 -17h-204q-39 0 -54 37l-44 109h-271l-44 -109q-8 -17 -22 -27t-32 -10q-26 0 -42 18t-16 41q0 12 4 21l233 583q15 37 55 37h236q24 0 42 -17t17 -41q1 -25 -17 -42t-42 -17h-150l70 -175h164 q25 0 42 -17t17 -41t-17 -41t-42 -17h-118z"/>
<glyph horiz-adv-x="652" glyph-name="OE" unicode="OELIGA" d="M288 128v444q-58 -23 -94 -84t-37 -138q1 -77 37 -138t94 -84zM404 117h150q24 0 41 -17t17 -42q0 -24 -17 -41t-41 -17h-208q-126 0 -216 102t-90 248q0 88 38 168t109 130q72 52 162 52h205q24 0 41 -17t17 -41q0 -25 -17 -42t-41 -17h-150v-175h117q24 0 41 -17 t17 -41t-17 -41t-41 -17h-117v-175z"/>
<glyph horiz-adv-x="1334" glyph-name="t_h_e" unicode="thesmall" d="M127 117h1109q24 0 41 -17t17 -42q0 -24 -17 -41t-41 -17h-1109q-24 0 -41 17t-17 41q0 25 17 42t41 17zM1061 292h175q24 0 41 -17t17 -42q0 -24 -17 -41t-41 -17h-234q-24 0 -41 17t-17 41v397q0 25 17 42t41 17h234q24 0 41 -17t17 -42q0 -24 -17 -41t-41 -17h-175 v-76h116q23 0 41 -17t18 -42q0 -24 -18 -41t-41 -17h-116v-87zM536 175q-25 0 -42 17t-17 41v409q0 24 17 41t42 17q24 0 41 -17t17 -41v-146h147v146q0 24 17 41t41 17q25 0 42 -17t17 -41v-409q0 -24 -17 -41t-42 -17q-24 0 -41 17t-17 41v146h-147v-146q0 -24 -17 -41 t-41 -17zM157 583h-59q-24 0 -41 17t-17 42q0 24 17 41t41 17h239q25 0 42 -17t17 -41q0 -25 -17 -42t-42 -17h-64v-350q0 -24 -17 -41t-41 -17t-41 17t-17 41v350z"/>
<glyph horiz-adv-x="508" glyph-name="ampersand1" unicode="andsmall" d="M380 0h-262q-25 0 -42 17t-17 41q0 25 17 42t42 17h262q24 0 41 -17t17 -42q0 -24 -17 -41t-41 -17zM248 303l16 18l-66 83q-18 -4 -30 -20t-11 -35q1 -25 17 -41t40 -16q19 0 34 11zM418 316l37 -46q13 -16 13 -36q0 -24 -18 -42t-41 -17q-28 0 -45 22l-26 32l-13 -14 q-48 -40 -111 -40q-72 0 -123 51t-51 123q0 49 24 89t65 63q-9 26 -9 52q0 61 42 104t104 43q61 0 104 -43t43 -104q0 -24 -17 -41t-41 -17q-23 0 -41 17t-18 41q0 13 -8 21t-22 9q-12 -1 -21 -9t-9 -21q0 -11 7 -18l101 -127l22 24q18 19 43 19q24 0 41 -17t17 -41 q0 -23 -15 -40z"/>
<glyph horiz-adv-x="2987" glyph-name="b_a_r_o_n" unicode="Baron" d="M2889 0q-31 0 -48 25l-302 432v-399q1 -24 -17 -41t-42 -17t-41 17t-17 41v584q0 22 17 40t42 18q30 0 47 -25l302 -432v399q0 24 17 41t42 17q24 0 41 -17t17 -41v-584q0 -22 -17 -40t-41 -18zM1902 117h321q23 0 41 -17t18 -42q0 -24 -18 -41t-41 -17h-321 q-24 0 -41 17t-17 41q0 25 17 42t41 17zM2063 583q-55 -1 -93 -43t-38 -102q0 -62 38 -104t93 -42t93 42t38 104q0 60 -38 102t-93 43zM2063 175q-103 0 -175 77t-73 186q1 108 73 185t175 77t175 -77t73 -185q-1 -109 -73 -186t-175 -77zM1366 350h59q50 0 98 19 q77 30 77 98t-79 98q-21 9 -45 13t-38 4l-13 1h-59v-233zM1593 272l114 -183q9 -15 9 -31q0 -22 -16 -40t-42 -18q-33 0 -50 28l-131 209q-30 -4 -52 -4h-59v-175q0 -24 -17 -41t-41 -17t-41 17t-17 41v584q0 24 17 41t41 17h117q69 0 137 -26q74 -28 114 -82t40 -125 q0 -132 -123 -195zM794 262h177l-88 223zM937 663l233 -583q4 -9 4 -22q0 -22 -16 -40t-42 -18q-18 0 -32 10t-22 27l-44 109h-271l-44 -109q-7 -17 -21 -27t-33 -10q-25 0 -41 18t-17 40q0 13 4 22l233 583q15 37 55 37q17 0 32 -10t22 -27zM347 131q43 24 43 88 q0 36 -24 69t-71 33h-138v-204h138q26 0 52 14zM157 583v-146h87q10 0 21 2t28 8q17 7 28 23t11 40q0 30 -14 48t-25 22q-12 4 -26 3h-8h-102zM417 400q90 -59 90 -181q-1 -95 -65 -157t-140 -62h-204q-24 0 -41 17t-17 41v584q0 24 17 41t41 17h161q44 0 91 -23 q98 -49 98 -167q0 -63 -31 -110z"/>
<glyph horiz-adv-x="1684" glyph-name="n_e_w" unicode="newsmall" d="M1177 211l-170 408q-5 13 -5 23q0 38 36 53q13 5 23 5q38 0 53 -36l117 -279l28 68l-69 166q-4 9 -4 22q0 40 36 54q12 5 23 5q37 0 53 -36l25 -59l24 59q15 36 54 36q10 0 23 -5q35 -14 35 -54q0 -13 -4 -22l-69 -166l28 -68l117 279q15 36 53 36q10 0 23 -5 q36 -15 36 -53q0 -10 -5 -23l-170 -408q-15 -36 -54 -36t-54 36l-37 91l-38 -91q-15 -36 -54 -36t-54 36zM856 185h-233q-24 0 -41 17t-17 41v397q0 24 17 41t41 17h233q25 0 42 -17t17 -41t-17 -41t-42 -17h-175v-77h117q24 0 41 -17t17 -41t-17 -41t-41 -17h-117v-88h175 q25 0 42 -17t17 -41t-17 -41t-42 -17zM127 175q-24 0 -41 17t-17 41v409q-1 18 11 34t30 21q9 3 18 3q30 0 47 -25l180 -257v224q0 24 17 41t41 17q23 0 41 -17t18 -41v-409q0 -19 -12 -35t-29 -20q-9 -3 -18 -3q-29 0 -48 25l-179 257v-224q0 -24 -17 -41t-42 -17zM98 117 h1487q25 0 42 -17t17 -42q0 -24 -17 -41t-42 -17h-1487q-24 0 -41 17t-17 41q0 25 17 42t41 17z"/>
<glyph horiz-adv-x="1192" glyph-name="n_o_1" unicode="nosmall" d="M507 0q-31 0 -48 25l-302 432v-399q1 -24 -17 -41t-42 -17t-41 17t-17 41v584q0 19 11 34t30 21q6 2 17 2q32 0 48 -24l302 -432v399q0 24 17 41t42 17q24 0 41 -17t17 -41v-584q0 -22 -17 -40t-41 -18zM963 58q0 -24 -17 -41t-42 -17q-24 0 -41 17t-17 41q0 25 17 42 t41 17q25 0 42 -17t17 -42zM904 583q-54 -1 -92 -43t-39 -103q1 -61 39 -103t92 -42q56 0 94 42t38 103t-38 103t-94 43zM904 175q-102 0 -175 77t-73 185q0 109 73 186t175 77q104 0 176 -77t72 -186q0 -108 -72 -185t-176 -77z"/>
<glyph horiz-adv-x="1241" glyph-name="l_t_d" unicode="ltdsmall" d="M98 117h1040q25 0 42 -17t17 -42q0 -24 -17 -41t-42 -17h-1040q-24 0 -41 17t-17 41q0 25 17 42t41 17zM915 583v-291h60q30 0 57 19q52 35 52 127q0 91 -52 126q-27 19 -57 19h-60zM976 175h-120q-24 0 -41 17t-17 41v409q0 24 17 41t41 17h120q57 0 113 -34 q112 -68 112 -228q0 -161 -112 -229q-56 -34 -113 -34zM477 583h-58q-24 0 -41 17t-17 42q0 24 17 41t41 17h239q24 0 42 -17t17 -41q1 -25 -17 -42t-42 -17h-64v-350q0 -24 -17 -41t-41 -17q-25 0 -42 17t-17 41v350zM339 175h-241q-24 0 -41 17t-17 41v402q0 23 17 41 t41 18t42 -18t17 -41v-343h182q25 0 42 -17t17 -42q0 -24 -17 -41t-42 -17z"/>
<glyph horiz-adv-x="1829" glyph-name="w_i_t_h" unicode="withsmall" d="M156 117h1574q25 0 42 -17t17 -42q0 -24 -17 -41t-42 -17h-1574q-25 0 -42 17t-17 41q0 25 17 42t42 17zM1730 700q25 0 42 -17t17 -41v-409q0 -24 -17 -41t-42 -17q-24 0 -41 17t-17 41v146h-147v-146q0 -24 -17 -41t-41 -17q-25 0 -42 17t-17 41v409q0 24 17 41t42 17 q24 0 41 -17t17 -41v-146h147v146q0 24 17 41t41 17zM1088 583h-59q-24 0 -41 17t-17 42q0 24 17 41t41 17h239q25 0 42 -17t17 -41q0 -25 -17 -42t-42 -17h-64v-350q0 -24 -17 -41t-41 -17t-41 17t-17 41v350zM826 175q-24 0 -41 17t-17 41v409q0 24 17 41t41 17 q25 0 42 -17t17 -41v-409q0 -24 -17 -41t-42 -17zM269 175q-39 0 -54 36l-171 408q-4 9 -4 22q0 40 36 54q13 5 23 5q38 0 53 -36l117 -279l28 68l-69 166q-5 12 -5 23q0 38 36 53q13 5 23 5q39 0 54 -36l24 -59l25 59q14 36 54 36q13 0 22 -4q36 -16 36 -55q0 -13 -4 -22 l-70 -166l29 -68l116 279q17 36 54 36q10 0 23 -5q35 -14 35 -54q0 -13 -4 -22l-170 -408q-15 -36 -54 -36t-54 36l-38 91l-38 -91q-15 -36 -53 -36z"/>
<glyph horiz-adv-x="1101" glyph-name="f_i_v_e" unicode="fivestripe" d="M1054 610q7 -11 7 -27q0 -35 -32 -51l-114 -59v-415q0 -24 -17 -41t-41 -17q-25 0 -42 17t-17 41v354l-87 -45v-309q0 -24 -17 -41t-42 -17q-24 0 -41 17t-17 41v249l-87 -45v-204q0 -24 -17 -41t-42 -17q-24 0 -41 17t-17 41v144l-88 -46v-98q0 -24 -17 -41t-41 -17 t-41 17t-17 41v38l-61 -31q-16 -7 -27 -7q-34 0 -52 32q-6 12 -6 26q0 36 32 53l114 59v414q0 24 17 41t41 17t41 -17t17 -41v-354l88 45v309q0 24 17 41t41 17q25 0 42 -17t17 -41v-249l87 45v204q0 24 17 41t41 17q25 0 42 -17t17 -41v-143l87 45v98q0 24 17 41t42 17 q24 0 41 -17t17 -41v-38l61 31q11 7 27 7q35 0 51 -32z"/>
<glyph horiz-adv-x="360" glyph-name=".notdef"/>
<glyph horiz-adv-x="0" glyph-name=".null"/>
<glyph horiz-adv-x="333" glyph-name="nonmarkingreturn"/>
<glyph horiz-adv-x="268" glyph-name="space" unicode=" "/>
<glyph horiz-adv-x="197" glyph-name="exclam" unicode="!" d="M98 117q24 0 42 -17t17 -42q1 -24 -17 -41t-42 -17t-41 17t-17 41q0 25 17 42t41 17zM98 700q24 0 42 -17t17 -41v-409q1 -24 -17 -41t-42 -17t-41 17t-17 41v409q0 24 17 41t41 17z"/>
<glyph horiz-adv-x="384" glyph-name="quotedbl" unicode='&quot;' d="M256 497q-9 0 -18 3q-40 13 -40 55q0 10 3 19l29 87q6 18 22 29t33 11q10 0 19 -3q18 -6 29 -22t11 -33q0 -9 -32 -106q-6 -18 -22 -29t-34 -11zM98 496q-9 0 -18 3q-40 13 -40 55q0 10 3 19l29 87q6 18 22 29t33 11q10 0 19 -3q18 -5 29 -21t11 -34q0 -9 -32 -106 q-6 -18 -22 -29t-34 -11z"/>
<glyph horiz-adv-x="692" glyph-name="numbersign" unicode="#" d="M280 292h114l18 116h-114zM594 408h-64l-18 -116h53q24 0 41 -18t17 -41q0 -24 -17 -41t-41 -17h-71l-19 -125q-4 -22 -21 -36t-36 -14q-25 0 -42 18t-17 41q0 1 1 10q6 39 16 106h-113l-20 -125q-4 -22 -20 -36t-37 -14q-25 0 -42 18t-17 41q0 1 2 11q6 40 16 105h-47 q-24 0 -41 17t-17 41q0 23 17 41t41 18h64l18 116h-53q-24 0 -41 17t-17 42q0 24 17 41t41 17h71l19 125q5 22 21 36t37 14h4t5 -1q22 -4 36 -20t14 -37q0 -1 -2 -16q-7 -43 -16 -101h114l19 125q4 22 20 36t37 14h5t4 -1q22 -4 36 -20t14 -37q0 -1 -2 -14q-6 -42 -15 -103 h46q24 0 41 -17t17 -41q0 -25 -17 -42t-41 -17z"/>
<glyph horiz-adv-x="555" glyph-name="dollar" unicode="$" d="M313 304v-182q40 10 58 38t18 59q0 53 -76 85zM209 519q0 -46 33 -65v115q-33 -17 -33 -50zM386 401q65 -33 97 -71t32 -102q1 -100 -69 -164t-174 -64q-86 0 -159 60t-73 145q0 23 16 40t41 17q23 0 39 -14t20 -36q4 -33 28 -58t58 -33v207q-150 54 -150 191 q0 77 60 129t149 52q49 0 97 -24t48 -64q0 -25 -18 -41t-40 -16q-14 1 -39 13t-36 14v-152q44 -14 73 -29z"/>
<glyph horiz-adv-x="864" glyph-name="percent" unicode="%" d="M650 235q-24 0 -41 -17t-17 -41t17 -41t41 -17t41 17t17 41t-17 41t-41 17zM650 3q-72 0 -124 51t-51 123q-1 71 51 123t124 52t123 -52t51 -123q0 -72 -51 -123t-123 -51zM214 584q-24 0 -41 -17t-17 -41t17 -41t41 -17t41 17t17 41t-17 41t-41 17zM214 352 q-72 0 -123 51t-51 123t51 123t123 51t123 -51t51 -123t-51 -123t-123 -51zM214 0q-18 0 -35 12q-23 17 -23 46q0 18 12 35l435 581q17 23 46 23q20 0 35 -12q23 -17 23 -46q0 -20 -11 -35l-435 -581q-18 -23 -47 -23z"/>
<glyph horiz-adv-x="630" glyph-name="ampersand" unicode="&amp;" d="M322 139l32 35l-122 153q-33 -11 -54 -39t-21 -64q0 -44 30 -76t73 -31q36 0 62 22zM317 583q-28 0 -48 -20t-20 -48q0 -24 15 -42l21 -26h31q28 0 48 20t21 48v9q-4 26 -23 42t-45 17zM507 170l60 -75q13 -16 13 -36q0 -29 -22 -46q-16 -13 -37 -13q-29 0 -45 22l-48 60 q-17 -20 -27 -30q-61 -52 -141 -52q-92 0 -156 66t-64 158q0 63 32 116t86 82q-25 44 -25 93q0 77 54 131t130 54q77 0 131 -54t54 -131v-14q-4 -57 -40 -101t-91 -61l62 -77l56 63q16 19 43 19q22 0 39 -15q19 -16 19 -43q0 -24 -14 -39z"/>
<glyph horiz-adv-x="226" glyph-name="quotesingle" unicode="&apos;" d="M98 497q-9 0 -18 3q-40 13 -40 55q0 10 3 19l29 87q6 18 22 29t33 11q10 0 19 -3q18 -6 29 -22t11 -33q0 -9 -32 -106q-6 -18 -22 -29t-34 -11z"/>
<glyph horiz-adv-x="284" glyph-name="parenleft" unicode="(" d="M186 700q19 0 33 -11q25 -16 25 -47q0 -20 -10 -34q-5 -5 -21 -34t-36 -94t-20 -130t20 -130t36 -94t21 -34q10 -14 10 -34q0 -31 -25 -47q-16 -11 -33 -11q-31 0 -48 25q-6 9 -12 19t-24 45t-29 69q-13 34 -23 88q-10 53 -10 104t10 104q10 54 23 88q11 34 29 69t24 45 t12 19q17 25 48 25z"/>
<glyph horiz-adv-x="284" glyph-name="parenright" unicode=")" d="M98 0q-19 0 -33 11q-25 17 -25 47q0 18 11 34q-1 4 19 41t39 97t19 120q0 65 -20 130t-37 94q-16 29 -21 34q-10 14 -10 34q0 31 25 47q16 11 33 11q31 0 48 -25q6 -9 12 -19t24 -45t29 -69q13 -34 23 -88q10 -53 10 -104t-10 -104q-10 -54 -23 -88q-11 -34 -29 -69 t-24 -45t-12 -19q-17 -25 -48 -25z"/>
<glyph horiz-adv-x="320" glyph-name="asterisk" unicode="*" d="M242 580l21 -21q17 -19 17 -41q0 -24 -17 -41q-16 -17 -41 -17t-41 17l-21 20l-21 -20q-16 -17 -41 -17t-41 17q-17 16 -17 41q0 24 17 41l21 21l-21 20q-17 16 -17 41t17 42t41 17t41 -17l21 -21l21 21q17 17 41 17q22 0 41 -17q17 -19 17 -42q0 -24 -17 -41z"/>
<glyph glyph-name="plus" unicode="+" d="M332 408h116q24 0 42 -17t17 -41q1 -24 -17 -41t-42 -17h-116v-117q0 -24 -18 -41t-41 -17q-24 0 -41 17t-17 41v117h-117q-24 0 -41 17t-17 41t17 41t41 17h117v117q0 24 17 41t41 17q23 0 41 -17t18 -41v-117z"/>
<glyph horiz-adv-x="226" glyph-name="comma" unicode="," d="M98 -87q-9 0 -18 3q-40 13 -40 55q0 10 3 19l29 87q6 18 22 29t33 11q10 0 19 -3q18 -6 29 -22t11 -33q0 -9 -32 -106q-6 -18 -22 -29t-34 -11z"/>
<glyph horiz-adv-x="576" glyph-name="hyphen" unicode="-" d="M98 408h379q25 0 42 -17t17 -41t-17 -41t-42 -17h-379q-24 0 -41 17t-17 41t17 41t41 17z"/>
<glyph horiz-adv-x="197" glyph-name="period" unicode="." d="M98 117q24 0 42 -17t17 -42q1 -24 -17 -41t-42 -17t-41 17t-17 41q0 25 17 42t41 17z"/>
<glyph horiz-adv-x="313" glyph-name="slash" unicode="/" d="M226 699q21 -5 34 -21t13 -37q0 -7 -1 -11l-117 -583q-4 -21 -20 -34t-37 -13q-7 0 -11 1q-21 5 -34 21t-13 37q0 7 1 11l117 583q4 21 20 34t37 13q7 0 11 -1z"/>
<glyph horiz-adv-x="546" glyph-name="zero" unicode="0" d="M390 292v116q0 69 -32 122t-85 53t-85 -53t-32 -122v-116q0 -76 32 -126t85 -49q53 0 85 49t32 126zM440 616q66 -81 66 -208v-116q0 -128 -66 -210t-167 -82t-167 83t-66 209v116q0 124 68 208t165 84q99 0 167 -84z"/>
<glyph horiz-adv-x="254" glyph-name="one" unicode="1" d="M156 0q-24 0 -41 17t-17 41v525q-24 0 -41 17t-17 42q0 24 17 41t41 17h59q25 0 41 -17t16 -41v-584q0 -24 -17 -41t-41 -17z"/>
<glyph horiz-adv-x="494" glyph-name="two" unicode="2" d="M395 0h-296q-25 0 -42 17t-17 42v15q0 10 6 34q4 24 11 48t23 56t38 59q22 28 56 57t76 50q35 18 56 42q22 24 26 37q4 14 4 26v10q0 37 -26 63t-63 26t-63 -26t-26 -63q0 -25 -17 -42t-42 -17t-42 17t-17 42q0 85 61 146t146 61t145 -60t62 -145v-10q0 -19 -5 -41 t-19 -54t-46 -62q-33 -32 -81 -56q-102 -50 -134 -154h226q25 0 42 -17t17 -42t-17 -42t-42 -17z"/>
<glyph glyph-name="three" unicode="3" d="M413 420q94 -71 94 -187q-1 -97 -69 -165t-165 -68t-165 68t-68 165q0 25 17 42t41 17q25 0 42 -17t17 -42q0 -48 34 -82t82 -34q49 0 83 34t34 82q0 49 -34 83t-82 34q-25 0 -42 16t-17 42q1 28 19 42t40 16t40 17q18 14 18 42q0 24 -18 41t-41 17h-116q-25 0 -42 17 t-17 42q0 24 17 41t42 17h116q73 0 124 -52t51 -123q0 -59 -35 -105z"/>
<glyph horiz-adv-x="546" glyph-name="four" unicode="4" d="M302 463l-107 -200h107v200zM360 0q-24 0 -41 17t-17 41v88h-204q-32 0 -50 28q-8 12 -8 30q0 15 7 28l233 437q16 31 51 31h29q25 0 42 -17t17 -41v-379h29q24 1 41 -17t17 -42t-17 -41t-41 -17h-29v-88q0 -24 -17 -41t-42 -17z"/>
<glyph glyph-name="five" unicode="5" d="M273 467q97 -1 165 -69t69 -165q-1 -97 -69 -165t-165 -68t-165 68t-68 165q0 25 17 42t41 17q25 0 42 -17t17 -42q0 -48 34 -82t82 -34q49 0 83 34t34 82q0 47 -32 81t-78 36l-109 -27q-10 -2 -15 -2q-27 1 -42 19t-15 46l29 262q2 22 18 37t40 15h175q24 0 41 -17 t17 -41q0 -25 -17 -42t-41 -17h-123l-14 -127l35 9q10 2 14 2z"/>
<glyph glyph-name="six" unicode="6" d="M273 350q-48 0 -82 -34t-34 -83q0 -48 34 -82t82 -34q49 0 83 34t34 82q0 49 -34 83t-83 34zM273 0q-97 0 -165 68t-68 165q0 59 23 102l178 334q17 31 52 31q25 0 41 -18t17 -40q0 -15 -7 -28l-79 -148q3 1 8 1q97 -1 165 -69t69 -165q-1 -97 -69 -165t-165 -68z"/>
<glyph horiz-adv-x="488" glyph-name="seven" unicode="7" d="M98 0q-14 0 -26 6q-32 17 -32 52q0 14 6 26l249 499h-197q-24 0 -41 17t-17 42q0 24 17 41t41 17h292q33 0 49 -28q9 -14 9 -31q0 -13 -6 -25l-292 -584q-16 -32 -52 -32z"/>
<glyph glyph-name="eight" unicode="8" d="M273 117q49 0 83 34t34 82q0 49 -34 83t-83 34q-48 0 -82 -34t-34 -83q0 -48 34 -82t82 -34zM215 525q0 -24 17 -41t41 -17q23 0 41 17t18 41t-18 41t-41 17q-24 0 -41 -17t-17 -41zM413 420q94 -71 94 -187q-1 -97 -69 -165t-165 -68t-165 68t-68 165q0 56 25 105t68 82 q-35 46 -35 105q0 71 52 123t123 52q73 0 124 -52t51 -123q0 -59 -35 -105z"/>
<glyph glyph-name="nine" unicode="9" d="M273 350q49 0 83 34t34 83q0 48 -34 82t-83 34q-48 0 -82 -34t-34 -82q0 -49 34 -83t82 -34zM273 700q97 0 165 -68t69 -165q0 -51 -23 -102l-179 -334q-17 -31 -51 -31q-25 0 -42 18t-17 40q0 15 7 28l79 148q-2 -1 -8 -1q-97 1 -165 69t-68 165t68 165t165 68z"/>
<glyph horiz-adv-x="197" glyph-name="colon" unicode=":" d="M98 0q-24 0 -41 17t-17 42q0 24 17 41t41 17q25 0 42 -17t17 -41q0 -25 -17 -42t-42 -17zM98 292q-24 0 -41 17t-17 41t17 41t41 17q25 0 42 -17t17 -41t-17 -41t-42 -17z"/>
<glyph horiz-adv-x="226" glyph-name="semicolon" unicode=";" d="M98 -87q-9 0 -18 3q-40 13 -40 55q0 10 3 19l29 87q6 18 22 29t33 11q10 0 19 -3q18 -6 29 -22t11 -33q0 -9 -3 -18l-29 -88q-6 -18 -22 -29t-34 -11zM98 292q-24 0 -41 17t-17 41t17 41t41 17q25 0 42 -17t17 -41t-17 -41t-42 -17z"/>
<glyph horiz-adv-x="430" glyph-name="less" unicode="&lt;" d="M332 88q-22 0 -39 15l-233 204q-20 17 -20 44t20 44l233 204q15 14 39 14q26 0 44 -19q14 -17 14 -39q0 -26 -20 -44l-183 -160l183 -160q20 -18 20 -44q0 -22 -14 -39q-18 -20 -44 -20z"/>
<glyph horiz-adv-x="576" glyph-name="equal" unicode="=" d="M477 408h-379q-24 0 -41 17t-17 42q0 24 17 41t41 17h379q25 0 42 -17t17 -41q0 -25 -17 -42t-42 -17zM98 292h379q25 0 42 -17t17 -42q0 -24 -17 -41t-42 -17h-379q-24 0 -41 17t-17 41q0 25 17 42t41 17z"/>
<glyph horiz-adv-x="430" glyph-name="greater" unicode="&gt;" d="M98 88q-26 0 -44 20q-14 17 -14 39q0 26 20 44l183 160l-183 160q-20 18 -20 44q0 22 14 39q18 19 44 19q24 0 39 -14l233 -204q20 -17 20 -44t-20 -44l-233 -204q-17 -15 -39 -15z"/>
<glyph horiz-adv-x="488" glyph-name="question" unicode="?" d="M244 117q25 0 42 -17t17 -42q0 -24 -17 -41t-42 -17q-24 0 -41 17t-17 41q0 25 17 42t41 17zM244 700q84 0 144 -60t60 -144q0 -73 -28 -120t-91 -78q-13 -7 -19 -28t-7 -37q0 -24 -17 -41t-42 -17q-24 0 -41 17t-17 41q0 12 2 27q2 14 10 44t28 56t51 43t43 35t12 58 q0 36 -26 62t-62 25q-36 1 -62 -25t-25 -62q0 -24 -17 -42t-42 -17q-24 -1 -41 17t-17 42q0 84 60 144t144 60z"/>
<glyph horiz-adv-x="780" glyph-name="at" unicode="@" d="M379 257q34 0 58 27t24 66q0 38 -24 66t-58 27q-34 1 -58 -27t-24 -66t24 -66t58 -27zM390 700q146 0 248 -102t102 -248q0 -54 -15 -100t-35 -72t-42 -46q-24 -20 -36 -26l-18 -9q-10 -4 -17 -4q-4 0 -12 2q-78 19 -100 67l-7 22q-39 -21 -80 -21q-72 0 -124 55t-51 132 q-1 77 51 132t124 55q46 0 87 -25q13 25 41 25q18 1 32 -13t14 -34v-140v-140q0 -7 -1 -10q6 -4 20 -10q76 49 76 160q1 106 -75 182t-182 75q-106 1 -182 -75t-75 -182q-1 -106 75 -182t182 -75q42 0 78 13q10 2 14 2q33 0 45 -33q2 -5 2 -14q0 -34 -32 -44 q-54 -17 -107 -17q-146 0 -248 102t-102 248t102 248t248 102z"/>
<glyph horiz-adv-x="663" glyph-name="A" unicode="A" d="M243 262h177l-88 223zM386 663l233 -583q4 -9 4 -22q-1 -22 -17 -40t-41 -18q-19 0 -33 10t-21 27l-44 109h-271l-44 -109q-8 -17 -22 -27t-32 -10q-26 0 -42 18t-16 40q0 13 4 22l233 583q15 37 55 37q17 0 32 -10t22 -27z"/>
<glyph glyph-name="B" unicode="B" d="M347 131q43 24 43 88q0 36 -24 69t-71 33h-138v-204h138q26 0 52 14zM157 583v-146h87q10 0 21 2t28 8q17 7 28 23t11 40q0 30 -14 48t-25 22q-12 4 -26 3h-8h-102zM417 400q90 -59 90 -181q-1 -95 -65 -157t-140 -62h-204q-24 0 -41 17t-17 41v584q0 24 17 41t41 17h161 q44 0 91 -23q98 -49 98 -167q0 -63 -31 -110z"/>
<glyph horiz-adv-x="628" glyph-name="C" unicode="C" d="M501 145q14 7 28 7q8 0 17 -2q23 -6 35 -29q7 -13 7 -26q0 -9 -3 -18q-7 -23 -28 -35q-79 -42 -167 -42q-146 0 -248 102t-102 248t102 248t248 102q88 0 167 -42q21 -12 28 -35q3 -9 3 -18q0 -14 -7 -26q-12 -23 -35 -29q-9 -2 -17 -2q-14 0 -28 7q-49 28 -111 28 q-96 0 -164 -68t-69 -165q1 -97 69 -165t164 -68q62 0 111 28z"/>
<glyph horiz-adv-x="605" glyph-name="D" unicode="D" d="M157 583v-466h111q46 0 93 30q87 55 87 203q0 150 -91 205q-46 28 -89 28h-111zM268 0h-170q-24 0 -41 17t-17 41v584q0 24 17 41t41 17h170h18t42 -8q31 -7 59 -19t62 -38q35 -25 59 -61t40 -94t17 -130q-1 -72 -17 -130t-40 -94t-59 -61q-34 -26 -62 -38t-59 -19 q-31 -8 -42 -8h-18z"/>
<glyph horiz-adv-x="518" glyph-name="E" unicode="E" d="M419 117q25 0 42 -17t17 -42q0 -24 -17 -41t-42 -17h-320q-25 0 -42 17t-17 41v584q0 24 17 41t42 17h320q25 0 42 -17t17 -41q0 -25 -17 -42t-42 -17h-262v-175h204q24 0 41 -17t17 -41t-17 -41t-41 -17h-204v-175h262z"/>
<glyph glyph-name="F" unicode="F" d="M98 700h350q24 0 42 -17t17 -41q1 -25 -17 -42t-42 -17h-291v-175h233q24 0 41 -17t17 -41t-17 -41t-41 -17h-233v-234q1 -24 -17 -41t-42 -17t-41 17t-17 41v584q0 24 17 41t41 17z"/>
<glyph horiz-adv-x="694" glyph-name="G" unicode="G" d="M390 0q-146 0 -248 102t-102 248q0 145 102 247q101 103 248 103q145 0 248 -103q16 -16 16 -40q0 -25 -17 -42t-41 -17q-25 0 -41 17q-68 68 -165 68t-165 -68q-69 -69 -69 -165t69 -165q67 -69 165 -69q83 0 148 53v123h-146q-24 0 -42 17t-17 41q-1 24 17 41t42 17 h204q24 0 41 -17t17 -41v-206q0 -25 -17 -42q-102 -102 -247 -102z"/>
<glyph horiz-adv-x="576" glyph-name="H" unicode="H" d="M477 700q25 0 42 -17t17 -41v-584q0 -24 -17 -41t-42 -17q-24 0 -41 17t-17 41v234h-262v-234q1 -24 -17 -41t-42 -17t-41 17t-17 41v584q0 24 17 41t41 17t42 -17t17 -41v-234h262v234q0 24 17 41t41 17z"/>
<glyph horiz-adv-x="196" glyph-name="I" unicode="I" d="M98 0q-24 0 -41 17t-17 41v584q0 24 17 41t41 17t41 -17t17 -41v-584q0 -24 -17 -41t-41 -17z"/>
<glyph horiz-adv-x="343" glyph-name="J" unicode="J" d="M98 0q-24 0 -41 17t-17 41q0 25 17 42t41 17q26 -1 46 11t28 29t11 29t3 18v438q0 24 17 41t41 17q25 0 42 -17t17 -41v-438q0 -49 -25 -99q-52 -105 -180 -105z"/>
<glyph horiz-adv-x="546" glyph-name="K" unicode="K" d="M260 350l231 -252q15 -16 15 -40t-17 -41t-41 -17q-25 0 -43 19l-248 272v-233q1 -24 -17 -41t-42 -17t-41 17t-17 41v584q0 24 17 41t41 17t42 -17t17 -41v-233l248 272q17 19 43 19q24 0 41 -17t17 -41t-15 -40z"/>
<glyph horiz-adv-x="460" glyph-name="L" unicode="L" d="M361 0h-262q-25 0 -42 17t-17 41v584q0 24 17 41t42 17q24 0 41 -17t17 -41v-525h204q23 0 41 -17t18 -42q0 -24 -18 -41t-41 -17z"/>
<glyph horiz-adv-x="722" glyph-name="M" unicode="M" d="M623 0q-24 0 -41 17t-17 41v409l-157 -210q-18 -24 -47 -24t-47 24l-157 210v-409q0 -24 -17 -41t-42 -17q-24 0 -41 17t-17 41v584q0 24 17 41t42 17q29 0 46 -23l216 -288l216 288q17 23 46 23q25 0 42 -17t17 -41v-584q0 -24 -17 -41t-42 -17z"/>
<glyph horiz-adv-x="605" glyph-name="N" unicode="N" d="M507 0q-31 0 -48 25l-302 432v-399q1 -24 -17 -41t-42 -17t-41 17t-17 41v584q0 22 17 40t42 18q30 0 47 -25l302 -432v399q0 24 17 41t42 17q24 0 41 -17t17 -41v-584q0 -22 -17 -40t-41 -18z"/>
<glyph horiz-adv-x="751" glyph-name="O" unicode="O" d="M375 583q-90 0 -154 -68t-64 -165t64 -165t154 -68q91 0 155 68t64 165t-64 165t-155 68zM375 0q-139 0 -237 102t-98 248t98 248t237 102t237 -102t99 -248q-1 -146 -99 -248t-237 -102z"/>
<glyph horiz-adv-x="532" glyph-name="P" unicode="P" d="M157 583v-233h100q73 0 101 53q17 32 17 64q0 73 -56 101q-13 6 -29 10t-24 4l-9 1h-100zM98 0q-24 0 -41 17t-17 41v584q0 24 17 41t41 17h159q57 0 114 -28q121 -60 121 -205q0 -58 -28 -114q-29 -58 -83 -89t-124 -31h-100v-175q0 -24 -17 -41t-42 -17z"/>
<glyph horiz-adv-x="751" glyph-name="Q" unicode="Q" d="M375 117q55 0 102 26l-44 53q-14 17 -14 38q0 28 21 44q17 14 37 14q27 0 45 -21l38 -46q34 56 34 125q0 97 -64 165t-155 68q-90 0 -154 -68t-64 -165t64 -165t154 -68zM638 132l30 -36q14 -17 14 -37q0 -27 -21 -45q-15 -14 -38 -14q-27 0 -45 21l-26 32 q-80 -53 -177 -53q-139 0 -237 102t-98 248t98 248t237 102t237 -102t99 -248q0 -121 -73 -218z"/>
<glyph horiz-adv-x="532" glyph-name="R" unicode="R" d="M157 583v-233h100q73 0 101 53q17 32 17 64q0 73 -56 101q-13 6 -29 10t-24 4l-9 1h-100zM376 261l107 -172q9 -15 9 -31q0 -32 -28 -49q-14 -9 -30 -9q-33 0 -50 27l-129 206h-98v-175q1 -24 -17 -41t-42 -17t-41 17t-17 41v584q0 24 17 41t41 17h159q57 0 114 -28 q121 -60 121 -205q0 -58 -28 -114q-31 -61 -88 -92z"/>
<glyph horiz-adv-x="520" glyph-name="S" unicode="S" d="M270 436q22 -8 46 -18t66 -34q40 -24 68 -64t30 -87v-10q0 -90 -63 -153q-68 -68 -170 -68h-8q-64 2 -116 36t-78 90q-5 10 -5 25q0 38 34 53q10 5 24 5q39 0 54 -34q26 -56 91 -58h5q53 0 85 32q31 31 31 72v4q-2 31 -46 59t-82 39l-4 2q-155 56 -155 192v8q3 81 68 129 q58 45 137 45h9q63 -1 120 -44q23 -18 23 -46q0 -20 -12 -35q-18 -23 -47 -23q-20 0 -35 11q-23 18 -53 20h-6q-37 0 -62 -17t-26 -44v-4q0 -33 20 -51t57 -32z"/>
<glyph glyph-name="T" unicode="T" d="M98 700h350q24 0 42 -17t17 -41q1 -25 -17 -42t-42 -17h-116v-525q0 -24 -18 -41t-41 -17q-24 0 -41 17t-17 41v525h-117q-24 0 -41 17t-17 42q0 24 17 41t41 17z"/>
<glyph horiz-adv-x="575" glyph-name="U" unicode="U" d="M288 0q-76 0 -132 35t-87 101q-29 63 -29 127v379q0 24 17 41t41 17t41 -17t17 -41v-379q0 -11 4 -30t16 -47t42 -49q30 -20 70 -20t68 19q28 18 41 46q12 28 17 48t5 33v379q0 24 17 41t41 17t41 -17t17 -41v-379q0 -66 -28 -127q-31 -66 -87 -101t-132 -35z"/>
<glyph horiz-adv-x="663" glyph-name="V" unicode="V" d="M332 0q-40 0 -55 37l-233 583q-4 9 -4 21q0 23 16 41t42 18q18 0 32 -10t22 -27l180 -448l179 448q7 17 21 27t33 10q25 0 41 -18t17 -40q0 -13 -4 -22l-233 -583q-7 -17 -22 -27t-32 -10z"/>
<glyph horiz-adv-x="945" glyph-name="W" unicode="W" d="M869 695q36 -14 36 -54q0 -13 -4 -22l-244 -583q-15 -36 -53 -36q-39 0 -54 36l-77 185l-78 -185q-15 -36 -53 -36q-39 0 -54 36l-244 583q-4 9 -4 22q0 23 17 41t42 18q38 0 53 -36l190 -454l67 163l-102 246q-5 12 -5 23q0 22 17 40t42 18q38 0 53 -36l59 -140l58 140 q15 36 53 36q25 0 42 -18t17 -41q0 -13 -4 -22l-103 -246l68 -163l189 454q15 36 53 36q11 0 23 -5z"/>
<glyph horiz-adv-x="605" glyph-name="X" unicode="X" d="M374 350l180 -258q11 -17 11 -34q1 -22 -17 -40t-41 -18q-31 0 -48 25l-157 223l-156 -223q-17 -25 -48 -25q-24 0 -41 18t-17 40q0 19 11 34l180 258l-180 258q-11 14 -11 31q0 25 16 43t42 18q31 0 48 -25l156 -223l157 223q17 25 48 25q24 0 41 -18t17 -40 q0 -18 -11 -34z"/>
<glyph horiz-adv-x="605" glyph-name="Y" unicode="Y" d="M540 689q25 -17 25 -47q0 -18 -11 -34l-193 -276v-274q0 -24 -17 -41t-42 -17q-24 0 -41 17t-17 41v274l-193 276q-11 14 -11 31q0 25 16 43t42 18q31 0 48 -25l156 -223l157 223q17 25 48 25q17 0 33 -11z"/>
<glyph glyph-name="Z" unicode="Z" d="M448 0h-350q-24 0 -41 17t-17 42q0 17 8 29l297 495h-247q-24 0 -41 17t-17 41q0 25 17 42t41 17h350q22 0 40 -17t18 -41q0 -18 -8 -30l-297 -495h247q24 0 42 -17t17 -42q1 -24 -17 -41t-42 -17z"/>
<glyph horiz-adv-x="314" glyph-name="bracketleft" unicode="[" d="M99 700h117q24 0 41 -17t17 -42q0 -24 -17 -41t-41 -17h-59v-466h59q24 0 41 -17t17 -42q0 -24 -17 -41t-41 -17h-117q-23 0 -41 17t-18 41v584q0 24 18 41t41 17z"/>
<glyph horiz-adv-x="313" glyph-name="backslash" unicode="\" d="M87 699q4 1 11 1q21 0 37 -13t20 -34l117 -583q1 -4 1 -11q0 -21 -13 -37t-34 -21q-4 -1 -11 -1q-21 0 -37 13t-20 34l-117 583q-1 4 -1 11q0 21 13 37t34 21z"/>
<glyph horiz-adv-x="314" glyph-name="bracketright" unicode="]" d="M215 0h-117q-24 0 -41 17t-17 41q0 25 17 42t41 17h59v466h-59q-24 0 -41 17t-17 41q0 25 17 42t41 17h117q23 0 41 -17t18 -41v-584q0 -24 -18 -41t-41 -17z"/>
<glyph horiz-adv-x="451" glyph-name="asciicircum" unicode="^" d="M60 452q-20 18 -20 44q0 21 14 38l128 146q17 20 44 20t44 -20l127 -146q14 -15 14 -39q0 -27 -19 -43q-15 -14 -39 -14q-27 0 -44 20l-83 95l-84 -95q-16 -20 -44 -20q-23 0 -38 14z"/>
<glyph horiz-adv-x="576" glyph-name="underscore" unicode="_" d="M98 0h379q25 0 42 -17t17 -41t-17 -41t-42 -17h-379q-24 0 -41 17t-17 41t17 41t41 17z"/>
<glyph horiz-adv-x="313" glyph-name="grave" unicode="`" d="M189 531l-117 58q-32 17 -32 52q0 13 6 27q16 32 53 32q13 0 25 -6l117 -59q32 -17 32 -52q0 -14 -6 -26q-16 -32 -52 -32q-14 0 -26 6z"/>
<glyph horiz-adv-x="488" glyph-name="a" unicode="a" d="M318 170l5 12q-14 2 -34 2q-27 0 -51 -1q-63 -3 -79 -23q-3 -6 -3 -8v-2q1 -2 1 -3q3 -9 5 -13t14 -10t30 -6t38 4q2 1 4 1q49 9 70 47zM447 122l1 -64q0 -22 -17 -40t-41 -18q-37 0 -52 32q-32 -16 -69 -24q-56 -7 -63 -7q-64 0 -106 31t-56 88q-4 15 -4 33q0 43 26 77 q50 65 179 70h22t22 1q24 0 38 -2q-6 30 -20 39q-23 12 -50 12q-55 0 -97 -34q-16 -13 -37 -13q-27 0 -45 21q-13 16 -13 37q0 28 21 45q62 52 143 59q9 1 26 1q62 0 109 -26q36 -20 56 -60t24 -63q3 -22 3 -38v-157z"/>
<glyph horiz-adv-x="517" glyph-name="b" unicode="b" d="M259 117q42 0 72 34t30 82q0 49 -30 83t-72 34q-43 0 -73 -34t-29 -83q-1 -48 29 -82t73 -34zM259 467q90 -1 154 -69t64 -165t-64 -165t-154 -68q-59 0 -109 31q-17 -31 -52 -31q-24 0 -41 17t-17 41v584q0 24 17 41t41 17q25 0 42 -17t17 -41v-202q48 27 102 27z"/>
<glyph horiz-adv-x="422" glyph-name="c" unicode="c" d="M259 0q-91 0 -155 68t-64 165t64 165t155 69q47 0 90 -21q33 -14 33 -52q0 -13 -6 -25q-16 -34 -52 -34q-13 0 -25 6q-19 9 -40 9q-42 0 -72 -34t-30 -83q0 -48 30 -82t72 -34q21 0 40 9q10 5 24 5q37 0 53 -33q6 -12 6 -25q0 -37 -33 -53q-45 -20 -90 -20z"/>
<glyph glyph-name="d" unicode="d" d="M157 233q0 -48 34 -82t82 -34q49 0 83 34t34 82q0 49 -34 83t-83 34q-48 0 -82 -34t-34 -83zM40 233q0 97 68 165t165 69q63 0 117 -32v207q0 24 17 41t41 17q25 0 42 -17t17 -41v-584q0 -24 -17 -41t-42 -17q-38 0 -53 34q-57 -34 -122 -34q-97 0 -165 68t-68 165z"/>
<glyph horiz-adv-x="488" glyph-name="e" unicode="e" d="M174 302h145q-25 49 -75 49q-43 0 -70 -49zM258 0q-14 0 -18 1q-95 5 -150 74q-50 64 -50 159q0 97 60 165t144 68q88 0 146 -66q58 -63 58 -157q0 -24 -17 -42t-41 -17h-227q20 -66 83 -68h6q43 0 68 18q15 9 32 9q32 0 49 -26q10 -13 10 -31q0 -33 -27 -50 q-56 -37 -126 -37z"/>
<glyph horiz-adv-x="401" glyph-name="f" unicode="f" d="M302 467q25 1 42 -17t17 -42t-17 -41t-42 -17h-58v-292q0 -24 -17 -41t-41 -17t-42 17t-17 41v292h-29q-24 0 -41 17t-17 41t17 42t41 17h29v58q0 43 21 84q45 91 154 91q25 0 42 -17t17 -41q0 -25 -17 -42t-42 -17q-36 0 -48 -24q-10 -16 -10 -34v-58h58z"/>
<glyph horiz-adv-x="517" glyph-name="g" unicode="g" d="M259 117q42 0 72 34t30 83q0 48 -30 82t-72 34q-43 0 -73 -34t-29 -82q-1 -49 29 -83t73 -34zM477 234v-234q0 -88 -54 -154q-65 -79 -165 -79h-14q-50 4 -94 31t-72 71q-9 15 -9 31q0 32 27 49q14 10 32 10q31 0 48 -27q29 -45 76 -48h6q44 0 75 36q28 34 28 80v27 q-49 -27 -102 -27q-91 0 -155 68t-64 166q0 96 64 164t155 69q58 0 109 -31q16 31 51 31q24 0 41 -17t17 -41v-175z"/>
<glyph horiz-adv-x="488" glyph-name="h" unicode="h" d="M420 364q28 -50 28 -102v-204q0 -24 -17 -41t-42 -17q-24 0 -41 17t-17 41v204q0 24 -14 48q-25 40 -91 40h-70v-292q0 -24 -17 -41t-41 -17t-41 17t-17 41v584q0 24 17 41t41 17t41 -17t17 -41v-175h70q136 0 194 -103z"/>
<glyph horiz-adv-x="197" glyph-name="i" unicode="i" d="M157 612q1 -25 -17 -42t-42 -17t-41 17t-17 42q0 24 17 41t41 17t42 -17t17 -41zM98 0q-24 0 -41 17t-17 41v350q0 24 17 42t41 17q24 1 42 -17t17 -42v-350q1 -24 -17 -41t-42 -17z"/>
<glyph horiz-adv-x="314" glyph-name="j" unicode="j" d="M98 -175q-24 0 -41 17t-17 41q0 25 17 42t41 17q38 0 50 26q4 7 6 15t2 13l1 4v408q0 24 17 42t41 17q25 1 42 -17t17 -42v-408q0 -43 -21 -84q-45 -91 -155 -91zM274 612q0 -25 -17 -42t-41 -17q-25 0 -42 17t-17 42q0 24 17 41t42 17q24 0 41 -17t17 -41z"/>
<glyph horiz-adv-x="459" glyph-name="k" unicode="k" d="M268 233l134 -133q17 -17 17 -42q0 -24 -17 -41t-41 -17t-41 17l-163 163v-122q1 -24 -17 -41t-42 -17t-41 17t-17 41v584q0 24 17 41t41 17t42 -17t17 -41v-355l163 163q16 16 41 16q24 0 41 -16q17 -19 17 -42q0 -24 -17 -41z"/>
<glyph horiz-adv-x="197" glyph-name="l" unicode="l" d="M98 700q25 0 42 -17t17 -41v-584q0 -24 -17 -41t-42 -17q-24 0 -41 17t-17 41v584q0 24 17 41t41 17z"/>
<glyph horiz-adv-x="623" glyph-name="m" unicode="m" d="M418 467q56 0 96 -31t54 -70q15 -39 15 -80v-228q1 -24 -17 -41t-42 -17t-41 17t-17 41v228q0 20 -10 40q-11 24 -38 24q-28 0 -39 -24q-9 -21 -9 -40v-228q0 -24 -18 -41t-41 -17q-24 0 -41 17t-17 41v228q0 19 -9 40q-13 24 -39 24q-28 0 -39 -24q-9 -21 -9 -40v-228 q0 -24 -17 -41t-42 -17q-24 0 -41 17t-17 41v350q0 24 17 42t41 17q20 0 38 -14q31 14 69 14q64 0 106 -39q44 39 107 39z"/>
<glyph horiz-adv-x="488" glyph-name="n" unicode="n" d="M390 467q24 0 41 -17t17 -42v-350q0 -18 -10 -33t-28 -21q-9 -4 -21 -4q-26 0 -44 21l-188 226v-189q0 -24 -17 -41t-42 -17q-24 0 -41 17t-17 41v350q0 19 10 34t28 21q9 4 21 4q26 0 44 -21l189 -226v188q0 25 17 42t41 17z"/>
<glyph glyph-name="o" unicode="o" d="M273 117q49 0 83 34t34 82q0 49 -34 83t-83 34q-48 0 -82 -34t-34 -83q0 -48 34 -82t82 -34zM273 467q97 -1 165 -69t69 -165q-1 -97 -69 -165t-165 -68t-165 68t-68 165t68 165t165 69z"/>
<glyph glyph-name="p" unicode="p" d="M273 350q-48 0 -82 -34t-34 -82q0 -49 34 -83t82 -34q49 0 83 34t34 83q0 48 -34 82t-83 34zM98 -233q-24 0 -41 17t-17 41v584q0 24 17 41t41 17q38 0 53 -34q58 34 122 34q97 -1 165 -69t69 -164q-1 -98 -69 -166t-165 -68q-62 0 -116 32v-207q1 -24 -17 -41t-42 -17z "/>
<glyph glyph-name="q" unicode="q" d="M390 234q0 48 -34 82t-83 34q-48 0 -82 -34t-34 -82q0 -49 34 -83t82 -34q49 0 83 34t34 83zM507 -175q0 -24 -17 -41t-42 -17q-24 0 -41 17t-17 41v207q-54 -32 -117 -32q-97 0 -165 68t-68 166q0 96 68 164t165 69q65 0 122 -34q15 34 53 34q25 0 42 -17t17 -41v-584z "/>
<glyph horiz-adv-x="313" glyph-name="r" unicode="r" d="M215 467q24 0 41 -17t17 -42q0 -24 -17 -41t-41 -17q-42 0 -54 -18l-4 -11v-263q0 -24 -17 -41t-42 -17q-24 0 -41 17t-17 41v350q0 25 17 42t41 17q22 0 38 -14q34 14 79 14z"/>
<glyph horiz-adv-x="430" glyph-name="s" unicode="s" d="M291 294q92 -44 99 -119v-11q0 -61 -41 -105q-54 -59 -145 -59q-49 0 -91 23t-65 62q-8 14 -8 30q0 33 29 50q14 8 29 8q34 0 51 -30q15 -26 55 -26q41 0 59 21q11 11 11 27q-4 9 -30 22t-52 19q-3 0 -4 1q-130 37 -130 145q0 58 48 97t120 39q51 0 94 -27q28 -17 28 -50 q0 -16 -9 -31q-17 -27 -49 -27q-17 0 -32 9q-14 9 -32 9q-16 0 -28 -4t-18 -8q-5 -4 -5 -7q0 -20 44 -33q35 -8 72 -25z"/>
<glyph horiz-adv-x="430" glyph-name="t" unicode="t" d="M332 467q24 0 41 -17t17 -42q0 -24 -17 -41t-41 -17h-59v-292q0 -24 -17 -41t-41 -17t-41 17t-17 41v292h-59q-24 0 -41 17t-17 41q0 25 17 42t41 17h59v175q0 24 17 41t41 17t41 -17t17 -41v-175h59z"/>
<glyph horiz-adv-x="453" glyph-name="u" unicode="u" d="M355 467q24 0 41 -17t17 -42v-227q0 -45 -22 -88q-50 -93 -164 -93q-116 0 -164 93q-23 43 -23 88v227q0 25 17 42t41 17t42 -17t17 -42v-227q0 -18 10 -37q17 -27 60 -27q44 0 59 27q11 19 11 37v227q0 25 17 42t41 17z"/>
<glyph horiz-adv-x="529" glyph-name="v" unicode="v" d="M456 461q33 -16 33 -53q0 -13 -6 -25l-166 -350q-15 -33 -52 -33t-53 33l-166 350q-6 12 -6 25q0 37 33 53q12 6 25 6q37 0 53 -34l114 -239l113 239q16 34 53 34q13 0 25 -6z"/>
<glyph horiz-adv-x="688" glyph-name="w" unicode="w" d="M609 463q19 -5 29 -21t10 -34q0 -10 -3 -19l-123 -350q-14 -39 -55 -39t-55 39l-68 194l-68 -194q-14 -39 -55 -39t-55 39l-123 350q-3 9 -3 19q0 42 39 55q9 3 20 3q41 0 54 -38l68 -193l67 193q12 37 54 39h4q40 -2 53 -39l68 -193l68 193q13 38 54 38q9 0 20 -3z"/>
<glyph horiz-adv-x="459" glyph-name="x" unicode="x" d="M304 235l103 -138q12 -16 12 -36q0 -29 -23 -46q-16 -12 -35 -12q-29 0 -47 24l-83 111l-86 -115q-18 -23 -47 -23q-18 0 -35 12q-23 17 -23 46q0 18 12 35l106 142l-106 142q-12 15 -12 34q0 30 23 47q16 12 35 12q30 0 47 -23l86 -115l83 111q17 23 47 23q20 0 35 -11 q23 -17 23 -46q0 -19 -12 -36z"/>
<glyph horiz-adv-x="529" glyph-name="y" unicode="y" d="M483 383l-166 -350l-7 -11l-100 -221q-15 -34 -53 -34q-15 0 -25 5q-33 14 -33 53q0 14 5 24l95 211l-153 323q-6 12 -6 25q0 37 33 53q12 6 25 6q37 0 53 -34l114 -239l113 239q16 34 53 34q13 0 25 -6q33 -16 33 -53q0 -13 -6 -25z"/>
<glyph horiz-adv-x="488" glyph-name="z" unicode="z" d="M390 117q24 0 41 -17t17 -42q0 -24 -17 -41t-41 -17h-292q-37 0 -53 34q-5 10 -5 25q0 21 13 37l212 254h-167q-24 0 -41 17t-17 41q0 25 17 42t41 17h292q37 0 53 -34q5 -13 5 -24q0 -22 -13 -38l-212 -254h167z"/>
<glyph horiz-adv-x="401" glyph-name="braceleft" unicode="{" d="M273 117h29q25 0 42 -17t17 -42q0 -24 -17 -41t-42 -17h-58q-24 0 -41 17q-21 21 -40 59q-36 72 -36 157q-1 9 -19 31t-42 38l-16 16q-10 14 -10 32q0 32 26 49q19 12 36 30q25 25 25 38q0 85 36 157q19 38 40 59q17 17 41 17h58q25 0 42 -17t17 -41q0 -25 -17 -42 t-42 -17h-29q-29 -48 -29 -116q0 -59 -56 -117q56 -58 56 -117q0 -68 29 -116z"/>
<glyph horiz-adv-x="196" glyph-name="bar" unicode="|" d="M98 -59q-24 0 -41 17t-17 41v751q0 24 17 41t41 17t41 -17t17 -41v-751q0 -24 -17 -41t-41 -17z"/>
<glyph horiz-adv-x="401" glyph-name="braceright" unicode="}" d="M127 583h-29q-24 0 -41 17t-17 42q0 24 17 41t41 17h59q24 0 41 -17q32 -42 40 -59q35 -70 35 -157q0 -9 19 -31t43 -38l16 -16q10 -14 10 -32q0 -32 -26 -49q-1 1 -6 -3t-13 -12t-17 -15q-26 -26 -26 -38q0 -87 -35 -157q-8 -17 -40 -59q-17 -17 -41 -17h-59 q-24 0 -41 17t-17 41q0 25 17 42t41 17h29q30 46 30 116q0 59 56 117q-56 58 -56 117q0 70 -30 116z"/>
<glyph horiz-adv-x="401" glyph-name="asciitilde" unicode="~" d="M244 554q-24 0 -55 14t-40 15q-17 -29 -51 -29q-24 0 -41 17t-17 41q0 32 28 60t89 28q23 0 54 -14t41 -15q17 29 51 29q24 0 41 -17t17 -41q0 -44 -32 -66t-85 -22z"/>
<glyph horiz-adv-x="197" glyph-name="exclamdown" unicode="¡" d="M99 583q-23 0 -41 17t-18 42q0 24 18 41t41 17q24 0 41 -17t17 -41q0 -25 -17 -42t-41 -17zM99 0q-23 0 -41 17t-18 41v409q0 24 18 41t41 17q24 0 41 -17t17 -41v-409q0 -24 -17 -41t-41 -17z"/>
<glyph horiz-adv-x="544" glyph-name="sterling" unicode="£" d="M481 166q23 -17 23 -47q0 -24 -12 -36q-56 -67 -121 -80q-13 -3 -30 -3q-62 0 -110 49q-10 9 -21 9q-33 0 -71 -38q-16 -17 -41 -17t-41 16q-17 17 -17 42t16 41l6 5q4 5 10 9t16 12t20 14t22 13q13 7 26 11v128h-29q-24 0 -41 16t-17 42q0 24 17 41t41 17h29v116 q0 43 21 84q45 90 153 90h58q24 0 41 -17t17 -41t-17 -41t-41 -17h-58q-36 0 -50 -26l-8 -32v-116h87q24 0 41 -17t17 -41q0 -26 -17 -42t-41 -16h-87v-133q23 -11 41 -30q15 -15 28 -15h4l3 1q25 4 52 37q17 23 46 23q20 0 35 -11z"/>
<glyph horiz-adv-x="567" glyph-name="currency" unicode="¤" d="M222 288q25 -25 61 -25q37 0 62 25t25 62t-25 62q-26 26 -62 26q-9 0 -24 -6t-25 -12t-12 -8q-26 -25 -26 -62t26 -62zM510 577q17 -19 17 -42q0 -24 -17 -41l-47 -47q25 -45 25 -97t-25 -97l47 -47q17 -19 17 -42q0 -24 -17 -41t-41 -17t-41 17l-47 47q-45 -24 -98 -24 q-52 0 -97 24l-47 -47q-17 -17 -41 -17t-41 17q-17 16 -17 41t17 42l47 47q-25 45 -25 97t25 97l-47 47q-17 16 -17 41t17 42t41 17q22 0 41 -17l47 -47q45 24 97 24q53 0 98 -24l47 47q17 17 41 17t41 -17z"/>
<glyph horiz-adv-x="605" glyph-name="yen" unicode="¥" d="M540 689q25 -17 25 -47q0 -18 -11 -34l-160 -229h54q25 0 42 -17t17 -41q0 -25 -17 -42t-42 -17h-87v-29h87q25 0 42 -17t17 -41t-17 -41t-42 -17h-87v-59q0 -24 -17 -41t-42 -17q-24 0 -41 17t-17 41v59h-87q-25 0 -42 17t-17 41t17 41t42 17h87v29h-87q-25 0 -42 17 t-17 42q0 24 17 41t42 17h54l-160 229q-11 17 -11 34q0 28 25 47q14 10 33 10q32 0 48 -24l156 -223l157 223q17 25 48 25q17 0 33 -11z"/>
<glyph horiz-adv-x="196" glyph-name="brokenbar" unicode="¦" d="M98 379q-24 0 -41 17t-17 41v255q0 24 17 41t41 17t41 -17t17 -41v-255q0 -24 -17 -41t-41 -17zM98 -58q-24 0 -41 17t-17 41v262q0 25 17 42t41 17t41 -17t17 -42v-262q0 -24 -17 -41t-41 -17z"/>
<glyph horiz-adv-x="361" glyph-name="section" unicode="§" d="M181 401q-21 0 -40 -16t-19 -38q5 -21 21 -35t38 -13q22 0 40 16t18 38q-5 21 -21 35t-37 13zM264 246q57 -39 57 -106q0 -58 -41 -99t-99 -41q-50 0 -89 32t-49 80q-1 3 -1 9q0 13 10 25t23 14q3 1 8 1q13 1 25 -9t14 -23q5 -21 21 -35t38 -13q25 -1 42 17t17 42 q0 19 -13 33t-59 29l-5 2q-22 7 -38 15q-16 7 -38 23q-23 16 -35 42t-12 57q0 71 57 113q-57 40 -57 105q0 59 41 100t100 41q51 0 89 -32t48 -80q1 -3 1 -9q0 -13 -9 -25t-23 -14q-3 -1 -9 -1q-14 0 -26 9t-13 23q-5 21 -21 35t-37 13q-25 1 -43 -17t-17 -43q-1 -18 13 -32 t59 -29l6 -2q21 -8 37 -16t38 -22q22 -16 34 -42t13 -57q0 -71 -57 -113z"/>
<glyph horiz-adv-x="360" glyph-name="dieresis" unicode="¨" d="M320 584q0 -25 -17 -42t-41 -17t-41 17t-17 42q0 24 17 41t41 17t41 -17t17 -41zM157 584q0 -25 -17 -42t-41 -17q-25 0 -42 17t-17 42q0 24 17 41t42 17q24 0 41 -17t17 -41z"/>
<glyph horiz-adv-x="780" glyph-name="copyright" unicode="©" d="M555 185q69 69 69 165t-69 165q-68 68 -165 68t-165 -68t-68 -165q0 -98 68 -165q68 -68 165 -68t165 68zM638 597q102 -102 102 -247q0 -144 -102 -248q-102 -102 -248 -102q-145 0 -247 102q-103 103 -103 248t102 247q103 103 248 103q147 0 248 -103zM461 426 q-32 32 -77 32t-76 -31q-32 -32 -32 -77t31 -76q32 -32 77 -32t77 32q7 7 19 7q11 0 19 -7q7 -8 7 -20t-7 -19q-49 -47 -115 -47q-67 0 -114 47q-48 48 -48 115t48 115q47 47 114 47q66 0 115 -47q7 -8 7 -20t-7 -19q-10 -8 -19 -8q-11 0 -19 8z"/>
<glyph horiz-adv-x="602" glyph-name="guillemotleft" unicode="«" d="M288 391l176 175q19 17 41 17q23 0 40 -17t17 -41q0 -25 -17 -41l-134 -134l134 -134q17 -17 17 -41q0 -25 -17 -41q-17 -17 -41 -17q-23 0 -40 17l-176 175q-17 17 -17 40t17 42zM57 391l175 175q17 17 41 17q23 0 40 -17t17 -41q0 -25 -17 -41l-134 -134l134 -134 q17 -17 17 -41q0 -25 -17 -41q-17 -17 -40 -17q-24 0 -41 17l-175 175q-17 17 -17 41q0 22 17 41z"/>
<glyph horiz-adv-x="780" glyph-name="registered" unicode="®" d="M555 185q68 68 68 165t-68 165t-165 68t-165 -68t-68 -165q0 -98 68 -165q68 -68 165 -68t165 68zM638 597q102 -102 102 -247t-102 -247q-103 -103 -248 -103t-247 102q-103 103 -103 248t102 247q103 103 248 103t248 -103zM491 404q0 -68 -55 -95l-6 -3l56 -75 q5 -6 5 -16q0 -14 -11 -22q-7 -5 -16 -5q-13 0 -21 11l-81 108q-5 6 -5 17q0 7 2 11q8 15 24 15q15 0 29 7q25 13 25 47q0 33 -24 46q-16 8 -30 8h-40v-243q0 -11 -8 -19t-19 -8t-19 8t-8 19v270q0 11 8 19t19 8h67q28 0 53 -13q55 -27 55 -95z"/>
<glyph horiz-adv-x="428" glyph-name="degree" unicode="°" d="M214 584q-24 0 -41 -17t-17 -41t17 -41t41 -17t41 17t17 41t-17 41t-41 17zM214 352q-72 0 -123 51t-51 123t51 123t123 51t123 -51t51 -123t-51 -123t-123 -51z"/>
<glyph horiz-adv-x="488" glyph-name="plusminus" unicode="±" d="M98 292q-24 0 -41 17t-17 41t17 41t41 17h88v88q0 24 17 41t41 17t41 -17t17 -41v-88h88q24 0 41 -17t17 -41t-17 -41t-41 -17h-88v-88q0 -24 -17 -41t-41 -17t-41 17t-17 41v88h-88zM390 117q24 0 41 -17t17 -42q0 -24 -17 -41t-41 -17h-292q-24 0 -41 17t-17 41 q0 25 17 42t41 17h292z"/>
<glyph horiz-adv-x="313" glyph-name="twosuperior" unicode="²" d="M239 316h-165q-17 0 -28 14q-6 9 -6 20q0 3 2 11q2 7 10 26t35 53q26 34 58 55q36 23 48 35t12 31t-14 33t-34 14q-21 0 -35 -14t-14 -33q0 -14 -10 -24t-24 -10t-24 10t-10 24q0 47 34 81t83 34q48 0 82 -34t34 -81q1 -30 -15 -55q-16 -24 -30 -36t-45 -32 q-32 -21 -53 -54h109q14 0 24 -10t10 -24t-10 -24t-24 -10z"/>
<glyph horiz-adv-x="323" glyph-name="threesuperior" unicode="³" d="M244 512q39 -32 39 -83q0 -47 -36 -80t-86 -33q-49 0 -85 33t-36 80q0 14 10 24t24 10t24 -10t10 -24q0 -19 16 -32t37 -13q22 0 38 13t16 32q1 19 -15 33t-39 13q-14 0 -24 10t-10 24t10 24t24 10q16 0 27 9t11 22t-11 22t-27 9q-17 0 -27 -9t-10 -22q0 -14 -10 -24 t-24 -10t-24 10t-10 24q0 41 30 70t75 29q44 0 75 -29t31 -70q0 -34 -23 -62z"/>
<glyph horiz-adv-x="313" glyph-name="acute" unicode="´" d="M98 525q-36 0 -52 32q-6 12 -6 26q0 35 32 52l117 59q12 6 25 6q37 0 53 -32q6 -14 6 -27q0 -35 -32 -52l-117 -58q-12 -6 -26 -6z"/>
<glyph horiz-adv-x="454" glyph-name="mu" unicode="µ" d="M355 466q25 0 42 -17t17 -41v-227q0 -46 -23 -89q-48 -92 -164 -92q-37 0 -70 11v-70q0 -24 -17 -41t-41 -17q-25 0 -42 17t-17 41v467q0 24 17 41t42 17q24 0 41 -17t17 -41v-227q0 -18 11 -37q15 -28 59 -28t61 30q9 19 9 35v227q0 24 17 41t41 17z"/>
<glyph horiz-adv-x="486" glyph-name="paragraph" unicode="¶" d="M329 409v174h-85v-174h85zM388 698q24 0 41 -17t17 -41v-582q0 -24 -17 -41t-41 -17q-25 0 -42 17t-17 41v235h-27v-233q0 -24 -17 -42t-41 -17q-24 -1 -41 17t-17 42v241q-64 19 -105 73t-41 122q0 84 60 143t144 59h144z"/>
<glyph horiz-adv-x="181" glyph-name="onesuperior" unicode="¹" d="M107 316q-14 0 -24 10t-10 24v258q-13 1 -23 11t-10 23q0 14 10 24t24 10h33q13 0 23 -10t11 -24v-292q0 -14 -10 -24t-24 -10z"/>
<glyph horiz-adv-x="602" glyph-name="guillemotright" unicode="»" d="M314 391q17 -19 17 -42t-17 -40l-176 -175q-17 -17 -40 -17q-24 0 -41 17q-17 16 -17 41q0 24 17 41l134 134l-134 134q-17 16 -17 41q0 24 17 41t40 17q22 0 41 -17zM545 391q17 -19 17 -41q0 -24 -17 -41l-175 -175q-17 -17 -41 -17q-23 0 -40 17q-17 16 -17 41 q0 24 17 41l134 134l-134 134q-17 16 -17 41q0 24 17 41t40 17q24 0 41 -17z"/>
<glyph horiz-adv-x="642" glyph-name="onequarter" unicode="¼" d="M602 327v-262q0 -14 -10 -24t-24 -10t-24 10t-10 24v113h-112q-14 0 -24 10t-10 24v115q0 14 10 24t24 10t24 -10t11 -24v-81h77v81q0 14 10 24t24 10t24 -10t10 -24zM72 608q-12 0 -22 10t-10 24t10 24t24 10h32q14 0 24 -10t10 -24v-292q0 -14 -10 -24t-24 -10t-24 10 t-10 24v258zM514 691q27 -17 27 -49q0 -18 -10 -32l-379 -583q-16 -27 -49 -27q-17 0 -32 9q-26 17 -26 49q0 17 9 32l380 583q17 27 49 27q16 0 31 -9z"/>
<glyph horiz-adv-x="673" glyph-name="onehalf" unicode="½" d="M72 608q-12 1 -22 11t-10 23q0 14 10 24t24 10h32q14 0 24 -10t11 -24v-292q-1 -14 -11 -24t-24 -10t-24 10t-10 24v258zM543 146q-28 -17 -53 -54h109q14 0 24 -10t10 -24t-10 -24t-24 -10h-164q-18 0 -28 15q-7 8 -7 20q0 3 2 11l2 6l7 14t10 19q7 11 15 23t18 25 t24 25t28 22q35 22 47 35t12 31t-14 32t-34 14t-34 -14t-14 -32q0 -14 -10 -24t-24 -10t-24 10t-10 24q0 46 34 80t82 34t82 -34t34 -80q0 -23 -7 -42q-6 -18 -22 -34t-28 -24t-33 -24zM515 691q26 -17 26 -49q0 -17 -9 -32l-380 -583q-16 -27 -48 -27q-17 0 -32 9 q-27 17 -27 49q0 18 10 32l379 583q17 27 50 27q16 0 31 -9z"/>
<glyph horiz-adv-x="704" glyph-name="threequarters" unicode="¾" d="M664 321v-263q0 -14 -10 -24t-24 -10t-24 10t-10 24v114h-112q-14 0 -24 10t-10 24v115q0 14 10 24t24 10t24 -10t10 -24v-81h78v81q0 14 10 24t24 10t24 -10t10 -24zM283 432q1 -47 -35 -80t-86 -33t-86 33t-36 80q0 14 10 24t24 10t24 -10t10 -24q0 -19 16 -32t38 -13 t38 13t15 32q1 18 -15 32t-38 14q-14 0 -24 10t-10 24t10 24t24 10q15 0 26 9t11 22t-11 22t-26 9q-16 0 -27 -9t-11 -22q0 -14 -10 -24t-24 -10t-24 10t-10 24q0 41 31 70t75 29q43 0 74 -29t31 -70q0 -36 -23 -62q39 -34 39 -83zM573 691q26 -17 26 -49q0 -17 -9 -32 l-379 -583q-18 -27 -49 -27q-17 0 -32 9q-27 17 -27 49q0 18 10 32l379 583q17 27 50 27q16 0 31 -9z"/>
<glyph horiz-adv-x="500" glyph-name="questiondown" unicode="¿" d="M253 583q-24 0 -41 17t-17 42q0 24 17 41t41 17t41 -17t17 -41q0 -25 -17 -42t-41 -17zM250 0q-86 0 -148 62t-62 148q0 70 42 126t109 76v26q-1 24 17 41t42 17t41 -17t17 -41v-76q0 -25 -17 -42t-41 -17q-39 1 -66 -27t-27 -66q-1 -38 27 -66t66 -27q32 -1 52 15t28 38 t14 44t20 38t38 16t41 -17t17 -41q0 -86 -62 -148t-148 -62z"/>
<glyph horiz-adv-x="663" glyph-name="Agrave" unicode="À" d="M243 262h89h88l-88 223zM386 663l233 -583q4 -9 4 -22q-1 -22 -17 -40t-41 -18q-19 0 -33 10t-21 27l-44 109h-271l-44 -109q-8 -17 -22 -27t-32 -10q-26 0 -42 18t-16 40q0 13 4 22l233 583q15 37 55 37q17 0 32 -10t22 -27zM390 725q-14 0 -26 6l-117 58q-32 15 -32 53 q0 14 6 26q15 31 54 31q14 0 24 -5l117 -59q32 -17 32 -52q0 -14 -6 -26q-16 -32 -52 -32z"/>
<glyph horiz-adv-x="663" glyph-name="Aacute" unicode="Á" d="M331 485l-88 -223h177zM44 80l233 583q7 17 22 27t32 10q40 0 55 -37l233 -583q4 -9 4 -22q-1 -22 -17 -40t-41 -18q-19 0 -33 10t-21 27l-44 109h-271l-44 -109q-8 -17 -22 -27t-32 -10q-26 0 -42 18t-16 40q0 13 4 22zM273 725q-36 0 -52 32q-6 12 -6 26q0 35 32 52 l117 59q12 6 25 6q37 0 53 -32q6 -12 6 -26q0 -37 -32 -53l-117 -58q-12 -6 -26 -6z"/>
<glyph horiz-adv-x="663" glyph-name="Acircumflex" unicode="Â" d="M331 900q13 0 27 -6l116 -59q32 -18 32 -51q0 -14 -6 -27q-15 -32 -52 -32q-14 0 -26 6l-91 45l-90 -45q-14 -6 -26 -6q-36 0 -52 32q-6 13 -6 27q0 33 32 51l116 59q13 6 26 6zM331 485l-88 -223h177zM44 80l233 583q7 17 22 27t32 10q40 0 55 -37l233 -583q4 -9 4 -22 q-1 -22 -17 -40t-41 -18q-19 0 -33 10t-21 27l-44 109h-271l-44 -109q-8 -17 -22 -27t-32 -10q-26 0 -42 18t-16 40q0 13 4 22z"/>
<glyph horiz-adv-x="663" glyph-name="Atilde" unicode="Ã" d="M243 262h89h88l-88 223zM386 663l233 -583q4 -9 4 -22q-1 -22 -17 -40t-41 -18q-19 0 -33 10t-21 27l-44 109h-271l-44 -109q-8 -17 -22 -27t-32 -10q-26 0 -42 18t-16 40q0 13 4 22l233 583q15 37 55 37q17 0 32 -10t22 -27zM375 754q-23 0 -55 14t-40 15 q-17 -29 -51 -29q-24 0 -41 17t-17 41q-1 32 27 60t90 28q23 0 54 -14t41 -15q17 29 51 29q24 0 41 -17t17 -41q0 -44 -32 -66t-85 -22z"/>
<glyph horiz-adv-x="663" glyph-name="Adieresis" unicode="Ä" d="M331 485l-88 -223h177zM44 80l233 583q7 17 22 27t32 10q40 0 55 -37l233 -583q4 -9 4 -22q-1 -22 -17 -40t-41 -18q-19 0 -33 10t-21 27l-44 109h-271l-44 -109q-8 -17 -22 -27t-32 -10q-26 0 -42 18t-16 40q0 13 4 22zM471 842q0 -25 -17 -42t-41 -17t-41 17t-17 42 q0 24 17 41t41 17t41 -17t17 -41zM308 842q0 -25 -17 -42t-41 -17t-42 17t-17 42q-1 24 17 41t42 17t41 -17t17 -41z"/>
<glyph horiz-adv-x="663" glyph-name="Aring" unicode="Å" d="M243 262h89h88l-88 223zM331 820q-24 0 -41 -17t-17 -41t17 -42t41 -17q25 -1 42 17t17 42t-17 41t-42 17zM409 605l210 -525q4 -9 4 -22q-1 -22 -17 -40t-41 -18q-19 0 -33 10t-21 27l-44 109h-271l-44 -109q-8 -17 -22 -27t-32 -10q-26 0 -42 18t-16 40q0 13 4 22 l210 525q-44 22 -71 64t-27 93q0 72 52 124t123 51q73 1 124 -51t51 -124q0 -51 -26 -93t-71 -64z"/>
<glyph glyph-name="Egrave" unicode="È" d="M157 117h291q24 0 42 -17t17 -42q1 -24 -17 -41t-42 -17h-350q-24 0 -41 17t-17 41v584q0 24 17 41t41 17h350q24 0 42 -17t17 -41q1 -25 -17 -42t-42 -17h-291v-175h233q24 0 41 -17t17 -41t-17 -41t-41 -17h-233v-175zM332 725q-14 0 -26 6l-117 58q-32 15 -32 53 q0 14 6 26q15 32 53 32q13 0 25 -6l117 -59q32 -17 32 -52q0 -14 -6 -26q-16 -32 -52 -32z"/>
<glyph glyph-name="Eacute" unicode="É" d="M157 117h291q24 0 42 -17t17 -42q1 -24 -17 -41t-42 -17h-350q-24 0 -41 17t-17 41v584q0 24 17 41t41 17h350q24 0 42 -17t17 -41q1 -25 -17 -42t-42 -17h-291v-175h233q24 0 41 -17t17 -41t-17 -41t-41 -17h-233v-175zM215 725q-36 0 -52 32q-6 12 -6 26q0 35 32 52 l117 59q12 6 25 6q37 0 53 -32q6 -12 6 -26q0 -37 -32 -53l-117 -58q-12 -6 -26 -6z"/>
<glyph glyph-name="Ecircumflex" unicode="Ê" d="M157 117h291q24 0 42 -17t17 -42q1 -24 -17 -41t-42 -17h-350q-24 0 -41 17t-17 41v584q0 24 17 41t41 17h350q24 0 42 -17t17 -41q1 -25 -17 -42t-42 -17h-291v-175h233q24 0 41 -17t17 -41t-17 -41t-41 -17h-233v-175zM273 900q13 0 27 -6l116 -59q32 -18 32 -51 q0 -14 -6 -27q-15 -32 -52 -32q-14 0 -26 6l-91 45l-90 -45q-14 -6 -26 -6q-36 0 -52 32q-6 13 -6 27q0 33 32 51l116 59q13 6 26 6z"/>
<glyph glyph-name="Edieresis" unicode="Ë" d="M157 117h291q24 0 42 -17t17 -42q1 -24 -17 -41t-42 -17h-350q-24 0 -41 17t-17 41v584q0 24 17 41t41 17h350q24 0 42 -17t17 -41q1 -25 -17 -42t-42 -17h-291v-175h233q24 0 41 -17t17 -41t-17 -41t-41 -17h-233v-175zM413 842q0 -25 -17 -42t-41 -17t-41 17t-17 42 q0 24 17 41t41 17t41 -17t17 -41zM250 842q0 -25 -17 -42t-41 -17t-42 17t-17 42q-1 24 17 41t42 17t41 -17t17 -41z"/>
<glyph horiz-adv-x="203" glyph-name="Igrave" unicode="Ì" d="M102 0q-25 0 -42 17t-17 41v584q0 24 17 41t42 17q24 0 41 -17t17 -41v-584q0 -24 -17 -41t-41 -17zM160 725q-14 0 -26 6l-117 58q-32 15 -32 53q0 14 6 26q15 32 52 32q14 0 26 -6l117 -59q32 -16 32 -51q0 -14 -6 -27q-16 -32 -52 -32z"/>
<glyph horiz-adv-x="203" glyph-name="Iacute" unicode="Í" d="M102 0q-25 0 -42 17t-17 41v584q0 24 17 41t42 17q24 0 41 -17t17 -41v-584q0 -24 -17 -41t-41 -17zM43 725q-36 0 -52 32q-6 12 -6 26q0 35 32 52l117 59q12 6 25 6q37 0 53 -32q6 -14 6 -27q0 -35 -32 -52l-117 -58q-12 -6 -26 -6z"/>
<glyph horiz-adv-x="320" glyph-name="Icircumflex" unicode="Î" d="M160 0q-24 0 -41 17t-17 41v584q0 24 17 41t41 17t41 -17t17 -41v-584q0 -24 -17 -41t-41 -17zM160 900q14 0 26 -6l117 -59q32 -16 32 -53q0 -13 -6 -25q-17 -32 -52 -32q-14 0 -26 6l-91 45l-91 -45q-12 -6 -26 -6q-37 0 -52 32q-6 13 -6 26q0 33 32 52l117 59 q12 6 26 6z"/>
<glyph horiz-adv-x="250" glyph-name="Idieresis" unicode="Ï" d="M125 0q-24 0 -41 17t-17 41v584q0 24 17 41t41 17t41 -17t17 -41v-584q0 -24 -17 -41t-41 -17zM265 842q0 -25 -17 -42t-41 -17q-25 0 -42 17t-17 42q0 24 17 41t42 17q24 0 41 -17t17 -41zM102 842q0 -25 -17 -42t-42 -17q-24 0 -41 17t-17 42q0 24 17 41t41 17 q25 0 42 -17t17 -41z"/>
<glyph horiz-adv-x="722" glyph-name="Eth" unicode="Ð" d="M477 147q88 56 88 203q0 149 -91 205q-46 28 -89 28h-112v-175h59q24 0 41 -17t17 -41t-17 -41t-41 -17h-59v-175h112q46 0 92 30zM535 655q147 -90 147 -305t-147 -305q-74 -45 -150 -45h-170q-24 0 -41 17t-17 41v234h-59q-24 0 -41 17t-17 41t17 41t41 17h59v234 q0 24 17 41t41 17h170q76 0 150 -45z"/>
<glyph horiz-adv-x="605" glyph-name="Ntilde" unicode="Ñ" d="M507 0q-31 0 -48 25l-302 432v-399q1 -24 -17 -41t-42 -17t-41 17t-17 41v584q0 22 17 40t42 18q30 0 47 -25l302 -432v399q0 24 17 41t42 17q24 0 41 -17t17 -41v-584q0 -22 -17 -40t-41 -18zM346 754q-24 0 -55 14t-40 15q-17 -29 -51 -29q-24 0 -41 17t-17 41 q0 32 28 60t89 28q23 0 54 -14t41 -15q17 29 51 29q24 0 41 -17t17 -41q0 -44 -32 -66t-85 -22z"/>
<glyph horiz-adv-x="751" glyph-name="Ograve" unicode="Ò" d="M408 731l-117 58q-32 16 -32 54q0 13 6 25q15 32 53 32q14 0 26 -6l116 -59q32 -18 32 -52q0 -13 -6 -26q-16 -32 -52 -32q-14 0 -26 6zM157 350q0 -97 64 -165t155 -68q90 0 154 68t64 165t-64 165t-154 68q-91 0 -155 -68t-64 -165zM376 0q-140 0 -238 102t-98 248 t98 248t238 102q139 0 237 -102t98 -248t-98 -248t-237 -102z"/>
<glyph horiz-adv-x="751" glyph-name="Oacute" unicode="Ó" d="M318 725q-36 0 -52 32q-6 13 -6 26q0 34 32 52l116 59q12 6 26 6q38 0 53 -32q6 -12 6 -25q0 -38 -32 -54l-117 -58q-12 -6 -26 -6zM375 583q-90 0 -154 -68t-64 -165t64 -165t154 -68q91 0 155 68t64 165t-64 165t-155 68zM375 0q-139 0 -237 102t-98 248t98 248 t237 102t237 -102t99 -248q-1 -146 -99 -248t-237 -102z"/>
<glyph horiz-adv-x="751" glyph-name="Ocircumflex" unicode="Ô" d="M375 900q13 0 27 -6l116 -59q32 -18 32 -51q0 -14 -6 -27q-15 -32 -52 -32q-14 0 -26 6l-91 45l-90 -45q-13 -6 -26 -6q-36 0 -52 32q-6 13 -6 27q0 33 32 51l116 59q13 6 26 6zM157 350q0 -97 64 -165t155 -68q90 0 154 68t64 165t-64 165t-154 68q-91 0 -155 -68 t-64 -165zM376 0q-140 0 -238 102t-98 248t98 248t238 102q139 0 237 -102t98 -248t-98 -248t-237 -102z"/>
<glyph horiz-adv-x="751" glyph-name="Otilde" unicode="Õ" d="M419 754q-23 0 -55 14t-40 15q-17 -29 -51 -29q-24 0 -41 17t-17 41q-1 32 27 60t90 28q23 0 54 -14t41 -15q17 29 51 29q24 0 41 -17t17 -41q0 -44 -32 -66t-85 -22zM157 350q0 -97 64 -165t155 -68q90 0 154 68t64 165t-64 165t-154 68q-91 0 -155 -68t-64 -165zM376 0 q-140 0 -238 102t-98 248t98 248t238 102q139 0 237 -102t98 -248t-98 -248t-237 -102z"/>
<glyph horiz-adv-x="751" glyph-name="Odieresis" unicode="Ö" d="M516 842q0 -25 -17 -42t-41 -17t-41 17t-17 42q0 24 17 41t41 17t41 -17t17 -41zM353 842q0 -25 -17 -42t-41 -17q-25 0 -42 17t-17 42q0 24 17 41t42 17q24 0 41 -17t17 -41zM375 583q-90 0 -154 -68t-64 -165t64 -165t154 -68q91 0 155 68t64 165t-64 165t-155 68z M375 0q-139 0 -237 102t-98 248t98 248t237 102t237 -102t99 -248q-1 -146 -99 -248t-237 -102z"/>
<glyph horiz-adv-x="402" glyph-name="multiply" unicode="×" d="M283 350l62 -62q17 -19 17 -41q0 -24 -17 -41q-16 -17 -41 -17q-22 0 -41 17l-62 61l-62 -61q-17 -17 -41 -17q-25 0 -41 17q-17 16 -17 41q0 24 17 41l61 62l-61 62q-17 17 -17 41q0 25 17 41q17 17 41 17q22 0 41 -17l62 -62l62 62q17 17 41 17t41 -17t17 -41t-17 -41z "/>
<glyph horiz-adv-x="751" glyph-name="Oslash" unicode="Ø" d="M375 117q91 0 155 68t64 165q0 69 -35 126l-283 -334q45 -25 99 -25zM157 350q0 -71 35 -126l283 333q-46 26 -100 26q-90 0 -154 -68t-64 -165zM637 568q74 -97 74 -218q-1 -146 -99 -248t-237 -102q-96 0 -176 52l-27 -31q-18 -21 -45 -21q-20 0 -37 14q-21 18 -21 45 q0 20 14 37l30 36q-73 95 -73 218q0 146 98 248t237 102q95 0 177 -52l27 31q18 21 45 21q20 0 37 -14q21 -18 21 -45q0 -20 -14 -37z"/>
<glyph horiz-adv-x="575" glyph-name="Ugrave" unicode="Ù" d="M288 0q-76 0 -132 35t-87 101q-29 63 -29 127v379q0 24 17 41t41 17t41 -17t17 -41v-379q0 -11 4 -30t16 -47t42 -49q30 -20 70 -20t68 19q28 18 41 46q12 28 17 48t5 33v379q0 24 17 41t41 17t41 -17t17 -41v-379q0 -64 -29 -127q-31 -66 -87 -101t-131 -35zM346 725 q-12 0 -26 6l-116 58q-22 9 -30 33q-3 10 -3 20q0 13 6 26q10 22 34 30q10 3 19 3q14 0 26 -7l116 -59q22 -11 30 -33q3 -9 3 -18q0 -13 -7 -27q-16 -32 -52 -32z"/>
<glyph horiz-adv-x="575" glyph-name="Uacute" unicode="Ú" d="M287 0q-156 0 -218 136q-29 61 -29 127v379q0 24 17 41t41 17t41 -17t17 -41v-379q0 -13 5 -33t17 -48t40 -46q28 -19 69 -19t71 20q30 21 40 49q12 28 16 47t5 30v379q0 24 17 41t41 17t41 -17t17 -41v-379q0 -64 -29 -127q-32 -66 -88 -101t-131 -35zM229 725 q-37 0 -53 32q-6 12 -6 25q0 10 4 20q8 22 29 33l116 59q13 6 26 6q9 0 19 -3q22 -8 33 -29q7 -13 7 -27q0 -9 -4 -19q-8 -24 -29 -33l-116 -58q-14 -6 -26 -6z"/>
<glyph horiz-adv-x="575" glyph-name="Ucircumflex" unicode="Û" d="M288 0q-76 0 -132 35t-87 101q-29 63 -29 127v379q0 24 17 41t41 17t41 -17t17 -41v-379q0 -11 4 -30t16 -47t42 -49q30 -20 70 -20t68 19q28 18 41 46q12 28 17 48t5 33v379q0 24 17 41t41 17t41 -17t17 -41v-379q0 -64 -29 -127q-31 -66 -87 -101t-131 -35zM287 900 q13 0 27 -6l116 -59q22 -11 30 -33q3 -9 3 -18q0 -13 -7 -27q-10 -21 -33 -29q-9 -3 -18 -4q-13 0 -27 7l-91 45l-90 -45q-13 -7 -26 -7q-9 0 -19 4q-22 8 -33 29q-7 14 -7 27q0 9 4 18q8 22 29 33l116 59q13 6 26 6z"/>
<glyph horiz-adv-x="575" glyph-name="Udieresis" unicode="Ü" d="M287 0q-75 0 -131 35t-87 101q-29 63 -29 127v379q0 24 17 41t41 17t41 -17t17 -41v-379q0 -13 5 -33t17 -48t41 -46q29 -19 69 -19q41 0 70 20q28 21 40 49t16 47t5 30v379q0 24 17 41t41 17t41 -17t17 -41v-379q0 -64 -29 -127q-31 -66 -87 -101t-132 -35zM428 842 q0 -25 -17 -42t-41 -17q-25 0 -42 17t-17 42q0 24 17 41t42 17q24 0 41 -17t17 -41zM265 842q0 -25 -17 -42t-42 -17q-24 0 -41 17t-17 42q0 24 17 41t41 17q25 0 42 -17t17 -41z"/>
<glyph glyph-name="germandbls" unicode="ß" d="M417 400q90 -59 90 -181q0 -103 -60 -157t-140 -61q-1 -1 -4 -1h-59q-24 0 -41 17t-17 41t17 42t41 17h56q31 3 54 19q36 24 36 83q0 63 -43 87q-26 15 -52 15h-51q-24 0 -41 17t-17 41q0 23 17 41t41 18h14q23 0 43 11q31 18 31 61q0 44 -31 62q-9 6 -19 8t-17 3l-6 1 h-5t-3 -1h-94v-525q1 -24 -17 -41t-42 -17t-41 17t-17 41v584q0 24 17 41t41 17h161q46 0 91 -23q98 -48 98 -167q0 -63 -31 -110z"/>
<glyph horiz-adv-x="488" glyph-name="agrave" unicode="à" d="M277 531l-117 58q-32 17 -32 52q0 13 6 27q16 32 53 32q13 0 25 -6l117 -59q32 -17 32 -52q0 -14 -6 -26q-16 -32 -52 -32q-14 0 -26 6zM318 170q4 8 4 12q-14 2 -33 2q-27 0 -40 -1q-74 -3 -90 -23q-3 -3 -3 -7t1 -6q3 -9 5 -13t14 -10t30 -6t38 4q2 1 4 1q49 9 70 47z M447 122l1 -64q0 -22 -18 -40t-40 -18q-37 0 -52 32q-32 -16 -69 -24q-44 -7 -63 -7q-64 0 -106 31t-56 88q-4 15 -4 33q0 43 26 77q50 65 179 70h21t23 1q24 0 38 -2q-6 30 -20 39q-23 12 -50 12q-55 0 -97 -34q-16 -13 -37 -13q-27 0 -45 21q-13 16 -13 37q0 28 21 45 q62 51 142 59q9 1 27 1q62 0 109 -26q36 -20 56 -60t24 -63q3 -22 3 -38v-157z"/>
<glyph horiz-adv-x="488" glyph-name="aacute" unicode="á" d="M185 525q-36 0 -52 32q-6 12 -6 26q0 35 32 52l117 59q12 6 25 6q37 0 53 -32q6 -14 6 -27q0 -35 -32 -52l-117 -58q-12 -6 -26 -6zM318 170q4 8 4 12q-14 2 -33 2q-27 0 -40 -1q-74 -3 -90 -23q-3 -3 -3 -7t1 -6q3 -9 5 -13t14 -10t30 -6t38 4q2 1 4 1q49 9 70 47z M447 122l1 -64q0 -22 -18 -40t-40 -18q-37 0 -52 32q-32 -16 -69 -24q-44 -7 -63 -7q-64 0 -106 31t-56 88q-4 15 -4 33q0 43 26 77q50 65 179 70h21t23 1q24 0 38 -2q-6 30 -20 39q-23 12 -50 12q-55 0 -97 -34q-16 -13 -37 -13q-27 0 -45 21q-13 16 -13 37q0 28 21 45 q62 51 142 59q9 1 27 1q62 0 109 -26q36 -20 56 -60t24 -63q3 -22 3 -38v-157z"/>
<glyph horiz-adv-x="488" glyph-name="acircumflex" unicode="â" d="M243 700q13 0 27 -6l116 -59q32 -18 32 -51q0 -14 -6 -27q-15 -32 -52 -32q-14 0 -26 6l-91 45l-90 -45q-13 -6 -26 -6q-36 0 -52 32q-6 13 -6 27q0 33 32 51l116 59q14 6 26 6zM318 170q4 8 4 12q-14 2 -33 2q-27 0 -40 -1q-74 -3 -90 -23q-3 -3 -3 -7t1 -6q3 -9 5 -13 t14 -10t30 -6t38 4q2 1 4 1q49 9 70 47zM447 122l1 -64q0 -22 -18 -40t-40 -18q-37 0 -52 32q-32 -16 -69 -24q-44 -7 -63 -7q-64 0 -106 31t-56 88q-4 15 -4 33q0 43 26 77q50 65 179 70h21t23 1q24 0 38 -2q-6 30 -20 39q-23 12 -50 12q-55 0 -97 -34q-16 -13 -37 -13 q-27 0 -45 21q-13 16 -13 37q0 28 21 45q62 51 142 59q9 1 27 1q62 0 109 -26q36 -20 56 -60t24 -63q3 -22 3 -38v-157z"/>
<glyph horiz-adv-x="488" glyph-name="atilde" unicode="ã" d="M287 554q-23 0 -55 14t-40 15q-17 -29 -51 -29q-24 0 -41 17t-17 41q-1 32 27 60t90 28q23 0 54 -14t41 -15q17 29 51 29q24 0 41 -17t17 -41q0 -44 -32 -66t-85 -22zM318 170q4 8 4 12q-14 2 -33 2q-27 0 -40 -1q-74 -3 -90 -23q-3 -3 -3 -7t1 -6q3 -9 5 -13t14 -10 t30 -6t38 4q2 1 4 1q49 9 70 47zM447 122l1 -64q0 -22 -18 -40t-40 -18q-37 0 -52 32q-32 -16 -69 -24q-44 -7 -63 -7q-64 0 -106 31t-56 88q-4 15 -4 33q0 43 26 77q50 65 179 70h21t23 1q24 0 38 -2q-6 30 -20 39q-23 12 -50 12q-55 0 -97 -34q-16 -13 -37 -13 q-27 0 -45 21q-13 16 -13 37q0 28 21 45q62 51 142 59q9 1 27 1q62 0 109 -26q36 -20 56 -60t24 -63q3 -22 3 -38v-157z"/>
<glyph horiz-adv-x="488" glyph-name="adieresis" unicode="ä" d="M384 584q0 -25 -17 -42t-41 -17t-41 17t-17 42q0 24 17 41t41 17t41 -17t17 -41zM221 584q0 -25 -17 -42t-41 -17q-25 0 -42 17t-17 42q0 24 17 41t42 17q24 0 41 -17t17 -41zM318 170q4 8 4 12q-14 2 -33 2q-27 0 -40 -1q-74 -3 -90 -23q-3 -3 -3 -7t1 -6q3 -9 5 -13 t14 -10t30 -6t38 4q2 1 4 1q49 9 70 47zM447 122l1 -64q0 -22 -18 -40t-40 -18q-37 0 -52 32q-32 -16 -69 -24q-44 -7 -63 -7q-64 0 -106 31t-56 88q-4 15 -4 33q0 43 26 77q50 65 179 70h21t23 1q24 0 38 -2q-6 30 -20 39q-23 12 -50 12q-55 0 -97 -34q-16 -13 -37 -13 q-27 0 -45 21q-13 16 -13 37q0 28 21 45q62 51 142 59q9 1 27 1q62 0 109 -26q36 -20 56 -60t24 -63q3 -22 3 -38v-157z"/>
<glyph horiz-adv-x="780" glyph-name="ae" unicode="æ" d="M465 301h145q-24 49 -74 49q-45 0 -71 -49zM226 117q26 1 48 13t21 30q1 18 -21 31t-48 13t-48 -13t-21 -31q-1 -18 21 -30t48 -13zM740 243q0 -24 -17 -41t-41 -17h-225q24 -65 81 -68q42 0 74 36q18 19 43 19q23 0 39 -15q19 -18 19 -44q0 -23 -15 -39 q-67 -74 -163 -74q-89 0 -150 77q-25 -35 -67 -56t-92 -21q-78 0 -132 47t-54 113q0 67 54 114t132 47q58 0 106 -29v58h-175q-25 0 -42 17t-17 41q0 25 17 42t42 17h233q33 0 49 -28q45 28 97 28q86 0 146 -66q58 -64 58 -158z"/>
<glyph horiz-adv-x="488" glyph-name="egrave" unicode="è" d="M174 302h145q-25 49 -75 49q-43 0 -70 -49zM258 0q-14 0 -18 1q-95 5 -150 74q-50 64 -50 159q0 97 60 165t144 68q88 0 146 -66q58 -63 58 -157q0 -24 -17 -42t-41 -17h-227q20 -66 83 -68h6q43 0 68 18q15 9 32 9q32 0 49 -26q10 -13 10 -31q0 -33 -27 -50 q-56 -37 -126 -37zM277 531l-117 58q-32 17 -32 52q0 13 6 27q16 32 53 32q13 0 25 -6l117 -59q32 -17 32 -52q0 -14 -6 -26q-16 -32 -52 -32q-14 0 -26 6z"/>
<glyph horiz-adv-x="488" glyph-name="eacute" unicode="é" d="M174 302h145q-25 49 -75 49q-43 0 -70 -49zM258 0q-14 0 -18 1q-95 5 -150 74q-50 64 -50 159q0 97 60 165t144 68q88 0 146 -66q58 -63 58 -157q0 -24 -17 -42t-41 -17h-227q20 -66 83 -68h6q43 0 68 18q15 9 32 9q32 0 49 -26q10 -13 10 -31q0 -33 -27 -50 q-56 -37 -126 -37zM185 525q-36 0 -52 32q-6 12 -6 26q0 35 32 52l117 59q12 6 25 6q37 0 53 -32q6 -14 6 -27q0 -35 -32 -52l-117 -58q-12 -6 -26 -6z"/>
<glyph horiz-adv-x="488" glyph-name="ecircumflex" unicode="ê" d="M174 302h145q-25 49 -75 49q-43 0 -70 -49zM258 0q-14 0 -18 1q-95 5 -150 74q-50 64 -50 159q0 97 60 165t144 68q88 0 146 -66q58 -63 58 -157q0 -24 -17 -42t-41 -17h-227q20 -66 83 -68h6q43 0 68 18q15 9 32 9q32 0 49 -26q10 -13 10 -31q0 -33 -27 -50 q-56 -37 -126 -37zM243 700q13 0 27 -6l116 -59q32 -18 32 -51q0 -14 -6 -27q-15 -32 -52 -32q-14 0 -26 6l-91 45l-90 -45q-13 -6 -26 -6q-36 0 -52 32q-6 13 -6 27q0 33 32 51l116 59q14 6 26 6z"/>
<glyph horiz-adv-x="488" glyph-name="edieresis" unicode="ë" d="M174 302h145q-25 49 -75 49q-43 0 -70 -49zM258 0q-14 0 -18 1q-95 5 -150 74q-50 64 -50 159q0 97 60 165t144 68q88 0 146 -66q58 -63 58 -157q0 -24 -17 -42t-41 -17h-227q20 -66 83 -68h6q43 0 68 18q15 9 32 9q32 0 49 -26q10 -13 10 -31q0 -33 -27 -50 q-56 -37 -126 -37zM384 584q0 -25 -17 -42t-41 -17t-41 17t-17 42q0 24 17 41t41 17t41 -17t17 -41zM221 584q0 -25 -17 -42t-41 -17q-25 0 -42 17t-17 42q0 24 17 41t42 17q24 0 41 -17t17 -41z"/>
<glyph horiz-adv-x="313" glyph-name="igrave" unicode="ì" d="M97 58v350q-1 24 17 42t42 17q24 1 41 -17t17 -42v-350q0 -24 -17 -41t-41 -17t-42 17t-17 41zM189 531l-117 58q-32 17 -32 52q0 13 6 27q16 32 53 32q13 0 25 -6l117 -59q32 -17 32 -52q0 -14 -6 -26q-16 -32 -52 -32q-14 0 -26 6z"/>
<glyph horiz-adv-x="313" glyph-name="iacute" unicode="í" d="M156 0q-24 0 -41 17t-17 41v350q0 24 17 42t41 17q24 1 42 -17t17 -42v-350q1 -24 -17 -41t-42 -17zM98 525q-36 0 -52 32q-6 12 -6 26q0 35 32 52l117 59q12 6 25 6q37 0 53 -32q6 -14 6 -27q0 -35 -32 -52l-117 -58q-12 -6 -26 -6z"/>
<glyph horiz-adv-x="429" glyph-name="icircumflex" unicode="î" d="M156 58v350q0 24 18 42t41 17q24 1 41 -17t17 -42v-350q0 -24 -17 -41t-41 -17q-23 0 -41 17t-18 41zM214 700q14 0 27 -6l116 -59q32 -18 32 -51q0 -14 -6 -27q-15 -32 -52 -32q-14 0 -26 6l-91 45l-90 -45q-13 -6 -26 -6q-36 0 -52 32q-6 13 -6 27q0 33 32 51l116 59 q13 6 26 6z"/>
<glyph horiz-adv-x="360" glyph-name="idieresis" unicode="ï" d="M179 0q-24 0 -41 17t-17 41v350q0 24 17 42t41 17q23 1 41 -17t18 -42v-350q0 -24 -18 -41t-41 -17zM320 584q0 -25 -17 -42t-41 -17t-41 17t-17 42q0 24 17 41t41 17t41 -17t17 -41zM157 584q0 -25 -17 -42t-41 -17q-25 0 -42 17t-17 42q0 24 17 41t42 17q24 0 41 -17 t17 -41z"/>
<glyph horiz-adv-x="488" glyph-name="ntilde" unicode="ñ" d="M390 467q24 0 41 -17t17 -42v-350q0 -18 -10 -33t-28 -21q-9 -4 -21 -4q-26 0 -44 21l-188 226v-189q0 -24 -17 -41t-42 -17q-24 0 -41 17t-17 41v350q0 19 10 34t28 21q9 4 21 4q26 0 44 -21l189 -226v188q0 25 17 42t41 17zM287 554q-23 0 -55 14t-40 15 q-17 -29 -51 -29q-24 0 -41 17t-17 41q-1 32 27 60t90 28q23 0 54 -14t41 -15q17 29 51 29q24 0 41 -17t17 -41q0 -44 -32 -66t-85 -22z"/>
<glyph glyph-name="ograve" unicode="ò" d="M273 117q49 0 83 34t34 82q0 49 -34 83t-83 34q-48 0 -82 -34t-34 -83q0 -48 34 -82t82 -34zM273 467q97 -1 165 -69t69 -165q-1 -97 -69 -165t-165 -68t-165 68t-68 165t68 165t165 69zM307 531l-117 58q-32 17 -32 52q0 13 6 27q16 32 53 32q13 0 25 -6l117 -59 q32 -17 32 -52q0 -14 -6 -26q-16 -32 -52 -32q-14 0 -26 6z"/>
<glyph glyph-name="oacute" unicode="ó" d="M157 233q0 -48 34 -82t83 -34q48 0 82 34t34 82q0 49 -34 83t-82 34q-49 0 -83 -34t-34 -83zM274 467q96 -1 164 -69t69 -165q-1 -97 -69 -165t-164 -68q-98 0 -166 68t-68 165t68 165t166 69zM215 525q-36 0 -52 32q-6 12 -6 26q0 35 32 52l117 59q12 6 25 6 q37 0 53 -32q6 -14 6 -27q0 -35 -32 -52l-117 -58q-12 -6 -26 -6z"/>
<glyph glyph-name="ocircumflex" unicode="ô" d="M157 233q0 -48 34 -82t83 -34q48 0 82 34t34 82q0 49 -34 83t-82 34q-49 0 -83 -34t-34 -83zM274 467q96 -1 164 -69t69 -165q-1 -97 -69 -165t-164 -68q-98 0 -166 68t-68 165t68 165t166 69zM273 700q13 0 27 -6l116 -59q32 -18 32 -51q0 -14 -6 -27q-15 -32 -52 -32 q-14 0 -26 6l-91 45l-90 -45q-13 -6 -26 -6q-36 0 -52 32q-6 13 -6 27q0 33 32 51l116 59q13 6 26 6z"/>
<glyph glyph-name="otilde" unicode="õ" d="M157 233q0 -48 34 -82t83 -34q48 0 82 34t34 82q0 49 -34 83t-82 34q-49 0 -83 -34t-34 -83zM274 467q96 -1 164 -69t69 -165q-1 -97 -69 -165t-164 -68q-98 0 -166 68t-68 165t68 165t166 69zM317 554q-23 0 -55 14t-40 15q-17 -29 -51 -29q-24 0 -41 17t-17 41 q-1 32 27 60t90 28q23 0 54 -14t41 -15q17 29 51 29q24 0 41 -17t17 -41q0 -44 -32 -66t-85 -22z"/>
<glyph glyph-name="odieresis" unicode="ö" d="M414 584q0 -25 -17 -42t-41 -17t-41 17t-17 42q0 24 17 41t41 17t41 -17t17 -41zM251 584q0 -25 -17 -42t-41 -17q-25 0 -42 17t-17 42q0 24 17 41t42 17q24 0 41 -17t17 -41zM157 233q0 -48 34 -82t83 -34q48 0 82 34t34 82q0 49 -34 83t-82 34q-49 0 -83 -34t-34 -83z M274 467q96 -1 164 -69t69 -165q-1 -97 -69 -165t-164 -68q-98 0 -166 68t-68 165t68 165t166 69z"/>
<glyph horiz-adv-x="518" glyph-name="oslash" unicode="ø" d="M259 117q13 0 25 3l-125 136q-2 -14 -2 -23q0 -48 30 -82t72 -34zM259 350q-13 0 -25 -3l125 -137q2 16 2 23q0 49 -30 83t-72 34zM447 114l15 -16q16 -16 16 -40q0 -27 -19 -43q-17 -15 -40 -15q-25 0 -43 19l-10 11q-51 -30 -107 -30q-91 0 -155 68t-64 165 q0 65 31 119l-15 17q-16 16 -16 40q0 26 19 42q16 15 40 15q25 0 43 -18l10 -11q49 30 107 30q91 -1 155 -69t64 -165q0 -62 -31 -119z"/>
<glyph horiz-adv-x="454" glyph-name="ugrave" unicode="ù" d="M260 531l-117 58q-32 17 -32 52q0 13 6 27q16 32 53 32q13 0 25 -6l117 -59q32 -17 32 -52q0 -14 -6 -26q-16 -32 -52 -32q-14 0 -26 6zM99 467q24 0 41 -17t17 -42v-227q0 -18 11 -37q15 -27 59 -27t59 27q11 19 11 37v227q0 25 17 42t41 17q23 0 41 -17t18 -42v-227 q0 -45 -23 -88q-48 -93 -164 -93t-164 93q-23 43 -23 88v227q0 25 17 42t42 17z"/>
<glyph horiz-adv-x="454" glyph-name="uacute" unicode="ú" d="M168 525q-36 0 -52 32q-6 12 -6 26q0 35 32 52l117 59q12 6 25 6q37 0 53 -32q6 -14 6 -27q0 -35 -32 -52l-117 -58q-12 -6 -26 -6zM355 467q23 0 41 -17t18 -42v-227q0 -45 -23 -88q-48 -93 -164 -93t-164 93q-23 43 -23 88v227q0 25 17 42t42 17q24 0 41 -17t17 -42 v-227q0 -18 11 -37q15 -27 59 -27t59 27q11 19 11 37v227q0 25 17 42t41 17z"/>
<glyph horiz-adv-x="454" glyph-name="ucircumflex" unicode="û" d="M226 700q14 0 27 -6l116 -59q32 -18 32 -51q0 -14 -6 -27q-15 -32 -52 -32q-14 0 -26 6l-91 45l-90 -45q-13 -6 -26 -6q-36 0 -52 32q-6 13 -6 27q0 33 32 51l116 59q14 6 26 6zM355 467q23 0 41 -17t18 -42v-227q0 -45 -23 -88q-48 -93 -164 -93t-164 93q-23 43 -23 88 v227q0 25 17 42t42 17q24 0 41 -17t17 -42v-227q0 -18 11 -37q15 -27 59 -27t59 27q11 19 11 37v227q0 25 17 42t41 17z"/>
<glyph horiz-adv-x="454" glyph-name="udieresis" unicode="ü" d="M367 584q0 -25 -17 -42t-41 -17t-41 17t-17 42q0 24 17 41t41 17t41 -17t17 -41zM204 584q0 -25 -17 -42t-41 -17q-25 0 -42 17t-17 42q0 24 17 41t42 17q24 0 41 -17t17 -41zM355 467q23 0 41 -17t18 -42v-227q0 -45 -23 -88q-48 -93 -164 -93t-164 93q-23 43 -23 88 v227q0 25 17 42t42 17q24 0 41 -17t17 -42v-227q0 -18 11 -37q15 -27 59 -27t59 27q11 19 11 37v227q0 25 17 42t41 17z"/>
<glyph horiz-adv-x="529" glyph-name="yacute" unicode="ý" d="M483 383l-166 -350l-7 -11l-100 -221q-15 -34 -53 -34q-15 0 -25 5q-33 14 -33 53q0 14 5 24l95 211l-153 323q-6 12 -6 25q0 37 33 53q12 6 25 6q37 0 53 -34l114 -239l113 239q16 34 53 34q13 0 25 -6q33 -16 33 -53q0 -13 -6 -25zM206 540q-36 0 -52 32q-6 12 -6 26 q0 35 32 52l117 59q12 6 25 6q37 0 53 -32q6 -12 6 -26q0 -37 -32 -53l-117 -58q-12 -6 -26 -6z"/>
<glyph horiz-adv-x="529" glyph-name="ydieresis" unicode="ÿ" d="M483 383l-166 -350l-7 -11l-100 -221q-15 -34 -53 -34q-15 0 -25 5q-33 14 -33 53q0 14 5 24l95 211l-153 323q-6 12 -6 25q0 37 33 53q12 6 25 6q37 0 53 -34l114 -239l113 239q16 34 53 34q13 0 25 -6q33 -16 33 -53q0 -13 -6 -25zM405 599q0 -25 -17 -42t-41 -17 t-41 17t-17 42q0 24 17 41t41 17t41 -17t17 -41zM242 599q0 -25 -17 -42t-41 -17q-25 0 -42 17t-17 42q0 24 17 41t42 17q24 0 41 -17t17 -41z"/>
<glyph horiz-adv-x="282" glyph-name="dotlessi" unicode="ı" d="M185 463q25 0 41 -17t16 -41v-347q0 -24 -16 -41t-41 -17q-24 0 -41 17t-17 41v289h-29q-24 0 -41 17t-17 41t17 41t41 17h87z"/>
<glyph horiz-adv-x="430" glyph-name="ij" unicode="ĳ" d="M332 642q24 0 41 -18t17 -41q0 -24 -17 -41t-41 -17q-25 0 -42 17t-17 41q0 23 17 41t42 18zM98 642q25 0 42 -18t17 -41q0 -24 -17 -41t-42 -17q-24 0 -41 17t-17 41q0 23 17 41t41 18zM332 467q24 0 41 -17t17 -41v-467q0 -43 -21 -84q-45 -91 -154 -91q-24 0 -41 17 t-17 41q0 25 17 42t41 17q36 0 50 26q4 7 6 15t2 13v4v408h-116v-291q0 -25 -17 -42t-42 -17q-24 0 -41 17t-17 42v350q0 24 17 41t41 17h234z"/>
<glyph horiz-adv-x="576" glyph-name="omacron" unicode="ō" d="M448 583h-321q-24 0 -41 17t-17 42q0 24 17 41t41 17h321q24 0 42 -17t17 -41q1 -25 -17 -42t-42 -17zM288 117q54 1 92 43t39 102q-1 62 -39 104t-92 42q-55 0 -93 -42t-38 -104q0 -60 38 -102t93 -43zM288 525q104 0 176 -77t72 -186q0 -108 -72 -185t-176 -77t-176 77 t-72 185q0 109 72 186t176 77z"/>
<glyph horiz-adv-x="848" glyph-name="oe" unicode="œ" d="M534 302h145q-25 49 -75 49q-43 0 -70 -49zM273 117q49 0 83 34t34 82q0 49 -34 83t-83 34q-48 0 -82 -34t-34 -83q0 -48 34 -82t82 -34zM808 244q0 -24 -17 -42t-41 -17h-227q20 -66 83 -68h6q43 0 68 18q15 9 32 9q32 0 49 -26q10 -13 10 -31q0 -33 -27 -50 q-56 -37 -126 -37q-14 0 -18 1q-95 5 -150 74l-3 3q-68 -78 -174 -78q-97 0 -165 68t-68 165t68 165t165 69q107 0 177 -81q60 81 154 81q88 0 146 -66q58 -63 58 -157z"/>
<glyph horiz-adv-x="605" glyph-name="Ydieresis" unicode="Ÿ" d="M442 842q0 -25 -17 -42t-41 -17t-41 17t-17 42q0 24 17 41t41 17t41 -17t17 -41zM279 842q0 -25 -17 -42t-41 -17q-25 0 -42 17t-17 42q0 24 17 41t42 17q24 0 41 -17t17 -41zM540 689q25 -17 25 -47q0 -18 -11 -34l-193 -276v-274q0 -24 -17 -41t-42 -17q-24 0 -41 17 t-17 41v274l-193 276q-11 14 -11 31q0 25 16 43t42 18q31 0 48 -25l156 -223l157 223q17 25 48 25q17 0 33 -11z"/>
<glyph horiz-adv-x="488" glyph-name="zcaron" unicode="ž" d="M390 117q24 0 41 -17t17 -42q0 -24 -17 -41t-41 -17h-292q-37 0 -53 34q-5 10 -5 25q0 21 13 37l212 254h-167q-24 0 -41 17t-17 41q0 25 17 42t41 17h292q37 0 53 -34q5 -13 5 -24q0 -22 -13 -38l-212 -254h167zM244 540q-14 0 -27 6l-116 59q-32 18 -32 51q0 14 6 27 q15 32 52 32q14 0 26 -6l91 -45l90 45q14 6 26 6q36 0 52 -32q6 -13 6 -27q0 -33 -32 -51l-116 -59q-14 -6 -26 -6z"/>
<glyph horiz-adv-x="428" glyph-name="florin" unicode="ƒ" d="M330 469q24 0 41 -17t17 -41t-17 -41t-41 -17h-58v-319q0 -42 -21 -83q-45 -90 -153 -90q-24 0 -41 17t-17 41t17 41t41 17q34 0 49 23q9 18 9 35v318h-29q-24 0 -41 17t-17 41t17 41t41 17h29v57q0 43 21 84q45 90 153 90q24 0 41 -17t17 -41t-17 -41t-41 -17 q-34 0 -49 -23q-9 -18 -9 -35v-57h58z"/>
<glyph horiz-adv-x="429" glyph-name="circumflex" unicode="ˆ" d="M214 900q14 0 27 -6l116 -59q32 -18 32 -51q0 -14 -6 -27q-15 -32 -52 -32q-14 0 -26 6l-91 45l-90 -45q-14 -6 -26 -6q-36 0 -52 32q-6 13 -6 27q0 33 32 51l116 59q13 6 26 6z"/>
<glyph horiz-adv-x="401" glyph-name="tilde" unicode="˜" d="M244 754q-24 0 -55 14t-40 15q-17 -29 -51 -29q-24 0 -41 17t-17 41q0 32 28 60t89 28q23 0 54 -14t41 -15q17 29 51 29q24 0 41 -17t17 -41q0 -44 -32 -66t-85 -22z"/>
<glyph horiz-adv-x="427" glyph-name="Gamma" unicode="Γ" d="M329 700q24 0 41 -17t17 -42q0 -24 -17 -41t-41 -17h-172v-525q0 -24 -17 -41t-42 -17q-24 0 -41 17t-17 41v584q0 24 17 41t42 17h230z"/>
<glyph horiz-adv-x="488" glyph-name="Epsilon" unicode="Ε" d="M390 292h-234v-175h234q24 0 41 -17t17 -42q0 -24 -17 -41t-41 -17h-292q-24 0 -41 17t-17 41v584q0 24 17 41t41 17h292q24 0 41 -17t17 -41q0 -25 -17 -42t-41 -17h-234v-175h234q24 0 41 -17t17 -41t-17 -41t-41 -17z"/>
<glyph horiz-adv-x="780" glyph-name="Theta" unicode="Θ" d="M390 437q36 1 62 -25t25 -62q1 -36 -25 -62t-62 -26t-62 26t-26 62t26 62t62 25zM555 185q68 68 68 165q0 95 -68 165q-68 68 -165 68t-165 -68t-68 -165q0 -98 68 -165q68 -68 165 -68t165 68zM637 597q103 -103 103 -247q0 -145 -103 -248q-102 -102 -247 -102 q-144 0 -248 102q-102 102 -102 248q0 145 102 247q103 103 248 103q146 0 247 -103z"/>
<glyph horiz-adv-x="314" glyph-name="Iota" unicode="Ι" d="M215 117q25 0 42 -17t17 -42q0 -24 -17 -41t-42 -17h-116q-25 0 -42 17t-17 41q0 25 17 42t42 17v466q-25 0 -42 17t-17 42q0 24 17 41t42 17h116q25 0 42 -17t17 -41q0 -25 -17 -42t-42 -17v-466z"/>
<glyph horiz-adv-x="606" glyph-name="Lambda" unicode="Λ" d="M562 78q4 -10 4 -20q0 -13 -6 -25q-10 -22 -33 -30q-11 -3 -20 -3q-40 0 -55 39l-149 426l-149 -426q-8 -22 -30 -33q-12 -6 -25 -6q-9 0 -19 3q-24 8 -34 30q-6 12 -5 25q0 10 3 20l204 583q14 39 55 39t55 -39z"/>
<glyph horiz-adv-x="546" glyph-name="Xi" unicode="Ξ" d="M393 408q24 0 41 -17t17 -41t-17 -41t-41 -17h-237q-24 0 -41 17t-17 41t17 41t41 17h237zM448 117q24 0 41 -17t17 -42q0 -24 -17 -41t-41 -17h-350q-24 0 -41 17t-17 41q0 25 17 42t41 17h350zM98 583q-24 0 -41 17t-17 42q0 24 17 41t41 17h350q24 0 41 -17t17 -41 q0 -25 -17 -42t-41 -17h-350z"/>
<glyph horiz-adv-x="488" glyph-name="Pi" unicode="Π" d="M390 700q24 0 41 -17t17 -41v-584q0 -24 -17 -41t-41 -17t-41 17t-17 41v525h-175v-525q1 -24 -17 -41t-42 -17t-41 17t-17 41v584q0 24 17 41t41 17h292z"/>
<glyph horiz-adv-x="780" glyph-name="theta" unicode="θ" d="M390 117q80 0 142 48t83 123h-450q21 -75 83 -123t142 -48zM390 583q-82 -1 -145 -51t-82 -127h454q-19 77 -82 127t-145 51zM390 700q146 0 248 -102t102 -248t-102 -248t-248 -102t-248 102t-102 248t102 248t248 102z"/>
<glyph horiz-adv-x="522" glyph-name="upsilon" unicode="υ" d="M366 455q4 -3 14 -11t30 -30q18 -20 34 -44t26 -58q12 -34 12 -70q0 -25 -6 -52q-20 -76 -71 -125q-70 -65 -179 -65q-115 0 -163 93q-23 43 -23 88v227q0 25 17 42t41 17t41 -17t17 -42v-227l1 -6q1 -7 3 -15t7 -16q17 -27 59 -27q112 0 136 101q3 12 3 24q0 26 -16 56 t-32 47t-21 17q-23 17 -23 47q0 19 12 34q17 23 47 23q20 0 34 -11z"/>
<glyph glyph-name="phi" unicode="φ" d="M332 249q58 33 58 101t-58 101v-202zM157 350q0 -68 58 -101v202q-58 -33 -58 -101zM332 576q77 -20 126 -82t49 -144q1 -80 -49 -143t-126 -83v-66q0 -24 -17 -41t-41 -17q-25 0 -42 17t-17 41v66q-75 20 -125 83t-50 143q0 82 50 144t125 82v66q0 24 17 41t42 17 q24 0 41 -17t17 -41v-66z"/>
<glyph horiz-adv-x="634" glyph-name="chi" unicode="χ" d="M551 115q19 -5 31 -21t12 -35q0 -5 -2 -15q-4 -20 -20 -32t-36 -12q-5 0 -15 2q-81 21 -127 76t-98 165l-117 -213q-17 -30 -51 -30q-16 0 -29 7q-30 17 -30 52q0 15 7 28l158 286q-57 108 -172 223q-22 17 -22 46q0 20 13 36q17 22 45 22q21 0 37 -13q9 -7 27 -23 t60 -66q42 -49 77 -106l98 178q17 30 51 30q15 0 28 -7q31 -17 31 -51q0 -14 -8 -28l-134 -245l19 -40q56 -121 86 -161t81 -53z"/>
<glyph horiz-adv-x="488" glyph-name="afii10145" unicode="Џ" d="M390 700q24 0 41 -17t17 -41v-584q0 -24 -17 -41t-41 -17h-88v-112q0 -25 -17 -42t-41 -17t-41 17t-17 42v112h-88q-24 0 -41 17t-17 41v584q0 24 17 41t41 17t41 -17t17 -41v-525h175v525q-1 24 17 41t42 17z"/>
<glyph horiz-adv-x="479" glyph-name="afii10018" unicode="Б" d="M270 134q53 28 53 99q0 72 -53 100q-32 17 -64 17h-49v-233h49q32 0 64 17zM320 439q119 -60 119 -206q0 -145 -119 -205q-57 -28 -114 -28h-107q-25 0 -42 17t-17 41v584q0 24 17 41t42 17h230q24 0 41 -17t17 -42q0 -24 -17 -41t-41 -17h-172v-116h49q57 0 114 -28z "/>
<glyph horiz-adv-x="488" glyph-name="afii10022" unicode="Е" d="M390 292h-234v-175h234q24 0 41 -17t17 -42q0 -24 -17 -41t-41 -17h-292q-24 0 -41 17t-17 41v584q0 24 17 41t41 17h292q24 0 41 -17t17 -41q0 -25 -17 -42t-41 -17h-234v-175h234q24 0 41 -17t17 -41t-17 -41t-41 -17z"/>
<glyph horiz-adv-x="430" glyph-name="uni0417" unicode="З" d="M186 700q84 0 144 -60t60 -144q0 -86 -62 -146q62 -60 62 -146q0 -84 -60 -144t-144 -60h-88q-24 0 -41 17t-17 41q0 25 17 42t41 17h88q36 -1 62 25t25 62t-25 62t-59 26h-32q-25 0 -42 17t-17 41t17 41t42 17h29q36 0 62 26t25 62q1 36 -25 62t-62 25h-88q-24 0 -41 17 t-17 42q0 24 17 41t41 17h88z"/>
<glyph horiz-adv-x="576" glyph-name="afii10029" unicode="Л" d="M477 700q25 0 42 -17t17 -41v-584q0 -24 -17 -41t-42 -17q-24 0 -41 17t-17 41v525h-175v-437q0 -54 -36 -100t-110 -46q-24 0 -41 17t-17 41q0 25 17 42t41 17q19 0 24 10q5 9 5 20v495q-1 24 17 41t42 17h291z"/>
<glyph horiz-adv-x="635" glyph-name="afii10033" unicode="П" d="M536 0q-24 0 -41 17t-17 41v525h-321v-525q0 -24 -17 -41t-42 -17q-24 0 -41 17t-17 41v584q0 24 17 41t42 17h437q24 0 42 -17t17 -41v-584q0 -24 -17 -41t-42 -17z"/>
<glyph horiz-adv-x="459" glyph-name="afii10041" unicode="Ч" d="M361 700q24 0 41 -17t17 -41v-584q0 -24 -17 -41t-41 -17t-41 17t-17 41v175h-59q-126 0 -179 106q-25 49 -25 99v204q0 24 17 41t42 17q24 0 41 -17t17 -41v-204q0 -25 13 -50q21 -38 74 -38h59v292q0 24 17 41t41 17z"/>
<glyph horiz-adv-x="605" glyph-name="afii10042" unicode="Ш" d="M507 700q24 0 41 -17t17 -41v-584q0 -24 -17 -41t-41 -17h-204h-204q-23 0 -41 17t-18 41v584q0 24 18 41t41 17q24 0 41 -17t17 -41v-525h88v525q0 24 17 41t41 17t41 -17t17 -41v-525h88v525q0 24 17 41t41 17z"/>
<glyph horiz-adv-x="488" glyph-name="uni0437" unicode="з" d="M244 0q-84 0 -144 60t-60 144q0 24 17 41t41 17t41 -17t17 -41q0 -36 26 -62t62 -25q36 -1 62 25t25 62q1 36 -25 62t-62 26q-24 0 -41 17t-17 41t17 41t41 17q36 0 62 26t25 62q1 36 -25 62t-62 25q-36 1 -62 -25t-26 -62q0 -24 -17 -42t-41 -17q-24 -1 -41 17t-17 42 q0 84 60 144t144 60t144 -60t60 -144q0 -87 -61 -146q61 -59 61 -146q0 -84 -60 -144t-144 -60z"/>
<glyph horiz-adv-x="576" glyph-name="afii10077" unicode="л" d="M477 467q25 0 42 -17t17 -42v-350q0 -24 -17 -41t-42 -17q-24 0 -41 17t-17 41v292h-175v-204q0 -54 -36 -100t-110 -46q-24 0 -41 17t-17 41q0 25 17 42t41 17q19 0 24 10q5 9 5 20v261q-1 25 17 42t42 17h291z"/>
<glyph horiz-adv-x="488" glyph-name="afii10079" unicode="н" d="M390 467q24 1 41 -17t17 -42v-350q0 -24 -17 -41t-41 -17t-41 17t-17 41v117h-175v-117q0 -24 -17 -41t-41 -17q-25 0 -42 17t-17 41v350q0 24 17 42t42 17q24 1 41 -17t17 -42v-116h175v116q0 24 17 42t41 17z"/>
<glyph horiz-adv-x="605" glyph-name="afii10090" unicode="ш" d="M507 467q24 1 41 -17t17 -42v-350q0 -24 -17 -41t-41 -17h-409q-24 0 -41 17t-17 41v350q0 24 17 42t41 17q24 1 42 -17t17 -42v-291h87v291q0 24 17 42t41 17q25 1 42 -17t17 -42v-291h87v291q0 24 17 42t42 17z"/>
<glyph horiz-adv-x="488" glyph-name="afii10196" unicode="ѵ" d="M198 0q-18 0 -34 9t-26 27t-16 28q-4 11 -11 31q-14 44 -33 127q-9 39 -18 83q-9 43 -14 69t-5 27q-1 4 -1 11q0 21 14 37t34 20q4 1 11 1q21 0 37 -14t20 -34q17 -99 39 -189q25 57 65 113t60 78q21 22 31 31q17 15 39 15q25 0 43 -19q15 -17 15 -39q0 -27 -19 -43 l-3 -3q-14 -14 -30 -33t-44 -57t-50 -88t-30 -99q-5 -31 -12 -45q-18 -41 -62 -44z"/>
<glyph horiz-adv-x="688" glyph-name="wacute" unicode="ẃ" d="M285 540q-36 0 -52 32q-6 12 -6 26q0 35 32 52l117 59q12 6 25 6q37 0 53 -32q6 -12 6 -26q0 -37 -32 -53l-117 -58q-12 -6 -26 -6zM609 463q19 -5 29 -21t10 -34q0 -10 -3 -19l-123 -350q-14 -39 -55 -39t-55 39l-68 194l-68 -194q-14 -39 -55 -39t-55 39l-123 350 q-3 9 -3 19q0 42 39 55q9 3 20 3q41 0 54 -38l68 -193l67 193q12 37 54 39h4q40 -2 53 -39l68 -193l68 193q13 38 54 38q9 0 20 -3z"/>
<glyph horiz-adv-x="945" glyph-name="Wdieresis" unicode="Ẅ" d="M612 842q0 -25 -17 -42t-41 -17t-41 17t-17 42q0 24 17 41t41 17t41 -17t17 -41zM449 842q0 -25 -17 -42t-41 -17q-23 0 -41 17t-18 42q0 24 18 41t41 17q24 0 41 -17t17 -41zM869 695q36 -14 36 -54q0 -13 -4 -22l-244 -583q-15 -36 -53 -36q-39 0 -54 36l-77 185 l-78 -185q-15 -36 -53 -36q-39 0 -54 36l-244 583q-4 9 -4 22q0 23 17 41t42 18q38 0 53 -36l190 -454l67 163l-102 246q-5 12 -5 23q0 22 17 40t42 18q38 0 53 -36l59 -140l58 140q15 36 53 36q25 0 42 -18t17 -41q0 -13 -4 -22l-103 -246l68 -163l189 454q15 36 53 36 q11 0 23 -5z"/>
<glyph horiz-adv-x="688" glyph-name="wdieresis" unicode="ẅ" d="M482 583q0 -25 -17 -42t-41 -17t-41 17t-17 42q0 24 17 41t41 17t41 -17t17 -41zM319 583q0 -25 -17 -42t-41 -17q-25 0 -42 17t-17 42q0 24 17 41t42 17q24 0 41 -17t17 -41zM609 463q19 -5 29 -21t10 -34q0 -10 -3 -19l-123 -350q-14 -39 -55 -39t-55 39l-68 194 l-68 -194q-14 -39 -55 -39t-55 39l-123 350q-3 9 -3 19q0 42 39 55q9 3 20 3q41 0 54 -38l68 -193l67 193q12 37 54 39h4q40 -2 53 -39l68 -193l68 193q13 38 54 38q9 0 20 -3z"/>
<glyph glyph-name="dagger" unicode="†" d="M328 525h120q25 0 42 -17t17 -42q0 -24 -17 -41t-42 -17h-120v-350q0 -24 -17 -41t-42 -17q-24 0 -41 17t-17 41v350h-113q-24 0 -41 17t-17 41q0 25 17 42t41 17h113v117q0 24 17 41t41 17q25 0 42 -17t17 -41v-117z"/>
<glyph glyph-name="daggerdbl" unicode="‡" d="M328 292h120q25 0 42 -17t17 -42q0 -24 -17 -41t-42 -17h-120v-117q0 -24 -17 -41t-42 -17q-24 0 -41 17t-17 41v117h-113q-24 0 -41 17t-17 41q0 25 17 42t41 17h113v116h-113q-24 0 -41 17t-17 41q0 25 17 42t41 17h113v117q0 24 17 41t41 17q25 0 42 -17t17 -41v-117 h120q25 0 42 -17t17 -42q0 -24 -17 -41t-42 -17h-120v-116z"/>
<glyph horiz-adv-x="255" glyph-name="bullet" unicode="•" d="M215 350q1 -36 -25 -62t-62 -26t-62 26t-26 62t26 62t62 25q36 1 62 -25t25 -62z"/>
<glyph horiz-adv-x="506" glyph-name="ellipsis" unicode="…" d="M98 117q24 0 42 -17t17 -42q1 -24 -17 -41t-42 -17t-41 17t-17 41q0 25 17 42t41 17zM407 117q23 0 41 -17t18 -42q0 -24 -18 -41t-41 -17q-24 0 -41 17t-17 41q0 25 17 42t41 17zM253 117q23 0 41 -17t18 -42q0 -24 -18 -41t-41 -17q-24 0 -41 17t-17 41q0 25 17 42 t41 17z"/>
<glyph horiz-adv-x="386" glyph-name="guilsinglleft" unicode="‹" d="M287 102q-24 0 -41 17l-189 190q-17 17 -17 41q0 22 17 41l189 190q16 17 42 17q24 0 41 -17q17 -19 17 -42q0 -24 -17 -41l-149 -148l149 -148q17 -17 17 -41q0 -23 -17 -42q-19 -17 -42 -17z"/>
<glyph horiz-adv-x="386" glyph-name="guilsinglright" unicode="›" d="M99 102q-23 0 -42 17q-17 19 -17 42q0 24 17 41l149 148l-149 148q-17 17 -17 41q0 23 17 42q17 17 41 17q26 0 42 -17l189 -190q17 -19 17 -41q0 -24 -17 -41l-189 -190q-17 -17 -41 -17z"/>
<glyph horiz-adv-x="313" glyph-name="fraction" unicode="⁄" d="M226 699q21 -5 34 -21t13 -37q0 -7 -1 -11l-117 -583q-4 -21 -20 -34t-37 -13q-7 0 -11 1q-21 5 -34 21t-13 37q0 7 1 11l117 583q4 21 20 34t37 13q7 0 11 -1z"/>
<glyph horiz-adv-x="318" glyph-name="zerosuperior" unicode="⁰" d="M218 492v59q0 35 -16 62t-43 27q-28 0 -44 -27t-16 -62v-59q1 -39 17 -64t43 -25t43 25t16 64zM244 657q34 -42 34 -106v-59q0 -65 -34 -107t-85 -42t-85 42t-34 107v59q0 65 34 107t85 42q50 0 85 -43z"/>
<glyph horiz-adv-x="303" glyph-name="foursuperior" unicode="⁴" d="M174 563l-52 -86h52v86zM203 343q-13 1 -21 9t-8 21v44h-104q-14 0 -22 9t-8 22q0 9 4 14l134 224q9 14 26 14q12 0 20 -9t9 -21v-193q13 0 21 -9t9 -21q-1 -12 -9 -21t-21 -9v-44q-1 -13 -9 -21t-21 -9z"/>
<glyph horiz-adv-x="318" glyph-name="fivesuperior" unicode="⁵" d="M159 581q49 -1 84 -35t35 -84q0 -49 -35 -84t-84 -35t-84 35t-35 84q0 14 8 22t22 8t22 -8t8 -22q0 -25 17 -42t42 -17t43 17t17 42q-1 24 -17 40t-39 19l-56 -13q-3 -1 -8 -1q-13 -1 -21 9t-8 24l15 133q2 11 10 19t20 8h89q12 0 20 -8t9 -22q-1 -12 -9 -21t-20 -9h-63 l-7 -64l18 4q2 1 7 1z"/>
<glyph horiz-adv-x="318" glyph-name="sixsuperior" unicode="⁶" d="M159 521q-25 0 -42 -17t-17 -42t17 -42t42 -17t42 17t17 42t-17 42t-42 17zM159 343q-49 0 -84 35t-35 84q0 32 12 52l90 170q10 16 27 16q12 0 21 -9t9 -21q0 -7 -4 -14l-40 -75h4q49 -1 84 -35t35 -84q0 -49 -35 -84t-84 -35z"/>
<glyph horiz-adv-x="288" glyph-name="sevensuperior" unicode="⁷" d="M69 343q-7 0 -13 3q-16 9 -16 27q0 7 3 13l127 254h-101q-13 0 -21 9t-8 21q0 14 8 22t21 8h149q17 0 25 -14q5 -8 5 -16q0 -7 -3 -13l-149 -298q-8 -16 -27 -16z"/>
<glyph horiz-adv-x="318" glyph-name="eightsuperior" unicode="⁸" d="M158 403q24 0 42 17t18 42t-18 42t-42 17t-42 -17t-17 -42q-1 -25 17 -42t42 -17zM129 611q1 -13 9 -21t20 -9q13 1 22 9t9 21t-9 21t-22 8q-12 0 -20 -8t-9 -21zM230 557q48 -36 48 -95q0 -49 -36 -84t-84 -35q-50 0 -84 35t-34 84q0 58 47 95q-18 25 -18 54q1 37 27 63 t62 26q38 0 64 -26t26 -63q0 -29 -18 -54z"/>
<glyph horiz-adv-x="318" glyph-name="ninesuperior" unicode="⁹" d="M158 521q24 -1 42 17t18 43t-18 42t-42 17t-42 -17t-17 -42q-1 -25 17 -43t42 -17zM158 700q48 0 84 -35t36 -84q0 -25 -12 -52l-91 -170q-10 -16 -26 -16q-13 0 -21 9t-9 21q0 7 3 14l40 75h-4q-50 0 -84 35t-34 84t34 84t84 35z"/>
<glyph horiz-adv-x="318" glyph-name="zeroinferior" unicode="₀" d="M218 149v59q0 35 -16 62t-43 27q-28 0 -44 -27t-16 -62v-59q1 -39 17 -64t43 -25t43 25t16 64zM244 314q34 -42 34 -106v-59q0 -65 -34 -107t-85 -42t-85 42t-34 107v59q0 64 34 106t85 43q50 0 85 -43z"/>
<glyph horiz-adv-x="181" glyph-name="oneinferior" unicode="₁" d="M107 0q-14 0 -24 10t-10 24v258q-13 1 -23 11t-10 23q0 14 10 24t24 10h33q13 0 23 -10t11 -24v-292q0 -14 -10 -24t-24 -10z"/>
<glyph horiz-adv-x="313" glyph-name="twoinferior" unicode="₂" d="M239 0h-165q-17 0 -28 14q-6 9 -6 20q0 3 2 11q2 7 10 26t35 53q26 34 58 55q36 23 48 35t12 31t-14 33t-34 14q-21 0 -35 -14t-14 -33q0 -14 -10 -24t-24 -10t-24 10t-10 24q0 47 34 81t83 34q48 0 82 -34t34 -81q1 -30 -15 -55q-16 -24 -30 -36t-45 -32 q-32 -21 -53 -54h109q14 0 24 -10t10 -24t-10 -24t-24 -10z"/>
<glyph horiz-adv-x="323" glyph-name="threeinferior" unicode="₃" d="M244 196q39 -32 39 -83q0 -47 -36 -80t-86 -33q-49 0 -85 33t-36 80q0 14 10 24t24 10t24 -10t10 -24q0 -19 16 -32t37 -13q22 0 38 13t16 32q1 19 -15 33t-39 13q-14 0 -24 10t-10 24t10 24t24 10q16 0 27 9t11 22t-11 22t-27 9q-17 0 -27 -9t-10 -22q0 -14 -10 -24 t-24 -10t-24 10t-10 24q0 41 30 70t75 29q44 0 75 -29t31 -70q0 -34 -23 -62z"/>
<glyph horiz-adv-x="303" glyph-name="fourinferior" unicode="₄" d="M174 220l-52 -86h52v86zM203 0q-13 0 -21 8t-8 22v44h-104q-14 0 -22 9t-8 22q0 9 4 14l134 224q9 14 26 14q12 0 20 -9t9 -21v-193q13 0 21 -9t9 -21q-1 -12 -9 -21t-21 -9v-44q-1 -14 -9 -22t-21 -8z"/>
<glyph horiz-adv-x="318" glyph-name="fiveinferior" unicode="₅" d="M159 238q49 0 84 -35t35 -84t-35 -84t-84 -35t-84 35t-35 84q0 13 8 21t22 9q14 -1 22 -9t8 -21q0 -25 17 -42t42 -17t43 17t17 42t-17 41t-39 18l-56 -13q-3 -1 -8 -1q-13 0 -21 10t-8 23l15 133q2 12 10 20t20 7h89q12 -1 20 -9t9 -21q-1 -12 -9 -21t-20 -9h-63l-7 -64 l18 4q2 1 7 1z"/>
<glyph horiz-adv-x="318" glyph-name="sixinferior" unicode="₆" d="M159 178q-25 0 -42 -17t-17 -42t17 -42t42 -17t42 17t17 42t-17 42t-42 17zM159 0q-49 0 -84 35t-35 84q0 32 12 52l90 170q10 16 27 16q12 0 21 -9t9 -21q0 -7 -4 -14l-40 -75h4q49 0 84 -35t35 -84t-35 -84t-84 -35z"/>
<glyph horiz-adv-x="288" glyph-name="seveninferior" unicode="₇" d="M69 0q-7 0 -13 3q-16 9 -16 27q0 7 3 13l127 254h-101q-13 0 -21 9t-8 21q0 13 8 21t21 9h149q17 0 25 -14q5 -8 5 -16q0 -7 -3 -13l-149 -298q-8 -16 -27 -16z"/>
<glyph horiz-adv-x="318" glyph-name="eightinferior" unicode="₈" d="M158 60q24 0 42 17t18 42t-18 42t-42 17t-42 -17t-17 -42q-1 -25 17 -42t42 -17zM129 268q1 -14 9 -22t20 -8q13 0 22 8t9 22q0 12 -9 20t-22 9q-12 -1 -20 -9t-9 -20zM230 214q48 -36 48 -95q0 -49 -36 -84t-84 -35q-50 0 -84 35t-34 84q0 58 47 95q-18 25 -18 54 q1 37 27 63t62 26q38 0 64 -26t26 -63q0 -29 -18 -54z"/>
<glyph horiz-adv-x="318" glyph-name="nineinferior" unicode="₉" d="M158 178q24 0 42 18t18 42q0 25 -18 42t-42 17t-42 -17t-17 -42q-1 -24 17 -42t42 -18zM158 357q48 0 84 -35t36 -84q0 -25 -12 -52l-91 -170q-10 -16 -26 -16q-13 0 -21 9t-9 21q0 6 3 14l40 75h-4q-50 0 -84 35t-34 84t34 84t84 35z"/>
<glyph horiz-adv-x="664" glyph-name="Euro" unicode="€" d="M618 106q6 -14 6 -26q0 -40 -56 -60t-120 -20q-104 0 -190 56t-128 148h-32q-24 0 -41 17t-17 41q0 25 18 42t42 17q-2 18 -2 29v14t1 15q-25 0 -42 17t-17 41q0 25 17 42t41 17h32q42 92 128 148t190 56q64 0 120 -20t56 -60q0 -12 -6 -26q-16 -35 -53 -35q-10 0 -23 5 q-44 19 -94 19q-111 0 -182 -87h211q25 0 42 -17t17 -42q0 -24 -17 -41t-42 -17h-260q-2 -18 -2 -29t2 -29h260q25 0 42 -17t17 -42q0 -24 -17 -41t-42 -17h-211q71 -87 182 -87q50 0 94 19q12 5 23 5q39 0 53 -35z"/>
<glyph horiz-adv-x="1192" glyph-name="afii61352" unicode="№" d="M507 0q-31 0 -48 25l-302 432v-399q1 -24 -17 -41t-42 -17t-41 17t-17 41v584q0 19 11 34t30 21q6 2 17 2q32 0 48 -24l302 -432v399q0 24 17 41t42 17q24 0 41 -17t17 -41v-584q0 -22 -17 -40t-41 -18zM963 58q0 -24 -17 -41t-42 -17q-24 0 -41 17t-17 41q0 25 17 42 t41 17q25 0 42 -17t17 -42zM904 583q-54 -1 -92 -43t-39 -103q1 -61 39 -103t92 -42q56 0 94 42t38 103t-38 103t-94 43zM904 175q-102 0 -175 77t-73 185q0 109 73 186t175 77q104 0 176 -77t72 -186q0 -108 -72 -185t-176 -77z"/>
<glyph horiz-adv-x="833" glyph-name="trademark" unicode="™"/>
<glyph horiz-adv-x="576" glyph-name="Delta" unicode="∆" d="M288 453l-109 -336h218zM477 0h-379q-24 0 -41 17t-17 41q0 9 3 18l189 584q6 18 22 29t34 11q19 0 34 -11t21 -29l190 -584q3 -9 3 -18q0 -24 -17 -41t-42 -17z"/>
<glyph horiz-adv-x="635" glyph-name="product" unicode="∏" d="M536 0q-24 0 -41 17t-17 41v525h-321v-525q0 -24 -17 -41t-42 -17q-24 0 -41 17t-17 41v584q0 24 17 41t42 17h437q24 0 42 -17t17 -41v-584q0 -24 -17 -41t-42 -17z"/>
<glyph glyph-name="summation" unicode="∑" d="M448 0h-350q-36 0 -52 32q-6 12 -6 26q0 18 11 34l185 258l-185 258q-11 16 -11 34q0 14 6 26q16 32 52 32h350q25 0 42 -17t17 -41q0 -25 -17 -42t-42 -17h-236l144 -199q10 -14 10 -34q0 -21 -10 -34l-144 -199h236q25 0 42 -17t17 -42q0 -24 -17 -41t-42 -17z"/>
<glyph horiz-adv-x="529" glyph-name="minus" unicode="−" d="M430 411q25 0 42 -17t17 -41t-17 -41t-42 -17h-331q-23 0 -41 17t-18 41t18 41t41 17h331z"/>
<glyph horiz-adv-x="488" glyph-name="lessequal" unicode="≤" d="M390 117q24 0 41 -17t17 -42q0 -24 -17 -41t-41 -17h-292q-24 0 -41 17t-17 41q0 25 17 42t41 17h292zM276 163l-146 146q-17 16 -17 41t17 41l146 146q17 17 41 17q22 0 41 -17q17 -17 17 -41q0 -22 -17 -41l-104 -105l104 -104q17 -19 17 -42q0 -24 -17 -41t-41 -17 t-41 17z"/>
<glyph horiz-adv-x="488" glyph-name="greaterequal" unicode="≥" d="M98 117h292q24 0 41 -17t17 -42q0 -24 -17 -41t-41 -17h-292q-24 0 -41 17t-17 41q0 25 17 42t41 17zM358 309l-146 -146q-17 -17 -41 -17t-41 17t-17 41q0 23 17 42l104 104l-104 105q-17 19 -17 41q0 24 17 41q19 17 41 17q24 0 41 -17l146 -146q17 -16 17 -41t-17 -41 z"/>
<glyph horiz-adv-x="664" glyph-name="lozenge" unicode="◊" d="M332 152l158 198l-158 198l-159 -198zM377 678l234 -292q13 -18 13 -36q0 -20 -13 -36l-234 -292q-17 -22 -45 -22q-29 0 -46 22l-233 292q-13 14 -13 36q0 20 13 36l233 292q17 22 46 22q28 0 45 -22z"/>
<glyph horiz-adv-x="854" glyph-name="apple" unicode="" d="M563 116q51 0 93 78t42 168q0 94 -59 181q-26 39 -72 39q-52 0 -94 -44q-18 -18 -46 -18h-4q-25 0 -42 18q-44 44 -91 44q-43 0 -76 -39q-59 -87 -59 -181q1 -94 43 -170t92 -76q22 0 46 20t38 40q18 26 48 26h10q31 0 48 -26q14 -20 38 -40t45 -20zM731 614l2 -3 q81 -120 81 -248q0 -48 -13 -102q-11 -41 -31 -84t-49 -84t-71 -67t-87 -26q-72 0 -136 62q-66 -62 -137 -62q-84 0 -148 82t-89 179q-13 54 -13 103q0 131 81 247q0 1 2 3q8 12 23 26q14 14 54 36t83 24q50 0 89 -16v10t-1 11q0 99 60 146q15 12 35 12q30 0 46 -22 q12 -15 12 -35q0 -28 -22 -46q-16 -13 -16 -59v-8t1 -7q33 13 84 13q42 -1 82 -23t55 -36t23 -26z"/>
<glyph horiz-adv-x="546" glyph-name="fi" unicode="ﬁ" d="M448 525q-24 0 -41 17t-17 41q0 25 17 42t41 17t41 -17t17 -42q0 -24 -17 -41t-41 -17zM448 467q24 0 40 -17t18 -42v-350q0 -24 -17 -41t-41 -17t-41 17t-17 41v292h-146v-292q0 -24 -17 -41t-42 -17q-24 0 -41 17t-17 41v292h-29q-24 0 -41 17t-17 41q0 25 17 42t41 17 h29v58q0 43 21 84q45 91 154 91q24 0 41 -17t17 -41q0 -25 -17 -42t-41 -17q-36 0 -50 -26l-8 -32v-58h204z"/>
<glyph horiz-adv-x="546" glyph-name="fl" unicode="ﬂ" d="M448 467q24 1 41 -17t17 -42v-350q0 -24 -17 -41t-41 -17t-41 17t-17 41v350q0 24 17 42t41 17zM458 497q-4 -1 -13 -1q-21 0 -37 12t-21 32q-10 43 -56 43h-29q-36 0 -50 -26l-8 -32v-58h58q24 0 42 -17t17 -42q1 -24 -17 -41t-42 -17h-58v-292q0 -24 -17 -41t-41 -17 q-25 0 -42 17t-17 41v292h-29q-24 0 -41 17t-17 41q0 25 17 42t41 17h29v58q0 43 21 84q45 91 154 91h29q65 0 110 -35t60 -97q1 -4 1 -13q0 -21 -12 -37t-32 -21z"/>
<glyph glyph-name="E.alt4" d="M448 288h-112l-124 -171h236q25 0 42 -17t17 -42q0 -24 -17 -41t-42 -17h-350q-36 0 -52 32q-6 12 -6 26q0 18 11 34l185 258l-185 258q-11 16 -11 34q0 14 6 26q16 32 52 32h350q25 0 42 -17t17 -41q0 -25 -17 -42t-42 -17h-236l129 -178h107q25 0 42 -17t17 -41 q0 -23 -17 -41t-42 -18z"/>
<glyph glyph-name="f.alt3" d="M302 408q25 0 42 -17t17 -41t-17 -41t-42 -17q-24 0 -41 17t-17 41t17 41t41 17zM98 700h350q25 0 42 -17t17 -41q1 -25 -17 -42t-42 -17h-291v-525q0 -24 -17 -41t-42 -17q-24 0 -41 17t-17 41v584q0 24 17 41t41 17z"/>
<glyph horiz-adv-x="546" glyph-name="N.001" d="M448 700q24 0 41 -17t17 -41v-584q0 -20 -12 -36t-30 -20q-10 -2 -16 -2q-34 0 -50 28l-242 403v-373q0 -24 -17 -41t-41 -17t-41 17t-17 41v584q0 20 12 36t30 20q10 2 16 2q34 0 50 -28l242 -403v373q0 24 17 41t41 17z"/>
<glyph horiz-adv-x="196" glyph-name="i.alt1" d="M98 467q24 0 41 -17t17 -42v-350q0 -24 -17 -41t-41 -17t-41 17t-17 41v350q0 25 17 42t41 17z"/>
<glyph horiz-adv-x="664" glyph-name="m.alt1" d="M565 292q25 0 42 -17t17 -42v-175q0 -24 -17 -41t-42 -17q-24 0 -41 17t-17 41v175q0 25 17 42t41 17zM565 350h-175v-292q0 -24 -17 -41t-41 -17t-41 17t-17 41v292h-117v-292q0 -24 -17 -41t-41 -17q-25 0 -42 17t-17 41v350q0 25 17 42t42 17h466q25 0 42 -17t17 -42 q0 -24 -17 -41t-42 -17z"/>
<glyph horiz-adv-x="548" glyph-name="z.alt3" d="M201 117h248q25 0 42 -17t17 -42q0 -24 -17 -41t-42 -17h-350q-14 0 -32 8t-18 22q-9 14 -9 29q0 14 9 29q7 10 15 26l14 28t16 28q10 14 20 24t20 17t24 7t28 -8q22 -10 28 -34q2 -9 2 -18q0 -14 -7 -27q-1 -2 -3 -7t-5 -7zM274 408q25 0 42 -17t17 -41t-17 -41t-42 -17 q-24 0 -41 17t-17 41t17 41t41 17zM348 583h-249q-24 0 -41 17t-17 42q0 24 17 41t41 17h350q33 0 50 -30q9 -15 9 -29t-8 -28l-1 -1l-18 -30q-11 -20 -21 -36t-18 -33q-16 -30 -51 -30t-51 29q-8 14 -8 29q0 14 8 28q3 7 8 14z"/>
<glyph horiz-adv-x="605" glyph-name="K.001" d="M549 681q16 -16 16 -39q0 -25 -19 -43l-329 -304h115q27 0 45 -21l146 -179q13 -16 13 -36q0 -27 -22 -46q-14 -13 -37 -13q-27 0 -45 21l-128 157h-147v-120q1 -24 -17 -41t-42 -17t-41 17t-17 41v584q0 24 17 41t41 17t42 -17t17 -41v-244l310 287q17 15 40 15 q26 0 42 -19z"/>
<glyph horiz-adv-x="490" glyph-name="seven.alt1" d="M441 672q9 -15 9 -30q0 -13 -7 -26l-292 -584q-16 -32 -52 -32q-12 0 -26 6q-21 11 -29 34q-3 9 -4 18q0 13 7 26l75 149h-23q-24 0 -41 17t-17 42q0 24 17 41t41 17h81l117 233h-139v-58q0 -24 -17 -41t-42 -17q-24 0 -41 17t-17 41v117q0 24 17 41t41 17h292 q33 0 50 -28z"/>
<glyph horiz-adv-x="488" glyph-name="C.alt1" d="M390 0q-146 0 -248 102t-102 248t102 248t248 102q24 0 41 -17t17 -41q0 -25 -17 -42t-41 -17q-97 0 -165 -68t-68 -165t68 -165t165 -68q24 0 41 -17t17 -42q0 -24 -17 -41t-41 -17z"/>
<glyph horiz-adv-x="663" glyph-name="M.alt3" d="M332 443l112 140h-224zM623 642v-584q0 -24 -17 -41t-41 -17t-41 17t-17 41v417l-130 -161q-17 -22 -45 -22q-29 0 -46 22l-129 161v-417q0 -24 -17 -41t-42 -17q-24 0 -41 17t-17 41v584q0 18 11 34t28 21q12 3 24 3h456q17 0 25 -3q18 -5 28 -21t11 -34z"/>
<glyph horiz-adv-x="342" glyph-name="one.alt1" d="M186 700h58q24 0 41 -17t17 -41v-584q0 -24 -17 -41t-41 -17t-41 17t-17 41v175h-88q-24 0 -41 17t-17 42q0 24 17 41t41 17h88v58h-59q-24 0 -41 17t-17 42q0 24 17 41t41 17h59v58q-24 0 -42 17t-17 42q-1 24 17 41t42 17z"/>
<glyph horiz-adv-x="546" glyph-name="three.alt1" d="M273 117q49 0 83 34t34 82q0 49 -34 83t-83 34t-83 -34t-34 -83q0 -48 34 -82t83 -34zM413 420q93 -70 93 -187q0 -97 -68 -165t-165 -68t-165 68t-68 165t68 165t165 69h5q23 2 38 19t15 39q0 24 -17 41t-41 17h-117q-24 0 -41 17t-17 42q0 24 17 41t41 17h117 q71 0 123 -52t52 -123q0 -59 -35 -105z"/>
<glyph glyph-name="nine.alt1" d="M273 350q49 0 83 34t34 83q0 48 -34 82t-83 34q-48 0 -82 -34t-34 -82q0 -49 34 -83t82 -34zM273 700q97 0 165 -68t69 -165q-1 -97 -69 -165t-165 -69q-5 0 -7 1l-113 -204q-17 -30 -52 -30q-15 0 -28 7q-30 17 -30 51q0 15 8 29l100 181q-51 31 -81 84t-30 115 q0 97 68 165t165 68z"/>
<glyph glyph-name="six.alt1" d="M273 350q-48 0 -82 -34t-34 -83q0 -48 34 -82t82 -34q49 0 83 34t34 82q0 49 -34 83t-83 34zM273 0q-97 0 -165 68t-68 165t68 165t165 69q5 0 8 -1l113 204q17 30 51 30q15 0 28 -7q31 -17 31 -51q0 -15 -8 -29l-101 -181q51 -31 81 -84t31 -115q-1 -97 -69 -165 t-165 -68z"/>
<glyph horiz-adv-x="1101" glyph-name="f_i_v_e.001" d="M47 610q16 32 51 32q16 0 27 -7l61 -31v38q0 24 17 41t41 17q25 0 42 -17t17 -41v-98l87 -45v143q0 24 17 41t42 17q24 0 41 -17t17 -41v-204l87 -45v249q0 24 17 41t42 17q24 0 41 -17t17 -41v-309l88 -45v354q0 24 17 41t41 17t41 -17t17 -41v-414l114 -59 q32 -17 32 -53q0 -14 -6 -26q-18 -32 -52 -32q-11 0 -27 7l-61 31v-38q0 -24 -17 -41t-41 -17t-41 17t-17 41v98l-88 46v-144q0 -24 -17 -41t-41 -17q-25 0 -42 17t-17 41v204l-87 45v-249q0 -24 -17 -41t-41 -17q-25 0 -42 17t-17 41v309l-87 45v-354q0 -24 -17 -41 t-42 -17q-24 0 -41 17t-17 41v415l-114 59q-32 16 -32 51q0 16 7 27z"/>
<glyph horiz-adv-x="494" glyph-name="two.alt1" d="M167 532q-9 -18 -9 -38q0 -37 26 -63t63 -26t63 26t26 63v7q-3 33 -29 57t-60 24q-25 0 -47 -14t-33 -36zM395 118q25 0 42 -17t17 -42t-17 -42t-42 -17h-296q-25 0 -42 17t-17 42q0 8 1 19t7 41q6 31 16 59t34 65q23 37 54 67q-50 24 -80 72t-32 106v5q0 11 2 31 q12 76 70 126t135 51q85 -1 146 -61t61 -146v-10q0 -20 -5 -42t-19 -52t-46 -62t-81 -56q-102 -50 -134 -154h226z"/>
<glyph glyph-name="zero.alt1" d="M273 117q48 0 78 39q4 5 10 15l-204 187v-66q0 -87 38 -136q31 -39 78 -39zM273 583q-33 -1 -59 -23t-40 -59l216 -198v105q0 69 -32 122t-85 53zM440 616q67 -81 67 -208v-116q0 -127 -64 -208q-67 -84 -170 -84q-102 0 -169 84q-64 81 -64 208v116q0 127 66 208 q68 84 167 84t167 -84z"/>
<glyph horiz-adv-x="896" glyph-name="w.alt4" d="M815 698q19 -6 30 -22t11 -34q0 -11 -2 -17l-175 -583q-5 -18 -21 -30t-35 -12t-35 12t-21 30l-119 397l-119 -397q-5 -18 -21 -30t-35 -12t-35 12t-21 30l-175 583q-2 5 -2 16q0 19 12 35t30 22q5 2 16 2q18 0 34 -12t22 -30l119 -397l119 397q6 18 22 30t34 12 q20 0 36 -12t20 -30l119 -397l119 397q6 18 22 30t35 12q11 0 16 -2z"/>
<glyph horiz-adv-x="573" glyph-name="H.alt1.001" d="M475 700q24 0 41 -17t17 -41v-584q0 -24 -17 -41t-41 -17t-41 17t-17 41v241l-92 -81q-17 -14 -39 -14q-11 0 -24 5q-34 16 -34 53v25l-58 -64l-13 -11v-154q0 -24 -17 -41t-42 -17q-24 0 -41 17t-17 41v584q0 24 17 41t41 17q25 0 42 -17t17 -41v-260l86 95q17 19 43 19 q12 0 21 -4q38 -15 38 -55v-46l64 55q3 4 8 6v190q0 24 17 41t41 17z"/>
<glyph horiz-adv-x="664" glyph-name="A.alt1.001" d="M261 305l72 -103l72 103l-72 180zM536 289l84 -209q4 -11 4 -22q0 -16 -10 -32q-16 -26 -48 -26q-18 0 -32 10t-22 27l-56 138l-76 -108q-17 -25 -47 -25q-31 0 -48 25l-76 108l-56 -138q-9 -23 -31 -33q-11 -5 -23 -4l-21 4q-22 10 -32 32q-5 12 -5 22q0 11 4 22l84 209 l-19 28q-11 16 -11 33q-1 17 11 34q17 25 45 25q10 0 20 -3l103 257q15 37 55 37q17 0 32 -10t22 -27l103 -257q11 3 21 3q27 0 43 -25q11 -17 12 -34q0 -17 -11 -33z"/>
<glyph horiz-adv-x="751" glyph-name="G.alt1.001" d="M581 292l122 -204q8 -14 8 -29q-1 -23 -17 -41t-41 -18q-35 0 -51 28l-18 31q-88 -59 -194 -59q-138 0 -244 102t-106 248t104 248t246 102q146 0 247 -102q17 -17 17 -42q0 -24 -18 -41t-40 -17q-24 0 -41 17q-68 68 -165 68q-95 1 -164 -69t-69 -164q0 -95 69 -164 t164 -69q74 0 134 42l-97 161q-8 14 -8 30q0 24 17 41t41 17h175q25 0 42 -17t17 -41t-17 -41t-42 -17h-71z"/>
<glyph horiz-adv-x="692" glyph-name="Q.alt1" d="M404 179v-51q58 23 95 84t37 138q0 97 -56 165t-134 68t-134 -68t-55 -165q0 -77 36 -138t94 -84v51q0 24 17 41t42 17q24 0 41 -17t17 -41zM652 350q0 -127 -70 -224t-178 -120v-61q0 -24 -17 -41t-41 -17q-25 0 -42 17t-17 41v62q-107 23 -177 119t-70 224 q0 146 90 248t216 102t216 -102t90 -248z"/>
<glyph horiz-adv-x="518" glyph-name="R.alt1" d="M157 578v-233h87q32 0 64 17q53 28 53 100q0 71 -53 99q-32 17 -64 17h-87zM315 239l145 -144q17 -17 17 -42t-16 -41q-19 -17 -42 -17q-22 0 -41 17l-221 216v-175q0 -24 -17 -41t-41 -17q-25 0 -42 17t-17 41v584q0 24 17 41t42 17h145q57 0 114 -28q120 -61 120 -205 q0 -145 -120 -206q-24 -11 -43 -17z"/>
<glyph horiz-adv-x="663" glyph-name="V.alt1" d="M332 0q-40 0 -55 37l-233 583q-4 9 -4 21q0 18 10 33t27 22q9 4 21 4q18 0 32 -10t22 -27l180 -448l147 368h-31q-24 0 -41 17t-17 41q0 25 17 42t41 17h117q30 0 48 -26q10 -14 10 -32q0 -13 -4 -22l-233 -583q-7 -17 -22 -27t-32 -10z"/>
<glyph glyph-name="x.alt7" d="M312 408h-107q-32 0 -50 28l-106 175q-9 15 -9 31q0 33 28 49q15 9 31 9q32 0 49 -28l90 -147h41l90 147q17 28 50 28q16 0 31 -9q28 -16 28 -49q0 -16 -9 -31l-107 -175q-18 -28 -50 -28zM98 0q-17 0 -29 8q-29 17 -29 50q0 15 8 29l116 204q17 30 51 30h117 q35 0 50 -30l117 -204q8 -14 8 -29q0 -33 -30 -50q-14 -8 -29 -8q-33 0 -50 29l-100 175h-49l-100 -175q-17 -29 -51 -29z"/>
<glyph horiz-adv-x="310" glyph-name="t.alt1" d="M212 467q24 0 41 -17t17 -42q0 -24 -17 -41t-41 -17h-55v-292q1 -24 -17 -41t-42 -17t-41 17t-17 41v584q0 24 17 41t41 17t42 -17t17 -41v-175h55z"/>
<glyph horiz-adv-x="654" glyph-name="ampersand.alt1" d="M390 233q0 20 -6 38l-14 28q-35 51 -97 51q-48 0 -82 -34t-34 -83q0 -48 34 -82t82 -34q49 0 83 34t34 82zM608 84q6 -12 6 -25q0 -36 -33 -53q-12 -6 -26 -6q-36 0 -52 32l-36 72q-31 -48 -83 -76t-111 -28q-97 0 -165 68t-68 165t68 165t165 69q9 0 13 -1l-74 150 q-6 12 -6 26q0 16 8 30q17 28 50 28h204q24 0 41 -17t17 -41q0 -25 -17 -42t-41 -17h-110l113 -226q14 -22 20 -40z"/>
<glyph horiz-adv-x="945" glyph-name="w.alt7.001" d="M76 695q12 5 23 5q38 0 53 -36l189 -454l68 162l-103 247q-4 9 -4 22q0 39 36 55q9 4 22 4q40 0 54 -36l189 -454l190 454q15 36 53 36q10 0 23 -5q36 -14 36 -54q0 -13 -4 -22l-244 -583q-15 -36 -54 -36q-38 0 -53 36l-78 185l-77 -185q-15 -36 -54 -36q-38 0 -53 36 l-244 583q-4 9 -4 22q0 40 36 54z"/>
<glyph glyph-name="e.alt7" d="M157 257l92 93l-92 92v-185zM181 117h267q25 0 42 -17t17 -42q0 -24 -17 -41t-42 -17h-350q-24 0 -41 17t-17 41v584q0 24 17 41t41 17h350q25 0 42 -17t17 -41q1 -25 -17 -42t-42 -17h-267l192 -192q17 -19 17 -41q0 -24 -17 -41z"/>
<glyph horiz-adv-x="722" glyph-name="m.alt4" d="M642 697q18 -6 29 -21t11 -34v-584q0 -24 -18 -41t-41 -17q-24 0 -41 17t-17 41v409l-146 -195v-214q0 -24 -17 -41t-41 -17q-23 0 -41 17t-18 41v214l-145 195v-409q0 -24 -17 -41t-42 -17q-24 0 -41 17t-17 41v584q0 19 11 34t29 21q9 3 19 3q29 0 46 -23l216 -288 l216 288q17 23 46 23q10 0 19 -3z"/>
<glyph horiz-adv-x="488" glyph-name="seven.001" d="M440 672q8 -14 8 -30q0 -14 -6 -26l-292 -584q-16 -32 -52 -32q-26 0 -42 18t-16 41q0 13 6 26l250 498h-139v-58q1 -24 -17 -41t-42 -17t-41 17t-17 41v117q0 24 17 41t41 17h292q33 0 50 -28z"/>
<glyph glyph-name="e.alt3" d="M361 350q0 -24 -17 -41t-42 -17q-24 0 -41 17t-17 41t17 41t41 17q25 0 42 -17t17 -41zM448 0h-350q-24 0 -41 17t-17 41v584q0 24 17 41t41 17h350q25 0 42 -17t17 -41q1 -25 -17 -42t-42 -17h-291v-466h291q25 0 42 -17t17 -42q0 -24 -17 -41t-42 -17z"/>
<glyph horiz-adv-x="751" glyph-name="O.002" d="M376 700q24 0 41 -17t17 -41q0 -25 -17 -42t-41 -17q-91 0 -155 -68t-64 -165t64 -165t155 -68q90 0 154 68t64 165q0 24 18 41t41 17q24 0 41 -17t17 -41q0 -146 -98 -248t-237 -102q-140 0 -238 102t-98 248t98 248t238 102z"/>
<glyph horiz-adv-x="725" glyph-name="zero.001" d="M568 292v116q0 65 -28 117t-77 58q44 -74 44 -175v-116q0 -99 -42 -174q38 5 64 38q39 50 39 136zM195 156q27 -33 65 -38q-42 72 -42 174v116q0 100 43 175q-48 -6 -76 -58t-28 -117v-116q0 -87 38 -136zM335 408v-116q0 -70 27 -119q28 48 28 119v116q0 68 -28 115 q-27 -48 -27 -115zM618 616q67 -81 67 -208v-116q0 -127 -64 -208q-67 -84 -169 -84q-47 0 -90 20q-42 -20 -89 -20q-102 0 -169 84q-64 81 -64 208v116q0 127 66 208q68 84 167 84q47 0 89 -21q42 21 90 21q98 0 166 -84z"/>
<glyph horiz-adv-x="486" glyph-name="Z.002" d="M388 0l-291 3q-31 0 -49 28q-8 14 -8 30q0 14 6 26l248 497h-138v-58q0 -24 -17 -41t-41 -17t-41 17t-17 41v116q0 24 17 41t41 17h290q33 0 50 -28q8 -14 8 -30q0 -14 -6 -26l-249 -498h139v56q0 24 17 41t41 17t41 -17t17 -41v-116q0 -24 -17 -41t-41 -17z"/>
<glyph horiz-adv-x="604" glyph-name="A.alt3.002" d="M98 700q24 0 41 -17t17 -41v-399l302 432q19 25 48 25q17 0 33 -11q25 -16 25 -47q0 -20 -10 -34l-409 -583q-17 -25 -47 -25q-9 0 -18 3q-18 5 -29 21t-11 34v584q0 24 17 41t41 17z"/>
<glyph horiz-adv-x="575" glyph-name="U.001" d="M288 0q-76 0 -132 35t-87 101q-29 63 -29 127v379q0 24 17 41t41 17t41 -17t17 -41v-379q0 -11 4 -30t16 -47t42 -49q30 -20 70 -20t68 19q28 18 41 46q12 28 17 48t5 33v379q0 24 17 41t41 17t41 -17t17 -41v-379q0 -66 -28 -127q-31 -66 -87 -101t-132 -35z"/>
<glyph horiz-adv-x="605" glyph-name="D.alt1.001" d="M157 292v-175h111q47 0 93 30q68 44 83 145h-287zM268 0h-170q-24 0 -41 17t-17 41v292q0 24 17 41t41 17h346q-15 104 -87 147q-46 28 -89 28h-170q-24 0 -41 17t-17 42q0 24 17 41t41 17h170q76 0 150 -45q147 -90 147 -305t-147 -305q-74 -45 -150 -45z"/>
<glyph horiz-adv-x="488" glyph-name="notequal.001" d="M390 117q24 0 41 -17t17 -42q0 -24 -17 -41t-41 -17h-292q-24 0 -41 17t-17 41q0 25 17 42t41 17h292zM276 163l-146 146q-17 16 -17 41t17 41l146 146q17 17 41 17q22 0 41 -17q17 -17 17 -41q0 -22 -17 -41l-104 -105l104 -104q17 -19 17 -42q0 -24 -17 -41t-41 -17 t-41 17z"/>
<glyph horiz-adv-x="693" glyph-name="w.alt1" d="M619 461q34 -16 34 -53q0 -13 -6 -25l-165 -350q-16 -33 -53 -33t-53 33l-30 64l-30 -64q-15 -33 -52 -33q-38 0 -53 33l-165 350q-6 12 -6 26q0 36 33 52q12 6 25 6q37 0 53 -34l113 -238l18 38l-71 150q-6 12 -6 25q0 37 34 53q12 6 25 6q36 0 52 -34l30 -63l30 63 q16 34 53 34q13 0 25 -6q34 -16 34 -53q0 -13 -6 -25l-71 -150l18 -38l112 238q16 34 53 34q13 0 25 -6z"/>
<glyph glyph-name="e.001" d="M448 117q25 0 42 -17t17 -42q0 -24 -17 -41t-42 -17h-350q-24 0 -41 17t-17 41v584q0 24 17 41t41 17h146q24 0 41 -17t17 -41q0 -25 -17 -42t-41 -17h-87v-116h175q24 1 41 -17t17 -42t-17 -41t-41 -17h-175v-58h233q24 0 41 -18t17 -41q0 -24 -17 -41t-41 -17h-233v-58 h291z"/>
<glyph horiz-adv-x="692" glyph-name="g.001" d="M594 408h-430q20 77 82 126t144 49h204q24 0 41 17t17 42q0 24 -17 41t-41 17h-204q-146 0 -248 -102t-102 -248t102 -248t248 -102q24 0 41 17t17 41q0 25 -17 42t-41 17q-82 0 -144 49t-82 126h372v-234q0 -24 17 -41t41 -17t41 17t17 41v292q0 24 -17 41t-41 17z"/>
<glyph horiz-adv-x="430" glyph-name="J.alt1" d="M98 0q-24 0 -41 17t-17 41q0 25 17 42t41 17q56 0 76 40q5 10 8 22t4 19v6v438q0 24 17 41t41 17h88q24 0 41 -17t17 -42q0 -24 -17 -41t-41 -17h-29v-379q0 -49 -25 -99q-52 -105 -180 -105z"/>
<glyph horiz-adv-x="605" glyph-name="K.alt1.001" d="M395 292l157 -197q13 -16 13 -36q-1 -3 -1 -7q-2 -24 -21 -39q-16 -13 -36 -13q-27 0 -46 22l-216 270h-88v-234q1 -24 -17 -41t-42 -17t-41 17t-17 41v584q0 24 17 41t41 17t42 -17t17 -41v-234h88l216 270q15 20 39 22h7q20 0 36 -13q19 -15 21 -39q0 -3 1 -7 q0 -20 -13 -36l-157 -197h112q24 0 41 -17t17 -41t-17 -41t-41 -17h-112z"/>
<glyph horiz-adv-x="722" glyph-name="m.001" d="M491 510l74 -36v73zM157 474l73 36l-73 37v-73zM654 691q28 -16 28 -49v-584q0 -24 -17 -41t-42 -17q-24 0 -41 17t-17 41v285l-204 102l-204 -102v-285q0 -24 -17 -41t-42 -17q-24 0 -41 17t-17 41v584q0 33 28 49q13 9 31 9q13 0 25 -6l237 -118l236 118q12 6 26 6 q17 0 31 -9z"/>
<glyph horiz-adv-x="634" glyph-name="N.alt1" d="M536 700q24 0 41 -17t17 -41v-584q0 -20 -12 -36t-31 -20q-10 -2 -15 -2q-34 0 -50 28l-242 403v-373q0 -24 -17 -41t-41 -17t-42 17t-17 41v525h-29q-24 0 -41 17t-17 42q0 24 17 41t41 17h85h4q32 0 49 -28l241 -403v373q-1 24 17 41t42 17z"/>
<glyph horiz-adv-x="780" glyph-name="o.001" d="M493 312q-24 0 -41 17l-83 83q-17 18 -17 42t17 40q17 17 41 17t42 -17l82 -82q17 -18 17 -42t-17 -41t-41 -17zM369 189q-25 0 -41 17l-82 82q-17 18 -17 42t17 41q16 17 40 17t42 -17l83 -83q17 -18 17 -42t-17 -40q-17 -17 -42 -17zM390 583q-97 0 -165 -68t-68 -165 t68 -165t165 -68t165 68t68 165t-68 165t-165 68zM390 0q-144 0 -248 102q-102 104 -102 248q0 145 102 247q103 103 248 103q146 0 247 -103q103 -101 103 -247q0 -145 -103 -248q-102 -102 -247 -102z"/>
<glyph horiz-adv-x="517" glyph-name="P.alt1" d="M98 0q-24 0 -41 17t-17 41v234q0 24 17 41t41 17h145q72 0 101 53q17 32 17 64q0 73 -56 101q-13 6 -29 10t-24 4l-9 1h-86v-58q0 -24 -17 -41t-42 -17q-24 0 -41 17t-17 41v117q0 24 17 41t41 17h145q57 0 114 -28q120 -60 120 -205q0 -60 -28 -114q-61 -120 -206 -120 h-86v-175q0 -24 -17 -41t-42 -17z"/>
<glyph horiz-adv-x="488" glyph-name="r.001" d="M157 583v-149l114 149h-114zM299 428l145 -347q4 -9 4 -22q0 -40 -36 -54q-12 -5 -22 -5q-39 0 -54 36l-119 285l-60 -78v-185q0 -24 -17 -41t-42 -17q-24 0 -41 17t-17 41v584q0 24 17 41t41 17h292q36 0 52 -33q6 -12 6 -26q0 -20 -12 -35z"/>
<glyph horiz-adv-x="518" glyph-name="S.alt1.001" d="M269 309l-101 -162q30 -30 76 -30q57 0 90 35q27 30 27 70v7q-4 43 -92 80zM244 0q-64 0 -117 32t-81 88q-6 12 -6 26q0 18 9 31l110 177q-94 58 -94 165q0 80 63 132q60 49 145 49q64 0 122 -40q24 -16 24 -47q0 -20 -11 -34q-18 -24 -48 -24q-19 0 -33 10 q-26 18 -54 18q-39 0 -65 -18t-27 -46q0 -35 21 -53t59 -31q22 -6 47 -16q24 -10 66 -33t71 -62t32 -86q1 -2 1 -8v-9q0 -84 -59 -149q-67 -72 -175 -72z"/>
<glyph horiz-adv-x="605" glyph-name="t.001" d="M535 576q30 -17 30 -51q0 -15 -8 -29q-17 -29 -51 -29q-15 0 -28 7l-117 67v-483q0 -24 -17 -41t-42 -17q-24 0 -41 17t-17 41v483l-117 -67q-14 -8 -29 -8q-33 0 -50 30q-8 14 -8 30q0 33 29 50l204 116q14 8 29 8t29 -8z"/>
<glyph horiz-adv-x="663" glyph-name="x.001" d="M332 215l53 135l-53 135l-54 -135zM511 350l108 -270q4 -9 4 -22q0 -40 -36 -54q-9 -4 -22 -4q-19 0 -33 10t-21 27l-63 156l-62 -156q-7 -17 -22 -27t-32 -10q-40 0 -55 37l-62 156l-63 -156q-8 -17 -22 -27t-32 -10q-12 0 -21 4q-17 7 -27 22t-10 33q0 12 4 21l108 270 l-108 270q-4 9 -4 21q0 18 10 33t27 22q9 4 21 4q18 0 32 -10t22 -27l63 -156l62 156q15 37 55 37q17 0 32 -10t22 -27l62 -156l63 156q7 17 22 27t33 10q12 0 21 -4q36 -14 36 -54q0 -13 -4 -22z"/>
<glyph glyph-name="Z.alt1.001" d="M448 117q25 0 42 -17t17 -42q0 -24 -17 -41t-42 -17h-350q-34 0 -50 30q-8 12 -8 29t8 29l122 204h-72q-24 0 -41 17t-17 41t17 41t41 17h142l105 175h-247q-24 0 -41 17t-17 42q0 24 17 41t41 17h350q35 0 51 -30q7 -13 7 -28q0 -18 -8 -30l-122 -204h72q25 0 42 -17 t17 -41t-17 -41t-42 -17h-142l-105 -175h247z"/>
<glyph horiz-adv-x="576" glyph-name="k.001" d="M157 374l27 28l-27 43v-71zM334 386l192 -296q10 -14 10 -32q0 -32 -27 -49q-15 -9 -31 -9q-33 0 -50 27l-179 275l-92 -93v-151q1 -24 -17 -41t-42 -17t-41 17t-17 41v584q0 18 12 34t30 22q10 2 16 2q32 0 49 -27l122 -187l167 168q17 17 41 17q23 0 42 -17 q16 -17 16 -42t-16 -41z"/>
<glyph horiz-adv-x="488" glyph-name="a.alt1" d="M226 117q26 1 48 13t21 31q0 19 -22 31t-47 12q-26 0 -48 -12t-22 -31t22 -31t48 -13zM390 467q24 0 41 -17t17 -42v-350q0 -24 -17 -41t-41 -17q-37 0 -52 32q-51 -32 -112 -32q-78 0 -132 47t-54 114q0 66 54 113t132 47q57 0 105 -29v58h-175q-24 0 -41 17t-17 41 q0 25 17 42t41 17h234z"/>
<glyph horiz-adv-x="780" glyph-name="M.alt1" d="M390 292q24 0 41 17t17 41t-17 41t-41 17t-41 -17t-17 -41t17 -41t41 -17zM710 692q30 -16 30 -50v-584q0 -24 -17 -41t-41 -17q-25 0 -42 17t-17 41v481l-109 -66q51 -51 51 -123q1 -73 -51 -124t-124 -51q-73 0 -124 51t-51 124q0 72 51 123l-109 66v-481 q0 -24 -17 -41t-42 -17q-24 0 -41 17t-17 41v584q0 34 30 50q14 8 28 8q16 0 30 -8l262 -157l262 157q14 8 30 8q14 0 28 -8z"/>
<glyph glyph-name="E.alt1.001" d="M157 257l92 93l-92 92v-185zM181 117h267q25 0 42 -17t17 -42q0 -24 -17 -41t-42 -17h-350q-24 0 -41 17t-17 41v584q0 24 17 41t41 17h350q25 0 42 -17t17 -41q1 -25 -17 -42t-42 -17h-267l192 -192q17 -19 17 -41q0 -24 -17 -41z"/>
<glyph glyph-name="F.alt1.001" d="M215 408q-24 0 -41 -17t-17 -41t17 -41t41 -17t41 17t17 41t-17 41t-41 17zM98 700h350q25 0 42 -17t17 -41q0 -25 -17 -42t-42 -17h-291v-68q30 10 58 10q71 1 123 -51t52 -124q0 -73 -52 -124t-123 -51q-28 0 -58 10v-127q0 -24 -17 -41t-42 -17q-24 0 -41 17t-17 41 v584q0 24 17 41t41 17z"/>
<glyph horiz-adv-x="517" glyph-name="g.alt1" d="M259 350q-43 0 -73 -34t-29 -82q-1 -49 29 -83t73 -34q42 0 72 34t30 83q0 48 -30 82t-72 34zM259 0q-54 0 -102 27v-56h145q25 0 42 -17t17 -41v-88q0 -24 -17 -41t-42 -17q-24 0 -41 17t-17 41v29h-146q-24 0 -41 18t-17 41v291q0 7 1 10q-1 6 -1 20q0 96 64 164 t155 69q90 -1 154 -69t64 -164q0 -98 -64 -166t-154 -68z"/>
<glyph horiz-adv-x="459" glyph-name="k.alt1" d="M406 96q13 -16 13 -37q0 -28 -21 -45q-15 -14 -37 -14q-27 0 -45 21l-118 142l-41 -41v-64q1 -24 -17 -41t-42 -17t-41 17t-17 41v584q0 24 17 41t41 17t42 -17t17 -41v-355l163 163q16 16 41 16q24 0 41 -16q17 -19 17 -42q0 -24 -17 -41l-121 -121z"/>
<glyph glyph-name="T.alt1.001" d="M273 292q23 0 41 17t18 41t-18 41t-41 17q-24 0 -41 -17t-17 -41t17 -41t41 -17zM98 700h350q25 0 42 -17t17 -41q0 -25 -17 -42t-42 -17h-116v-68q52 -17 84 -63t32 -102t-32 -102t-84 -63v-127q0 -24 -17 -41t-42 -17q-24 0 -41 17t-17 41v127q-53 17 -85 63t-32 102 t32 102t85 63v68h-117q-24 0 -41 17t-17 42q0 24 17 41t41 17z"/>
<glyph horiz-adv-x="430" glyph-name="I.alt3" d="M332 525q24 0 41 -17t17 -41q0 -25 -17 -42t-41 -17h-59v-350q0 -24 -17 -41t-41 -17h-117q-24 0 -41 17t-17 41q0 25 17 42t41 17h59v87h-59q-24 0 -41 17t-17 41q0 25 17 42t41 17h59v321q0 24 17 41t41 17h117q24 0 41 -17t17 -41q0 -25 -17 -42t-41 -17h-59v-58h59z "/>
<glyph horiz-adv-x="430" glyph-name="I.alt1.001" d="M215 292q24 0 41 17t17 41t-17 41t-41 17t-41 -17t-17 -41t17 -41t41 -17zM390 350q0 -56 -32 -102t-85 -63v-127q0 -24 -17 -41t-41 -17t-41 17t-17 41v127q-53 17 -85 63t-32 102t32 102t85 63v127q0 24 17 41t41 17t41 -17t17 -41v-127q53 -17 85 -63t32 -102z"/>
<glyph horiz-adv-x="320" glyph-name="r.alt1" d="M222 467q24 0 41 -17t17 -42q0 -24 -17 -41t-41 -17h-65v-292q0 -24 -17 -41t-42 -17q-24 0 -41 17t-17 41v350q0 25 17 42t41 17h124z"/>
<glyph horiz-adv-x="692" glyph-name="q.alt1.001" d="M404 179v-51q58 23 95 84t37 138q0 97 -56 165t-134 68t-134 -68t-55 -165q0 -77 36 -138t94 -84v51q0 24 17 41t42 17q24 0 41 -17t17 -41zM652 350q0 -127 -70 -224t-178 -120v-61q0 -24 -17 -41t-41 -17q-25 0 -42 17t-17 41v62q-107 23 -177 119t-70 224 q0 146 90 248t216 102t216 -102t90 -248z"/>
<glyph horiz-adv-x="780" glyph-name="W.alt1.001" d="M390 408q-24 0 -41 -17t-17 -41t17 -41t41 -17t41 17t17 41t-17 41t-41 17zM682 700q24 0 41 -17t17 -41v-584q0 -34 -30 -50q-14 -8 -28 -8q-16 0 -30 8l-262 157l-262 -157q-14 -9 -29 -9l-29 9q-30 16 -30 50v584q0 24 17 41t41 17t42 -17t17 -41v-481l109 66 q-51 49 -51 123q0 72 51 124t124 51q72 1 124 -51t51 -124q0 -74 -51 -123l109 -66v481q0 24 17 41t42 17z"/>
<glyph glyph-name="L.alt1.001" d="M215 408q-24 0 -41 -17t-17 -41t17 -41t41 -17t41 17t17 41t-17 41t-41 17zM157 117h291q25 0 42 -17t17 -42q0 -24 -17 -41t-42 -17h-350q-24 0 -41 17t-17 41v584q0 24 17 41t41 17q25 0 42 -17t17 -41v-127q30 10 58 10q71 1 123 -51t52 -124q0 -73 -52 -124t-123 -51 q-28 0 -58 10v-68z"/>
<glyph horiz-adv-x="644" glyph-name="X.alt1.001" d="M264 350q0 -24 17 -41t41 -17t41 17t17 41t-17 41t-41 17t-41 -17t-17 -41zM468 253l124 -159q12 -15 12 -35q0 -29 -23 -47q-15 -12 -35 -12q-29 0 -47 23l-124 160q-27 -8 -53 -8t-53 8l-125 -160q-17 -23 -46 -23q-20 0 -36 12q-22 18 -22 47q0 20 12 35l124 159 q-29 45 -29 97t29 97l-124 159q-12 15 -12 35q0 29 22 47q17 12 35 12q29 0 47 -23l125 -160q27 8 53 8t53 -8l124 160q18 23 47 23q20 0 35 -12q23 -18 23 -47q0 -20 -12 -35l-124 -159q29 -45 29 -97t-29 -97z"/>
<glyph glyph-name="b.001" d="M157 408h233v175h-233v-175zM448 700q25 0 42 -17t17 -41v-584q0 -24 -17 -41t-42 -17q-24 0 -41 17t-17 41v234h-233v-234q0 -24 -17 -41t-42 -17q-24 0 -41 17t-17 41v584q0 24 17 41t41 17h350z"/>
<glyph horiz-adv-x="984" glyph-name="c.001" d="M709 583q-47 -1 -81 -43t-34 -102t34 -102t81 -43q47 1 81 43t33 102q1 60 -33 102t-81 43zM709 177q-96 1 -164 77t-68 184q0 110 68 186t164 76q95 0 163 -76t68 -186q0 -108 -68 -184t-163 -77zM296 187q-106 -1 -181 75t-75 182t75 181t181 75q54 0 103 -21 q22 -11 31 -33q4 -11 4 -21q0 -12 -5 -23q-11 -22 -33 -31q-11 -4 -21 -4q-12 0 -23 5q-28 11 -56 11q-58 -1 -98 -41t-41 -98q1 -58 41 -99t98 -41q29 0 56 12q12 5 24 5q11 0 21 -4q22 -9 32 -31q5 -12 5 -24q0 -11 -4 -21q-9 -22 -31 -32q-52 -22 -103 -22zM886 0h-788 q-24 0 -41 17t-17 41q0 25 17 42t41 17h788q24 0 41 -17t17 -42q0 -24 -17 -41t-41 -17z"/>
<glyph horiz-adv-x="575" glyph-name="u.alt3" d="M288 0q-76 0 -132 35t-87 101q-29 63 -29 127v379q0 24 17 41t41 17t41 -17t17 -41v-379q0 -11 4 -30t16 -47t42 -49q30 -20 70 -20t68 19q28 18 41 46q12 28 17 48t5 33v379q0 24 17 41t41 17t41 -17t17 -41v-379q0 -66 -28 -127q-31 -66 -87 -101t-132 -35zM287 292 q-24 0 -41 17t-17 41t17 41t41 17q25 0 42 -17t17 -41t-17 -41t-42 -17z"/>
<glyph horiz-adv-x="488" glyph-name="n.alt1.001" d="M390 467q24 0 41 -17t17 -42v-350q0 -24 -17 -41t-41 -17t-41 17t-17 41v125l-175 116v-241q1 -24 -17 -41t-42 -17t-41 17t-17 41v350q0 36 31 52q13 7 28 7q18 0 32 -10l201 -134v85q0 25 17 42t41 17z"/>
<glyph horiz-adv-x="663" glyph-name="m.alt3" d="M332 443l112 140h-224zM623 642v-584q0 -24 -17 -41t-41 -17t-41 17t-17 41v417l-130 -161q-17 -22 -45 -22q-29 0 -46 22l-129 161v-417q0 -24 -17 -41t-42 -17q-24 0 -41 17t-17 41v584q0 18 11 34t28 21q12 3 24 3h456q17 0 25 -3q18 -5 28 -21t11 -34z"/>
<glyph horiz-adv-x="575" glyph-name="U.alt3" d="M288 0q-76 0 -132 35t-87 101q-29 63 -29 127v379q0 24 17 41t41 17t41 -17t17 -41v-379q0 -11 4 -30t16 -47t42 -49q30 -20 70 -20t68 19q28 18 41 46q12 28 17 48t5 33v379q0 24 17 41t41 17t41 -17t17 -41v-379q0 -66 -28 -127q-31 -66 -87 -101t-132 -35zM287 292 q-24 0 -41 17t-17 41t17 41t41 17q25 0 42 -17t17 -41t-17 -41t-42 -17z"/>
<glyph horiz-adv-x="896" glyph-name="W.alt4" d="M815 698q19 -6 30 -22t11 -34q0 -11 -2 -17l-175 -583q-5 -18 -21 -30t-35 -12t-35 12t-21 30l-119 397l-119 -397q-5 -18 -21 -30t-35 -12t-35 12t-21 30l-175 583q-2 5 -2 16q0 19 12 35t30 22q5 2 16 2q18 0 34 -12t22 -30l119 -397l119 397q6 18 22 30t34 12 q20 0 36 -12t20 -30l119 -397l119 397q6 18 22 30t35 12q11 0 16 -2z"/>
<glyph horiz-adv-x="548" glyph-name="Z.alt3" d="M201 117h248q25 0 42 -17t17 -42q0 -24 -17 -41t-42 -17h-350q-14 0 -32 8t-18 22q-9 14 -9 29q0 14 9 29q7 10 15 26l14 28t16 28q10 14 20 24t20 17t24 7t28 -8q22 -10 28 -34q2 -9 2 -18q0 -14 -7 -27q-1 -2 -3 -7t-5 -7zM274 408q25 0 42 -17t17 -41t-17 -41t-42 -17 q-24 0 -41 17t-17 41t17 41t41 17zM348 583h-249q-24 0 -41 17t-17 42q0 24 17 41t41 17h350q33 0 50 -30q9 -15 9 -29t-8 -28l-1 -1l-18 -30q-11 -20 -21 -36t-18 -33q-16 -30 -51 -30t-51 29q-8 14 -8 29q0 14 8 28q3 7 8 14z"/>
<glyph glyph-name="E.alt3" d="M361 350q0 -24 -17 -41t-42 -17q-24 0 -41 17t-17 41t17 41t41 17q25 0 42 -17t17 -41zM448 0h-350q-24 0 -41 17t-17 41v584q0 24 17 41t41 17h350q25 0 42 -17t17 -41q1 -25 -17 -42t-42 -17h-291v-466h291q25 0 42 -17t17 -42q0 -24 -17 -41t-42 -17z"/>
<glyph horiz-adv-x="722" glyph-name="M.alt4" d="M642 697q18 -6 29 -21t11 -34v-584q0 -24 -18 -41t-41 -17q-24 0 -41 17t-17 41v409l-146 -195v-214q0 -24 -17 -41t-41 -17q-23 0 -41 17t-18 41v214l-145 195v-409q0 -24 -17 -41t-42 -17q-24 0 -41 17t-17 41v584q0 19 11 34t29 21q9 3 19 3q29 0 46 -23l216 -288 l216 288q17 23 46 23q10 0 19 -3z"/>
<glyph horiz-adv-x="430" glyph-name="i.alt3.001" d="M98 525h59v58h-59q-24 0 -41 17t-17 42q0 24 17 41t41 17h117q24 0 41 -17t17 -41v-321h59q24 0 41 -17t17 -42q0 -24 -17 -41t-41 -17h-59v-87h59q24 0 41 -17t17 -42q0 -24 -17 -41t-41 -17h-117q-24 0 -41 17t-17 41v350h-59q-24 0 -41 17t-17 42q0 24 17 41t41 17z "/>
<glyph horiz-adv-x="576" glyph-name="H.alt3" d="M346 350q0 -24 -17 -41t-41 -17t-41 17t-17 41t17 41t41 17t41 -17t17 -41zM477 0q-24 0 -41 17t-17 41v584q0 24 17 41t41 17q25 0 42 -17t17 -41v-584q0 -24 -17 -41t-42 -17zM98 0q-24 0 -41 17t-17 41v584q0 24 17 41t41 17t42 -17t17 -41v-584q1 -24 -17 -41 t-42 -17z"/>
<glyph glyph-name="F.alt3" d="M302 408q25 0 42 -17t17 -41t-17 -41t-42 -17q-24 0 -41 17t-17 41t17 41t41 17zM98 700h350q25 0 42 -17t17 -41q1 -25 -17 -42t-42 -17h-291v-525q0 -24 -17 -41t-42 -17q-24 0 -41 17t-17 41v584q0 24 17 41t41 17z"/>
<glyph horiz-adv-x="694" glyph-name="less.alt1" d="M57 391l177 177q16 16 41 16t41 -16q17 -17 17 -42t-17 -41l-75 -74h69l157 157q17 16 42 16t41 -16q17 -19 17 -42q0 -24 -17 -41l-75 -74h121q24 1 41 -17t17 -42t-17 -41t-41 -17h-126l80 -79q17 -17 17 -41q0 -23 -17 -42q-19 -17 -42 -17q-24 0 -41 17l-161 162h-69 l79 -79q17 -17 17 -42t-17 -41q-17 -17 -41 -17t-41 17l-177 177q-17 17 -17 41q0 22 17 41z"/>
<glyph glyph-name="T.alt3" d="M474 519q33 -16 33 -52q0 -4 -2 -14q-5 -21 -21 -33t-36 -12h-116v-350q0 -24 -17 -41t-42 -17q-24 0 -41 17t-17 41v350h-117q-24 0 -41 17t-17 42q0 24 17 41t41 17h103l-129 64q-32 19 -32 52q0 4 2 14q4 21 20 33t36 12h350q25 0 42 -17t17 -41q0 -25 -17 -42 t-42 -17h-103z"/>
<glyph glyph-name="B.alt1" d="M251 583h-94v-466h143q32 4 54 19q36 24 36 83q0 64 -45 88q-11 5 -23 9t-20 4l-7 1h-51q-36 0 -52 33q-6 12 -6 26q0 18 12 35l131 168h-56q-1 1 -5 1h-6h-6t-5 -1zM307 0h-209q-24 0 -41 17t-17 41v584q0 24 17 41t41 17h153q7 0 11 -1q4 1 11 1h175q36 0 53 -33 q5 -10 5 -25q0 -21 -12 -36l-138 -178q19 -6 43 -17q108 -58 108 -192q0 -103 -60 -157t-140 -62z"/>
<glyph horiz-adv-x="576" glyph-name="h.alt3" d="M346 350q0 -24 -17 -41t-41 -17t-41 17t-17 41t17 41t41 17t41 -17t17 -41zM477 0q-24 0 -41 17t-17 41v584q0 24 17 41t41 17q25 0 42 -17t17 -41v-584q0 -24 -17 -41t-42 -17zM98 0q-24 0 -41 17t-17 41v584q0 24 17 41t41 17t42 -17t17 -41v-584q1 -24 -17 -41 t-42 -17z"/>
<glyph horiz-adv-x="430" glyph-name="j.001" d="M220 583l53 -67v67h-53zM186 0q-24 0 -42 17t-17 41q-1 25 17 42t42 17q55 0 75 40q5 10 8 22t3 19l1 6v126l-220 275q-13 18 -13 37q0 13 6 25q15 33 52 33h234q24 0 41 -17t17 -41v-438q0 -49 -24 -99q-52 -105 -180 -105z"/>
<glyph horiz-adv-x="576" glyph-name="O.alt7" d="M127 117h321q24 0 42 -17t17 -42q1 -24 -17 -41t-42 -17h-321q-24 0 -41 17t-17 41q0 25 17 42t41 17zM288 583q-55 -1 -93 -43t-38 -102q0 -62 38 -104t93 -42q54 0 92 42t39 104q-1 60 -39 102t-92 43zM288 175q-104 0 -176 77t-72 186q0 108 72 185t176 77t176 -77 t72 -185q0 -109 -72 -186t-176 -77z"/>
<glyph horiz-adv-x="488" glyph-name="p.alt1" d="M225 201q-10 14 -10 32q0 19 10 33l56 84h-124v-233h124zM343 234l95 -143q10 -14 10 -33q0 -16 -7 -27q-16 -31 -51 -31h-233v-175q1 -24 -17 -41t-42 -17t-41 17t-17 41v584q0 24 17 41t41 17h292q35 0 51 -31q7 -11 7 -27q0 -19 -10 -33z"/>
<glyph glyph-name="s.001" d="M302 0q-13 0 -22 4q-36 16 -36 54q0 10 5 23l112 269h-263q-31 0 -48 25q-10 14 -10 32q0 13 4 22l87 233q15 38 54 38q12 0 21 -4q38 -15 38 -54q0 -12 -4 -21l-58 -154h266q31 0 49 -26q10 -14 10 -32q0 -11 -5 -23l-146 -350q-14 -36 -54 -36z"/>
<glyph horiz-adv-x="576" glyph-name="U.alt1.001" d="M183 583h-26v-321q0 -41 19 -80q32 -65 112 -65q81 0 113 68q9 17 12 36zM288 0q-76 0 -132 35t-87 101q-29 63 -29 126v380q0 24 17 41t41 17h117q32 0 49 -27l155 -243v212q0 24 17 41t41 17q25 0 42 -17t17 -41v-380q0 -63 -29 -126q-31 -66 -87 -101t-132 -35z"/>
<glyph horiz-adv-x="722" glyph-name="g.002" d="M565 262h-64l64 -63v63zM363 379h260q25 0 42 -17t17 -41v-263q0 -39 -36 -54q-9 -4 -23 -4q-24 0 -41 17l-25 25q-78 -42 -167 -42q-145 0 -248 103q-102 102 -102 247q0 144 102 248q102 102 248 102q145 0 247 -102q17 -17 17 -42t-16 -41q-17 -17 -42 -17t-41 17 q-70 68 -165 68q-97 0 -165 -68t-68 -165q0 -98 68 -165q68 -68 165 -68q41 0 79 13l-150 150q-17 16 -17 41q0 24 17 41t44 17z"/>
<glyph horiz-adv-x="488" glyph-name="t.002" d="M448 379q0 -24 -17 -41t-41 -17h-66l118 -237q6 -12 6 -26q0 -34 -32 -52q-12 -6 -26 -6q-36 0 -52 32l-145 289h-95q-24 0 -41 17t-17 41t17 41t41 17h37l-89 179q-6 12 -6 25q0 17 9 31q16 28 49 28h292q24 0 41 -17t17 -41q0 -25 -17 -42t-41 -17h-197l73 -146h124 q24 0 41 -17t17 -41z"/>
<glyph horiz-adv-x="517" glyph-name="g.003" d="M259 117q42 0 72 34t30 83q0 48 -30 82t-72 34q-43 0 -73 -34t-29 -82q-1 -49 29 -83t73 -34zM259 467q91 0 155 -69t63 -164v-409q0 -24 -17 -41t-41 -17h-262q-25 0 -42 17t-17 41q0 25 17 42t42 17h204v143q-49 -27 -102 -27q-91 0 -155 68t-64 166q0 96 64 164 t155 69z"/>
<glyph horiz-adv-x="342" glyph-name="j.002" d="M244 467q24 1 41 -17t17 -42v-583q0 -24 -17 -41t-41 -17h-146q-24 0 -41 17t-17 41q0 23 17 41t41 18h87v524q0 24 17 42t42 17z"/>
<glyph horiz-adv-x="605" glyph-name="k.002" d="M373 275l175 -175q17 -19 17 -42q0 -24 -17 -41q-19 -17 -41 -17q-23 0 -42 17l-158 158h-150v-117q0 -24 -17 -41t-42 -17q-24 0 -41 17t-17 41v584q0 24 17 41t41 17q25 0 42 -17t17 -41v-117h150l158 158q17 17 41 17q23 0 42 -17q17 -19 17 -42q0 -24 -17 -41 l-175 -175q-17 -17 -41 -17h-175v-116h175q24 0 41 -17z"/>
<glyph horiz-adv-x="692" glyph-name="m.002" d="M610 698q18 -4 30 -20t12 -36v-584q0 -24 -17 -41t-41 -17t-41 17t-17 41v373l-122 -203l84 -140q9 -13 9 -30q0 -32 -29 -50q-14 -8 -29 -8q-34 0 -51 28l-52 87l-52 -87q-17 -28 -50 -28q-16 0 -30 8q-29 18 -29 50q0 16 9 30l84 140l-121 203v-373q1 -24 -17 -41 t-42 -17t-41 17t-17 41v584q0 20 12 36t31 20q10 2 15 2q34 0 50 -28l198 -330l198 330q16 28 50 28q6 0 16 -2z"/>
<glyph horiz-adv-x="663" glyph-name="m.003" d="M623 58q0 -24 -17 -41t-41 -17q-23 0 -41 17t-18 41v292h-116v-292q0 -24 -17 -41t-41 -17q-25 0 -42 17t-17 41v292h-116v-292q1 -24 -17 -41t-42 -17t-41 17t-17 41v350q0 24 17 42t41 17h467q24 1 41 -17t17 -42v-350z"/>
<glyph horiz-adv-x="546" glyph-name="talt.103" d="M448 700q24 0 41 -17t17 -41v-88q0 -24 -17 -41t-41 -17t-41 17t-17 41v29h-59v-525q0 -24 -17 -41t-41 -17t-41 17t-17 41v525h-59v-29q0 -24 -17 -41t-41 -17t-41 17t-17 41v88q0 24 17 41t41 17h350z"/>
<glyph horiz-adv-x="488" glyph-name="n.alt1.002" d="M389 0q-24 0 -41 17t-17 41v292h-175v-292q0 -24 -17 -41t-41 -17t-41 17t-17 41v350q0 24 17 42t41 17h291q25 1 42 -17t17 -42v-350q0 -24 -17 -41t-42 -17z"/>
<glyph horiz-adv-x="430" glyph-name="s.alt1" d="M291 294q92 -44 99 -119v-11q0 -61 -41 -105q-54 -59 -145 -59q-49 0 -91 23t-65 62q-8 14 -8 30q0 33 29 50q14 8 29 8q34 0 51 -30q15 -26 55 -26q41 0 59 21q11 11 11 27q-4 9 -30 22t-52 19q-3 0 -4 1q-130 37 -130 145q0 58 48 97t120 39q51 0 94 -27q28 -17 28 -50 q0 -16 -9 -31q-17 -27 -49 -27q-17 0 -32 9q-14 9 -32 9q-16 0 -28 -4t-18 -8q-5 -4 -5 -7q0 -20 44 -33q35 -8 72 -25z"/>
<glyph horiz-adv-x="422" glyph-name="c.alt1" d="M259 0q-91 0 -155 68t-64 165t64 165t155 69q47 0 90 -21q33 -14 33 -52q0 -13 -6 -25q-16 -34 -52 -34q-13 0 -25 6q-19 9 -40 9q-42 0 -72 -34t-30 -83q0 -48 30 -82t72 -34q21 0 40 9q10 5 24 5q37 0 53 -33q6 -12 6 -25q0 -37 -33 -53q-45 -20 -90 -20z"/>
<glyph horiz-adv-x="488" glyph-name="e.alt1" d="M174 302h145q-25 49 -75 49q-43 0 -70 -49zM258 0q-14 0 -18 1q-95 5 -150 74q-50 64 -50 159q0 97 60 165t144 68q88 0 146 -66q58 -63 58 -157q0 -24 -17 -42t-41 -17h-227q20 -66 83 -68h6q43 0 68 18q15 9 32 9q32 0 49 -26q10 -13 10 -31q0 -33 -27 -50 q-56 -37 -126 -37z"/>
<glyph horiz-adv-x="400" glyph-name="f.alt1" d="M302 467q24 0 41 -17t17 -42q0 -24 -17 -41t-41 -17h-58v-292q0 -24 -17 -41t-42 -17q-24 0 -41 17t-17 41v292h-29q-24 0 -41 17t-17 41q0 25 17 42t41 17h29v175q0 24 17 41t41 17h117q24 0 41 -17t17 -41q0 -25 -17 -42t-41 -17h-58v-116h58z"/>
<glyph horiz-adv-x="488" glyph-name="y.alt1" d="M390 467q24 0 41 -17t17 -42v-357q-1 -1 -1 -3t-1 -6l-5 -12l-116 -231q-15 -32 -52 -32q-14 0 -26 6q-32 15 -32 52q0 14 6 26l75 149h-198q-24 0 -41 17t-17 41v350q0 25 17 42t41 17t41 -17t17 -42v-291h176v291q0 25 17 42t41 17z"/>
<glyph horiz-adv-x="546" glyph-name="Y.alt1" d="M448 700q24 0 41 -17t17 -41v-292q0 -24 -17 -41t-41 -17h-117v-234q0 -24 -17 -41t-41 -17t-41 17t-17 41v234h-117q-24 0 -41 17t-17 41v292q0 24 17 41t41 17t41 -17t17 -41v-234h234v234q0 24 17 41t41 17z"/>
<glyph horiz-adv-x="459" glyph-name="x.alt1" d="M304 235l103 -138q12 -16 12 -36q0 -29 -23 -46q-16 -12 -35 -12q-29 0 -47 24l-83 111l-86 -115q-18 -23 -47 -23q-18 0 -35 12q-23 17 -23 46q0 18 12 35l106 142l-106 142q-12 15 -12 34q0 30 23 47q16 12 35 12q30 0 47 -23l86 -115l83 111q17 23 47 23q20 0 35 -11 q23 -17 23 -46q0 -19 -12 -36z"/>
<glyph horiz-adv-x="780" glyph-name="O.alt1" d="M390 437q36 1 62 -25t25 -62q1 -36 -25 -62t-62 -26t-62 26t-26 62t26 62t62 25zM555 185q68 68 68 165q0 95 -68 165q-68 68 -165 68t-165 -68t-68 -165q0 -98 68 -165q68 -68 165 -68t165 68zM637 597q103 -103 103 -247q0 -145 -103 -248q-102 -102 -247 -102 q-144 0 -248 102q-102 102 -102 248q0 145 102 247q103 103 248 103q146 0 247 -103z"/>
<glyph horiz-adv-x="751" glyph-name="o.alt3" d="M157 350q0 -97 64 -165t154 -68q76 0 134 49l-335 275q-17 -43 -17 -91zM594 350q0 97 -64 165t-155 68q-73 0 -132 -48l334 -274q17 42 17 89zM375 700q139 0 237 -102t99 -248q-1 -146 -99 -248t-237 -102t-237 102t-98 248t98 248t237 102z"/>
<glyph glyph-name="o.alt1" d="M273 117q49 0 83 34t34 82q0 49 -34 83t-83 34q-48 0 -82 -34t-34 -83q0 -48 34 -82t82 -34zM273 467q97 -1 165 -69t69 -165q-1 -97 -69 -165t-165 -68t-165 68t-68 165t68 165t165 69z"/>
<glyph horiz-adv-x="517" glyph-name="R.001" d="M243 583h-46l118 -214q16 12 29 34q17 32 17 64q0 73 -56 101q-13 6 -29 10t-24 4zM419 0q-34 0 -51 30l-112 204q-4 -1 -13 -1h-86v-175q1 -24 -17 -41t-42 -17t-41 17t-17 41v234q0 24 17 41t41 17h94l-145 264q-7 13 -7 27q0 16 8 30q18 29 50 29h145q57 0 114 -28 q120 -60 120 -205q0 -60 -28 -114q-27 -55 -78 -86l99 -181q7 -13 7 -28q0 -34 -30 -51q-13 -7 -28 -7z"/>
<glyph horiz-adv-x="453" glyph-name="u.alt1" d="M355 467q24 0 41 -17t17 -42v-227q0 -45 -22 -88q-50 -93 -164 -93q-116 0 -164 93q-23 43 -23 88v227q0 25 17 42t41 17t42 -17t17 -42v-227q0 -18 10 -37q17 -27 60 -27q44 0 59 27q11 19 11 37v227q0 25 17 42t41 17z"/>
<glyph horiz-adv-x="197" glyph-name="l.alt1" d="M98 700q25 0 42 -17t17 -41v-584q0 -24 -17 -41t-42 -17q-24 0 -41 17t-17 41v584q0 24 17 41t41 17z"/>
<glyph glyph-name="d.alt1" d="M157 233q0 -48 34 -82t82 -34q49 0 83 34t34 82q0 49 -34 83t-83 34q-48 0 -82 -34t-34 -83zM40 233q0 97 68 165t165 69q63 0 117 -32v207q0 24 17 41t41 17q25 0 42 -17t17 -41v-584q0 -24 -17 -41t-42 -17q-38 0 -53 34q-57 -34 -122 -34q-97 0 -165 68t-68 165z"/>
<glyph horiz-adv-x="517" glyph-name="b.alt1" d="M259 117q42 0 72 34t30 82q0 49 -30 83t-72 34q-43 0 -73 -34t-29 -83q-1 -48 29 -82t73 -34zM259 467q90 -1 154 -69t64 -165t-64 -165t-154 -68q-59 0 -109 31q-17 -31 -52 -31q-24 0 -41 17t-17 41v584q0 24 17 41t41 17q25 0 42 -17t17 -41v-202q48 27 102 27z"/>
<glyph horiz-adv-x="518" glyph-name="h.alt1" d="M441 463q37 -15 37 -55v-350q0 -24 -17 -41t-42 -17q-24 0 -41 17t-17 41v200l-219 -239q-19 -19 -43 -19q-13 0 -22 4q-37 15 -37 54v584q0 24 17 41t42 17q24 0 41 -17t17 -41v-434l219 240q19 19 43 19q13 0 22 -4z"/>
<glyph glyph-name="q.alt1" d="M390 234q0 48 -34 82t-83 34q-48 0 -82 -34t-34 -82q0 -49 34 -83t82 -34q49 0 83 34t34 83zM507 -175q0 -24 -17 -41t-42 -17q-24 0 -41 17t-17 41v207q-54 -32 -117 -32q-97 0 -165 68t-68 166q0 96 68 164t165 69q65 0 122 -34q15 34 53 34q25 0 42 -17t17 -41v-584z "/>
<glyph horiz-adv-x="314" glyph-name="j.alt1" d="M98 -175q-24 0 -41 17t-17 41q0 25 17 42t41 17q38 0 50 26q4 7 6 15t2 13l1 4v408q0 24 17 42t41 17q25 1 42 -17t17 -42v-408q0 -43 -21 -84q-45 -91 -155 -91zM274 612q0 -25 -17 -42t-41 -17q-25 0 -42 17t-17 42q0 24 17 41t42 17q24 0 41 -17t17 -41z"/>
<glyph horiz-adv-x="488" glyph-name="z.alt1" d="M390 117q24 0 41 -17t17 -42q0 -24 -17 -41t-41 -17h-292q-37 0 -53 34q-5 10 -5 25q0 21 13 37l212 254h-167q-24 0 -41 17t-17 41q0 25 17 42t41 17h292q37 0 53 -34q5 -13 5 -24q0 -22 -13 -38l-212 -254h167z"/>
<glyph horiz-adv-x="529" glyph-name="v.alt1" d="M456 461q33 -16 33 -53q0 -13 -6 -25l-166 -350q-15 -33 -52 -33t-53 33l-166 350q-6 12 -6 25q0 37 33 53q12 6 25 6q37 0 53 -34l114 -239l113 239q16 34 53 34q13 0 25 -6z"/>
<glyph horiz-adv-x="546" glyph-name="S.alt1" d="M273 0q-16 0 -30 8q-29 18 -29 50q0 16 9 31l122 203h-247q-33 0 -51 29q-7 13 -7 29q0 18 8 30l175 292q17 28 50 28q16 0 30 -8q29 -18 29 -50q0 -16 -9 -31l-122 -203h247q33 0 51 -29q7 -13 7 -29q0 -18 -8 -30l-175 -292q-17 -28 -50 -28z"/>
<glyph horiz-adv-x="663" glyph-name="A.alt1" d="M619 80q4 -9 4 -22q0 -40 -36 -54q-9 -4 -21 -4q-18 0 -33 10t-22 27l-179 448l-147 -368h147q24 0 41 -17t17 -42q0 -24 -17 -41t-41 -17h-233q-31 0 -49 26q-10 14 -10 32q0 13 4 22l234 583q15 37 54 37t54 -37z"/>
<glyph glyph-name="E.alt1.002" d="M448 0h-350q-36 0 -52 32q-6 12 -6 26q0 18 11 34l185 258l-185 258q-11 16 -11 34q0 14 6 26q16 32 52 32h350q25 0 42 -17t17 -41q0 -25 -17 -42t-42 -17h-236l144 -199q10 -14 10 -34q0 -21 -10 -34l-144 -199h236q25 0 42 -17t17 -42q0 -24 -17 -41t-42 -17z"/>
<glyph horiz-adv-x="605" glyph-name="D.alt1" d="M157 583v-466h111q46 0 93 30q87 55 87 203q0 150 -91 205q-46 28 -89 28h-111zM268 0h-170q-24 0 -41 17t-17 41v584q0 24 17 41t41 17h170h18t42 -8q31 -7 59 -19t62 -38q35 -25 59 -61t40 -94t17 -130q-1 -72 -17 -130t-40 -94t-59 -61q-34 -26 -62 -38t-59 -19 q-31 -8 -42 -8h-18z"/>
<glyph glyph-name="F.alt1" d="M98 700h350q24 0 42 -17t17 -41q1 -25 -17 -42t-42 -17h-291v-175h233q24 0 41 -17t17 -41t-17 -41t-41 -17h-233v-234q1 -24 -17 -41t-42 -17t-41 17t-17 41v584q0 24 17 41t41 17z"/>
<glyph horiz-adv-x="722" glyph-name="G.alt1" d="M448 379h175q23 0 41 -17t18 -41v-263q0 -24 -18 -41t-41 -17q-21 0 -37 14t-20 33q-83 -47 -176 -47q-142 0 -246 103t-104 247t104 247t246 103q146 0 247 -103q17 -17 17 -41q0 -22 -18 -40t-40 -18q-24 0 -41 17q-68 68 -165 68q-93 0 -163 -68t-70 -165t70 -165 t163 -68q97 0 165 68q6 6 10 8v69h-117q-24 0 -41 18t-17 41q0 24 17 41t41 17z"/>
<glyph horiz-adv-x="576" glyph-name="H.alt1" d="M477 700q25 0 42 -17t17 -41v-584q0 -24 -17 -41t-42 -17q-24 0 -41 17t-17 41v234h-262v-234q1 -24 -17 -41t-42 -17t-41 17t-17 41v584q0 24 17 41t41 17t42 -17t17 -41v-234h262v234q0 24 17 41t41 17z"/>
<glyph horiz-adv-x="606" glyph-name="K.alt1" d="M548 100q17 -18 17 -42t-17 -41t-41 -17t-41 17l-187 187h-122v-146q0 -24 -17 -41t-41 -17q-23 0 -41 17t-18 41v584q0 24 18 41t41 17q24 0 41 -17t17 -41v-296l307 335q16 18 40 19h3q23 0 39 -15q19 -18 19 -44q0 -22 -15 -39l-258 -281h11q24 0 41 -17z"/>
<glyph horiz-adv-x="546" glyph-name="L.alt1" d="M448 0h-350q-24 0 -41 17t-17 41v584q0 24 17 41t41 17t41 -17t17 -41v-525h292q24 0 41 -17t17 -42q0 -24 -17 -41t-41 -17z"/>
<glyph horiz-adv-x="605" glyph-name="X.alt1" d="M303 452l92 131h-184zM559 669q6 -13 6 -27q0 -20 -10 -34l-181 -258l181 -258q10 -14 10 -34q0 -30 -24 -47q-17 -11 -34 -11q-29 0 -48 25l-156 223l-156 -223q-19 -25 -48 -25q-18 0 -34 11q-25 17 -25 47q0 18 11 34l181 258l-181 258q-10 14 -10 34q0 14 6 27 q16 31 52 31h408q36 0 52 -31z"/>
<glyph glyph-name="t.alt3" d="M345 583l129 -64q33 -16 33 -52q0 -4 -2 -14q-5 -21 -21 -33t-36 -12h-116v-350q0 -24 -17 -41t-42 -17q-24 0 -41 17t-17 41v350h-117q-24 0 -41 17t-17 42q0 24 17 41t41 17h103l-129 64q-32 19 -32 52q0 4 2 14q4 21 20 33t36 12h350q25 0 42 -17t17 -41 q0 -25 -17 -42t-42 -17h-103z"/>
<glyph horiz-adv-x="575" glyph-name="U.alt1" d="M288 0q-76 0 -132 35t-87 101q-29 63 -29 127v379q0 24 17 41t41 17t41 -17t17 -41v-379q0 -11 4 -30t16 -47t42 -49q30 -20 70 -20t68 19q28 18 41 46q12 28 17 48t5 33v379q0 24 17 41t41 17t41 -17t17 -41v-379q0 -66 -28 -127q-31 -66 -87 -101t-132 -35z"/>
<glyph glyph-name="Z.alt1.002" d="M99 0q-23 0 -41 17t-18 41q0 25 18 42t41 17h247l-297 495q-8 12 -8 30q-1 24 17 41t41 17h350q24 0 41 -17t17 -42q0 -24 -17 -41t-41 -17h-247l297 -495q8 -12 8 -29q1 -25 -17 -42t-41 -17h-350z"/>
<glyph horiz-adv-x="945" glyph-name="W.alt1" d="M869 695q36 -14 36 -54q0 -13 -4 -22l-244 -583q-15 -36 -53 -36q-39 0 -54 36l-77 185l-78 -185q-15 -36 -53 -36q-39 0 -54 36l-244 583q-4 9 -4 22q0 23 17 41t42 18q38 0 53 -36l190 -454l67 163l-102 246q-5 12 -5 23q0 22 17 40t42 18q38 0 53 -36l59 -140l58 140 q15 36 53 36q25 0 42 -18t17 -41q0 -13 -4 -22l-103 -246l68 -163l189 454q15 36 53 36q11 0 23 -5z"/>
<glyph horiz-adv-x="196" glyph-name="I.alt1" d="M98 0q-24 0 -41 17t-17 41v584q0 24 17 41t41 17t41 -17t17 -41v-584q0 -24 -17 -41t-41 -17z"/>
<glyph glyph-name="E.alt1" d="M361 350q0 -24 -17 -41t-42 -17q-24 0 -41 17t-17 41t17 41t41 17q25 0 42 -17t17 -41zM448 0h-350q-24 0 -41 17t-17 41v584q0 24 17 41t41 17h350q25 0 42 -17t17 -41q1 -25 -17 -42t-42 -17h-291v-466h291q25 0 42 -17t17 -42q0 -24 -17 -41t-42 -17z"/>
<glyph glyph-name="b.002" d="M390 117v204h-233v-204h233zM157 583v-146h116v146h-116zM409 437q41 -1 69 -29t29 -68v-243q0 -41 -29 -69t-69 -28h-272q-41 0 -69 28t-28 69v506q0 41 30 69t73 28h144q43 0 73 -28t30 -69v-166h19z"/>
<glyph horiz-adv-x="460" glyph-name="b.007" d="M361 467q23 0 41 -17t18 -42v-350q0 -24 -18 -41t-41 -17h-262q-25 0 -42 17t-17 41v350q0 25 17 42t42 17q24 0 41 -17t17 -42v-291h146v291q0 25 17 42t41 17z"/>
<glyph horiz-adv-x="663" glyph-name="b.009" d="M623 58q0 -24 -17 -41t-41 -17q-23 0 -41 17t-18 41v292h-116v-292q0 -24 -17 -41t-41 -17q-25 0 -42 17t-17 41v292h-116v-292q1 -24 -17 -41t-42 -17t-41 17t-17 41v350q0 24 17 42t41 17h467q24 1 41 -17t17 -42v-350z"/>
<glyph horiz-adv-x="488" glyph-name="b.005" d="M390 0h-292q-24 0 -41 17t-17 41q0 25 17 42t41 17h233v175h-233q-24 0 -41 17t-17 41v292q0 24 17 41t41 17h292q24 0 41 -17t17 -42q0 -24 -17 -41t-41 -17h-234v-175h234q24 0 41 -17t17 -41v-292q0 -24 -17 -41t-41 -17z"/>
<glyph glyph-name="b.006" d="M448 408q25 0 42 -17t17 -41v-292q0 -24 -17 -41t-42 -17q-24 0 -41 17t-17 41v234h-233v-234q0 -24 -17 -41t-42 -17q-24 0 -41 17t-17 41v584q0 24 17 41t41 17q25 0 42 -17t17 -41v-234h116v146q0 24 17 41t42 17q24 0 41 -17t17 -41v-146h58z"/>
<glyph horiz-adv-x="780" glyph-name="b.020" d="M740 642v-584q0 -24 -17 -41t-41 -17h-584q-24 0 -41 17t-17 41v584q0 24 17 41t41 17h584q24 0 41 -17t17 -41z"/>
<glyph horiz-adv-x="546" glyph-name="b.003" d="M448 0h-350q-24 0 -41 17t-17 41v584q0 24 17 41t41 17h350q24 0 41 -17t17 -42q0 -24 -17 -41t-41 -17h-292v-466h292q24 0 41 -17t17 -42q0 -24 -17 -41t-41 -17z"/>
<glyph horiz-adv-x="634" glyph-name="fi.001" d="M536 467q24 0 41 -17t17 -42q0 -24 -17 -41t-41 -17h-59v-292q0 -24 -17 -41t-41 -17t-41 17t-17 41v292h-88v-292q0 -24 -17 -41t-41 -17t-41 17t-17 41v292h-59q-24 0 -41 17t-17 41q0 25 17 42t41 17h59v175q0 24 17 41t41 17t41 -17t17 -41v-175h88v175q0 24 17 41 t41 17t41 -17t17 -41v-175h59z"/>
<glyph horiz-adv-x="751" glyph-name="O.alt3" d="M157 350q0 -97 64 -165t154 -68q76 0 134 49l-335 275q-17 -43 -17 -91zM594 350q0 97 -64 165t-155 68q-73 0 -132 -48l334 -274q17 42 17 89zM375 700q139 0 237 -102t99 -248q-1 -146 -99 -248t-237 -102t-237 102t-98 248t98 248t237 102z"/>
<glyph horiz-adv-x="1129" glyph-name="b.015" d="M904 185q69 67 69 165t-69 165q-68 68 -165 68q-42 0 -77 -13q77 -97 77 -220t-77 -220q35 -13 77 -13q97 0 165 68zM224 185q70 -68 165 -68q43 0 78 13q-77 95 -77 220t77 220q-35 13 -78 13q-95 0 -165 -68q-68 -68 -68 -165q0 -98 68 -165zM564 196q58 65 58 154 t-58 154q-58 -65 -58 -154t58 -154zM739 700q147 0 248 -103q102 -102 102 -247q0 -144 -102 -248q-102 -102 -248 -102q-95 0 -175 47q-79 -47 -175 -47q-145 0 -247 102t-102 248q0 145 102 247q101 103 247 103q96 0 175 -47q80 47 175 47z"/>
<glyph glyph-name="T.alt1" d="M345 583l129 -64q33 -16 33 -52q0 -4 -2 -14q-5 -21 -21 -33t-36 -12h-116v-350q0 -24 -17 -41t-42 -17q-24 0 -41 17t-17 41v350h-117q-24 0 -41 17t-17 42q0 24 17 41t41 17h103l-129 64q-32 19 -32 52q0 4 2 14q4 21 20 33t36 12h350q25 0 42 -17t17 -41 q0 -25 -17 -42t-42 -17h-103z"/>
<glyph horiz-adv-x="488" glyph-name="n.alt1" d="M390 467q24 0 41 -17t17 -42v-350q0 -24 -17 -41t-41 -17t-41 17t-17 41v125l-175 116v-241q1 -24 -17 -41t-42 -17t-41 17t-17 41v350q0 36 31 52q13 7 28 7q18 0 32 -10l201 -134v85q0 25 17 42t41 17z"/>
<glyph horiz-adv-x="457" glyph-name="b.004" d="M359 0h-260q-24 0 -41 17t-17 41t17 41t41 17h202v58q0 24 17 41t41 17t41 -17t17 -41v-116q0 -24 -17 -41t-41 -17zM98 235q-24 0 -41 17t-17 41v116q0 24 18 41t41 17h260q24 0 41 -17t17 -41t-17 -41t-41 -17h-203v-58q0 -24 -17 -41t-41 -17z"/>
<glyph horiz-adv-x="721" glyph-name="b.035" d="M623 0q-23 0 -41 17t-18 41v525h-145v-525q0 -24 -17 -41t-42 -17q-24 0 -41 17t-17 41v525h-146v-525q0 -24 -17 -41t-41 -17t-41 17t-17 41v584q0 24 17 41t41 17h525q24 0 41 -17t17 -41v-584q0 -24 -17 -41t-41 -17z"/>
<glyph glyph-name="b.013" d="M502 664q5 -13 5 -25q0 -21 -17 -39l-158 -157v-385q0 -24 -17 -41t-42 -17q-24 0 -41 17t-17 41v409q0 24 17 41l75 75h-209q-24 0 -41 17t-17 42q0 24 17 41t41 17h350q39 0 54 -36z"/>
<glyph horiz-adv-x="459" glyph-name="b.011" d="M361 467q24 1 41 -17t17 -42v-350q0 -24 -17 -41t-41 -17q-25 0 -42 17t-17 41v292h-146v-292q0 -24 -17 -41t-41 -17t-41 17t-17 41v584q0 24 17 41t41 17t41 -17t17 -41v-175h205z"/>
<glyph horiz-adv-x="955" glyph-name="b.025" d="M226 117q26 1 48 13t21 30q1 18 -21 31t-48 13t-48 -13t-21 -31q-1 -18 21 -30t48 -13zM901 96q14 -17 14 -38q0 -27 -21 -44q-15 -14 -37 -14q-29 0 -45 21l-118 142l-42 -41v-64q0 -24 -17 -41t-41 -17h-204q-37 0 -52 32q-50 -32 -112 -32q-78 0 -132 47t-54 113 q0 67 54 114t132 47q58 0 106 -29v58h-175q-25 0 -42 17t-17 41q0 25 17 42t42 17h233q24 0 41 -17t17 -42v-291h88v29v496q0 24 17 41t41 17t41 -17t17 -41v-355l163 163q16 16 41 16t42 -16q17 -19 17 -42q0 -24 -17 -41l-122 -121z"/>
<glyph horiz-adv-x="453" glyph-name="b.016" d="M355 467q24 0 41 -17t17 -41v-496q0 -23 -17 -41t-41 -18h-146v-29q0 -24 -17 -41t-42 -17q-24 0 -41 17t-17 41v88q0 24 17 41t41 17h146v41q-32 -12 -70 -12q-114 0 -164 93q-22 43 -22 88v228q0 24 17 41t41 17t41 -17t17 -41v-227q0 -19 11 -37q15 -28 59 -28 q46 0 61 30q4 7 6 15t3 14v5v228q0 24 17 41t42 17z"/>
<glyph horiz-adv-x="809" glyph-name="b.017" d="M711 525q-25 0 -42 17t-17 41q0 25 17 42t42 17q24 0 41 -17t17 -42q0 -24 -17 -41t-41 -17zM711 467q24 0 41 -17t17 -42v-350q0 -24 -17 -41t-41 -17q-25 0 -42 17t-17 41v292h-145v-292q1 -24 -17 -41t-42 -17t-41 17t-17 41v292h-29h-117v-292q0 -24 -17 -41t-41 -17 q-25 0 -42 17t-17 41v292h-29q-24 0 -41 17t-17 41q0 25 17 42t41 17h29v58q0 43 21 84q45 91 154 91q25 0 42 -17t17 -41q0 -25 -17 -42t-42 -17q-36 0 -50 -26l-8 -32v-58h117h29v58q0 43 21 84q45 91 154 91q24 0 41 -17t17 -41q0 -25 -17 -42t-41 -17q-38 0 -50 -26 q-4 -7 -6 -15t-2 -12v-5v-58h204z"/>
<glyph horiz-adv-x="984" glyph-name="b.018" d="M711 117q48 0 82 34t34 82q0 49 -34 83t-82 34q-49 0 -83 -34t-34 -83q0 -48 34 -82t83 -34zM711 467q97 -1 165 -69t68 -165t-68 -165t-165 -68q-105 0 -176 79l-13 -39q-6 -18 -21 -29t-34 -11q-41 0 -55 39l-68 194l-68 -194q-7 -17 -22 -28t-33 -11q-41 0 -55 39 l-123 350q-3 9 -3 20q0 18 10 33t29 21q9 3 20 3q40 0 54 -38l68 -193l67 193q15 39 56 39q18 -1 34 -11t21 -28l67 -190l14 43l4 9q20 77 83 127t144 50z"/>
<glyph horiz-adv-x="640" glyph-name="ampersand.001" d="M330 137l40 44l-120 150q-40 -5 -68 -35t-28 -73q0 -45 32 -77t77 -32q38 0 67 23zM521 176l67 -83q11 -14 11 -35q1 -24 -15 -41t-41 -17q-27 0 -44 21l-56 70l-32 -34q-54 -57 -148 -57q-91 0 -157 66t-66 157q0 68 38 124t98 82q-22 41 -22 87q0 76 54 130t130 54 t130 -54t54 -130q0 -24 -16 -40t-41 -17q-28 0 -42 20q-14 19 -17 43q-4 24 -20 44t-48 20q-28 0 -49 -21t-21 -49q0 -25 15 -43l53 -66l112 -140l53 57q15 17 43 17q23 0 38 -14q18 -18 18 -42q0 -21 -15 -38z"/>
<glyph horiz-adv-x="459" glyph-name="b.014" d="M303 292v58h-146v-58h146zM99 0q-25 0 -42 17t-17 41v350q0 25 17 42t42 17h262q24 0 41 -17t17 -42v-175q0 -24 -17 -41t-41 -17h-204v-58h175q24 0 41 -17t17 -42q0 -24 -17 -41t-41 -17h-233z"/>
<glyph horiz-adv-x="459" glyph-name="b.012" d="M157 175v-58h146v58h-146zM361 467q24 0 41 -17t17 -42v-350q0 -24 -17 -41t-41 -17h-262q-25 0 -42 17t-17 41v175q0 25 17 42t42 17h204v58h-175q-24 0 -42 17t-17 41q-1 25 17 42t42 17h233z"/>
<glyph horiz-adv-x="517" glyph-name="b.019" d="M419 0q-29 0 -47 23l-175 234q-11 16 -11 34q0 15 6 27q16 32 52 32q32 1 62 16q55 28 55 101q0 71 -53 99q-32 17 -64 17h-87v-525q1 -24 -17 -41t-42 -17t-41 17t-17 41v584q0 24 17 41t41 17h146q57 0 114 -28q119 -60 119 -205q0 -146 -119 -206l-14 -6l122 -162 q11 -14 11 -34q0 -30 -23 -47q-15 -12 -35 -12z"/>
<glyph horiz-adv-x="838" glyph-name="b.021" d="M565 117q48 0 82 34t34 83q0 48 -34 82t-82 34q-47 0 -81 -33t-36 -83q0 -49 34 -83t83 -34zM565 467q97 -1 165 -69t68 -164q0 -98 -68 -166t-165 -68q-23 0 -69 10t-54 23l-117 -234q-16 -32 -52 -32q-14 0 -26 6q-32 17 -32 52q0 14 6 26l74 149h-197q-24 0 -41 17 t-17 42v350q0 24 17 41t41 17t41 -17t17 -41v-292h175v117q1 96 69 164t165 69z"/>
<glyph horiz-adv-x="692" glyph-name="b.022" d="M594 642q24 0 41 -18t17 -41q0 -24 -17 -41t-41 -17t-41 17t-17 41q0 23 17 41t41 18zM226 117q25 1 47 13t22 30t-22 31t-47 13q-26 0 -48 -13t-22 -31t22 -30t48 -13zM594 467q24 1 41 -17t17 -42v-350q0 -24 -17 -41t-41 -17h-204q-37 0 -52 32q-51 -32 -112 -32 q-78 0 -132 47t-54 113q0 67 54 114t132 47q57 0 105 -29v58h-175q-24 0 -41 17t-17 41t17 42t41 17h234q24 1 41 -17t17 -42v-291h88v291q0 24 17 42t41 17z"/>
<glyph horiz-adv-x="750" glyph-name="b.023" d="M652 642q24 0 41 -18t17 -41q0 -24 -17 -41t-41 -17t-41 17t-17 41q0 23 17 41t41 18zM390 233q0 49 -34 83t-83 34t-83 -34t-34 -83q0 -48 34 -82t83 -34t83 34t34 82zM652 467q24 1 41 -17t17 -42v-350q0 -24 -17 -41t-41 -17t-41 17t-17 41v292h-119q31 -53 31 -117 q0 -97 -68 -165t-165 -68t-165 68t-68 165t68 165t165 69h379z"/>
<glyph glyph-name="b.027" d="M332 408q0 -24 -17 -41t-41 -17q-25 0 -42 17t-17 41q0 25 17 42t42 17q24 0 41 -17t17 -42zM274 0q-37 0 -53 32l-175 350q-6 12 -6 26q0 36 32 52q14 6 26 6q33 0 53 -32l123 -245l122 245q16 32 53 32q13 0 26 -6q32 -16 32 -52q0 -14 -6 -26l-175 -350 q-16 -32 -52 -32z"/>
<glyph horiz-adv-x="430" glyph-name="b.024" d="M332 642q24 0 41 -18t17 -41q0 -24 -17 -41t-41 -17q-25 0 -42 17t-17 41q0 23 17 41t42 18zM98 642q25 0 42 -18t17 -41q0 -24 -17 -41t-42 -17q-24 0 -41 17t-17 41q0 23 17 41t41 18zM332 467q24 0 41 -17t17 -41v-467q0 -43 -21 -84q-45 -91 -154 -91q-24 0 -41 17 t-17 41q0 25 17 42t41 17q36 0 50 26q4 7 6 15t2 13v4v408h-116v-291q0 -25 -17 -42t-42 -17q-24 0 -41 17t-17 42v350q0 24 17 41t41 17h234z"/>
<glyph horiz-adv-x="488" glyph-name="b.029" d="M390 700q24 0 41 -17t17 -41q0 -25 -17 -42t-41 -17h-234v-291h175q25 0 42 -17t17 -42q0 -24 -17 -41t-42 -17h-175v-117q0 -24 -17 -41t-41 -17t-41 17t-17 41v584q0 24 17 41t41 17h292z"/>
<glyph horiz-adv-x="868" glyph-name="b.036" d="M804 361q24 -49 24 -99v-204q0 -24 -17 -41t-41 -17q-25 0 -42 17t-17 41v204q0 25 -13 50q-21 38 -74 38h-59v-292q0 -24 -17 -41t-41 -17t-41 17t-17 41v292h-223q-41 0 -51 -16q0 -14 43 -26q19 -4 40 -12t53 -23t54 -43t25 -62v-11q0 -56 -39 -98q-53 -59 -147 -59 q-50 0 -92 22t-64 59q-8 14 -8 29q0 34 28 51q16 8 31 8q32 0 49 -28q14 -24 56 -24q43 0 61 21q9 9 9 19q-6 8 -32 20t-49 17q-3 0 -4 1q-62 17 -94 49q-37 37 -37 91q0 56 48 94t120 38h223v175q0 24 17 41t41 17t41 -17t17 -41v-175h59q127 0 180 -106z"/>
<glyph horiz-adv-x="488" glyph-name="b.030" d="M157 583v-321h57l7 1q7 1 15 3t18 6q12 4 22 10q56 35 56 126q0 112 -58 153q-31 22 -60 22h-57zM448 408q0 -152 -104 -221l87 -87q17 -19 17 -42q0 -24 -17 -41t-41 -17t-41 17l-129 129h-63v-88q1 -24 -17 -41t-42 -17t-41 17t-17 41v584q0 24 17 41t41 17h117 q61 0 120 -39q113 -76 113 -253z"/>
<glyph horiz-adv-x="488" glyph-name="b.031" d="M390 583h-234v-291h175q25 0 42 -17t17 -42q0 -24 -17 -41t-42 -17h-175v-58h234q24 0 41 -17t17 -42q0 -24 -17 -41t-41 -17h-292q-24 0 -41 17t-17 41v584q0 24 17 41t41 17h292q24 0 41 -17t17 -41q0 -25 -17 -42t-41 -17z"/>
<glyph horiz-adv-x="546" glyph-name="b.034" d="M448 700q24 0 41 -17t17 -41v-584q0 -24 -17 -41t-41 -17t-41 17t-17 41v292l-234 175v-467q0 -24 -17 -41t-41 -17t-41 17t-17 41v584q0 36 32 52q13 7 26 7q18 0 35 -13l257 -192v146q0 24 17 41t41 17z"/>
<glyph horiz-adv-x="488" glyph-name="b.028" d="M276 282q55 34 55 126q0 112 -57 153q-31 22 -60 22h-58v-321h58l6 1q7 1 15 3q7 2 19 6t22 10zM335 661q113 -78 113 -253q0 -161 -116 -229q-58 -33 -117 -33h-59v-88q0 -24 -17 -41t-41 -17t-41 17t-17 41v584q0 24 17 41t41 17h117q61 0 120 -39z"/>
<glyph horiz-adv-x="546" glyph-name="b.032" d="M156 117h117q49 0 83 32t34 84q0 72 -53 100q-32 17 -64 17h-117v-233zM250 583h-94v-116h115q31 0 31 58q0 36 -22 49q-14 9 -30 9zM399 432q107 -62 107 -199q0 -145 -119 -205q-57 -28 -114 -28h-175q-24 0 -41 17t-17 41v584q0 24 17 41t41 17h152q42 0 83 -21 q86 -47 86 -154q0 -53 -20 -93z"/>
<glyph horiz-adv-x="488" glyph-name="b.033" d="M331 292v116q0 112 -57 153q-31 22 -60 22h-58v-466h58q29 0 60 22q57 41 57 153zM335 661q113 -75 113 -253v-116q0 -178 -113 -253q-59 -39 -120 -39h-117q-24 0 -41 17t-17 41v584q0 24 17 41t41 17h117q61 0 120 -39z"/>
<glyph horiz-adv-x="546" glyph-name="b.026" d="M214 58q0 25 17 42t42 17q24 0 41 -17t17 -42q0 -24 -17 -41t-41 -17q-25 0 -42 17t-17 41zM448 0q-36 0 -52 32l-123 246l-123 -246q-17 -32 -52 -32q-14 0 -26 6q-32 18 -32 52q0 14 6 26l175 350q17 33 52 33t52 -33l175 -350q6 -12 6 -26q0 -35 -32 -52 q-14 -6 -26 -6z"/>
<glyph horiz-adv-x="838" glyph-name="b.037" d="M273 117q49 0 83 34t34 82q0 49 -34 83t-83 34t-83 -34t-34 -83q0 -48 34 -82t83 -34zM740 467q24 0 41 -17t17 -42q0 -24 -17 -41t-41 -17h-59v-292q0 -24 -17 -41t-41 -17t-41 17t-17 41v292h-59v-292q0 -24 -17 -41t-41 -17q-38 0 -53 34q-58 -34 -122 -34 q-97 0 -165 68t-68 165t68 165t165 69q61 0 117 -32v207q0 24 17 41t41 17t41 -17t17 -41v-175h59v175q0 24 17 41t41 17t41 -17t17 -41v-175h59z"/>
<glyph horiz-adv-x="751" glyph-name="b.038" d="M653 467q24 0 41 -17t17 -42q0 -24 -17 -41t-41 -17h-59v-292q0 -24 -17 -41t-41 -17t-41 17t-17 41v292h-93l-117 -117l134 -133q17 -18 17 -42t-17 -41t-41 -17t-41 17l-163 163v-122q0 -24 -17 -41t-42 -17q-24 0 -41 17t-17 41v584q0 24 17 41t41 17q25 0 42 -17 t17 -41v-355l163 163q17 17 41 17h117v175q0 24 17 41t41 17t41 -17t17 -41v-175h59z"/>
<glyph horiz-adv-x="868" glyph-name="b.039" d="M803 361q25 -49 25 -99v-204q0 -24 -17 -41t-41 -17q-25 0 -42 17t-17 41v204q0 25 -13 50q-21 38 -74 38h-59v-292q0 -24 -17 -41t-41 -17t-41 17t-17 41v292h-189q-43 0 -73 -34t-30 -83q0 -48 30 -82t73 -34q20 0 39 9q12 6 25 6q10 0 20 -4q23 -8 33 -30q6 -12 6 -25 q0 -9 -4 -19q-8 -22 -30 -34q-43 -20 -89 -20q-92 0 -156 68t-64 165t64 165t156 69h189v175q0 24 17 41t41 17t41 -17t17 -41v-175h59q62 1 108 -27t71 -79z"/>
<glyph horiz-adv-x="896" glyph-name="b.044" d="M798 117q24 0 41 -17t17 -42q0 -24 -17 -41t-41 -17h-292q-30 0 -49 27l-301 430v-399q0 -24 -17 -41t-41 -17t-41 17t-17 41v584q0 18 11 34t29 21q11 4 21 4q27 0 45 -26l302 -432v399q0 24 17 41t41 17h292q24 0 41 -17t17 -41q0 -25 -17 -42t-41 -17h-233v-175h175 q24 0 41 -17t17 -41t-17 -41t-41 -17h-175v-175h233z"/>
<glyph horiz-adv-x="518" glyph-name="b.041" d="M175 255l5 -9h3q3 -1 5 -1q25 0 89 19q69 19 82 46q2 2 2 7q0 6 -2 11q-9 22 -32 22q-27 0 -65 -27q-7 -5 -14 -11q-6 -6 -14 -10l-12 -9q-29 -20 -48 -35q1 -1 1 -3zM419 117q25 0 42 -17t17 -42q0 -24 -17 -41t-42 -17q-122 0 -177 86q-13 21 -20 45q-24 -2 -34 -2 q-16 0 -31 3v-74q0 -24 -17 -41t-41 -17q-25 0 -42 17t-17 41v584q0 24 17 41t42 17q24 0 41 -17t17 -41v-252l37 27q67 49 133 49q47 0 85 -26t55 -68q11 -25 11 -55q0 -32 -14 -59q-32 -65 -128 -98q1 -5 7 -15q19 -28 76 -28z"/>
<glyph horiz-adv-x="1014" glyph-name="b.042" d="M915 700q23 0 41 -17t18 -41v-584q0 -18 -12 -34t-29 -21q-9 -3 -18 -3q-29 0 -48 25l-302 432v-399q1 -18 -11 -34t-30 -21q-9 -3 -18 -3q-30 0 -47 25l-302 432v-399q0 -24 -17 -41t-41 -17q-25 0 -42 17t-17 41v584q0 18 12 34t29 21q9 3 18 3q30 0 47 -25l303 -432 v399q0 18 11 34t29 21q9 3 18 3q31 0 48 -25l302 -432v399q0 24 17 41t41 17z"/>
<glyph horiz-adv-x="1049" glyph-name="b.092" d="M225 185q68 -68 165 -68t165 68q13 13 21 25l9 13q38 58 38 128q0 96 -68 164t-165 68t-165 -68q-69 -69 -69 -165t69 -165zM390 700q145 0 248 -103q70 -70 92 -167l173 245q17 25 47 25q9 0 18 -3q18 -5 30 -21t11 -34v-584q0 -24 -17 -41t-42 -17q-24 0 -41 17t-17 41 v399l-209 -299q-22 -33 -46 -55q-103 -103 -247 -103q-145 0 -248 103q-102 102 -102 247t102 247q101 103 248 103z"/>
<glyph horiz-adv-x="460" glyph-name="b.048" d="M291 117h70q23 0 41 -17t18 -42q0 -24 -18 -41t-41 -17h-262q-19 0 -35 12t-21 29q-3 9 -3 18q0 30 26 48l103 68h-70q-19 -1 -35 11t-21 30q-3 9 -3 18q0 30 26 48l103 68h-70q-25 0 -42 17t-17 41q0 25 17 42t42 17h262q19 1 35 -11t21 -31q2 -5 2 -16q0 -32 -25 -49 l-103 -68h70q19 0 35 -12t21 -30q2 -5 2 -16q0 -32 -25 -49z"/>
<glyph horiz-adv-x="694" glyph-name="greater.alt1" d="M460 568l177 -177q17 -19 17 -41q0 -24 -17 -41l-177 -177q-17 -17 -41 -17t-41 17q-17 16 -17 41t17 42l79 79h-69l-161 -162q-17 -17 -41 -17q-23 0 -42 17q-17 19 -17 42q0 24 17 41l80 79h-126q-24 0 -41 17t-17 41t17 42t41 17h121l-75 74q-17 17 -17 41q0 23 17 42 q16 16 41 16t42 -16l157 -157h69l-75 74q-17 16 -17 41t17 42q16 16 41 16t41 -16z"/>
<glyph horiz-adv-x="896" glyph-name="b.043" d="M798 117q24 0 41 -17t17 -42q0 -24 -17 -41t-41 -17h-292q-30 0 -49 27l-301 430v-399q0 -24 -17 -41t-41 -17t-41 17t-17 41v584q0 18 11 34t29 21q11 4 21 4q27 0 45 -26l302 -432v399q0 24 17 41t41 17h292q24 0 41 -17t17 -41q0 -25 -17 -42t-41 -17h-233v-175h175 q24 0 41 -17t17 -41t-17 -41t-41 -17h-175v-175h233z"/>
<glyph horiz-adv-x="606" glyph-name="b.045" d="M242 321h111l-53 151zM562 78q3 -10 3 -20q1 -13 -5 -25q-10 -22 -34 -30q-9 -3 -19 -3q-17 0 -33 10t-22 29l-50 143l-272 -173q-14 -9 -30 -9q-8 0 -14 2q-24 6 -36 25q-9 14 -9 31q0 6 1 12q5 24 25 38l152 96h-62q-30 0 -48 25q-10 15 -10 32q0 11 4 22l146 380 q6 17 21 27t34 10q18 0 33 -11t21 -28z"/>
<glyph horiz-adv-x="518" glyph-name="b.094" d="M216 464l145 -87v166zM71 518l321 175q13 7 27 7q16 0 30 -8q29 -18 29 -50v-584q0 -24 -17 -41t-42 -17q-24 0 -41 17t-17 41v183l-292 175q-29 18 -29 52q2 35 31 50z"/>
<glyph horiz-adv-x="458" glyph-name="b.049" d="M229 331l15 19h-30zM412 434q6 -12 6 -26q0 -19 -11 -35l-105 -140l105 -140q11 -14 11 -34q0 -30 -23 -47q-15 -12 -35 -12q-29 0 -46 23l-85 113l-85 -113q-17 -23 -47 -23q-19 0 -34 12q-23 17 -23 47q0 20 11 34l105 140l-105 140q-11 16 -11 35q0 14 6 26 q15 33 52 33h262q36 0 52 -33z"/>
<glyph horiz-adv-x="517" glyph-name="b.054" d="M419 467q24 0 41 -17t17 -42v-350q0 -24 -17 -41t-41 -17t-41 17t-17 41v289l-214 -321q-19 -26 -49 -26q-8 0 -17 3q-17 5 -29 21t-12 34v584q0 24 17 41t41 17t41 -17t17 -41v-391l127 190q18 26 48 26h88z"/>
<glyph horiz-adv-x="518" glyph-name="b.047" d="M383 13l-113 90l-139 -93q-14 -10 -32 -10q-15 0 -28 7q-31 16 -31 51v584q0 24 17 41t41 17t41 -17t17 -41v-475l85 57q15 9 32 9q21 0 37 -12l146 -117q22 -17 22 -46q0 -20 -13 -36q-18 -22 -47 -22q-21 0 -35 13z"/>
<glyph horiz-adv-x="460" glyph-name="b.095" d="M52 93l193 257h-146q-23 0 -41 17t-18 41t18 42t41 17h259q12 0 22 -3q29 -10 37 -38l1 -2v-4q1 -1 1 -5l1 -3v-4v-350q0 -24 -17 -41t-42 -17q-24 0 -41 17t-17 41v175l-158 -210q-17 -23 -46 -23q-20 0 -35 12q-23 17 -23 47q0 20 11 34z"/>
<glyph horiz-adv-x="343" glyph-name="b.051" d="M245 467q24 0 41 -17t17 -42q0 -24 -17 -41t-41 -17h-71l69 -278q2 -7 2 -15q-1 -15 -9 -29q-12 -20 -35 -26q-10 -2 -15 -2q-20 0 -36 12t-20 32l-88 350q-2 7 -2 14q0 20 13 36q18 23 46 23h146z"/>
<glyph horiz-adv-x="546" glyph-name="b.052" d="M489 683q17 -19 17 -42q0 -24 -17 -41l-58 -58q-17 -17 -41 -17q-14 0 -26 6l-33 16v-489q0 -24 -17 -41t-41 -17t-41 17t-17 41v489l-33 -16q-12 -6 -26 -6q-24 0 -41 17l-58 58q-17 16 -17 41t17 42t41 17q22 0 41 -17l29 -29l79 40h1q1 1 2 1q2 2 5 2l3 1q2 0 2 1 q3 0 6 1h12h2q1 -1 3 -1l2 -1h4q2 -2 5 -2q1 0 5 -2l79 -40l29 29q17 17 41 17q22 0 41 -17z"/>
<glyph horiz-adv-x="624" glyph-name="b.057" d="M273 117q58 0 88 44l-100 153q-101 -38 -104 -85v-7q0 -40 27 -70q33 -35 89 -35zM336 519q0 28 -26 46t-66 18q-2 0 -4 1q-2 -1 -6 -1h-9l81 -124q30 21 30 60zM567 275q17 -19 17 -42q0 -24 -17 -41l-53 -53l32 -49q9 -15 9 -31q0 -31 -27 -50q-14 -9 -31 -9 q-33 0 -49 27l-22 32q-64 -59 -153 -59q-106 0 -175 72q-58 63 -58 151v15q8 113 156 176l-127 196q-10 14 -10 32q0 16 7 27q16 31 52 31h126q85 0 145 -49q64 -53 64 -132q0 -101 -84 -158l80 -122l36 36q16 16 41 16q24 0 41 -16z"/>
<glyph horiz-adv-x="546" glyph-name="b.093" d="M98 700h350q39 0 54 -36q4 -9 4 -22q0 -25 -17 -42l-158 -157v-385q0 -24 -17 -41t-41 -17t-41 17t-17 41v409q0 24 17 41l75 75h-209q-24 0 -41 17t-17 42q0 24 17 41t41 17z"/>
<glyph horiz-adv-x="520" glyph-name="b.055" d="M422 117q24 0 41 -17t17 -42q0 -24 -17 -41t-41 -17h-321q-24 0 -41 17t-17 41v146q0 24 17 41t41 17q23 0 41 -17t18 -41v-87h262zM98 350q-24 0 -41 17t-17 41q0 25 17 42t41 17h321q24 0 41 -17t17 -42v-146q0 -24 -17 -41t-41 -17t-41 17t-17 41v88h-263z"/>
<glyph horiz-adv-x="546" glyph-name="b.060" d="M215 467h116l-58 77zM320 677l173 -232q13 -16 13 -37q0 -24 -16 -40t-42 -18h-117v-292q0 -24 -17 -41t-41 -17t-41 17t-17 41v292h-117q-36 0 -52 32q-6 12 -6 27q0 18 11 34l175 234q18 23 47 23t47 -23z"/>
<glyph horiz-adv-x="780" glyph-name="b.056" d="M425 468q17 17 41 17q23 0 42 -17q17 -19 17 -42q0 -24 -17 -41l-154 -153q-17 -17 -41 -17t-41 17t-17 41q0 22 17 41zM390 117q97 0 165 68t68 165t-68 165t-165 68t-165 -68t-68 -165t68 -165t165 -68zM390 700q146 0 248 -102t102 -248t-102 -248t-248 -102t-248 102 t-102 248t102 248t248 102z"/>
<glyph horiz-adv-x="896" glyph-name="b.058" d="M628 0h-5q-36 0 -52 32l-123 246l-123 -246q-16 -32 -52 -32h-5q-39 3 -51 42l-175 583q-2 6 -2 17q0 18 11 34t30 22q5 2 16 2q20 0 36 -12t21 -30l133 -442l109 218q16 33 52 33t52 -33l109 -218l133 442q6 18 22 30t35 12q11 0 16 -2q19 -6 30 -22t11 -34 q0 -11 -2 -17l-175 -583q-12 -39 -51 -42z"/>
<glyph horiz-adv-x="517" glyph-name="b.061" d="M453 455q24 -17 24 -48q0 -11 -2 -17q-5 -18 -21 -29t-35 -11h-262v-292q1 -24 -17 -41t-42 -17t-41 17t-17 41v350q0 25 17 42t41 17h142l-176 127q-24 16 -24 47q0 10 3 19q6 18 21 29t34 11h321q24 0 41 -17t17 -41q0 -25 -17 -42t-41 -17h-141z"/>
<glyph horiz-adv-x="728" glyph-name="b.062" d="M629 0q-24 0 -41 17t-17 41v525h-58v-525q0 -24 -17 -41t-41 -17h-182q-24 0 -41 17t-17 41v525h-58v-521q0 -25 -17 -42t-42 -17q-24 0 -41 17t-17 42v580q0 24 17 41t41 17h175q23 0 41 -17t18 -41v-525h64v525q0 24 17 41t42 17h175q24 0 41 -17t17 -41v-584 q0 -24 -17 -41t-42 -17z"/>
<glyph horiz-adv-x="553" glyph-name="b.063" d="M455 0h-182q-24 0 -41 17t-17 41v525h-59v-521q0 -25 -17 -42t-41 -17t-41 17t-17 42v580q0 24 17 41t41 17h175q24 0 41 -17t17 -41v-525h65v525q0 24 17 41t41 17q25 0 42 -17t17 -41v-584q0 -24 -17 -41t-41 -17z"/>
<glyph horiz-adv-x="546" glyph-name="b.064" d="M448 0h-350q-24 0 -41 17t-17 41v175q0 23 17 41t41 18h58v58q0 24 18 41t41 17h58v59q0 24 17 41t41 17h59v58h-292q-24 0 -41 17t-17 42q0 24 17 41t41 17h350q24 0 41 -17t17 -41v-175q0 -25 -17 -42t-41 -17h-58v-58q0 -24 -17 -41t-42 -17h-58v-59q0 -24 -17 -41 t-41 -17h-59v-58h292q24 0 41 -17t17 -42q0 -24 -17 -41t-41 -17z"/>
<glyph horiz-adv-x="313" glyph-name="b.065" d="M215 0h-117q-24 0 -41 17t-17 41q0 25 17 42t41 17h58v77h-58q-24 0 -41 18t-17 41v194q0 23 17 41t41 18h58v77h-58q-24 0 -41 17t-17 41q0 25 17 42t41 17h117q24 0 41 -17t17 -41v-195q0 -24 -17 -41t-41 -17h-59v-78h59q24 0 41 -17t17 -41v-195q0 -24 -17 -41 t-41 -17z"/>
<glyph horiz-adv-x="661" glyph-name="b.066" d="M299 406q78 -6 129 -23q-29 76 -69 149q-31 -56 -60 -126zM570 0h-7q-22 0 -38 14t-20 36l-18 133l-6 27q-7 17 -24 31q-55 44 -199 50q-35 -118 -45 -238q-2 -23 -19 -38t-40 -15h-4q-23 2 -38 19t-15 39v5q8 106 39 224l-29 -3h-4t-5 -1q-21 0 -37 14t-20 36q-1 1 -1 4 v5q0 21 14 37t36 20l10 1q12 2 32 4t41 2q13 34 27 66t27 59t25 49t22 40t19 29q7 11 13 19t6 9q18 23 47 23t47 -23q14 -15 44 -65t73 -154t71 -217q6 -20 8 -39q13 -62 19 -139v-5q-1 -22 -15 -38t-36 -20z"/>
<glyph glyph-name="b.077" d="M215 583v-116h64q21 2 37 19t16 39q0 24 -18 41t-41 17h-58zM273 0q-97 0 -165 68t-68 165q0 25 17 42t41 17t42 -17t17 -42q0 -48 34 -82t82 -34q49 0 83 34t34 82q0 49 -34 83t-83 34h-116q-25 0 -42 17t-17 41v234q0 24 17 41t42 17h116q73 0 124 -52t51 -123 q0 -59 -35 -105q94 -71 94 -187q-1 -97 -69 -165t-165 -68z"/>
<glyph horiz-adv-x="780" glyph-name="b.068" d="M565 583q-24 0 -41 -17t-17 -41t17 -41t41 -17t41 17t17 41t-17 41t-41 17zM565 117q24 0 41 17t17 41t-17 41t-41 17t-41 -17t-17 -41t17 -41t41 -17zM215 467q24 0 41 17t17 41t-17 41t-41 17t-41 -17t-17 -41t17 -41t41 -17zM215 117q24 0 41 17t17 41t-17 41t-41 17 t-41 -17t-17 -41t17 -41t41 -17zM565 350q-73 0 -124 51t-51 124q0 -73 -52 -124t-123 -51q71 0 123 -52t52 -123q0 71 51 123t124 52zM565 350q71 0 123 -52t52 -123q0 -73 -52 -124t-123 -51q-73 0 -124 51t-51 124q0 -73 -52 -124t-123 -51q-73 0 -124 51t-51 124 q0 71 51 123t124 52q-73 0 -124 51t-51 124q0 71 51 123t124 52q71 0 123 -52t52 -123q0 71 51 123t124 52q71 0 123 -52t52 -123q0 -73 -52 -124t-123 -51z"/>
<glyph horiz-adv-x="926" glyph-name="b.069" d="M98 0q-24 0 -41 17t-17 41v584q0 37 33 52q12 6 25 6q19 0 37 -13l634 -507v462q0 24 17 41t41 17q25 0 42 -17t17 -41v-584q0 -36 -33 -52q-12 -6 -25 -6q-19 0 -37 13l-634 507v-462q0 -24 -17 -41t-42 -17z"/>
<glyph horiz-adv-x="489" glyph-name="b.070" d="M390 0q-145 0 -247 102q-103 105 -103 248q0 146 102 248t248 102q25 0 42 -17t17 -41q0 -25 -17 -42t-42 -17q-96 0 -164 -68t-69 -165q0 -97 68 -165t165 -68q25 0 42 -17t17 -42q0 -24 -17 -41t-42 -17z"/>
<glyph glyph-name="b.071" d="M448 583h-350q-24 0 -41 17t-17 41q0 25 17 42t41 17h350q25 0 42 -17t17 -42q0 -24 -17 -41t-42 -17zM448 0h-350q-24 0 -41 17t-17 41q0 25 17 42t41 17h350q25 0 42 -17t17 -42q0 -24 -17 -41t-42 -17z"/>
<glyph horiz-adv-x="489" glyph-name="b.072" d="M99 0q-25 0 -42 17t-17 41q0 25 17 42t42 17q97 0 165 68t68 165t-68 165q-70 68 -165 68q-25 0 -42 17t-17 42q0 24 17 41t42 17q144 0 247 -103t103 -247q-1 -146 -103 -248t-247 -102z"/>
<glyph horiz-adv-x="372" glyph-name="b.088" d="M273 0h-175q-24 0 -41 17t-17 41q0 25 17 42t41 17h175q23 0 41 -17t18 -42q0 -24 -18 -41t-41 -17zM273 350h-175q-24 0 -41 17t-17 41q0 25 17 42t41 17h175q23 0 41 -17t18 -42q0 -24 -18 -41t-41 -17z"/>
<glyph horiz-adv-x="926" glyph-name="b.074" d="M157 583v-466h379q96 0 164 68t69 165q-1 97 -69 165t-164 68h-379zM536 0h-438q-24 0 -41 17t-17 41v584q0 24 17 41t41 17h438q146 0 248 -102t102 -248t-102 -248t-248 -102z"/>
<glyph horiz-adv-x="1655" glyph-name="b.075" d="M1265 583h-875q-97 0 -165 -68t-68 -165t68 -165t165 -68h875q97 0 165 68t68 165t-68 165t-165 68zM1265 0h-875q-146 0 -248 102t-102 248t102 248t248 102h875q145 0 247 -102t103 -248q-1 -146 -103 -248t-247 -102z"/>
<glyph horiz-adv-x="546" glyph-name="b.059" d="M448 292h-350q-24 0 -41 17t-17 41t17 41t41 17h350q24 0 41 -17t17 -41t-17 -41t-41 -17zM448 583h-350q-24 0 -41 17t-17 41q0 25 17 42t41 17h350q24 0 41 -17t17 -42q0 -24 -17 -41t-41 -17z"/>
<glyph horiz-adv-x="197" glyph-name="b.067" d="M98 -63q24 0 42 -17t17 -42q1 -24 -17 -41t-42 -17t-41 17t-17 41q0 25 17 42t41 17zM98 117q24 0 42 -17t17 -42q1 -24 -17 -41t-42 -17t-41 17t-17 41q0 25 17 42t41 17z"/>
<glyph horiz-adv-x="0" glyph-name="b.078" d="M559 0q-5 0 -8 1l-86 12q-31 5 -43 31q-6 12 -6 25q0 16 7 29l52 95l-141 -40q-10 -2 -15 -2q-30 0 -48 24q-11 16 -11 33q0 18 11 34l71 102l-128 -53q-12 -5 -23 -5q-25 0 -42 19q-15 17 -15 39q0 15 7 28l53 97l-81 -22q-10 -2 -15 -2q-24 0 -43 19q-15 16 -15 39 q0 10 3 19l49 139q14 39 55 39q10 0 19 -3q38 -14 38 -54q0 -11 -3 -20l-12 -35l106 28q10 2 15 2q27 0 46 -22q12 -15 12 -35q0 -15 -7 -28l-39 -72l158 67q12 5 22 5q28 0 45 -22q13 -16 13 -37q0 -18 -10 -32l-92 -133l118 33q9 3 17 3q27 0 44 -22q13 -16 13 -37 q0 -16 -7 -27l-79 -144h4q22 -5 36 -21t13 -37v-7q-4 -22 -20 -36t-38 -14z"/>
<glyph horiz-adv-x="546" glyph-name="b.079" d="M156 583v-58h59v58h-59zM273 0q-24 0 -41 17t-17 41v350h-117q-24 0 -41 17t-17 42v175q0 24 17 41t41 17h175q24 0 41 -17t17 -41v-117h59v117q0 24 17 41t41 17t41 -17t17 -41v-175q0 -25 -17 -42t-41 -17h-117v-350q0 -24 -17 -41t-41 -17z"/>
<glyph horiz-adv-x="604" glyph-name="b.080" d="M506 0q-18 0 -34 10t-21 29l-149 426l-149 -426q-15 -39 -56 -39q-9 0 -18 3q-39 15 -39 55q0 10 3 20l204 583q14 39 55 39t55 -39l204 -583q3 -11 3 -20q0 -40 -39 -55q-9 -3 -19 -3zM244 58q0 25 17 42t41 17t41 -17t17 -42q0 -24 -17 -41t-41 -17t-41 17t-17 41z"/>
<glyph horiz-adv-x="867" glyph-name="b.082" d="M594 117q48 0 82 34t35 82q-1 49 -35 83t-82 34t-82 -34t-35 -83q1 -48 35 -82t82 -34zM594 467q97 -1 165 -69t68 -165t-68 -165t-165 -68t-165 68t-68 165q0 64 31 117h-90v-292q0 -24 -17 -41t-41 -17t-41 17t-17 41v292h-88q-24 0 -41 17t-17 41q0 25 17 42t41 17h88 v58q0 43 20 84q46 91 155 91q24 0 41 -17t17 -41q0 -25 -17 -42t-41 -17q-38 0 -50 -26q-4 -7 -6 -15l-3 -12v-5v-58h292z"/>
<glyph horiz-adv-x="558" glyph-name="b.076" d="M251 0q-110 0 -188 78q-17 18 -17 42t17 41t41 17t41 -17q45 -44 107 -44t105 44q44 43 44 105t-44 107q-17 17 -17 41t17 41t41 17t42 -17q78 -79 78 -189t-78 -188t-189 -78zM159 228q-24 0 -41 17q-78 79 -78 189t78 188t188 78t189 -78q17 -18 17 -42t-17 -41 t-41 -17t-41 17q-45 44 -107 44t-105 -44q-44 -43 -44 -105t44 -107q17 -17 17 -41t-17 -41t-42 -17z"/>
<glyph horiz-adv-x="868" glyph-name="b.083" d="M390 233q0 49 -34 83t-83 34q-48 0 -82 -34t-34 -83q0 -48 34 -82t82 -34q49 0 83 34t34 82zM769 467q23 0 41 -17t18 -42q0 -24 -18 -41t-41 -17h-87v-292q0 -24 -17 -41t-42 -17q-24 0 -41 17t-17 41v292h-90q32 -54 32 -117q-1 -97 -69 -165t-165 -68t-165 68t-68 165 t68 165t165 69h292v175q0 24 17 41t41 17q25 0 42 -17t17 -41v-175h87z"/>
<glyph horiz-adv-x="867" glyph-name="b.084" d="M594 117q48 0 82 34t35 82q-1 49 -35 83t-82 34t-82 -34t-35 -83q1 -48 35 -82t82 -34zM594 467q97 -1 165 -69t68 -165t-68 -165t-165 -68t-165 68t-68 165q0 64 31 117h-90v-292q0 -24 -17 -41t-41 -17t-41 17t-17 41v292h-88q-24 0 -41 17t-17 41q0 25 17 42t41 17h88 v175q0 24 17 41t41 17t41 -17t17 -41v-175h292z"/>
<glyph horiz-adv-x="722" glyph-name="b.086" d="M624 467q24 0 41 -17t17 -42q0 -24 -17 -41t-41 -17h-59v-292q0 -24 -17 -41t-41 -17t-41 17t-17 41v292h-223q-41 0 -51 -16q0 -14 43 -26q19 -4 40 -12t53 -23t54 -43t25 -62v-11q0 -56 -39 -98q-54 -59 -147 -59q-50 0 -92 22t-64 59q-8 14 -8 30q0 33 28 50 q16 8 30 8q33 0 50 -28q14 -24 56 -24q43 0 61 21q9 9 9 19q-6 8 -32 20t-49 17q-3 0 -4 1q-62 17 -94 49q-37 37 -37 91q0 56 48 94t120 38h223v175q0 24 17 41t41 17t41 -17t17 -41v-175h59z"/>
<glyph horiz-adv-x="867" glyph-name="b.081" d="M390 233q0 49 -34 83t-83 34t-83 -34t-34 -83q0 -48 34 -82t83 -34t83 34t34 82zM769 467q24 0 41 -17t17 -42q0 -24 -17 -41t-41 -17h-88v-292q0 -24 -17 -41t-41 -17t-41 17t-17 41v292h-90q31 -53 31 -117q0 -97 -68 -165t-165 -68t-165 68t-68 165t68 165t165 69h292 v58q0 43 20 84q46 91 155 91q24 0 41 -17t17 -41q0 -25 -17 -42t-41 -17q-38 0 -50 -26q-4 -7 -6 -15t-2 -12l-1 -5v-58h88z"/>
<glyph horiz-adv-x="774" glyph-name="b.085" d="M676 467q24 0 41 -17t17 -42q0 -24 -17 -41t-41 -17h-88v-292q0 -24 -17 -41t-41 -17t-41 17t-17 41v292h-59v-169q0 -45 -22 -88q-50 -93 -164 -93q-116 0 -164 93q-23 43 -23 88v227q0 25 17 42t41 17q25 0 42 -17t17 -42v-227q0 -18 10 -37q17 -27 60 -27q45 0 60 30 q5 7 7 15t2 14l1 5v227q0 25 17 42t41 17h117v175q0 24 17 41t41 17t41 -17t17 -41v-175h88z"/>
<glyph horiz-adv-x="1246" glyph-name="Z.004" d="M856 0h-758q-34 0 -51 30q-7 13 -7 28q0 18 8 30l297 495h-247q-24 0 -41 17t-17 42q0 24 17 41t41 17h350q34 0 51 -30q7 -13 7 -28q0 -18 -8 -30l-297 -495h655q97 0 165 68q69 69 69 165t-69 165q-68 68 -165 68q-96 0 -164 -68t-69 -165q0 -46 16 -85q4 -9 4 -21 q0 -18 -10 -32t-27 -22q-9 -4 -21 -4q-18 0 -33 10t-22 27q-24 62 -24 127q0 146 102 248t248 102q147 0 248 -103q102 -102 102 -247q0 -144 -102 -248q-102 -102 -248 -102z"/>
<glyph horiz-adv-x="546" glyph-name="Z.006" d="M156 372l234 -93v49l-234 93v-49zM448 700q24 0 41 -17t17 -41v-584q0 -24 -17 -41t-41 -17t-41 17t-17 41v95l-234 93v-188q0 -24 -17 -41t-41 -17t-41 17t-17 41v584q0 24 17 41t41 17t41 -17t17 -41v-95l234 -93v188q0 24 17 41t41 17z"/>
<glyph horiz-adv-x="1246" glyph-name="Z.003" d="M390 700h758q34 0 51 -30q7 -13 7 -28q0 -18 -8 -30l-297 -495h247q24 0 41 -17t17 -42q0 -24 -17 -41t-41 -17h-350q-34 0 -51 30q-7 13 -7 28q0 18 8 30l297 495h-655q-97 0 -165 -68q-69 -69 -69 -165t69 -165q68 -68 165 -68q96 0 164 68t69 165q0 46 -16 85 q-4 9 -4 21q0 18 10 32t27 22q9 4 21 4q18 0 33 -10t22 -27q24 -61 24 -127q0 -146 -102 -248t-248 -102q-147 0 -248 103q-102 102 -102 247q0 144 102 248q102 102 248 102z"/>
<glyph glyph-name="Z.001" d="M448 0h-350q-24 0 -41 17t-17 42q0 17 8 29l297 495h-247q-24 0 -41 17t-17 41q0 25 17 42t41 17h350q22 0 40 -17t18 -41q0 -18 -8 -30l-297 -495h247q24 0 42 -17t17 -42q1 -24 -17 -41t-42 -17z"/>
<glyph horiz-adv-x="488" glyph-name="Z.005" d="M318 170l5 12q-14 2 -34 2q-27 0 -51 -1q-63 -3 -79 -23q-3 -6 -3 -8v-2q1 -2 1 -3q3 -9 5 -13t14 -10t30 -6t38 4q2 1 4 1q49 9 70 47zM447 122l1 -64q0 -22 -17 -40t-41 -18q-37 0 -52 32q-32 -16 -69 -24q-56 -7 -63 -7q-64 0 -106 31t-56 88q-4 15 -4 33q0 43 26 77 q50 65 179 70h22t22 1q24 0 38 -2q-6 30 -20 39q-23 12 -50 12q-55 0 -97 -34q-16 -13 -37 -13q-27 0 -45 21q-13 16 -13 37q0 28 21 45q62 52 143 59q9 1 26 1q62 0 109 -26q36 -20 56 -60t24 -63q3 -22 3 -38v-157z"/>
<glyph horiz-adv-x="662" glyph-name="afii10024" d="M586 696q36 -14 36 -54q0 -13 -4 -22l-108 -270l108 -270q4 -9 4 -22q0 -40 -36 -54q-9 -4 -22 -4q-18 0 -32 10t-22 27l-102 255h-19v-234q0 -24 -17 -41t-41 -17t-41 17t-17 41v234h-19l-102 -255q-7 -17 -22 -27t-33 -10q-12 0 -21 4q-36 14 -36 54q0 13 4 22l108 270 l-108 270q-4 9 -4 22q0 40 36 54q9 4 21 4q18 0 33 -10t22 -27l102 -255h19v234q0 24 17 41t41 17t41 -17t17 -41v-234h19l102 255q7 17 22 27t33 10q12 0 21 -4z"/>
<glyph horiz-adv-x="538" glyph-name="afii10072" d="M492 84q6 -12 6 -25q0 -37 -33 -53q-12 -6 -25 -6q-37 0 -53 33l-59 122v-97q0 -24 -17 -41t-41 -17t-41 17t-17 41v94l-58 -119q-16 -33 -53 -33q-13 0 -25 6q-33 16 -33 53q0 13 6 25l71 146l-74 153q-6 12 -6 25q0 37 33 53q12 6 25 6q37 0 53 -33l61 -126v100 q0 25 17 42t41 17t41 -17t17 -42v-90l56 116q16 33 53 33q13 0 25 -6q33 -16 33 -53q0 -13 -6 -25l-71 -146z"/>
<glyph horiz-adv-x="488" glyph-name="afii10074" d="M98 467q24 0 41 -17t17 -42v-188l189 226q18 21 44 21q12 0 21 -4q18 -6 28 -21t10 -34v-350q0 -24 -17 -41t-41 -17q-25 0 -42 17t-17 41v189l-188 -226q-18 -21 -44 -21q-12 0 -21 4q-18 6 -28 21t-10 33v350q0 25 17 42t41 17z"/>
<glyph horiz-adv-x="605" glyph-name="afii10026" d="M98 0q-24 0 -41 18t-17 40v584q0 24 17 41t41 17q25 0 42 -17t17 -41v-399l302 432q17 25 47 25q25 0 42 -18t17 -40v-584q0 -24 -17 -41t-41 -17q-23 0 -41 17t-18 41v399l-302 -432q-17 -25 -48 -25z"/>
<glyph horiz-adv-x="488" glyph-name="afii10025" d="M244 0q-84 0 -144 60t-60 144q0 24 17 41t41 17t41 -17t17 -41q0 -36 26 -62t62 -25q36 -1 62 25t25 62q1 36 -25 62t-62 26q-24 0 -41 17t-17 41t17 41t41 17q36 0 62 26t25 62q1 36 -25 62t-62 25q-36 1 -62 -25t-26 -62q0 -24 -17 -42t-41 -17q-24 -1 -41 17t-17 42 q0 84 60 144t144 60t144 -60t60 -144q0 -87 -61 -146q61 -59 61 -146q0 -84 -60 -144t-144 -60z"/>
<glyph horiz-adv-x="532" glyph-name="afii10049" d="M375 350v233h-100q-32 0 -62 -15q-56 -28 -56 -101q0 -32 17 -64q28 -53 101 -53h100zM49 89l107 172q-57 31 -88 92q-28 56 -28 114q0 145 121 205q57 28 114 28h159q24 0 41 -17t17 -41v-584q0 -24 -17 -41t-41 -17t-42 17t-17 41v175h-98l-129 -206q-17 -27 -50 -27 q-16 0 -30 9q-28 17 -28 49q0 16 9 31z"/>
<glyph horiz-adv-x="546" glyph-name="b.073" d="M448 292h-350q-24 0 -41 17t-17 41t17 41t41 17h350q24 0 41 -17t17 -41t-17 -41t-41 -17zM448 583h-350q-24 0 -41 17t-17 41q0 25 17 42t41 17h350q24 0 41 -17t17 -42q0 -24 -17 -41t-41 -17zM448 0h-350q-24 0 -41 17t-17 41q0 25 17 42t41 17h350q24 0 41 -17 t17 -42q0 -24 -17 -41t-41 -17z"/>
<glyph horiz-adv-x="372" glyph-name="b.087" d="M273 0q-97 0 -165 68t-68 165t68 165t165 69q25 0 42 -17t17 -42q0 -24 -17 -41t-42 -17q-48 0 -82 -34t-34 -83q0 -48 34 -82t82 -34q25 0 42 -17t17 -42q0 -24 -17 -41t-42 -17z"/>
<glyph horiz-adv-x="1568" glyph-name="b.091" d="M211 584h11q20 -3 34 -17l117 -117q17 -19 17 -41q0 -24 -17 -41t-41 -17q-25 0 -41 17l-17 17v-151h1195q23 0 41 -17t18 -42q0 -24 -18 -41t-41 -17h-1254q-24 0 -41 17t-17 42v209l-17 -17q-17 -17 -42 -17t-41 17q-17 16 -17 41q0 24 17 41l120 120q16 12 34 14z"/>
<glyph horiz-adv-x="372" glyph-name="b.089" d="M99 0q-25 0 -42 17t-17 41q0 25 17 42t42 17q48 0 82 34t34 82q0 49 -34 83t-82 34q-25 0 -42 17t-17 41q0 25 17 42t42 17q97 -1 165 -69t68 -165t-68 -165t-165 -68z"/>
<glyph horiz-adv-x="1567" glyph-name="b.090" d="M1353 116h-4t-3 1q-20 1 -35 17l-116 116q-17 16 -17 41t17 42q16 16 41 16q24 0 41 -16l17 -17v151h-1196q-24 0 -41 17t-17 41q0 25 17 42t41 17h1255q24 0 41 -18t17 -41v-209l17 17q16 16 41 16t42 -16q16 -16 16 -41t-17 -42l-116 -116q-1 -3 -4 -4q-13 -11 -33 -13 q-2 -1 -4 -1z"/>
<glyph glyph-name="talt.101" d="M448 700q24 0 42 -17t17 -41v-117q0 -29 -25 -47q-14 -11 -34 -11q-9 0 -18 3l-98 32v-444q0 -24 -18 -41t-41 -17q-24 0 -41 17t-17 41v483l-135 45q-23 7 -34 29q-6 13 -6 26q0 10 3 19q7 23 29 34q13 6 26 6q10 0 19 -3l273 -91v36q0 24 17 41t41 17z"/>
<glyph horiz-adv-x="459" glyph-name="talt.106" d="M418 205v-8q1 -3 1 -7q1 -78 -55 -134t-135 -56q-77 0 -133 56t-56 134q0 24 17 41t41 17t41 -17t17 -41q0 -31 22 -52t51 -21q27 0 49 19t24 47l-248 289q-14 17 -14 38q0 78 56 134t133 56q25 0 42 -17t17 -41q0 -25 -17 -42t-42 -17q-25 1 -45 -15t-25 -39l246 -287 q13 -16 13 -37z"/>
<glyph glyph-name="talt.100" d="M449 700q24 0 41 -17t17 -41v-88q0 -24 -17 -41t-41 -17q-25 0 -42 17t-17 41v29h-58v-172h117q24 0 41 -17t17 -41v-87q0 -25 -17 -42t-41 -17q-25 0 -42 17t-17 42v29h-58v-237q0 -24 -17 -41t-41 -17q-25 0 -42 17t-17 41v237h-58v-29q0 -25 -17 -42t-41 -17 q-25 0 -42 17t-17 42v87q0 24 17 41t42 17h116v172h-58v-29q0 -24 -17 -41t-41 -17q-25 0 -42 17t-17 41v88q0 24 17 41t42 17h350z"/>
<glyph horiz-adv-x="896" glyph-name="talt.107" d="M156 431v-314h189zM506 431v-314h189zM83 698q10 2 15 2q34 0 50 -28l242 -403v373q0 20 12 36t31 20q10 2 15 2q34 0 50 -28l350 -584q8 -12 8 -30q0 -15 -7 -28q-17 -30 -51 -30h-700q-24 0 -41 17t-17 41v584q0 20 12 36t31 20z"/>
<glyph horiz-adv-x="430" glyph-name="talt.104" d="M331 700q23 0 41 -17t18 -41q0 -25 -18 -42t-41 -17h-58v-525q0 -24 -17 -41t-41 -17q-25 0 -42 17t-17 41v525h-58q-24 0 -41 17t-17 42q0 24 17 41t41 17h233z"/>
<glyph horiz-adv-x="429" glyph-name="talt.109" d="M214 0q-62 0 -110 32t-60 81q-2 10 -2 15q0 20 12 36t31 20q5 2 16 2q19 0 35 -12t21 -31q3 -9 19 -17t38 -9q25 -1 42 9t17 20q0 8 -79 32q-154 40 -154 143q0 65 57 108q49 37 117 37q62 0 110 -32t61 -81q2 -10 2 -15q0 -20 -12 -36t-31 -20q-5 -2 -16 -2 q-19 0 -35 12t-21 31q-3 9 -19 18t-39 9q-26 0 -42 -10t-16 -19q0 -3 7 -7t18 -8t21 -7l20 -6t13 -4q154 -39 154 -143q0 -65 -57 -109q-49 -37 -118 -37z"/>
<glyph horiz-adv-x="488" glyph-name="talt.105" d="M329 310l113 -226q6 -12 6 -26q0 -34 -32 -52q-12 -6 -26 -6q-37 0 -52 32l-146 292q-7 16 -7 27q0 17 9 30q17 27 50 27q23 0 49 14q39 21 39 74q0 54 -41 75q-10 5 -22 8t-19 3l-6 1h-87v-525q0 -24 -17 -41t-42 -17q-24 0 -41 17t-17 41v584q0 24 17 41t41 17h146 q50 0 99 -24q105 -52 105 -180t-105 -180z"/>
<glyph glyph-name="talt.111" d="M465 697q23 -7 35 -28q7 -13 7 -27q0 -8 -3 -17l-175 -583q-5 -18 -21 -30t-35 -12t-35 12t-21 30l-174 583q-3 9 -3 17q0 14 8 27q12 21 34 28q8 3 17 3q15 0 27 -8q22 -12 28 -34l61 -202v185q0 25 17 42t41 17q25 0 42 -17t17 -42v-185l60 202q8 22 29 34q13 7 27 8 q8 0 17 -3z"/>
<glyph horiz-adv-x="488" glyph-name="talt.108" d="M244 0q-74 0 -130 46t-70 117q-1 4 -1 12q0 21 13 37t33 20q4 1 11 1q22 0 38 -13t20 -34q6 -30 30 -50t56 -19q36 -1 62 25t25 62q1 28 -19 48t-86 42l-8 3q-24 7 -42 15t-46 25t-45 37t-31 52t-14 70q0 84 60 144t144 60q72 0 129 -46t71 -117q1 -4 1 -11 q0 -22 -13 -38t-34 -20q-4 -1 -11 -1q-20 0 -37 13t-21 33q-6 31 -30 51t-55 19q-36 1 -62 -25t-25 -62q0 -18 5 -30q6 -12 30 -28t70 -32l8 -3q24 -7 42 -15t46 -25t45 -37t31 -52t14 -70q0 -84 -60 -144t-144 -60z"/>
<glyph horiz-adv-x="548" glyph-name="talt.112" d="M475 460q21 -12 29 -34q3 -9 4 -18q0 -13 -7 -26l-175 -350q-16 -32 -52 -32t-52 32l-175 350q-7 13 -7 27q0 9 4 18q8 23 29 33q13 7 26 7q9 1 19 -3q22 -8 33 -30l65 -129v103q0 24 17 41t41 17t41 -17t17 -41v-103l65 129q11 22 33 30q9 3 19 3q13 0 26 -7z"/>
<glyph horiz-adv-x="598" glyph-name="talt.113" d="M500 690q24 0 41 -16t17 -41v-575q0 -43 -40 -55q-9 -3 -18 -3q-30 0 -47 25l-125 179v-147q0 -23 -17 -40t-41 -17t-40 17t-17 40v311l-58 82v-392q0 -24 -17 -41t-40 -17q-24 0 -41 17t-17 41v575q0 19 11 34t29 21q5 2 16 2q30 0 49 -24l68 -97v64q1 23 17 40t40 17 t41 -17t17 -40v-229l115 -164v393q0 25 17 41t40 16z"/>
<glyph horiz-adv-x="489" glyph-name="talt.110" d="M270 350l-113 63v-126zM441 670q8 -14 8 -28q-1 -8 -3 -16q-6 -24 -27 -35l-171 -95l171 -95q30 -17 30 -51t-30 -51l-171 -95l171 -95q21 -11 27 -35q2 -8 3 -16q0 -15 -8 -28q-16 -30 -51 -30q-15 0 -28 7l-205 114v-63q0 -24 -17 -41t-41 -17q-23 0 -41 17t-18 41v583 q0 25 18 42t41 17q24 0 41 -17t17 -42v-62l205 114q13 7 27 7q7 0 17 -2q24 -6 35 -28z"/>
<glyph horiz-adv-x="483" glyph-name="Pi.001" d="M155 115h58v173h-58v-173zM213 575h-58v-172h58v172zM385 575h-57v-172q23 0 40 -17t17 -41q0 -25 -17 -41t-40 -16v-173h57q24 0 41 -17t17 -41q0 -23 -17 -40t-41 -17h-287q-24 0 -41 17t-17 40v576q0 23 17 40t41 17h287q24 0 41 -17t17 -40q0 -24 -17 -41t-41 -17z "/>
<glyph horiz-adv-x="656" glyph-name="Pi.002" d="M401 345l42 -52l41 52l-41 52zM328 150l41 51l-41 52l-42 -52zM171 345l42 -52l41 52l-41 52zM328 541l-42 -52l42 -52l41 52zM603 381q12 -17 12 -36q0 -21 -12 -36l-87 -108l87 -107q13 -16 13 -36q0 -28 -22 -45q-16 -13 -36 -13q-26 0 -45 22l-70 87l-70 -87 q-17 -22 -45 -22t-45 22l-70 87l-71 -87q-16 -22 -44 -22q-22 0 -36 13q-22 17 -22 45q0 20 13 36l86 107l-86 108q-13 14 -13 36q0 20 13 36l86 108l-86 108q-13 16 -13 36q0 28 22 45q15 12 35 12q27 0 45 -21l71 -88l70 88q18 21 45 21t45 -21l70 -88l70 88q17 22 45 22 q20 0 36 -13q22 -17 22 -45q0 -20 -13 -36l-87 -108z"/>
<glyph horiz-adv-x="656" glyph-name="Pi.003" d="M406 350l41 -52l37 47l-41 52zM603 381q13 -18 13 -36q0 -20 -13 -36l-82 -103l82 -103q13 -16 13 -36q0 -28 -22 -45q-16 -12 -36 -12q-27 0 -45 21l-66 83l-74 -92q-16 -22 -45 -22q-20 0 -36 13q-22 17 -22 45q0 20 13 36l90 112l-41 52l-189 -236q-18 -22 -45 -22 q-20 0 -36 13q-22 17 -22 45q0 20 13 36l205 256l-205 256q-13 16 -13 36q0 28 22 45q16 13 36 13q28 0 45 -22l189 -236l37 47l-86 108q-13 16 -13 36q0 28 22 45q16 13 36 13q28 0 45 -22l70 -88l70 88q17 22 45 22q20 0 36 -13q22 -17 22 -45q0 -20 -13 -36l-86 -108z "/>
<glyph horiz-adv-x="885" glyph-name="Pi.004" d="M442 232l33 92l-33 109l-32 -109zM804 688q18 -5 30 -21t11 -35q0 -11 -2 -16l-173 -575q-4 -17 -20 -29t-35 -12t-35 12t-20 29l-29 96l-34 -98q-14 -39 -55 -39q-18 0 -33 11t-21 28l-34 98l-29 -96q-5 -17 -21 -29t-34 -12t-34 12t-21 29l-173 575q-2 6 -2 17 q0 19 12 35t29 20q5 2 16 2q19 0 35 -12t20 -29l118 -391l19 64l-102 292q-3 9 -3 19q0 41 38 54q9 3 19 3q41 0 54 -38l50 -143l42 140q6 19 21 30t34 11q20 0 35 -11t20 -30l42 -140l50 143q14 38 54 38q11 0 20 -3q38 -13 38 -54q0 -10 -3 -19l-102 -292l19 -64l117 391 q6 19 22 30t34 11q11 0 16 -2z"/>
<glyph horiz-adv-x="540" glyph-name="Pi.005" d="M442 403h-115v-58h115q24 0 41 -17t17 -40q0 -24 -17 -41t-41 -17h-115v-173q0 -23 -17 -40t-40 -17q-24 0 -41 17t-17 40v173h-115q-25 0 -41 17t-16 41q0 23 16 40t41 17h115v58h-115q-25 1 -41 17t-16 40t16 41t41 17h115v57h-115q-25 0 -41 17t-16 41q0 23 16 40 t41 17h345q24 0 41 -17t17 -40q0 -24 -17 -41t-41 -17h-115v-57h115q24 0 41 -17t17 -41t-17 -40t-41 -17z"/>
<glyph horiz-adv-x="898" glyph-name="alt.0.002" d="M449 700q33 0 50 -28l350 -584q9 -13 9 -30q0 -32 -29 -50q-14 -8 -30 -8q-33 0 -50 28l-242 403v-373q0 -20 -12 -36t-31 -20q-10 -2 -15 -2q-34 0 -50 28l-242 403v-373q0 -24 -17 -41t-42 -17q-24 0 -41 17t-17 41v584q0 19 12 35t31 21q10 2 15 2q35 0 51 -28 l241 -403v373q0 19 12 35t31 21q10 2 16 2z"/>
<glyph horiz-adv-x="605" glyph-name="Pi.006" d="M507 0q-24 0 -41 17t-17 41v457l-108 -93q-17 -14 -38 -14t-38 14l-108 93v-457q0 -24 -17 -41t-41 -17q-23 0 -41 17t-18 41v584q0 36 34 53q13 5 24 5q22 0 39 -14l166 -143l166 143q17 14 38 14q11 0 24 -5q34 -16 34 -53v-584q0 -24 -17 -41t-41 -17z"/>
<glyph horiz-adv-x="756" glyph-name="alt.002" d="M583 396q76 0 112 -55q21 -30 21 -70q0 -15 -3 -30q-14 -81 -75 -139t-133 -83q-54 -19 -114 -19q-140 0 -240 94q-53 50 -82 118t-29 140q0 46 12 91q26 94 100 162t170 88q33 6 66 6q82 -1 156 -37t124 -101q12 -15 12 -35q0 -29 -23 -46q-15 -12 -35 -12q-29 0 -46 23 q-34 43 -83 67t-103 25q-21 0 -46 -5q-64 -13 -113 -58t-66 -108q-8 -27 -8 -61q0 -103 74 -172q66 -63 161 -63q36 0 75 13q47 16 85 52t46 80q1 4 1 10v4q-4 4 -12 4q-15 -1 -33 -15t-27 -32q-16 -33 -53 -33q-13 0 -25 6q-29 15 -29 41q0 6 2 19t1 20q21 41 65 75t95 36z "/>
<glyph horiz-adv-x="750" glyph-name="alt.019" d="M331 146v5v18q0 79 -24 152q-11 34 -25 61q-38 -86 -38 -178v-10t4 -22q2 -14 8 -26t18 -20q12 -9 28 -9q14 0 24 10q5 9 5 19zM477 700q145 0 206 -120q27 -54 27 -113v-409q0 -24 -17 -41t-41 -17t-41 17t-17 41v408q0 33 -17 65q-27 52 -100 52q-75 0 -105 -25 q-16 -15 -33 -50q52 -67 81 -155q29 -89 29 -192v-17q-3 -54 -39 -99t-108 -45q-82 0 -128 61t-47 143q0 131 65 260l10 21q-52 46 -124 73q-38 14 -38 54q0 11 3 20q15 39 55 39q6 0 20 -4q75 -27 135 -73q31 50 83 78t141 28z"/>
<glyph horiz-adv-x="546" glyph-name="alt.0.036" d="M156 408h71l-71 156v-156zM349 571q-10 5 -22 8t-19 3l-6 1h-26l75 -161q39 21 39 74q0 54 -41 75zM501 82q5 -13 5 -24q0 -37 -34 -53q-13 -5 -24 -5q-37 0 -53 34l-116 258h-123v-234q0 -24 -17 -41t-41 -17t-41 17t-17 41v584q0 24 17 41t41 17h204q50 0 99 -24 q105 -52 105 -180t-105 -180l-4 -2z"/>
<glyph horiz-adv-x="546" glyph-name="alt.0.006" d="M374 413l119 -142q13 -16 13 -38q0 -21 -13 -37l-146 -175q-18 -21 -44 -21q-21 0 -38 14q-21 16 -21 45q0 21 13 37l115 137l-115 138q-13 14 -13 37q0 18 9 31l90 144h-187v-525q0 -24 -17 -41t-41 -17t-41 17t-17 41v584q0 24 17 41t41 17h350q34 0 51 -30 q7 -13 7 -28q0 -18 -9 -31z"/>
<glyph horiz-adv-x="664" glyph-name="SS.007" d="M274 175v58h-59q-36 0 -48 -24q-10 -16 -10 -34t10 -34q12 -24 48 -24q38 0 50 26q4 7 6 15l3 12v5zM565 350q23 0 41 -17t18 -42q0 -24 -18 -41t-41 -17h-175v-58q0 -43 -20 -84q-46 -91 -155 -91t-154 91q-21 41 -21 84t21 84q45 91 154 91h59v291q0 25 17 42t41 17 t41 -17t17 -42v-291h175z"/>
<glyph horiz-adv-x="780" glyph-name="alt.025" d="M390 700q146 0 248 -102t102 -248t-102 -248t-248 -102t-248 102t-102 248q0 78 31 144q16 34 53 34q11 0 24 -5q34 -16 34 -53q0 -11 -5 -24q-20 -46 -20 -96q0 -97 68 -165t165 -68t165 68t68 165t-68 165t-165 68q-12 0 -34 -2q-18 -4 -34 -12q-23 -10 -27 -19v-1 q2 -9 11 -13q17 -10 43 -10q14 0 26 4q9 3 19 3q42 0 56 -39q3 -9 3 -20q-1 -18 -11 -33t-28 -21q-28 -11 -66 -11q-56 0 -100 25q-56 32 -68 93q-2 8 -2 24q0 74 80 117q55 28 78 28q36 4 54 4z"/>
<glyph glyph-name="alt.0.009" d="M464 698q19 -4 31 -20t12 -36v-584q0 -24 -17 -41t-41 -17h-88q-24 0 -41 17t-17 41q0 25 17 42t41 17h30v314l-242 -403q-17 -28 -50 -28q-16 0 -30 8q-29 18 -29 50q0 16 9 30l350 584q16 28 50 28q5 0 15 -2z"/>
<glyph horiz-adv-x="546" glyph-name="alt.0.010" d="M448 117q24 0 41 -17t17 -42q0 -24 -17 -41t-41 -17h-350q-24 0 -41 17t-17 41q0 25 17 42t41 17h117v466h-117q-24 0 -41 17t-17 42q0 24 17 41t41 17h350q24 0 41 -17t17 -41q0 -25 -17 -42t-41 -17h-117v-466h117z"/>
<glyph horiz-adv-x="488" glyph-name="alt.0.011" d="M390 117q24 0 41 -17t17 -42q0 -24 -17 -41t-41 -17h-292q-24 0 -41 17t-17 41q0 25 17 42t41 17h87v438l-66 -26q-9 -4 -21 -4q-18 0 -32 10t-22 27q-4 9 -4 22q0 39 36 53l146 59q9 4 22 4q18 0 32 -10q26 -18 26 -48v-525h88z"/>
<glyph horiz-adv-x="343" glyph-name="alt.0.012" d="M278 690q25 -17 25 -48v-584q0 -24 -17 -41t-41 -17t-41 17t-17 41v497l-66 -26q-11 -4 -22 -4q-11 1 -23 5q-22 10 -31 32q-4 11 -4 21q1 11 5 23q10 22 32 31l145 59q12 4 23 4q17 0 32 -10z"/>
<glyph horiz-adv-x="898" glyph-name="alt.0.015" d="M449 0q-6 0 -16 2q-19 5 -31 21t-12 35v373l-241 -403q-16 -28 -51 -28q-5 0 -15 2q-19 5 -31 21t-12 35v584q0 24 17 41t41 17q25 0 42 -17t17 -41v-373l242 403q16 28 50 28q5 0 15 -2q19 -4 31 -20t12 -36v-373l242 403q17 28 50 28q16 0 30 -8q29 -18 29 -50 q0 -16 -9 -30l-350 -584q-17 -28 -50 -28z"/>
<glyph horiz-adv-x="546" glyph-name="alt.0.003" d="M483 688q23 -17 23 -47q0 -20 -11 -34l-175 -234q-18 -23 -47 -23t-47 23l-175 234q-11 14 -11 34q0 30 23 47q16 12 36 12q29 0 46 -23l128 -172l128 172q18 23 47 23q18 0 35 -12zM483 338q23 -17 23 -47q0 -20 -11 -34l-175 -234q-18 -23 -47 -23t-47 23l-175 234 q-11 14 -11 34q0 30 23 47q16 12 36 12q29 0 46 -23l128 -171l128 171q18 23 47 23q18 0 35 -12z"/>
<glyph horiz-adv-x="430" glyph-name="alt.0.013" d="M362 691q28 -16 28 -49v-584q0 -24 -17 -41t-41 -17t-41 17t-17 41v474q-117 -100 -117 -211q0 -24 -17 -41t-41 -17q-23 0 -41 17t-18 41q0 48 15 95t35 81q20 35 52 69t54 53t54 40t37 25q6 4 19 10t26 6q15 0 30 -9z"/>
<glyph horiz-adv-x="521" glyph-name="alt.022" d="M365 338v3q0 21 -14 32q-26 16 -52 16q-29 0 -59 -18q12 -33 28 -48q16 -14 51 -14q20 0 32 6q12 5 14 23zM417 470q64 -45 64 -127v-12q-5 -84 -77 -121q-34 -18 -85 -18q-82 0 -130 45q-17 15 -28 32q-5 -17 -5 -30q0 -19 9 -34q53 -88 242 -88q24 0 41 -17t17 -42 q0 -24 -17 -41t-41 -17q-43 0 -85 6t-92 19q-50 14 -94 45t-71 75q-25 40 -25 93q0 32 9 63q18 60 63 113q-1 9 -1 27q0 30 6 54q19 81 94 139q30 24 87 45t109 21q24 0 41 -17t17 -41q0 -25 -17 -42t-41 -17q-31 0 -69 -14t-55 -27q-27 -21 -40 -44q25 8 58 8q62 0 116 -36 z"/>
<glyph horiz-adv-x="1091" glyph-name="alt.0.018" d="M524 -554q74 16 128 70t81 128q27 76 39 150t12 152v31q-182 79 -316 79q-42 0 -80 -8q-133 -30 -200 -171q-32 -67 -32 -134q0 -99 65 -181q46 -58 111 -90t134 -32q30 0 58 6zM3294 -472q18 -5 30 -21t12 -35q0 -11 -2 -16q-36 -131 -145 -254q-134 -151 -323 -211 q-111 -35 -231 -35q-139 0 -289 45q-327 98 -703 407q-428 353 -743 514q0 -125 -31 -242q-39 -144 -121 -232t-199 -115q-41 -9 -83 -9q-96 0 -184 44t-152 122q-90 114 -90 253q0 92 43 184q91 192 280 234q50 11 103 11q141 0 318 -69v481h-119q-24 0 -41 17t-17 41 t17 41t41 17h348q24 0 41 -17t17 -41t-17 -41t-41 -17h-113v-532q346 -166 817 -555q357 -293 662 -385q133 -40 257 -40q102 0 195 29q87 29 160 79t119 108t74 107q28 50 39 92q5 19 21 31t35 12q5 0 15 -2z"/>
<glyph horiz-adv-x="1220" glyph-name="alt.0.019" d="M781 -54v33q-183 77 -313 77q-40 0 -80 -8q-133 -30 -200 -171q-32 -67 -32 -135q0 -98 63 -178q47 -58 113 -91t136 -33q28 0 57 6q155 33 220 261q36 125 36 239zM3294 -472q18 -5 30 -21t12 -35q0 -11 -2 -16q-36 -131 -145 -254q-134 -151 -323 -211 q-111 -35 -231 -35q-139 0 -289 45q-327 98 -703 407q-427 353 -747 517q-3 -122 -40 -250q-42 -145 -120 -233t-187 -109q-36 -8 -81 -8q-97 0 -187 44t-153 124q-70 89 -85 199q-3 26 -3 51q0 95 43 184q91 192 280 234q50 11 103 11q138 0 315 -68v538q0 24 17 41t41 17 h290q24 0 41 -17t17 -41t-17 -41t-41 -17h-232v-174h145q24 0 41 -17t17 -41t-17 -41t-41 -17h-145v-240q342 -164 820 -557q357 -293 662 -385q133 -40 257 -40q102 0 195 29q87 29 160 79t119 108t74 107q28 50 39 92q5 19 21 31t35 12q5 0 15 -2z"/>
<glyph horiz-adv-x="1072" glyph-name="alt.0.020" d="M799 117q48 0 82 34t34 82q0 49 -34 83t-82 34q-49 0 -83 -34t-34 -83q0 -48 34 -82t83 -34zM390 233q0 49 -34 83t-82 34q-49 0 -83 -34t-34 -83q0 -48 34 -82t83 -34q48 0 82 34t34 82zM857 459q77 -21 126 -83t49 -143q0 -97 -68 -165t-165 -68t-165 68t-69 165 q-1 81 49 143t126 83v8h-408v-8q77 -21 126 -83t49 -143q-1 -97 -69 -165t-164 -68q-98 0 -166 68t-68 165q0 81 50 143t125 83v66q0 24 17 41t42 17h525q24 0 41 -17t17 -41v-66z"/>
<glyph horiz-adv-x="955" glyph-name="alt.0.021" d="M785 170q3 7 5 13q-2 1 -13 1h-20q-27 0 -41 -1h-11q-15 0 -28 -3q-2 0 -6 -2t-7 -2q-15 -3 -29 -9q-4 -2 -9 -7q-2 -2 -2 -7q0 -17 14 -26t35 -9q18 0 38 4l4 1q51 10 70 47zM319 170q1 3 4 13q-2 1 -13 1h-20q-27 0 -40 -1h-12q-61 -3 -79 -23q-2 -2 -2 -7 q0 -35 50 -35q17 0 37 4q2 1 5 1q49 9 70 47zM914 121l1 -61q-1 -24 -17 -42t-41 -18q-37 0 -52 33q-30 -17 -68 -25q-47 -7 -64 -7q-116 0 -154 94q-53 -42 -86 -77q-18 -18 -43 -18q-12 0 -21 4q-19 7 -31 29q-30 -17 -68 -25q-44 -7 -63 -7q-65 0 -107 31t-56 88 q-4 22 -4 32q0 44 27 79q55 70 223 70q22 0 36 -1q-6 23 -18 30q-19 11 -53 11q-56 0 -95 -32q-17 -14 -37 -14q-26 0 -45 22q-13 16 -13 36q0 29 22 46q60 49 142 57q9 1 27 1q60 0 108 -25q28 -14 46 -40t26 -53q7 -27 9 -41t2 -25v-85q73 57 137 84q52 29 173 29 q22 0 36 -1q-6 23 -18 30q-24 12 -51 12q-54 0 -97 -33q-17 -14 -37 -14q-28 0 -45 22q-13 16 -13 36q0 29 22 46q60 49 142 57q9 1 27 1q60 0 107 -25q28 -14 47 -40t26 -53t9 -41t2 -25v-152z"/>
<glyph horiz-adv-x="780" glyph-name="alt.0.023" d="M587 583h-394l197 -395zM390 0q-35 0 -52 32l-292 584q-6 12 -6 25q0 17 9 31q16 28 49 28h584q33 0 49 -28q9 -14 9 -31q0 -13 -6 -25l-292 -584q-17 -32 -52 -32z"/>
<glyph horiz-adv-x="431" glyph-name="alt.0.014" d="M351 697q18 -6 29 -21t11 -34v-584q0 -24 -17 -41t-42 -17q-24 0 -41 17t-17 41v404l-128 -175q-14 -19 -38 -23q-5 -1 -9 -1q-18 0 -34 11q-19 14 -23 38q-1 5 -1 9q0 18 11 34l233 321q19 25 45 25q10 0 21 -4z"/>
<glyph horiz-adv-x="779" glyph-name="alt.0.039" d="M681 0h-583q-33 0 -50 28q-8 14 -8 30q0 14 6 26l291 584q16 32 52 32q37 0 53 -32l291 -584q6 -12 6 -26q0 -16 -8 -30q-17 -28 -50 -28z"/>
<glyph horiz-adv-x="488" glyph-name="alt.0.025" d="M390 395h-234v-81h234q24 0 41 -17t17 -41t-17 -41t-41 -17h-234v-81h234q24 0 41 -17t17 -42q0 -24 -17 -41t-41 -17h-292q-24 0 -41 17t-17 41v584q0 24 17 41t41 17h292q24 0 41 -17t17 -41q0 -25 -17 -42t-41 -17h-234v-71h234q24 0 41 -17t17 -41t-17 -42t-41 -17z "/>
<glyph horiz-adv-x="917" glyph-name="alt.0.034" d="M593 -405h-8q-29 0 -46 23q-12 15 -12 36q0 7 4 21l78 194l-217 -40q-3 -1 -10 -1q-29 0 -48 24q-11 16 -11 34q0 15 6 27l106 213l-295 -118q-9 -4 -22 -4q-40 0 -53 36q-4 9 -4 22q0 40 36 54l437 175q9 4 22 4q26 0 43 -19q15 -16 15 -40q0 -13 -6 -25l-122 -246 l206 37q3 1 10 1q27 0 45 -21q13 -14 13 -36q0 -14 -4 -23l-80 -199l135 16h8q23 0 39 -14t19 -36v-7q-1 -23 -15 -39t-36 -19z"/>
<glyph glyph-name="alt.0.022" d="M156 583v-175h146q25 0 49 14q39 21 39 74q0 54 -41 75q-10 5 -22 8t-19 3l-6 1h-146zM369 303l129 -215q9 -13 9 -30q0 -32 -29 -50q-14 -8 -30 -8q-33 0 -50 28l-158 264h-84v-234q0 -24 -17 -41t-41 -17t-41 17t-17 41v584q0 24 17 41t41 17h204q50 0 99 -24 q105 -52 105 -180t-105 -180q-22 -10 -32 -13z"/>
<glyph horiz-adv-x="752" glyph-name="alt.026" d="M480 581q-7 -20 -8 -34v-4q0 -32 15 -44q1 0 9 -5t10 -6q3 -1 9 -1q11 0 21 6q13 10 14 22q0 23 -18 39t-39 23q-3 1 -7 3t-6 1zM392 3q-13 0 -19 1q-103 5 -187 65t-121 155q-25 62 -25 131q0 152 109 256q76 71 182 91q34 7 73 7h14q11 16 24 31q17 22 45 22 q21 0 38 -14q21 -18 21 -46q0 -10 -3 -19q57 -23 91 -67t33 -98v-8q-3 -72 -66 -114q-39 -27 -86 -27q-23 0 -47 8q-26 8 -53 30q-61 47 -61 134v8t1 8q1 11 5 31q-78 -13 -130 -63q-73 -68 -73 -171q0 -44 17 -87q25 -62 81 -102t124 -44h12q65 0 123 35t87 94q17 32 53 32 q14 0 26 -6q32 -17 32 -53q0 -14 -6 -26q-47 -92 -138 -146q-84 -48 -176 -48z"/>
<glyph horiz-adv-x="682" glyph-name="alt.027" d="M175 209v99q-19 -18 -19 -37v-5q0 -22 19 -57zM584 0q-20 0 -36 12t-21 32q-7 30 -23 70t-40 88t-58 88q-35 40 -72 55q-18 8 -42 9v-296q0 -36 -33 -52q-12 -6 -25 -6q-20 0 -36 12q-18 14 -34 30t-50 54t-54 82q-20 46 -20 90v11q7 94 106 151l16 8t13 7v197 q0 24 17 41t41 17q25 0 42 -17t17 -41v-171q46 -1 87 -19q82 -35 146 -127v317q0 24 17 41t41 17q25 0 42 -17t17 -41v-584q0 -22 -14 -38t-37 -19q-2 -1 -7 -1z"/>
<glyph horiz-adv-x="634" glyph-name="alt.0.028" d="M586 671q8 -14 8 -30q0 -14 -7 -27l-175 -321q-17 -30 -51 -30q-15 0 -28 7q-30 16 -30 51q0 15 7 28l127 234h-164v-525q0 -24 -17 -41t-41 -17t-41 17t-17 41v525h-59q-24 0 -41 17t-17 42q0 24 17 41t41 17h438q32 0 50 -29z"/>
<glyph horiz-adv-x="546" glyph-name="alt.0.029" d="M300 0h-202q-24 0 -41 17t-17 41q0 25 17 42t41 17h202q38 -1 64 25t26 62t-26 62t-64 26h-54q-86 0 -146 60t-60 144t60 144t146 60h144q24 0 41 -17t17 -42q0 -24 -17 -41t-41 -17h-144q-38 1 -64 -25t-26 -63q0 -35 26 -61t64 -26h54q86 0 146 -60t60 -144t-60 -144 t-146 -60z"/>
<glyph horiz-adv-x="604" glyph-name="alt.0.030" d="M180 117h35h33l-35 95zM274 386l98 -269h52l-122 348zM506 0h-408q-26 0 -43 19q-15 15 -15 38v6q0 7 3 15l204 583q14 39 55 39t55 -39l204 -583q3 -11 3 -20q0 -19 -10 -33q-17 -25 -48 -25z"/>
<glyph horiz-adv-x="954" glyph-name="alt.0.031" d="M856 496q-24 0 -41 17t-17 41t17 42t41 17q24 1 41 -17t17 -42t-17 -41t-41 -17zM390 117q96 0 164 68t69 165q-1 97 -69 165t-164 68q-98 0 -166 -68t-68 -165t68 -165t166 -68zM856 467q24 0 41 -17t17 -42v-350q0 -24 -17 -41t-41 -17t-41 17t-17 41v292h-59 q-1 -146 -103 -248t-246 -102q-146 0 -248 102t-102 248t102 248t248 102q112 0 202 -65t127 -168h137z"/>
<glyph horiz-adv-x="954" glyph-name="alt.0.032" d="M390 117q96 0 164 68t69 165q-1 97 -69 165t-164 68q-98 0 -166 -68t-68 -165t68 -165t166 -68zM856 700q24 0 41 -17t17 -41v-584q0 -24 -17 -41t-41 -17t-41 17t-17 41v525h-148q89 -99 89 -233q-1 -146 -103 -248t-246 -102q-146 0 -248 102t-102 248t102 248t248 102 h466z"/>
<glyph horiz-adv-x="750" glyph-name="alt.0.033" d="M652 496q-24 0 -41 17t-17 41t17 42t41 17q24 1 41 -17t17 -42t-17 -41t-41 -17zM652 467q24 0 41 -17t17 -42v-350q0 -24 -17 -41t-41 -17t-41 17t-17 41v292h-88v-292q0 -24 -17 -41t-41 -17t-41 17t-17 41v292h-234v-292q0 -24 -17 -41t-41 -17t-41 17t-17 41v584 q0 24 17 41t41 17t41 -17t17 -41v-175h234v175q0 24 17 41t41 17t41 -17t17 -41v-175h146z"/>
<glyph horiz-adv-x="488" glyph-name="a.alt3" d="M318 170l5 12q-14 2 -34 2q-27 0 -51 -1q-63 -3 -79 -23q-3 -6 -3 -8v-2q1 -2 1 -3q3 -9 5 -13t14 -10t30 -6t38 4q2 1 4 1q49 9 70 47zM447 122l1 -64q0 -22 -17 -40t-41 -18q-37 0 -52 32q-32 -16 -69 -24q-56 -7 -63 -7q-64 0 -106 31t-56 88q-4 15 -4 33q0 43 26 77 q50 65 179 70h22t22 1q24 0 38 -2q-6 30 -20 39q-23 12 -50 12q-55 0 -97 -34q-16 -13 -37 -13q-27 0 -45 21q-13 16 -13 37q0 28 21 45q62 52 143 59q9 1 26 1q62 0 109 -26q36 -20 56 -60t24 -63q3 -22 3 -38v-157z"/>
<glyph horiz-adv-x="459" glyph-name="alt.0.005" d="M337 228q13 5 24 5q37 0 53 -34q5 -10 5 -24q0 -37 -34 -53l-263 -117q-12 -5 -23 -5q-17 0 -32 9q-27 17 -27 49v554q0 24 18 42t41 17q24 1 41 -17t17 -42v-464z"/>
<glyph horiz-adv-x="694" glyph-name="alt.0.007" d="M538 292h-374q16 -62 61 -107q67 -69 165 -69q83 0 148 53v123zM390 0q-146 0 -248 102q-102 104 -102 248q0 146 102 248t248 102q145 0 247 -102q17 -19 17 -42q0 -24 -17 -41q-16 -17 -41 -17t-41 17q-70 68 -165 68q-97 0 -165 -68q-45 -44 -61 -107h432q24 0 41 -17 t17 -41v-206q0 -25 -17 -42q-102 -102 -247 -102z"/>
<glyph horiz-adv-x="488" glyph-name="alt.0.008" d="M390 700q24 0 41 -17t17 -41v-175q0 -50 -24 -99q-40 -78 -122 -98v-212q0 -24 -17 -41t-41 -17t-41 17t-17 41v212q-82 20 -122 98q-24 49 -24 99v175q0 24 17 41t41 17t42 -17t17 -41v-175q0 -25 13 -50q21 -38 74 -38t74 38q13 25 13 50v175q-1 24 17 41t42 17z"/>
<glyph horiz-adv-x="605" glyph-name="alt.0.016" d="M251 317l139 -102l-87 250zM358 661l204 -583q3 -9 3 -19q0 -31 -24 -47q-15 -12 -35 -12q-18 0 -34 11l-262 191l-57 -163q-5 -19 -21 -29t-34 -10q-10 0 -19 3q-39 15 -39 56q0 10 3 19l204 583q7 17 22 28t34 11q18 0 33 -11t22 -28z"/>
<glyph horiz-adv-x="605" glyph-name="alt.0.017" d="M374 241q2 3 5 5l-77 219l-76 -219q3 -2 5 -5l71 -89zM562 78q3 -9 3 -19q0 -41 -39 -56q-9 -3 -19 -3q-17 0 -33 10t-22 29l-28 78l-76 -95q-17 -22 -46 -22q-28 0 -45 22l-76 95l-28 -78q-6 -19 -22 -29t-34 -10q-9 0 -18 3q-39 15 -39 56q0 10 3 19l204 583 q7 17 22 28t33 11t34 -11t22 -28z"/>
<glyph horiz-adv-x="722" glyph-name="alt.0.026" d="M636 699q20 -5 33 -21t13 -36v-584q0 -24 -17 -41t-42 -17q-24 0 -41 17t-17 41v312l-151 -336q-15 -34 -53 -34t-53 34l-151 336v-312q0 -24 -17 -41t-41 -17q-25 0 -42 17t-17 41v584q0 20 13 36t33 21q4 1 11 1q39 0 55 -34l151 -336v312q0 24 17 41t41 17t41 -17 t17 -41v-312l151 336q16 34 55 34q7 0 11 -1z"/>
<glyph horiz-adv-x="576" glyph-name="alt.0.027" d="M419 583h-262v-320q0 -42 19 -81q32 -65 112 -65q81 0 113 68q18 40 18 78v320zM288 0q-76 0 -132 35t-87 101q-29 63 -29 127v379q0 24 17 41t41 17h380q24 0 41 -17t17 -41v-379q0 -64 -29 -127q-31 -66 -87 -101t-132 -35z"/>
<glyph horiz-adv-x="780" glyph-name="alt.0.038" d="M390 700q146 0 248 -102t102 -248t-102 -248t-248 -102t-248 102t-102 248t102 248t248 102z"/>
<glyph horiz-adv-x="576" glyph-name="alt.0.035" d="M419 269v314h-188zM478 700q24 0 41 -17t17 -41v-584q0 -19 -12 -35t-31 -21q-10 -2 -15 -2q-34 0 -50 28l-271 452v-422q0 -24 -17 -41t-42 -17q-24 0 -41 17t-17 41v584q0 24 17 41t41 17h380z"/>
<glyph horiz-adv-x="276" glyph-name="alt.0.040" d="M40 350l98 98l98 -98l-98 -98z"/>
<glyph horiz-adv-x="779" glyph-name="alt.0.024" d="M389 512l-197 -395h395zM681 0h-583q-33 0 -50 28q-8 14 -8 30q0 14 6 26l291 584q16 32 52 32q37 0 53 -32l291 -584q6 -12 6 -26q0 -16 -8 -30q-17 -28 -50 -28z"/>
<glyph horiz-adv-x="780" glyph-name="b.008" d="M157 583v-466h466v466h-466zM740 642v-584q0 -24 -17 -41t-41 -17h-584q-24 0 -41 17t-17 41v584q0 24 17 41t41 17h584q24 0 41 -17t17 -41z"/>
<glyph horiz-adv-x="518" glyph-name="alt.0.041" d="M419 117q25 0 42 -17t17 -42q0 -24 -17 -41t-42 -17h-320q-25 0 -42 17t-17 41v584q0 24 17 41t42 17q24 0 41 -17t17 -41v-350h262q25 0 42 -17t17 -42q0 -24 -17 -41t-42 -17h-262v-58h262z"/>
<glyph horiz-adv-x="546" glyph-name="alt.0.044" d="M463 698q19 -4 31 -20t12 -36v-584q0 -24 -17 -41t-41 -17q-25 0 -42 17t-17 41v373l-188 -314h101q24 0 41 -17t17 -42q0 -24 -17 -41t-41 -17h-204q-35 0 -51 30q-7 13 -7 28q0 18 8 30l350 584q16 28 50 28q5 0 15 -2z"/>
<glyph horiz-adv-x="780" glyph-name="alt.0.037" d="M292 350l98 98l98 -98l-98 -98zM390 117q97 0 165 68t68 165t-68 165t-165 68t-165 -68t-68 -165t68 -165t165 -68zM390 700q146 0 248 -102t102 -248t-102 -248t-248 -102t-248 102t-102 248t102 248t248 102z"/>
<glyph horiz-adv-x="546" glyph-name="alt.0.042" d="M478 692q28 -17 28 -51q0 -15 -8 -29l-166 -276l138 -249q7 -13 7 -28q0 -35 -30 -52q-13 -7 -28 -7q-35 0 -51 30l-321 584q-7 13 -7 28q0 34 30 51q13 7 28 7q34 0 51 -30l118 -216l131 218q17 28 50 28q16 0 30 -8z"/>
<glyph horiz-adv-x="546" glyph-name="alt.0.043" d="M83 698q10 2 15 2q34 0 50 -28l350 -584q8 -12 8 -30q0 -15 -7 -28q-16 -30 -51 -30h-204q-24 0 -41 17t-17 41q0 25 17 42t41 17h101l-188 314v-373q0 -24 -17 -41t-42 -17q-24 0 -41 17t-17 41v584q0 20 12 36t31 20z"/>
<glyph horiz-adv-x="898" glyph-name="alt.0.001" d="M449 0q-33 0 -50 28l-350 584q-9 14 -9 30q0 32 29 50q14 8 30 8q33 0 50 -28l242 -403v373q0 20 12 36t31 20q10 2 15 2q34 0 50 -28l242 -403v373q0 24 17 41t42 17q24 0 41 -17t17 -41v-584q0 -19 -12 -35t-31 -21q-10 -2 -15 -2q-35 0 -51 28l-241 403v-373 q0 -19 -12 -35t-31 -21q-10 -2 -16 -2z"/>
<glyph glyph-name="Z.alt1" d="M448 0h-350q-24 0 -41 17t-17 42q0 17 8 29l297 495h-247q-24 0 -41 17t-17 41q0 25 17 42t41 17h350q22 0 40 -17t18 -41q0 -18 -8 -30l-297 -495h247q24 0 42 -17t17 -42q1 -24 -17 -41t-42 -17z"/>
<glyph horiz-adv-x="721" glyph-name="b.010" d="M623 700q24 0 41 -17t17 -41v-584q0 -24 -17 -41t-41 -17h-525q-24 0 -41 17t-17 41v584q0 24 17 41t41 17t41 -17t17 -41v-525h146v525q0 24 17 41t41 17q25 0 42 -17t17 -41v-525h145v525q0 24 18 41t41 17z"/>
<glyph horiz-adv-x="1049" glyph-name="b.040" d="M824 185q69 69 69 165t-69 165q-68 68 -165 68t-165 -68t-68 -164q0 -70 38 -128l9 -13q8 -12 21 -25q68 -68 165 -68t165 68zM659 700q147 0 248 -103q102 -102 102 -247t-102 -247q-103 -103 -248 -103q-144 0 -247 103q-24 22 -46 55l-209 299v-399q0 -24 -17 -41 t-41 -17q-25 0 -42 17t-17 41v584q0 18 12 34t29 21q9 3 18 3q30 0 47 -25l173 -245q22 97 92 167q103 103 248 103z"/>
<glyph horiz-adv-x="604" glyph-name="A.alt3" d="M506 0q-24 0 -41 17t-17 41v399l-302 -432q-19 -25 -48 -25q-17 0 -33 11q-25 16 -25 47q0 20 10 34l409 583q17 25 47 25q9 0 18 -3q18 -5 29 -21t11 -34v-584q0 -24 -17 -41t-41 -17z"/>
<glyph horiz-adv-x="604" glyph-name="A.alt3.001" d="M506 700q24 0 41 -17t17 -41v-584q0 -18 -11 -34t-29 -21q-9 -3 -18 -3q-30 0 -47 25l-409 583q-10 14 -10 34q0 31 25 47q16 11 33 11q29 0 48 -25l302 -432v399q0 24 17 41t41 17z"/>
<glyph horiz-adv-x="896" glyph-name="talt.102" d="M740 117v314l-189 -314h189zM390 117v314l-189 -314h189zM813 698q19 -4 31 -20t12 -36v-584q0 -24 -17 -41t-41 -17h-700q-34 0 -51 30q-7 13 -7 28q0 18 8 30l350 584q16 28 50 28q5 0 15 -2q19 -4 31 -20t12 -36v-373l242 403q16 28 50 28q5 0 15 -2z"/>
<glyph horiz-adv-x="518" glyph-name="b.046" d="M157 377l145 87l-145 79v-166zM447 518q29 -15 31 -50q0 -34 -29 -52l-292 -175v-183q0 -24 -17 -41t-41 -17q-25 0 -42 17t-17 41v584q0 32 29 50q14 8 30 8q14 0 27 -7z"/>
<glyph horiz-adv-x="460" glyph-name="b.050" d="M215 350l193 -257q11 -14 11 -34q0 -30 -23 -47q-15 -12 -35 -12q-29 0 -46 23l-158 210v-175q0 -24 -17 -41t-41 -17q-25 0 -42 17t-17 41v350v4l1 3q0 4 1 5v4l1 2q8 28 37 38q11 3 22 3h259q23 1 41 -17t18 -42t-18 -41t-41 -17h-146z"/>
<glyph horiz-adv-x="430" glyph-name="i.alt3" d="M332 525q24 0 41 -17t17 -41q0 -25 -17 -42t-41 -17h-59v-350q0 -24 -17 -41t-41 -17h-117q-24 0 -41 17t-17 41q0 25 17 42t41 17h59v87h-59q-24 0 -41 17t-17 41q0 25 17 42t41 17h59v321q0 24 17 41t41 17h117q24 0 41 -17t17 -41q0 -25 -17 -42t-41 -17h-59v-58h59z "/>
<glyph horiz-adv-x="945" glyph-name="w.alt7" d="M869 695q36 -14 36 -54q0 -13 -4 -22l-244 -583q-15 -36 -53 -36q-39 0 -54 36l-77 185l-78 -185q-15 -36 -53 -36q-39 0 -54 36l-244 583q-4 9 -4 22q0 40 36 54q13 5 23 5q38 0 53 -36l190 -454l189 454q14 36 54 36q13 0 22 -4q36 -16 36 -55q0 -13 -4 -22l-103 -247 l68 -162l189 454q15 36 53 36q11 0 23 -5z"/>
<glyph horiz-adv-x="751" glyph-name="O.001" d="M375 0q-24 0 -41 17t-17 41q0 25 17 42t41 17q91 0 155 68t64 165t-64 165t-155 68q-90 0 -154 -68t-64 -165q1 -24 -17 -41t-42 -17t-41 17t-17 41q0 146 98 248t237 102t237 -102t99 -248q-1 -146 -99 -248t-237 -102z"/>
<glyph horiz-adv-x="576" glyph-name="O.006" d="M302 0q-24 0 -41 17t-17 41v382l-184 157q-20 17 -20 44q0 12 4 21q6 18 21 28t33 10h380q24 0 41 -17t17 -42q0 -24 -17 -41t-41 -17h-222l85 -72q20 -17 20 -44v-409q0 -24 -17 -41t-42 -17z"/>
<glyph horiz-adv-x="546" glyph-name="O.003" d="M156 350h86q73 0 101 53q17 32 17 64q0 73 -55 101q-31 15 -63 15h-86v-233zM448 117q24 0 41 -17t17 -42q0 -24 -17 -41t-41 -17q-145 0 -206 120q-27 54 -27 113h-59v-175q0 -24 -17 -41t-41 -17t-41 17t-17 41v584q0 24 17 41t41 17h144q58 0 115 -28q58 -29 89 -82 t31 -123q0 -57 -28 -114q-39 -76 -118 -105v-14q0 -33 17 -65q27 -52 100 -52z"/>
<glyph horiz-adv-x="518" glyph-name="O.004" d="M420 0h-117q-162 0 -229 117q-34 57 -34 116v409q0 24 17 41t41 17q25 0 42 -17t17 -41v-408q0 -30 20 -62q34 -55 126 -55h58v525q0 24 17 41t41 17q25 0 42 -17t17 -41v-584q0 -24 -17 -41t-41 -17z"/>
<glyph horiz-adv-x="663" glyph-name="O.012" d="M98 0q-24 0 -41 17t-17 41v584q0 24 17 41t41 17q144 0 215 -77q77 -84 77 -273q0 -120 30 -170t86 -59v521q0 24 17 41t41 17q25 0 42 -17t17 -41v-584q0 -24 -17 -41t-41 -17q-144 0 -214 77q-78 85 -78 273q0 120 -30 170t-87 60v-522q0 -24 -17 -41t-41 -17z"/>
<glyph glyph-name="O.005" d="M98 0q-24 0 -41 17t-17 41v292q0 24 17 41t41 17h189l-226 189q-21 18 -21 43q0 12 4 21q6 19 21 29t33 10h350q25 0 42 -17t17 -42q0 -24 -17 -41t-42 -17h-188l226 -188q21 -18 21 -44q0 -12 -4 -21q-6 -18 -21 -28t-34 -10h-291v-234q0 -24 -17 -41t-42 -17z"/>
<glyph horiz-adv-x="488" glyph-name="O.007" d="M244 0q-128 0 -180 105q-24 48 -24 99v438q0 24 17 41t41 17t41 -17t17 -41v-437q0 -25 14 -50q19 -38 74 -38t75 40q5 10 8 22t3 19l1 6v438q0 24 17 41t41 17q25 0 42 -17t17 -41v-438q0 -49 -24 -99q-52 -105 -180 -105z"/>
<glyph horiz-adv-x="585" glyph-name="O.010" d="M487 0q-19 0 -36 12q-17 17 -61 32q-27 9 -50 9q-30 0 -56 -15q-57 -34 -107 -34q-58 0 -99 44q-38 44 -38 109q0 79 51 142q48 60 48 160q0 81 -26 159l-1 3q-4 9 -4 21q0 41 38 54q9 4 21 4q39 0 54 -38q0 -4 1 -5q34 -107 34 -198q0 -141 -74 -232q-25 -32 -25 -69 q0 -22 9 -33q3 -4 11 -4q20 0 47 17q54 32 115 32q44 0 90 -16t67 -30t27 -20q22 -18 22 -47q0 -20 -12 -35q-19 -22 -46 -22z"/>
<glyph horiz-adv-x="605" glyph-name="O.015" d="M98 0q-24 0 -41 17t-17 41v584q0 24 18 41t41 17h146q25 0 41 -17t16 -41v-59h59q25 0 41 -17t17 -41v-58h29v175q0 24 17 41t41 17q25 0 42 -17t17 -41v-584q0 -24 -17 -41t-42 -17q-24 0 -41 17t-17 41v292h-87q-23 0 -41 17t-18 41v59h-57q-25 0 -42 17t-17 41v58h-29 v-525q0 -24 -17 -41t-42 -17z"/>
<glyph horiz-adv-x="564" glyph-name="O.008" d="M253 344q10 -18 32 -33t46 -22q14 -4 28 -4q19 0 32 8q10 5 15 29q1 5 1 13q0 11 -3 17q-10 15 -48 15q-8 0 -26 -2q-35 -4 -77 -21zM415 0q-131 0 -200 20q-135 40 -168 159q-7 30 -7 51q0 50 24 95q19 37 52 68q-3 22 -3 46q0 112 65 186q30 35 72 53t72 20q29 2 83 2 q25 0 42 -17t17 -41q0 -25 -17 -42t-42 -17q-67 0 -93 -6t-46 -28q-30 -36 -36 -89q67 24 126 24q97 0 142 -63q26 -35 26 -85q0 -12 -4 -36q-14 -73 -68 -106q-41 -26 -94 -26q-27 0 -57 8q-85 23 -136 90q-8 -18 -8 -35q0 -11 3 -21q14 -56 88 -78q53 -15 167 -15 q24 0 41 -17t17 -42q0 -24 -17 -41t-41 -17z"/>
<glyph horiz-adv-x="745" glyph-name="O.009" d="M517 172q71 62 71 178q0 118 -73 177q-60 50 -160 56v-466q98 0 162 55zM589 618q116 -95 116 -268q0 -170 -112 -267q-99 -83 -242 -83q-99 0 -174 37q-35 19 -58 34q-14 9 -29 23t-25 24t-11 10q-14 15 -14 39q0 26 19 44q15 14 39 14q27 0 43 -19q24 -27 42 -37 q10 -8 47 -27q2 -2 8 -4v425q-20 -9 -39 -21t-27 -21l-9 -8q-17 -17 -42 -17t-41 17q-17 16 -17 41t17 41q8 9 34 30t88 48t126 27q161 0 261 -82z"/>
<glyph horiz-adv-x="488" glyph-name="O.011" d="M389 0q-24 0 -41 17t-17 41v175q0 75 -55 101q-12 7 -28 11t-24 5h-9h-59v-292q0 -24 -17 -41t-41 -17t-41 17t-17 41v350q0 25 17 42t41 17h117q57 0 113 -28q120 -61 120 -206v-175q0 -24 -17 -41t-42 -17z"/>
<glyph horiz-adv-x="488" glyph-name="O.016" d="M306 142q25 25 25 62q0 33 -25 53v-115zM157 496q0 -36 32 -58v126q-32 -26 -32 -68zM306 390q142 -61 142 -186q0 -84 -60 -144t-144 -60q-74 0 -130 46t-70 117q-1 4 -1 11q0 22 13 38t34 20q4 1 11 1q21 0 37 -13t20 -33q6 -29 31 -51v172q-149 58 -149 188 q0 84 60 144t144 60q74 0 130 -46t70 -117q1 -4 1 -11q0 -22 -13 -38t-34 -20q-4 -1 -11 -1q-21 0 -37 13t-20 34q-6 24 -24 44v-168z"/>
<glyph horiz-adv-x="554" glyph-name="O.018" d="M157 117h189l-189 314v-314zM455 700q23 0 41 -17t18 -41v-584q0 -24 -18 -41t-43 -17h-354q-23 0 -41 17t-18 41v584q0 19 12 35t31 21q10 2 15 2q34 0 51 -28l248 -414v384q0 24 17 41t41 17z"/>
<glyph horiz-adv-x="780" glyph-name="O.019" d="M390 292q24 0 41 17t17 41t-17 41t-41 17t-41 -17t-17 -41t17 -41t41 -17zM390 525q73 0 124 -51t51 -124q0 -72 -51 -124t-124 -51q-72 -1 -124 51t-51 124q-1 73 51 124t124 51zM390 117q97 0 165 68t68 165t-68 165t-165 68t-165 -68t-68 -165t68 -165t165 -68z M390 700q146 0 248 -102t102 -248t-102 -248t-248 -102t-248 102t-102 248t102 248t248 102z"/>
<glyph horiz-adv-x="372" glyph-name="O.014" d="M273 117q25 0 42 -17t17 -42q0 -24 -17 -41t-42 -17h-175q-24 0 -41 17t-17 41v584q0 24 17 41t41 17q25 0 42 -17t17 -41v-525h116z"/>
</font>
</defs>
</svg>
