<svg xmlns="http://www.w3.org/2000/svg" width="380" height="210" viewBox="0 0 380 210">
  <title>Dot Grid — Violet</title>
  <desc>Skillprint background — Pattern 09 Dot Grid, mindset-violet-500 / mindset-violet-600</desc>
  <defs><clipPath id="c"><rect width="380" height="210"/></clipPath></defs>
  <rect width="380" height="210" fill="#573eeb"/>
  <g clip-path="url(#c)">
    <circle cx="0.00" cy="0.00" r="7.60" fill="#4c37d0"/>
    <circle cx="27.14" cy="0.00" r="7.60" fill="#4c37d0"/>
    <circle cx="54.29" cy="0.00" r="7.60" fill="#4c37d0"/>
    <circle cx="81.43" cy="0.00" r="7.60" fill="#4c37d0"/>
    <circle cx="108.57" cy="0.00" r="7.60" fill="#4c37d0"/>
    <circle cx="135.71" cy="0.00" r="7.60" fill="#4c37d0"/>
    <circle cx="162.86" cy="0.00" r="7.60" fill="#4c37d0"/>
    <circle cx="190.00" cy="0.00" r="7.60" fill="#4c37d0"/>
    <circle cx="217.14" cy="0.00" r="7.60" fill="#4c37d0"/>
    <circle cx="244.29" cy="0.00" r="7.60" fill="#4c37d0"/>
    <circle cx="271.43" cy="0.00" r="7.60" fill="#4c37d0"/>
    <circle cx="298.57" cy="0.00" r="7.60" fill="#4c37d0"/>
    <circle cx="325.71" cy="0.00" r="7.60" fill="#4c37d0"/>
    <circle cx="352.86" cy="0.00" r="7.60" fill="#4c37d0"/>
    <circle cx="380.00" cy="0.00" r="7.60" fill="#4c37d0"/>
    <circle cx="0.00" cy="27.14" r="7.60" fill="#4c37d0"/>
    <circle cx="27.14" cy="27.14" r="7.60" fill="#4c37d0"/>
    <circle cx="54.29" cy="27.14" r="7.60" fill="#4c37d0"/>
    <circle cx="81.43" cy="27.14" r="7.60" fill="#4c37d0"/>
    <circle cx="108.57" cy="27.14" r="7.60" fill="#4c37d0"/>
    <circle cx="135.71" cy="27.14" r="7.60" fill="#4c37d0"/>
    <circle cx="162.86" cy="27.14" r="7.60" fill="#4c37d0"/>
    <circle cx="190.00" cy="27.14" r="7.60" fill="#4c37d0"/>
    <circle cx="217.14" cy="27.14" r="7.60" fill="#4c37d0"/>
    <circle cx="244.29" cy="27.14" r="7.60" fill="#4c37d0"/>
    <circle cx="271.43" cy="27.14" r="7.60" fill="#4c37d0"/>
    <circle cx="298.57" cy="27.14" r="7.60" fill="#4c37d0"/>
    <circle cx="325.71" cy="27.14" r="7.60" fill="#4c37d0"/>
    <circle cx="352.86" cy="27.14" r="7.60" fill="#4c37d0"/>
    <circle cx="380.00" cy="27.14" r="7.60" fill="#4c37d0"/>
    <circle cx="0.00" cy="54.29" r="7.60" fill="#4c37d0"/>
    <circle cx="27.14" cy="54.29" r="7.60" fill="#4c37d0"/>
    <circle cx="54.29" cy="54.29" r="7.60" fill="#4c37d0"/>
    <circle cx="81.43" cy="54.29" r="7.60" fill="#4c37d0"/>
    <circle cx="108.57" cy="54.29" r="7.60" fill="#4c37d0"/>
    <circle cx="135.71" cy="54.29" r="7.60" fill="#4c37d0"/>
    <circle cx="162.86" cy="54.29" r="7.60" fill="#4c37d0"/>
    <circle cx="190.00" cy="54.29" r="7.60" fill="#4c37d0"/>
    <circle cx="217.14" cy="54.29" r="7.60" fill="#4c37d0"/>
    <circle cx="244.29" cy="54.29" r="7.60" fill="#4c37d0"/>
    <circle cx="271.43" cy="54.29" r="7.60" fill="#4c37d0"/>
    <circle cx="298.57" cy="54.29" r="7.60" fill="#4c37d0"/>
    <circle cx="325.71" cy="54.29" r="7.60" fill="#4c37d0"/>
    <circle cx="352.86" cy="54.29" r="7.60" fill="#4c37d0"/>
    <circle cx="380.00" cy="54.29" r="7.60" fill="#4c37d0"/>
    <circle cx="0.00" cy="81.43" r="7.60" fill="#4c37d0"/>
    <circle cx="27.14" cy="81.43" r="7.60" fill="#4c37d0"/>
    <circle cx="54.29" cy="81.43" r="7.60" fill="#4c37d0"/>
    <circle cx="81.43" cy="81.43" r="7.60" fill="#4c37d0"/>
    <circle cx="108.57" cy="81.43" r="7.60" fill="#4c37d0"/>
    <circle cx="135.71" cy="81.43" r="7.60" fill="#4c37d0"/>
    <circle cx="162.86" cy="81.43" r="7.60" fill="#4c37d0"/>
    <circle cx="190.00" cy="81.43" r="7.60" fill="#4c37d0"/>
    <circle cx="217.14" cy="81.43" r="7.60" fill="#4c37d0"/>
    <circle cx="244.29" cy="81.43" r="7.60" fill="#4c37d0"/>
    <circle cx="271.43" cy="81.43" r="7.60" fill="#4c37d0"/>
    <circle cx="298.57" cy="81.43" r="7.60" fill="#4c37d0"/>
    <circle cx="325.71" cy="81.43" r="7.60" fill="#4c37d0"/>
    <circle cx="352.86" cy="81.43" r="7.60" fill="#4c37d0"/>
    <circle cx="380.00" cy="81.43" r="7.60" fill="#4c37d0"/>
    <circle cx="0.00" cy="108.57" r="7.60" fill="#4c37d0"/>
    <circle cx="27.14" cy="108.57" r="7.60" fill="#4c37d0"/>
    <circle cx="54.29" cy="108.57" r="7.60" fill="#4c37d0"/>
    <circle cx="81.43" cy="108.57" r="7.60" fill="#4c37d0"/>
    <circle cx="108.57" cy="108.57" r="7.60" fill="#4c37d0"/>
    <circle cx="135.71" cy="108.57" r="7.60" fill="#4c37d0"/>
    <circle cx="162.86" cy="108.57" r="7.60" fill="#4c37d0"/>
    <circle cx="190.00" cy="108.57" r="7.60" fill="#4c37d0"/>
    <circle cx="217.14" cy="108.57" r="7.60" fill="#4c37d0"/>
    <circle cx="244.29" cy="108.57" r="7.60" fill="#4c37d0"/>
    <circle cx="271.43" cy="108.57" r="7.60" fill="#4c37d0"/>
    <circle cx="298.57" cy="108.57" r="7.60" fill="#4c37d0"/>
    <circle cx="325.71" cy="108.57" r="7.60" fill="#4c37d0"/>
    <circle cx="352.86" cy="108.57" r="7.60" fill="#4c37d0"/>
    <circle cx="380.00" cy="108.57" r="7.60" fill="#4c37d0"/>
    <circle cx="0.00" cy="135.71" r="7.60" fill="#4c37d0"/>
    <circle cx="27.14" cy="135.71" r="7.60" fill="#4c37d0"/>
    <circle cx="54.29" cy="135.71" r="7.60" fill="#4c37d0"/>
    <circle cx="81.43" cy="135.71" r="7.60" fill="#4c37d0"/>
    <circle cx="108.57" cy="135.71" r="7.60" fill="#4c37d0"/>
    <circle cx="135.71" cy="135.71" r="7.60" fill="#4c37d0"/>
    <circle cx="162.86" cy="135.71" r="7.60" fill="#4c37d0"/>
    <circle cx="190.00" cy="135.71" r="7.60" fill="#4c37d0"/>
    <circle cx="217.14" cy="135.71" r="7.60" fill="#4c37d0"/>
    <circle cx="244.29" cy="135.71" r="7.60" fill="#4c37d0"/>
    <circle cx="271.43" cy="135.71" r="7.60" fill="#4c37d0"/>
    <circle cx="298.57" cy="135.71" r="7.60" fill="#4c37d0"/>
    <circle cx="325.71" cy="135.71" r="7.60" fill="#4c37d0"/>
    <circle cx="352.86" cy="135.71" r="7.60" fill="#4c37d0"/>
    <circle cx="380.00" cy="135.71" r="7.60" fill="#4c37d0"/>
    <circle cx="0.00" cy="162.86" r="7.60" fill="#4c37d0"/>
    <circle cx="27.14" cy="162.86" r="7.60" fill="#4c37d0"/>
    <circle cx="54.29" cy="162.86" r="7.60" fill="#4c37d0"/>
    <circle cx="81.43" cy="162.86" r="7.60" fill="#4c37d0"/>
    <circle cx="108.57" cy="162.86" r="7.60" fill="#4c37d0"/>
    <circle cx="135.71" cy="162.86" r="7.60" fill="#4c37d0"/>
    <circle cx="162.86" cy="162.86" r="7.60" fill="#4c37d0"/>
    <circle cx="190.00" cy="162.86" r="7.60" fill="#4c37d0"/>
    <circle cx="217.14" cy="162.86" r="7.60" fill="#4c37d0"/>
    <circle cx="244.29" cy="162.86" r="7.60" fill="#4c37d0"/>
    <circle cx="271.43" cy="162.86" r="7.60" fill="#4c37d0"/>
    <circle cx="298.57" cy="162.86" r="7.60" fill="#4c37d0"/>
    <circle cx="325.71" cy="162.86" r="7.60" fill="#4c37d0"/>
    <circle cx="352.86" cy="162.86" r="7.60" fill="#4c37d0"/>
    <circle cx="380.00" cy="162.86" r="7.60" fill="#4c37d0"/>
    <circle cx="0.00" cy="190.00" r="7.60" fill="#4c37d0"/>
    <circle cx="27.14" cy="190.00" r="7.60" fill="#4c37d0"/>
    <circle cx="54.29" cy="190.00" r="7.60" fill="#4c37d0"/>
    <circle cx="81.43" cy="190.00" r="7.60" fill="#4c37d0"/>
    <circle cx="108.57" cy="190.00" r="7.60" fill="#4c37d0"/>
    <circle cx="135.71" cy="190.00" r="7.60" fill="#4c37d0"/>
    <circle cx="162.86" cy="190.00" r="7.60" fill="#4c37d0"/>
    <circle cx="190.00" cy="190.00" r="7.60" fill="#4c37d0"/>
    <circle cx="217.14" cy="190.00" r="7.60" fill="#4c37d0"/>
    <circle cx="244.29" cy="190.00" r="7.60" fill="#4c37d0"/>
    <circle cx="271.43" cy="190.00" r="7.60" fill="#4c37d0"/>
    <circle cx="298.57" cy="190.00" r="7.60" fill="#4c37d0"/>
    <circle cx="325.71" cy="190.00" r="7.60" fill="#4c37d0"/>
    <circle cx="352.86" cy="190.00" r="7.60" fill="#4c37d0"/>
    <circle cx="380.00" cy="190.00" r="7.60" fill="#4c37d0"/>
    <circle cx="0.00" cy="217.14" r="7.60" fill="#4c37d0"/>
    <circle cx="27.14" cy="217.14" r="7.60" fill="#4c37d0"/>
    <circle cx="54.29" cy="217.14" r="7.60" fill="#4c37d0"/>
    <circle cx="81.43" cy="217.14" r="7.60" fill="#4c37d0"/>
    <circle cx="108.57" cy="217.14" r="7.60" fill="#4c37d0"/>
    <circle cx="135.71" cy="217.14" r="7.60" fill="#4c37d0"/>
    <circle cx="162.86" cy="217.14" r="7.60" fill="#4c37d0"/>
    <circle cx="190.00" cy="217.14" r="7.60" fill="#4c37d0"/>
    <circle cx="217.14" cy="217.14" r="7.60" fill="#4c37d0"/>
    <circle cx="244.29" cy="217.14" r="7.60" fill="#4c37d0"/>
    <circle cx="271.43" cy="217.14" r="7.60" fill="#4c37d0"/>
    <circle cx="298.57" cy="217.14" r="7.60" fill="#4c37d0"/>
    <circle cx="325.71" cy="217.14" r="7.60" fill="#4c37d0"/>
    <circle cx="352.86" cy="217.14" r="7.60" fill="#4c37d0"/>
    <circle cx="380.00" cy="217.14" r="7.60" fill="#4c37d0"/>
  </g>
</svg>
