<svg xmlns="http://www.w3.org/2000/svg" width="380" height="210" viewBox="0 0 380 210">
  <title>Plus Grid — Violet</title>
  <desc>Skillprint background — Pattern 12 Plus Grid, mindset-violet-500 / mindset-violet-600</desc>
  <defs><clipPath id="c"><rect width="380" height="210"/></clipPath></defs>
  <rect width="380" height="210" fill="#573eeb"/>
  <g clip-path="url(#c)">
    <rect x="11.08" y="4.43" width="9.50" height="22.80" fill="#4c37d0"/>
    <rect x="4.43" y="11.08" width="22.80" height="9.50" fill="#4c37d0"/>
    <rect x="42.75" y="4.43" width="9.50" height="22.80" fill="#4c37d0"/>
    <rect x="36.10" y="11.08" width="22.80" height="9.50" fill="#4c37d0"/>
    <rect x="74.42" y="4.43" width="9.50" height="22.80" fill="#4c37d0"/>
    <rect x="67.77" y="11.08" width="22.80" height="9.50" fill="#4c37d0"/>
    <rect x="106.08" y="4.43" width="9.50" height="22.80" fill="#4c37d0"/>
    <rect x="99.43" y="11.08" width="22.80" height="9.50" fill="#4c37d0"/>
    <rect x="137.75" y="4.43" width="9.50" height="22.80" fill="#4c37d0"/>
    <rect x="131.10" y="11.08" width="22.80" height="9.50" fill="#4c37d0"/>
    <rect x="169.42" y="4.43" width="9.50" height="22.80" fill="#4c37d0"/>
    <rect x="162.77" y="11.08" width="22.80" height="9.50" fill="#4c37d0"/>
    <rect x="201.08" y="4.43" width="9.50" height="22.80" fill="#4c37d0"/>
    <rect x="194.43" y="11.08" width="22.80" height="9.50" fill="#4c37d0"/>
    <rect x="232.75" y="4.43" width="9.50" height="22.80" fill="#4c37d0"/>
    <rect x="226.10" y="11.08" width="22.80" height="9.50" fill="#4c37d0"/>
    <rect x="264.42" y="4.43" width="9.50" height="22.80" fill="#4c37d0"/>
    <rect x="257.77" y="11.08" width="22.80" height="9.50" fill="#4c37d0"/>
    <rect x="296.08" y="4.43" width="9.50" height="22.80" fill="#4c37d0"/>
    <rect x="289.43" y="11.08" width="22.80" height="9.50" fill="#4c37d0"/>
    <rect x="327.75" y="4.43" width="9.50" height="22.80" fill="#4c37d0"/>
    <rect x="321.10" y="11.08" width="22.80" height="9.50" fill="#4c37d0"/>
    <rect x="359.42" y="4.43" width="9.50" height="22.80" fill="#4c37d0"/>
    <rect x="352.77" y="11.08" width="22.80" height="9.50" fill="#4c37d0"/>
    <rect x="391.08" y="4.43" width="9.50" height="22.80" fill="#4c37d0"/>
    <rect x="384.43" y="11.08" width="22.80" height="9.50" fill="#4c37d0"/>
    <rect x="11.08" y="36.10" width="9.50" height="22.80" fill="#4c37d0"/>
    <rect x="4.43" y="42.75" width="22.80" height="9.50" fill="#4c37d0"/>
    <rect x="42.75" y="36.10" width="9.50" height="22.80" fill="#4c37d0"/>
    <rect x="36.10" y="42.75" width="22.80" height="9.50" fill="#4c37d0"/>
    <rect x="74.42" y="36.10" width="9.50" height="22.80" fill="#4c37d0"/>
    <rect x="67.77" y="42.75" width="22.80" height="9.50" fill="#4c37d0"/>
    <rect x="106.08" y="36.10" width="9.50" height="22.80" fill="#4c37d0"/>
    <rect x="99.43" y="42.75" width="22.80" height="9.50" fill="#4c37d0"/>
    <rect x="137.75" y="36.10" width="9.50" height="22.80" fill="#4c37d0"/>
    <rect x="131.10" y="42.75" width="22.80" height="9.50" fill="#4c37d0"/>
    <rect x="169.42" y="36.10" width="9.50" height="22.80" fill="#4c37d0"/>
    <rect x="162.77" y="42.75" width="22.80" height="9.50" fill="#4c37d0"/>
    <rect x="201.08" y="36.10" width="9.50" height="22.80" fill="#4c37d0"/>
    <rect x="194.43" y="42.75" width="22.80" height="9.50" fill="#4c37d0"/>
    <rect x="232.75" y="36.10" width="9.50" height="22.80" fill="#4c37d0"/>
    <rect x="226.10" y="42.75" width="22.80" height="9.50" fill="#4c37d0"/>
    <rect x="264.42" y="36.10" width="9.50" height="22.80" fill="#4c37d0"/>
    <rect x="257.77" y="42.75" width="22.80" height="9.50" fill="#4c37d0"/>
    <rect x="296.08" y="36.10" width="9.50" height="22.80" fill="#4c37d0"/>
    <rect x="289.43" y="42.75" width="22.80" height="9.50" fill="#4c37d0"/>
    <rect x="327.75" y="36.10" width="9.50" height="22.80" fill="#4c37d0"/>
    <rect x="321.10" y="42.75" width="22.80" height="9.50" fill="#4c37d0"/>
    <rect x="359.42" y="36.10" width="9.50" height="22.80" fill="#4c37d0"/>
    <rect x="352.77" y="42.75" width="22.80" height="9.50" fill="#4c37d0"/>
    <rect x="391.08" y="36.10" width="9.50" height="22.80" fill="#4c37d0"/>
    <rect x="384.43" y="42.75" width="22.80" height="9.50" fill="#4c37d0"/>
    <rect x="11.08" y="67.77" width="9.50" height="22.80" fill="#4c37d0"/>
    <rect x="4.43" y="74.42" width="22.80" height="9.50" fill="#4c37d0"/>
    <rect x="42.75" y="67.77" width="9.50" height="22.80" fill="#4c37d0"/>
    <rect x="36.10" y="74.42" width="22.80" height="9.50" fill="#4c37d0"/>
    <rect x="74.42" y="67.77" width="9.50" height="22.80" fill="#4c37d0"/>
    <rect x="67.77" y="74.42" width="22.80" height="9.50" fill="#4c37d0"/>
    <rect x="106.08" y="67.77" width="9.50" height="22.80" fill="#4c37d0"/>
    <rect x="99.43" y="74.42" width="22.80" height="9.50" fill="#4c37d0"/>
    <rect x="137.75" y="67.77" width="9.50" height="22.80" fill="#4c37d0"/>
    <rect x="131.10" y="74.42" width="22.80" height="9.50" fill="#4c37d0"/>
    <rect x="169.42" y="67.77" width="9.50" height="22.80" fill="#4c37d0"/>
    <rect x="162.77" y="74.42" width="22.80" height="9.50" fill="#4c37d0"/>
    <rect x="201.08" y="67.77" width="9.50" height="22.80" fill="#4c37d0"/>
    <rect x="194.43" y="74.42" width="22.80" height="9.50" fill="#4c37d0"/>
    <rect x="232.75" y="67.77" width="9.50" height="22.80" fill="#4c37d0"/>
    <rect x="226.10" y="74.42" width="22.80" height="9.50" fill="#4c37d0"/>
    <rect x="264.42" y="67.77" width="9.50" height="22.80" fill="#4c37d0"/>
    <rect x="257.77" y="74.42" width="22.80" height="9.50" fill="#4c37d0"/>
    <rect x="296.08" y="67.77" width="9.50" height="22.80" fill="#4c37d0"/>
    <rect x="289.43" y="74.42" width="22.80" height="9.50" fill="#4c37d0"/>
    <rect x="327.75" y="67.77" width="9.50" height="22.80" fill="#4c37d0"/>
    <rect x="321.10" y="74.42" width="22.80" height="9.50" fill="#4c37d0"/>
    <rect x="359.42" y="67.77" width="9.50" height="22.80" fill="#4c37d0"/>
    <rect x="352.77" y="74.42" width="22.80" height="9.50" fill="#4c37d0"/>
    <rect x="391.08" y="67.77" width="9.50" height="22.80" fill="#4c37d0"/>
    <rect x="384.43" y="74.42" width="22.80" height="9.50" fill="#4c37d0"/>
    <rect x="11.08" y="99.43" width="9.50" height="22.80" fill="#4c37d0"/>
    <rect x="4.43" y="106.08" width="22.80" height="9.50" fill="#4c37d0"/>
    <rect x="42.75" y="99.43" width="9.50" height="22.80" fill="#4c37d0"/>
    <rect x="36.10" y="106.08" width="22.80" height="9.50" fill="#4c37d0"/>
    <rect x="74.42" y="99.43" width="9.50" height="22.80" fill="#4c37d0"/>
    <rect x="67.77" y="106.08" width="22.80" height="9.50" fill="#4c37d0"/>
    <rect x="106.08" y="99.43" width="9.50" height="22.80" fill="#4c37d0"/>
    <rect x="99.43" y="106.08" width="22.80" height="9.50" fill="#4c37d0"/>
    <rect x="137.75" y="99.43" width="9.50" height="22.80" fill="#4c37d0"/>
    <rect x="131.10" y="106.08" width="22.80" height="9.50" fill="#4c37d0"/>
    <rect x="169.42" y="99.43" width="9.50" height="22.80" fill="#4c37d0"/>
    <rect x="162.77" y="106.08" width="22.80" height="9.50" fill="#4c37d0"/>
    <rect x="201.08" y="99.43" width="9.50" height="22.80" fill="#4c37d0"/>
    <rect x="194.43" y="106.08" width="22.80" height="9.50" fill="#4c37d0"/>
    <rect x="232.75" y="99.43" width="9.50" height="22.80" fill="#4c37d0"/>
    <rect x="226.10" y="106.08" width="22.80" height="9.50" fill="#4c37d0"/>
    <rect x="264.42" y="99.43" width="9.50" height="22.80" fill="#4c37d0"/>
    <rect x="257.77" y="106.08" width="22.80" height="9.50" fill="#4c37d0"/>
    <rect x="296.08" y="99.43" width="9.50" height="22.80" fill="#4c37d0"/>
    <rect x="289.43" y="106.08" width="22.80" height="9.50" fill="#4c37d0"/>
    <rect x="327.75" y="99.43" width="9.50" height="22.80" fill="#4c37d0"/>
    <rect x="321.10" y="106.08" width="22.80" height="9.50" fill="#4c37d0"/>
    <rect x="359.42" y="99.43" width="9.50" height="22.80" fill="#4c37d0"/>
    <rect x="352.77" y="106.08" width="22.80" height="9.50" fill="#4c37d0"/>
    <rect x="391.08" y="99.43" width="9.50" height="22.80" fill="#4c37d0"/>
    <rect x="384.43" y="106.08" width="22.80" height="9.50" fill="#4c37d0"/>
    <rect x="11.08" y="131.10" width="9.50" height="22.80" fill="#4c37d0"/>
    <rect x="4.43" y="137.75" width="22.80" height="9.50" fill="#4c37d0"/>
    <rect x="42.75" y="131.10" width="9.50" height="22.80" fill="#4c37d0"/>
    <rect x="36.10" y="137.75" width="22.80" height="9.50" fill="#4c37d0"/>
    <rect x="74.42" y="131.10" width="9.50" height="22.80" fill="#4c37d0"/>
    <rect x="67.77" y="137.75" width="22.80" height="9.50" fill="#4c37d0"/>
    <rect x="106.08" y="131.10" width="9.50" height="22.80" fill="#4c37d0"/>
    <rect x="99.43" y="137.75" width="22.80" height="9.50" fill="#4c37d0"/>
    <rect x="137.75" y="131.10" width="9.50" height="22.80" fill="#4c37d0"/>
    <rect x="131.10" y="137.75" width="22.80" height="9.50" fill="#4c37d0"/>
    <rect x="169.42" y="131.10" width="9.50" height="22.80" fill="#4c37d0"/>
    <rect x="162.77" y="137.75" width="22.80" height="9.50" fill="#4c37d0"/>
    <rect x="201.08" y="131.10" width="9.50" height="22.80" fill="#4c37d0"/>
    <rect x="194.43" y="137.75" width="22.80" height="9.50" fill="#4c37d0"/>
    <rect x="232.75" y="131.10" width="9.50" height="22.80" fill="#4c37d0"/>
    <rect x="226.10" y="137.75" width="22.80" height="9.50" fill="#4c37d0"/>
    <rect x="264.42" y="131.10" width="9.50" height="22.80" fill="#4c37d0"/>
    <rect x="257.77" y="137.75" width="22.80" height="9.50" fill="#4c37d0"/>
    <rect x="296.08" y="131.10" width="9.50" height="22.80" fill="#4c37d0"/>
    <rect x="289.43" y="137.75" width="22.80" height="9.50" fill="#4c37d0"/>
    <rect x="327.75" y="131.10" width="9.50" height="22.80" fill="#4c37d0"/>
    <rect x="321.10" y="137.75" width="22.80" height="9.50" fill="#4c37d0"/>
    <rect x="359.42" y="131.10" width="9.50" height="22.80" fill="#4c37d0"/>
    <rect x="352.77" y="137.75" width="22.80" height="9.50" fill="#4c37d0"/>
    <rect x="391.08" y="131.10" width="9.50" height="22.80" fill="#4c37d0"/>
    <rect x="384.43" y="137.75" width="22.80" height="9.50" fill="#4c37d0"/>
    <rect x="11.08" y="162.77" width="9.50" height="22.80" fill="#4c37d0"/>
    <rect x="4.43" y="169.42" width="22.80" height="9.50" fill="#4c37d0"/>
    <rect x="42.75" y="162.77" width="9.50" height="22.80" fill="#4c37d0"/>
    <rect x="36.10" y="169.42" width="22.80" height="9.50" fill="#4c37d0"/>
    <rect x="74.42" y="162.77" width="9.50" height="22.80" fill="#4c37d0"/>
    <rect x="67.77" y="169.42" width="22.80" height="9.50" fill="#4c37d0"/>
    <rect x="106.08" y="162.77" width="9.50" height="22.80" fill="#4c37d0"/>
    <rect x="99.43" y="169.42" width="22.80" height="9.50" fill="#4c37d0"/>
    <rect x="137.75" y="162.77" width="9.50" height="22.80" fill="#4c37d0"/>
    <rect x="131.10" y="169.42" width="22.80" height="9.50" fill="#4c37d0"/>
    <rect x="169.42" y="162.77" width="9.50" height="22.80" fill="#4c37d0"/>
    <rect x="162.77" y="169.42" width="22.80" height="9.50" fill="#4c37d0"/>
    <rect x="201.08" y="162.77" width="9.50" height="22.80" fill="#4c37d0"/>
    <rect x="194.43" y="169.42" width="22.80" height="9.50" fill="#4c37d0"/>
    <rect x="232.75" y="162.77" width="9.50" height="22.80" fill="#4c37d0"/>
    <rect x="226.10" y="169.42" width="22.80" height="9.50" fill="#4c37d0"/>
    <rect x="264.42" y="162.77" width="9.50" height="22.80" fill="#4c37d0"/>
    <rect x="257.77" y="169.42" width="22.80" height="9.50" fill="#4c37d0"/>
    <rect x="296.08" y="162.77" width="9.50" height="22.80" fill="#4c37d0"/>
    <rect x="289.43" y="169.42" width="22.80" height="9.50" fill="#4c37d0"/>
    <rect x="327.75" y="162.77" width="9.50" height="22.80" fill="#4c37d0"/>
    <rect x="321.10" y="169.42" width="22.80" height="9.50" fill="#4c37d0"/>
    <rect x="359.42" y="162.77" width="9.50" height="22.80" fill="#4c37d0"/>
    <rect x="352.77" y="169.42" width="22.80" height="9.50" fill="#4c37d0"/>
    <rect x="391.08" y="162.77" width="9.50" height="22.80" fill="#4c37d0"/>
    <rect x="384.43" y="169.42" width="22.80" height="9.50" fill="#4c37d0"/>
    <rect x="11.08" y="194.43" width="9.50" height="22.80" fill="#4c37d0"/>
    <rect x="4.43" y="201.08" width="22.80" height="9.50" fill="#4c37d0"/>
    <rect x="42.75" y="194.43" width="9.50" height="22.80" fill="#4c37d0"/>
    <rect x="36.10" y="201.08" width="22.80" height="9.50" fill="#4c37d0"/>
    <rect x="74.42" y="194.43" width="9.50" height="22.80" fill="#4c37d0"/>
    <rect x="67.77" y="201.08" width="22.80" height="9.50" fill="#4c37d0"/>
    <rect x="106.08" y="194.43" width="9.50" height="22.80" fill="#4c37d0"/>
    <rect x="99.43" y="201.08" width="22.80" height="9.50" fill="#4c37d0"/>
    <rect x="137.75" y="194.43" width="9.50" height="22.80" fill="#4c37d0"/>
    <rect x="131.10" y="201.08" width="22.80" height="9.50" fill="#4c37d0"/>
    <rect x="169.42" y="194.43" width="9.50" height="22.80" fill="#4c37d0"/>
    <rect x="162.77" y="201.08" width="22.80" height="9.50" fill="#4c37d0"/>
    <rect x="201.08" y="194.43" width="9.50" height="22.80" fill="#4c37d0"/>
    <rect x="194.43" y="201.08" width="22.80" height="9.50" fill="#4c37d0"/>
    <rect x="232.75" y="194.43" width="9.50" height="22.80" fill="#4c37d0"/>
    <rect x="226.10" y="201.08" width="22.80" height="9.50" fill="#4c37d0"/>
    <rect x="264.42" y="194.43" width="9.50" height="22.80" fill="#4c37d0"/>
    <rect x="257.77" y="201.08" width="22.80" height="9.50" fill="#4c37d0"/>
    <rect x="296.08" y="194.43" width="9.50" height="22.80" fill="#4c37d0"/>
    <rect x="289.43" y="201.08" width="22.80" height="9.50" fill="#4c37d0"/>
    <rect x="327.75" y="194.43" width="9.50" height="22.80" fill="#4c37d0"/>
    <rect x="321.10" y="201.08" width="22.80" height="9.50" fill="#4c37d0"/>
    <rect x="359.42" y="194.43" width="9.50" height="22.80" fill="#4c37d0"/>
    <rect x="352.77" y="201.08" width="22.80" height="9.50" fill="#4c37d0"/>
    <rect x="391.08" y="194.43" width="9.50" height="22.80" fill="#4c37d0"/>
    <rect x="384.43" y="201.08" width="22.80" height="9.50" fill="#4c37d0"/>
    <rect x="11.08" y="226.10" width="9.50" height="22.80" fill="#4c37d0"/>
    <rect x="4.43" y="232.75" width="22.80" height="9.50" fill="#4c37d0"/>
    <rect x="42.75" y="226.10" width="9.50" height="22.80" fill="#4c37d0"/>
    <rect x="36.10" y="232.75" width="22.80" height="9.50" fill="#4c37d0"/>
    <rect x="74.42" y="226.10" width="9.50" height="22.80" fill="#4c37d0"/>
    <rect x="67.77" y="232.75" width="22.80" height="9.50" fill="#4c37d0"/>
    <rect x="106.08" y="226.10" width="9.50" height="22.80" fill="#4c37d0"/>
    <rect x="99.43" y="232.75" width="22.80" height="9.50" fill="#4c37d0"/>
    <rect x="137.75" y="226.10" width="9.50" height="22.80" fill="#4c37d0"/>
    <rect x="131.10" y="232.75" width="22.80" height="9.50" fill="#4c37d0"/>
    <rect x="169.42" y="226.10" width="9.50" height="22.80" fill="#4c37d0"/>
    <rect x="162.77" y="232.75" width="22.80" height="9.50" fill="#4c37d0"/>
    <rect x="201.08" y="226.10" width="9.50" height="22.80" fill="#4c37d0"/>
    <rect x="194.43" y="232.75" width="22.80" height="9.50" fill="#4c37d0"/>
    <rect x="232.75" y="226.10" width="9.50" height="22.80" fill="#4c37d0"/>
    <rect x="226.10" y="232.75" width="22.80" height="9.50" fill="#4c37d0"/>
    <rect x="264.42" y="226.10" width="9.50" height="22.80" fill="#4c37d0"/>
    <rect x="257.77" y="232.75" width="22.80" height="9.50" fill="#4c37d0"/>
    <rect x="296.08" y="226.10" width="9.50" height="22.80" fill="#4c37d0"/>
    <rect x="289.43" y="232.75" width="22.80" height="9.50" fill="#4c37d0"/>
    <rect x="327.75" y="226.10" width="9.50" height="22.80" fill="#4c37d0"/>
    <rect x="321.10" y="232.75" width="22.80" height="9.50" fill="#4c37d0"/>
    <rect x="359.42" y="226.10" width="9.50" height="22.80" fill="#4c37d0"/>
    <rect x="352.77" y="232.75" width="22.80" height="9.50" fill="#4c37d0"/>
    <rect x="391.08" y="226.10" width="9.50" height="22.80" fill="#4c37d0"/>
    <rect x="384.43" y="232.75" width="22.80" height="9.50" fill="#4c37d0"/>
  </g>
</svg>
