<svg xmlns="http://www.w3.org/2000/svg" width="380" height="210" viewBox="0 0 380 210">
  <title>Ticks — Violet</title>
  <desc>Skillprint background — Pattern 17 Ticks, mindset-violet-500 / mindset-violet-600</desc>
  <defs><clipPath id="c"><rect width="380" height="210"/></clipPath></defs>
  <rect width="380" height="210" fill="#573eeb"/>
  <g clip-path="url(#c)">
    <rect x="-2.00" y="3.00" width="4.00" height="14.00" fill="#4c37d0"/>
    <rect x="18.00" y="3.00" width="4.00" height="14.00" fill="#4c37d0"/>
    <rect x="38.00" y="3.00" width="4.00" height="14.00" fill="#4c37d0"/>
    <rect x="58.00" y="3.00" width="4.00" height="14.00" fill="#4c37d0"/>
    <rect x="78.00" y="3.00" width="4.00" height="14.00" fill="#4c37d0"/>
    <rect x="98.00" y="3.00" width="4.00" height="14.00" fill="#4c37d0"/>
    <rect x="118.00" y="3.00" width="4.00" height="14.00" fill="#4c37d0"/>
    <rect x="138.00" y="3.00" width="4.00" height="14.00" fill="#4c37d0"/>
    <rect x="158.00" y="3.00" width="4.00" height="14.00" fill="#4c37d0"/>
    <rect x="178.00" y="3.00" width="4.00" height="14.00" fill="#4c37d0"/>
    <rect x="198.00" y="3.00" width="4.00" height="14.00" fill="#4c37d0"/>
    <rect x="218.00" y="3.00" width="4.00" height="14.00" fill="#4c37d0"/>
    <rect x="238.00" y="3.00" width="4.00" height="14.00" fill="#4c37d0"/>
    <rect x="258.00" y="3.00" width="4.00" height="14.00" fill="#4c37d0"/>
    <rect x="278.00" y="3.00" width="4.00" height="14.00" fill="#4c37d0"/>
    <rect x="298.00" y="3.00" width="4.00" height="14.00" fill="#4c37d0"/>
    <rect x="318.00" y="3.00" width="4.00" height="14.00" fill="#4c37d0"/>
    <rect x="338.00" y="3.00" width="4.00" height="14.00" fill="#4c37d0"/>
    <rect x="358.00" y="3.00" width="4.00" height="14.00" fill="#4c37d0"/>
    <rect x="378.00" y="3.00" width="4.00" height="14.00" fill="#4c37d0"/>
    <rect x="8.00" y="23.00" width="4.00" height="14.00" fill="#4c37d0"/>
    <rect x="28.00" y="23.00" width="4.00" height="14.00" fill="#4c37d0"/>
    <rect x="48.00" y="23.00" width="4.00" height="14.00" fill="#4c37d0"/>
    <rect x="68.00" y="23.00" width="4.00" height="14.00" fill="#4c37d0"/>
    <rect x="88.00" y="23.00" width="4.00" height="14.00" fill="#4c37d0"/>
    <rect x="108.00" y="23.00" width="4.00" height="14.00" fill="#4c37d0"/>
    <rect x="128.00" y="23.00" width="4.00" height="14.00" fill="#4c37d0"/>
    <rect x="148.00" y="23.00" width="4.00" height="14.00" fill="#4c37d0"/>
    <rect x="168.00" y="23.00" width="4.00" height="14.00" fill="#4c37d0"/>
    <rect x="188.00" y="23.00" width="4.00" height="14.00" fill="#4c37d0"/>
    <rect x="208.00" y="23.00" width="4.00" height="14.00" fill="#4c37d0"/>
    <rect x="228.00" y="23.00" width="4.00" height="14.00" fill="#4c37d0"/>
    <rect x="248.00" y="23.00" width="4.00" height="14.00" fill="#4c37d0"/>
    <rect x="268.00" y="23.00" width="4.00" height="14.00" fill="#4c37d0"/>
    <rect x="288.00" y="23.00" width="4.00" height="14.00" fill="#4c37d0"/>
    <rect x="308.00" y="23.00" width="4.00" height="14.00" fill="#4c37d0"/>
    <rect x="328.00" y="23.00" width="4.00" height="14.00" fill="#4c37d0"/>
    <rect x="348.00" y="23.00" width="4.00" height="14.00" fill="#4c37d0"/>
    <rect x="368.00" y="23.00" width="4.00" height="14.00" fill="#4c37d0"/>
    <rect x="388.00" y="23.00" width="4.00" height="14.00" fill="#4c37d0"/>
    <rect x="-2.00" y="43.00" width="4.00" height="14.00" fill="#4c37d0"/>
    <rect x="18.00" y="43.00" width="4.00" height="14.00" fill="#4c37d0"/>
    <rect x="38.00" y="43.00" width="4.00" height="14.00" fill="#4c37d0"/>
    <rect x="58.00" y="43.00" width="4.00" height="14.00" fill="#4c37d0"/>
    <rect x="78.00" y="43.00" width="4.00" height="14.00" fill="#4c37d0"/>
    <rect x="98.00" y="43.00" width="4.00" height="14.00" fill="#4c37d0"/>
    <rect x="118.00" y="43.00" width="4.00" height="14.00" fill="#4c37d0"/>
    <rect x="138.00" y="43.00" width="4.00" height="14.00" fill="#4c37d0"/>
    <rect x="158.00" y="43.00" width="4.00" height="14.00" fill="#4c37d0"/>
    <rect x="178.00" y="43.00" width="4.00" height="14.00" fill="#4c37d0"/>
    <rect x="198.00" y="43.00" width="4.00" height="14.00" fill="#4c37d0"/>
    <rect x="218.00" y="43.00" width="4.00" height="14.00" fill="#4c37d0"/>
    <rect x="238.00" y="43.00" width="4.00" height="14.00" fill="#4c37d0"/>
    <rect x="258.00" y="43.00" width="4.00" height="14.00" fill="#4c37d0"/>
    <rect x="278.00" y="43.00" width="4.00" height="14.00" fill="#4c37d0"/>
    <rect x="298.00" y="43.00" width="4.00" height="14.00" fill="#4c37d0"/>
    <rect x="318.00" y="43.00" width="4.00" height="14.00" fill="#4c37d0"/>
    <rect x="338.00" y="43.00" width="4.00" height="14.00" fill="#4c37d0"/>
    <rect x="358.00" y="43.00" width="4.00" height="14.00" fill="#4c37d0"/>
    <rect x="378.00" y="43.00" width="4.00" height="14.00" fill="#4c37d0"/>
    <rect x="8.00" y="63.00" width="4.00" height="14.00" fill="#4c37d0"/>
    <rect x="28.00" y="63.00" width="4.00" height="14.00" fill="#4c37d0"/>
    <rect x="48.00" y="63.00" width="4.00" height="14.00" fill="#4c37d0"/>
    <rect x="68.00" y="63.00" width="4.00" height="14.00" fill="#4c37d0"/>
    <rect x="88.00" y="63.00" width="4.00" height="14.00" fill="#4c37d0"/>
    <rect x="108.00" y="63.00" width="4.00" height="14.00" fill="#4c37d0"/>
    <rect x="128.00" y="63.00" width="4.00" height="14.00" fill="#4c37d0"/>
    <rect x="148.00" y="63.00" width="4.00" height="14.00" fill="#4c37d0"/>
    <rect x="168.00" y="63.00" width="4.00" height="14.00" fill="#4c37d0"/>
    <rect x="188.00" y="63.00" width="4.00" height="14.00" fill="#4c37d0"/>
    <rect x="208.00" y="63.00" width="4.00" height="14.00" fill="#4c37d0"/>
    <rect x="228.00" y="63.00" width="4.00" height="14.00" fill="#4c37d0"/>
    <rect x="248.00" y="63.00" width="4.00" height="14.00" fill="#4c37d0"/>
    <rect x="268.00" y="63.00" width="4.00" height="14.00" fill="#4c37d0"/>
    <rect x="288.00" y="63.00" width="4.00" height="14.00" fill="#4c37d0"/>
    <rect x="308.00" y="63.00" width="4.00" height="14.00" fill="#4c37d0"/>
    <rect x="328.00" y="63.00" width="4.00" height="14.00" fill="#4c37d0"/>
    <rect x="348.00" y="63.00" width="4.00" height="14.00" fill="#4c37d0"/>
    <rect x="368.00" y="63.00" width="4.00" height="14.00" fill="#4c37d0"/>
    <rect x="388.00" y="63.00" width="4.00" height="14.00" fill="#4c37d0"/>
    <rect x="-2.00" y="83.00" width="4.00" height="14.00" fill="#4c37d0"/>
    <rect x="18.00" y="83.00" width="4.00" height="14.00" fill="#4c37d0"/>
    <rect x="38.00" y="83.00" width="4.00" height="14.00" fill="#4c37d0"/>
    <rect x="58.00" y="83.00" width="4.00" height="14.00" fill="#4c37d0"/>
    <rect x="78.00" y="83.00" width="4.00" height="14.00" fill="#4c37d0"/>
    <rect x="98.00" y="83.00" width="4.00" height="14.00" fill="#4c37d0"/>
    <rect x="118.00" y="83.00" width="4.00" height="14.00" fill="#4c37d0"/>
    <rect x="138.00" y="83.00" width="4.00" height="14.00" fill="#4c37d0"/>
    <rect x="158.00" y="83.00" width="4.00" height="14.00" fill="#4c37d0"/>
    <rect x="178.00" y="83.00" width="4.00" height="14.00" fill="#4c37d0"/>
    <rect x="198.00" y="83.00" width="4.00" height="14.00" fill="#4c37d0"/>
    <rect x="218.00" y="83.00" width="4.00" height="14.00" fill="#4c37d0"/>
    <rect x="238.00" y="83.00" width="4.00" height="14.00" fill="#4c37d0"/>
    <rect x="258.00" y="83.00" width="4.00" height="14.00" fill="#4c37d0"/>
    <rect x="278.00" y="83.00" width="4.00" height="14.00" fill="#4c37d0"/>
    <rect x="298.00" y="83.00" width="4.00" height="14.00" fill="#4c37d0"/>
    <rect x="318.00" y="83.00" width="4.00" height="14.00" fill="#4c37d0"/>
    <rect x="338.00" y="83.00" width="4.00" height="14.00" fill="#4c37d0"/>
    <rect x="358.00" y="83.00" width="4.00" height="14.00" fill="#4c37d0"/>
    <rect x="378.00" y="83.00" width="4.00" height="14.00" fill="#4c37d0"/>
    <rect x="8.00" y="103.00" width="4.00" height="14.00" fill="#4c37d0"/>
    <rect x="28.00" y="103.00" width="4.00" height="14.00" fill="#4c37d0"/>
    <rect x="48.00" y="103.00" width="4.00" height="14.00" fill="#4c37d0"/>
    <rect x="68.00" y="103.00" width="4.00" height="14.00" fill="#4c37d0"/>
    <rect x="88.00" y="103.00" width="4.00" height="14.00" fill="#4c37d0"/>
    <rect x="108.00" y="103.00" width="4.00" height="14.00" fill="#4c37d0"/>
    <rect x="128.00" y="103.00" width="4.00" height="14.00" fill="#4c37d0"/>
    <rect x="148.00" y="103.00" width="4.00" height="14.00" fill="#4c37d0"/>
    <rect x="168.00" y="103.00" width="4.00" height="14.00" fill="#4c37d0"/>
    <rect x="188.00" y="103.00" width="4.00" height="14.00" fill="#4c37d0"/>
    <rect x="208.00" y="103.00" width="4.00" height="14.00" fill="#4c37d0"/>
    <rect x="228.00" y="103.00" width="4.00" height="14.00" fill="#4c37d0"/>
    <rect x="248.00" y="103.00" width="4.00" height="14.00" fill="#4c37d0"/>
    <rect x="268.00" y="103.00" width="4.00" height="14.00" fill="#4c37d0"/>
    <rect x="288.00" y="103.00" width="4.00" height="14.00" fill="#4c37d0"/>
    <rect x="308.00" y="103.00" width="4.00" height="14.00" fill="#4c37d0"/>
    <rect x="328.00" y="103.00" width="4.00" height="14.00" fill="#4c37d0"/>
    <rect x="348.00" y="103.00" width="4.00" height="14.00" fill="#4c37d0"/>
    <rect x="368.00" y="103.00" width="4.00" height="14.00" fill="#4c37d0"/>
    <rect x="388.00" y="103.00" width="4.00" height="14.00" fill="#4c37d0"/>
    <rect x="-2.00" y="123.00" width="4.00" height="14.00" fill="#4c37d0"/>
    <rect x="18.00" y="123.00" width="4.00" height="14.00" fill="#4c37d0"/>
    <rect x="38.00" y="123.00" width="4.00" height="14.00" fill="#4c37d0"/>
    <rect x="58.00" y="123.00" width="4.00" height="14.00" fill="#4c37d0"/>
    <rect x="78.00" y="123.00" width="4.00" height="14.00" fill="#4c37d0"/>
    <rect x="98.00" y="123.00" width="4.00" height="14.00" fill="#4c37d0"/>
    <rect x="118.00" y="123.00" width="4.00" height="14.00" fill="#4c37d0"/>
    <rect x="138.00" y="123.00" width="4.00" height="14.00" fill="#4c37d0"/>
    <rect x="158.00" y="123.00" width="4.00" height="14.00" fill="#4c37d0"/>
    <rect x="178.00" y="123.00" width="4.00" height="14.00" fill="#4c37d0"/>
    <rect x="198.00" y="123.00" width="4.00" height="14.00" fill="#4c37d0"/>
    <rect x="218.00" y="123.00" width="4.00" height="14.00" fill="#4c37d0"/>
    <rect x="238.00" y="123.00" width="4.00" height="14.00" fill="#4c37d0"/>
    <rect x="258.00" y="123.00" width="4.00" height="14.00" fill="#4c37d0"/>
    <rect x="278.00" y="123.00" width="4.00" height="14.00" fill="#4c37d0"/>
    <rect x="298.00" y="123.00" width="4.00" height="14.00" fill="#4c37d0"/>
    <rect x="318.00" y="123.00" width="4.00" height="14.00" fill="#4c37d0"/>
    <rect x="338.00" y="123.00" width="4.00" height="14.00" fill="#4c37d0"/>
    <rect x="358.00" y="123.00" width="4.00" height="14.00" fill="#4c37d0"/>
    <rect x="378.00" y="123.00" width="4.00" height="14.00" fill="#4c37d0"/>
    <rect x="8.00" y="143.00" width="4.00" height="14.00" fill="#4c37d0"/>
    <rect x="28.00" y="143.00" width="4.00" height="14.00" fill="#4c37d0"/>
    <rect x="48.00" y="143.00" width="4.00" height="14.00" fill="#4c37d0"/>
    <rect x="68.00" y="143.00" width="4.00" height="14.00" fill="#4c37d0"/>
    <rect x="88.00" y="143.00" width="4.00" height="14.00" fill="#4c37d0"/>
    <rect x="108.00" y="143.00" width="4.00" height="14.00" fill="#4c37d0"/>
    <rect x="128.00" y="143.00" width="4.00" height="14.00" fill="#4c37d0"/>
    <rect x="148.00" y="143.00" width="4.00" height="14.00" fill="#4c37d0"/>
    <rect x="168.00" y="143.00" width="4.00" height="14.00" fill="#4c37d0"/>
    <rect x="188.00" y="143.00" width="4.00" height="14.00" fill="#4c37d0"/>
    <rect x="208.00" y="143.00" width="4.00" height="14.00" fill="#4c37d0"/>
    <rect x="228.00" y="143.00" width="4.00" height="14.00" fill="#4c37d0"/>
    <rect x="248.00" y="143.00" width="4.00" height="14.00" fill="#4c37d0"/>
    <rect x="268.00" y="143.00" width="4.00" height="14.00" fill="#4c37d0"/>
    <rect x="288.00" y="143.00" width="4.00" height="14.00" fill="#4c37d0"/>
    <rect x="308.00" y="143.00" width="4.00" height="14.00" fill="#4c37d0"/>
    <rect x="328.00" y="143.00" width="4.00" height="14.00" fill="#4c37d0"/>
    <rect x="348.00" y="143.00" width="4.00" height="14.00" fill="#4c37d0"/>
    <rect x="368.00" y="143.00" width="4.00" height="14.00" fill="#4c37d0"/>
    <rect x="388.00" y="143.00" width="4.00" height="14.00" fill="#4c37d0"/>
    <rect x="-2.00" y="163.00" width="4.00" height="14.00" fill="#4c37d0"/>
    <rect x="18.00" y="163.00" width="4.00" height="14.00" fill="#4c37d0"/>
    <rect x="38.00" y="163.00" width="4.00" height="14.00" fill="#4c37d0"/>
    <rect x="58.00" y="163.00" width="4.00" height="14.00" fill="#4c37d0"/>
    <rect x="78.00" y="163.00" width="4.00" height="14.00" fill="#4c37d0"/>
    <rect x="98.00" y="163.00" width="4.00" height="14.00" fill="#4c37d0"/>
    <rect x="118.00" y="163.00" width="4.00" height="14.00" fill="#4c37d0"/>
    <rect x="138.00" y="163.00" width="4.00" height="14.00" fill="#4c37d0"/>
    <rect x="158.00" y="163.00" width="4.00" height="14.00" fill="#4c37d0"/>
    <rect x="178.00" y="163.00" width="4.00" height="14.00" fill="#4c37d0"/>
    <rect x="198.00" y="163.00" width="4.00" height="14.00" fill="#4c37d0"/>
    <rect x="218.00" y="163.00" width="4.00" height="14.00" fill="#4c37d0"/>
    <rect x="238.00" y="163.00" width="4.00" height="14.00" fill="#4c37d0"/>
    <rect x="258.00" y="163.00" width="4.00" height="14.00" fill="#4c37d0"/>
    <rect x="278.00" y="163.00" width="4.00" height="14.00" fill="#4c37d0"/>
    <rect x="298.00" y="163.00" width="4.00" height="14.00" fill="#4c37d0"/>
    <rect x="318.00" y="163.00" width="4.00" height="14.00" fill="#4c37d0"/>
    <rect x="338.00" y="163.00" width="4.00" height="14.00" fill="#4c37d0"/>
    <rect x="358.00" y="163.00" width="4.00" height="14.00" fill="#4c37d0"/>
    <rect x="378.00" y="163.00" width="4.00" height="14.00" fill="#4c37d0"/>
    <rect x="8.00" y="183.00" width="4.00" height="14.00" fill="#4c37d0"/>
    <rect x="28.00" y="183.00" width="4.00" height="14.00" fill="#4c37d0"/>
    <rect x="48.00" y="183.00" width="4.00" height="14.00" fill="#4c37d0"/>
    <rect x="68.00" y="183.00" width="4.00" height="14.00" fill="#4c37d0"/>
    <rect x="88.00" y="183.00" width="4.00" height="14.00" fill="#4c37d0"/>
    <rect x="108.00" y="183.00" width="4.00" height="14.00" fill="#4c37d0"/>
    <rect x="128.00" y="183.00" width="4.00" height="14.00" fill="#4c37d0"/>
    <rect x="148.00" y="183.00" width="4.00" height="14.00" fill="#4c37d0"/>
    <rect x="168.00" y="183.00" width="4.00" height="14.00" fill="#4c37d0"/>
    <rect x="188.00" y="183.00" width="4.00" height="14.00" fill="#4c37d0"/>
    <rect x="208.00" y="183.00" width="4.00" height="14.00" fill="#4c37d0"/>
    <rect x="228.00" y="183.00" width="4.00" height="14.00" fill="#4c37d0"/>
    <rect x="248.00" y="183.00" width="4.00" height="14.00" fill="#4c37d0"/>
    <rect x="268.00" y="183.00" width="4.00" height="14.00" fill="#4c37d0"/>
    <rect x="288.00" y="183.00" width="4.00" height="14.00" fill="#4c37d0"/>
    <rect x="308.00" y="183.00" width="4.00" height="14.00" fill="#4c37d0"/>
    <rect x="328.00" y="183.00" width="4.00" height="14.00" fill="#4c37d0"/>
    <rect x="348.00" y="183.00" width="4.00" height="14.00" fill="#4c37d0"/>
    <rect x="368.00" y="183.00" width="4.00" height="14.00" fill="#4c37d0"/>
    <rect x="388.00" y="183.00" width="4.00" height="14.00" fill="#4c37d0"/>
    <rect x="-2.00" y="203.00" width="4.00" height="14.00" fill="#4c37d0"/>
    <rect x="18.00" y="203.00" width="4.00" height="14.00" fill="#4c37d0"/>
    <rect x="38.00" y="203.00" width="4.00" height="14.00" fill="#4c37d0"/>
    <rect x="58.00" y="203.00" width="4.00" height="14.00" fill="#4c37d0"/>
    <rect x="78.00" y="203.00" width="4.00" height="14.00" fill="#4c37d0"/>
    <rect x="98.00" y="203.00" width="4.00" height="14.00" fill="#4c37d0"/>
    <rect x="118.00" y="203.00" width="4.00" height="14.00" fill="#4c37d0"/>
    <rect x="138.00" y="203.00" width="4.00" height="14.00" fill="#4c37d0"/>
    <rect x="158.00" y="203.00" width="4.00" height="14.00" fill="#4c37d0"/>
    <rect x="178.00" y="203.00" width="4.00" height="14.00" fill="#4c37d0"/>
    <rect x="198.00" y="203.00" width="4.00" height="14.00" fill="#4c37d0"/>
    <rect x="218.00" y="203.00" width="4.00" height="14.00" fill="#4c37d0"/>
    <rect x="238.00" y="203.00" width="4.00" height="14.00" fill="#4c37d0"/>
    <rect x="258.00" y="203.00" width="4.00" height="14.00" fill="#4c37d0"/>
    <rect x="278.00" y="203.00" width="4.00" height="14.00" fill="#4c37d0"/>
    <rect x="298.00" y="203.00" width="4.00" height="14.00" fill="#4c37d0"/>
    <rect x="318.00" y="203.00" width="4.00" height="14.00" fill="#4c37d0"/>
    <rect x="338.00" y="203.00" width="4.00" height="14.00" fill="#4c37d0"/>
    <rect x="358.00" y="203.00" width="4.00" height="14.00" fill="#4c37d0"/>
    <rect x="378.00" y="203.00" width="4.00" height="14.00" fill="#4c37d0"/>
    <rect x="8.00" y="223.00" width="4.00" height="14.00" fill="#4c37d0"/>
    <rect x="28.00" y="223.00" width="4.00" height="14.00" fill="#4c37d0"/>
    <rect x="48.00" y="223.00" width="4.00" height="14.00" fill="#4c37d0"/>
    <rect x="68.00" y="223.00" width="4.00" height="14.00" fill="#4c37d0"/>
    <rect x="88.00" y="223.00" width="4.00" height="14.00" fill="#4c37d0"/>
    <rect x="108.00" y="223.00" width="4.00" height="14.00" fill="#4c37d0"/>
    <rect x="128.00" y="223.00" width="4.00" height="14.00" fill="#4c37d0"/>
    <rect x="148.00" y="223.00" width="4.00" height="14.00" fill="#4c37d0"/>
    <rect x="168.00" y="223.00" width="4.00" height="14.00" fill="#4c37d0"/>
    <rect x="188.00" y="223.00" width="4.00" height="14.00" fill="#4c37d0"/>
    <rect x="208.00" y="223.00" width="4.00" height="14.00" fill="#4c37d0"/>
    <rect x="228.00" y="223.00" width="4.00" height="14.00" fill="#4c37d0"/>
    <rect x="248.00" y="223.00" width="4.00" height="14.00" fill="#4c37d0"/>
    <rect x="268.00" y="223.00" width="4.00" height="14.00" fill="#4c37d0"/>
    <rect x="288.00" y="223.00" width="4.00" height="14.00" fill="#4c37d0"/>
    <rect x="308.00" y="223.00" width="4.00" height="14.00" fill="#4c37d0"/>
    <rect x="328.00" y="223.00" width="4.00" height="14.00" fill="#4c37d0"/>
    <rect x="348.00" y="223.00" width="4.00" height="14.00" fill="#4c37d0"/>
    <rect x="368.00" y="223.00" width="4.00" height="14.00" fill="#4c37d0"/>
    <rect x="388.00" y="223.00" width="4.00" height="14.00" fill="#4c37d0"/>
  </g>
</svg>
