<svg xmlns="http://www.w3.org/2000/svg" width="380" height="210" viewBox="0 0 380 210">
  <title>Stacks Tower</title>
  <desc>Skillprint game card — h-stripes in panel-navy-800/900, tower icon</desc>
  <defs><clipPath id="clip-tower"><rect width="380" height="210"/></clipPath></defs>
  <rect width="380" height="210" fill="#2b3159"/>
  <g clip-path="url(#clip-tower)">
    <rect x="0.00" y="0.00" width="380.00" height="7.50" fill="#212549"/>
    <rect x="0.00" y="15.00" width="380.00" height="7.50" fill="#212549"/>
    <rect x="0.00" y="30.00" width="380.00" height="7.50" fill="#212549"/>
    <rect x="0.00" y="45.00" width="380.00" height="7.50" fill="#212549"/>
    <rect x="0.00" y="60.00" width="380.00" height="7.50" fill="#212549"/>
    <rect x="0.00" y="75.00" width="380.00" height="7.50" fill="#212549"/>
    <rect x="0.00" y="90.00" width="380.00" height="7.50" fill="#212549"/>
    <rect x="0.00" y="105.00" width="380.00" height="7.50" fill="#212549"/>
    <rect x="0.00" y="120.00" width="380.00" height="7.50" fill="#212549"/>
    <rect x="0.00" y="135.00" width="380.00" height="7.50" fill="#212549"/>
    <rect x="0.00" y="150.00" width="380.00" height="7.50" fill="#212549"/>
    <rect x="0.00" y="165.00" width="380.00" height="7.50" fill="#212549"/>
    <rect x="0.00" y="180.00" width="380.00" height="7.50" fill="#212549"/>
    <rect x="0.00" y="195.00" width="380.00" height="7.50" fill="#212549"/>
    <rect x="0.00" y="210.00" width="380.00" height="7.50" fill="#212549"/>
  </g>
  <svg x="120" y="35" width="140" height="140" viewBox="0 0 511.44 511.44">
<g><path d="m362.57 452.21h-213.7l37.06-196.92h139.58z" fill="#eceef2"/><path d="m325.51 255.29 37.06 196.92h-106.84v-196.92z" fill="#c9fbf4"/><path d="m382.48 81.59h-253.52l47.99-81.59h157.54z" fill="#ff518d"/><path d="m382.48 81.59h-126.75v-81.59h78.76z" fill="#ba3e70"/><path d="m129.17 82.333 23.83 84.167h205.44l23.83-84.167z" fill="#1f8ac3"/><path d="m255.73 82.333v84.167h102.71l23.83-84.167z" fill="#1a6ea0"/><path d="m393.67 68.67v30h-86.27l-6.96 71.43h-30.14l6.96-71.43h-43.08l6.96 71.43h-30.14l-6.97-71.43h-86.26v-30z" fill="#62ccfe"/><path d="m277.26 98.67h-21.53v-30h137.94v30h-86.27l-6.96 71.43h-30.14z" fill="#23a2e1"/><path d="m358.28 196.29v44c0 24.81-20.19 45-45 45h-115.12c-24.81 0-45-20.19-45-45v-44z" fill="#62ccfe"/><path d="m277.03 333.68-21.21 21.21-.09-.09-21.32-21.32 21.21-21.21z" fill="#1f8ac3"/><path d="m277.03 395.97-21.21 21.22-.09-.09-21.32-21.33 21.21-21.21z" fill="#1f8ac3"/><path d="m393.87 477.92v33.52h-276.3v-33.52c0-18.56 15.19-33.75 33.76-33.75h208.78c18.57 0 33.76 15.19 33.76 33.75z" fill="#ff518d"/><path d="m255.82 417.19-.09-.09v-42.43l21.3 21.3z" fill="#1a6ea0"/><path d="m255.82 354.89-.09-.09v-42.42l21.3 21.3z" fill="#1a6ea0"/><path d="m313.28 285.29h-57.55v-89h102.55v44c0 24.81-20.19 45-45 45z" fill="#23a2e1"/><path d="m393.87 477.92v33.52h-138.14v-67.27h104.38c18.57 0 33.76 15.19 33.76 33.75z" fill="#ba3e70"/><g><path d="m392.63 185.13c0 9.25-3.79 17.67-9.88 23.76-6.1 6.1-14.51 9.88-23.76 9.88h-206.54c-18.5 0-33.64-15.13-33.64-33.63 0-9.25 3.79-17.66 9.88-23.76 6.1-6.1 14.51-9.88 23.76-9.88h206.54c18.5 0 33.63 15.14 33.64 33.63z" fill="#eceef2"/></g><path d="m392.63 185.13c0 9.25-3.79 17.67-9.88 23.76-6.1 6.1-14.51 9.88-23.76 9.88h-103.26v-67.27h103.26c18.5 0 33.63 15.14 33.64 33.63z" fill="#c9fbf4"/></g>
  </svg>
</svg>
