
<svg xmlns="http://www.w3.org/2000/svg" version="1.1" xmlns:xlink="http://www.w3.org/1999/xlink" preserveAspectRatio="none" x="0px" y="0px" width="512px" height="512px" viewBox="0 0 512 512">
<defs>
<g id="Layer0_0_FILL">
<path fill="#0E4B9E" fill-opacity="0.24705882352941178" stroke="none" d="
M 384 512
L 416 512 512 416 512 384 384 512
M 512 480
L 512 448 448 512 480 512 512 480
M 0 320
L 0 352 352 0 320 0 0 320
M 0 64
L 0 96 96 0 64 0 0 64
M 0 0
L 0 32 32 0 0 0
M 160 0
L 128 0 0 128 0 160 160 0
M 224 0
L 192 0 0 192 0 224 224 0
M 288 0
L 256 0 0 256 0 288 288 0
M 512 224
L 512 192 192 512 224 512 512 224
M 512 352
L 512 320 320 512 352 512 512 352
M 512 288
L 512 256 256 512 288 512 512 288
M 416 0
L 384 0 0 384 0 416 416 0
M 480 0
L 448 0 0 448 0 480 480 0
M 512 160
L 512 128 128 512 160 512 512 160
M 512 96
L 512 64 64 512 96 512 512 96
M 512 32
L 512 0 0 512 32 512 512 32 Z"/>
</g>
</defs>

<g transform="matrix( 1, 0, 0, 1, 0,0) ">
<use xlink:href="#Layer0_0_FILL"/>
</g>
</svg>
