
<svg xmlns="http://www.w3.org/2000/svg" version="1.1" xmlns:xlink="http://www.w3.org/1999/xlink" preserveAspectRatio="none" x="0px" y="0px" width="532px" height="554px" viewBox="0 0 532 554">
<defs>
<linearGradient id="Gradient_1" gradientUnits="userSpaceOnUse" x1="801.2874999999999" y1="310.45" x2="888.8125" y2="277.34999999999997" spreadMethod="pad">
<stop  offset="0%" stop-color="#FFD9E0"/>

<stop  offset="68.62745098039215%" stop-color="#FFD9E0"/>

<stop  offset="74.11764705882354%" stop-color="#FFDEE4"/>

<stop  offset="89.01960784313725%" stop-color="#FFE9ED"/>

<stop  offset="93.72549019607843%" stop-color="#FFDFE5"/>

<stop  offset="100%" stop-color="#FFCDD7"/>
</linearGradient>

<linearGradient id="Gradient_2" gradientUnits="userSpaceOnUse" x1="853.55" y1="300.5875" x2="897.95" y2="283.8125" spreadMethod="pad">
<stop  offset="0%" stop-color="#FFE9ED"/>

<stop  offset="23.92156862745098%" stop-color="#FFDFE7"/>

<stop  offset="64.31372549019608%" stop-color="#FFC5D6"/>

<stop  offset="100%" stop-color="#FFA8C4"/>
</linearGradient>

<linearGradient id="Gradient_3" gradientUnits="userSpaceOnUse" x1="856.25" y1="289.675" x2="899.25" y2="273.425" spreadMethod="pad">
<stop  offset="0%" stop-color="#FFE9ED"/>

<stop  offset="23.92156862745098%" stop-color="#FFDFE7"/>

<stop  offset="64.31372549019608%" stop-color="#FFC5D6"/>

<stop  offset="100%" stop-color="#FFA8C4"/>
</linearGradient>

<linearGradient id="Gradient_4" gradientUnits="userSpaceOnUse" x1="770.4875" y1="229" x2="858.0125" y2="195.89999999999998" spreadMethod="pad">
<stop  offset="0%" stop-color="#FFD9E0"/>

<stop  offset="68.62745098039215%" stop-color="#FFD9E0"/>

<stop  offset="74.11764705882354%" stop-color="#FFDEE4"/>

<stop  offset="89.01960784313725%" stop-color="#FFE9ED"/>

<stop  offset="93.72549019607843%" stop-color="#FFDFE5"/>

<stop  offset="100%" stop-color="#FFCDD7"/>
</linearGradient>

<linearGradient id="Gradient_5" gradientUnits="userSpaceOnUse" x1="820.0749999999999" y1="215.4375" x2="788.525" y2="219.16250000000002" spreadMethod="pad">
<stop  offset="0%" stop-color="#FFE9ED"/>

<stop  offset="23.92156862745098%" stop-color="#FFDFE7"/>

<stop  offset="64.31372549019608%" stop-color="#FFC5D6"/>

<stop  offset="100%" stop-color="#FFA8C4"/>
</linearGradient>

<radialGradient id="Gradient_6" gradientUnits="userSpaceOnUse" cx="0" cy="0" r="91.38315627072642" fx="0" fy="0" gradientTransform="matrix( 0.935347426026485, -0.35373039539404655, -0.35373039539404655, -0.935347426026485, 787.3,203.85) " spreadMethod="pad">
<stop  offset="0.39215686274509803%" stop-color="#FFE9ED"/>

<stop  offset="45.88235294117647%" stop-color="#FFDFE5"/>

<stop  offset="100%" stop-color="#FFCDD7"/>
</radialGradient>

<linearGradient id="Gradient_7" gradientUnits="userSpaceOnUse" x1="799.75" y1="238.55" x2="786.95" y2="253.25" spreadMethod="pad">
<stop  offset="0%" stop-color="#FD7594"/>

<stop  offset="7.0588235294117645%" stop-color="#FD7E9B"/>

<stop  offset="18.823529411764707%" stop-color="#FD96AE"/>

<stop  offset="33.333333333333336%" stop-color="#FEBDCC"/>

<stop  offset="41.568627450980394%" stop-color="#FEB4C5"/>

<stop  offset="54.90196078431372%" stop-color="#FE9CB2"/>

<stop  offset="70.98039215686275%" stop-color="#FD7594"/>

<stop  offset="75.29411764705883%" stop-color="#FD6C8D"/>

<stop  offset="82.3529411764706%" stop-color="#FD547A"/>

<stop  offset="91.37254901960785%" stop-color="#FC2C5B"/>

<stop  offset="100%" stop-color="#FC0039"/>
</linearGradient>

<linearGradient id="Gradient_8" gradientUnits="userSpaceOnUse" x1="792.2125000000001" y1="234.1" x2="774.1875" y2="240.6" spreadMethod="pad">
<stop  offset="0%" stop-color="#FC0039"/>

<stop  offset="2.3529411764705883%" stop-color="#FC1549"/>

<stop  offset="9.411764705882353%" stop-color="#FD4972"/>

<stop  offset="14.509803921568627%" stop-color="#FD698B"/>

<stop  offset="17.254901960784313%" stop-color="#FD7594"/>

<stop  offset="25.49019607843137%" stop-color="#FD6C8D"/>

<stop  offset="38.8235294117647%" stop-color="#FD547A"/>

<stop  offset="55.68627450980392%" stop-color="#FC2C5B"/>

<stop  offset="72.15686274509804%" stop-color="#FC0039"/>

<stop  offset="74.50980392156863%" stop-color="#F60038"/>

<stop  offset="90.98039215686275%" stop-color="#D50033"/>

<stop  offset="100%" stop-color="#C80031"/>
</linearGradient>

<linearGradient id="Gradient_9" gradientUnits="userSpaceOnUse" x1="789.2375" y1="212.4625" x2="768.5625" y2="216.13750000000002" spreadMethod="pad">
<stop  offset="0%" stop-color="#FD7594"/>

<stop  offset="7.0588235294117645%" stop-color="#FD7E9B"/>

<stop  offset="18.823529411764707%" stop-color="#FD96AE"/>

<stop  offset="33.333333333333336%" stop-color="#FEBDCC"/>

<stop  offset="41.568627450980394%" stop-color="#FEB4C5"/>

<stop  offset="54.90196078431372%" stop-color="#FE9CB2"/>

<stop  offset="70.98039215686275%" stop-color="#FD7594"/>

<stop  offset="75.29411764705883%" stop-color="#FD6C8D"/>

<stop  offset="82.3529411764706%" stop-color="#FD547A"/>

<stop  offset="91.37254901960785%" stop-color="#FC2C5B"/>

<stop  offset="100%" stop-color="#FC0039"/>
</linearGradient>

<linearGradient id="Gradient_10" gradientUnits="userSpaceOnUse" x1="799.25" y1="191.6875" x2="793.55" y2="173.41250000000002" spreadMethod="pad">
<stop  offset="0%" stop-color="#FD7594"/>

<stop  offset="7.0588235294117645%" stop-color="#FD7E9B"/>

<stop  offset="18.823529411764707%" stop-color="#FD96AE"/>

<stop  offset="33.333333333333336%" stop-color="#FEBDCC"/>

<stop  offset="41.568627450980394%" stop-color="#FEB4C5"/>

<stop  offset="54.90196078431372%" stop-color="#FE9CB2"/>

<stop  offset="70.98039215686275%" stop-color="#FD7594"/>

<stop  offset="75.29411764705883%" stop-color="#FD6C8D"/>

<stop  offset="82.3529411764706%" stop-color="#FD547A"/>

<stop  offset="91.37254901960785%" stop-color="#FC2C5B"/>

<stop  offset="100%" stop-color="#FC0039"/>
</linearGradient>

<linearGradient id="Gradient_11" gradientUnits="userSpaceOnUse" x1="787.1375" y1="206.5" x2="771.7625" y2="195.5" spreadMethod="pad">
<stop  offset="0%" stop-color="#FC0039"/>

<stop  offset="2.3529411764705883%" stop-color="#FC1549"/>

<stop  offset="9.411764705882353%" stop-color="#FD4972"/>

<stop  offset="14.509803921568627%" stop-color="#FD698B"/>

<stop  offset="17.254901960784313%" stop-color="#FD7594"/>

<stop  offset="54.90196078431372%" stop-color="#FC2253"/>

<stop  offset="72.15686274509804%" stop-color="#FC0039"/>

<stop  offset="74.50980392156863%" stop-color="#F60038"/>

<stop  offset="90.98039215686275%" stop-color="#D50033"/>

<stop  offset="100%" stop-color="#C80031"/>
</linearGradient>

<linearGradient id="Gradient_12" gradientUnits="userSpaceOnUse" x1="809.7625" y1="189.97500000000002" x2="806.6375" y2="169.625" spreadMethod="pad">
<stop  offset="0%" stop-color="#FC0039"/>

<stop  offset="2.3529411764705883%" stop-color="#FC1549"/>

<stop  offset="9.411764705882353%" stop-color="#FD4972"/>

<stop  offset="14.509803921568627%" stop-color="#FD698B"/>

<stop  offset="17.254901960784313%" stop-color="#FD7594"/>

<stop  offset="25.49019607843137%" stop-color="#FD6C8D"/>

<stop  offset="38.8235294117647%" stop-color="#FD547A"/>

<stop  offset="55.68627450980392%" stop-color="#FC2C5B"/>

<stop  offset="72.15686274509804%" stop-color="#FC0039"/>

<stop  offset="74.50980392156863%" stop-color="#F60038"/>

<stop  offset="90.98039215686275%" stop-color="#D50033"/>

<stop  offset="100%" stop-color="#C80031"/>
</linearGradient>

<linearGradient id="Gradient_13" gradientUnits="userSpaceOnUse" x1="826.575" y1="193.45000000000002" x2="836.925" y2="177.35" spreadMethod="pad">
<stop  offset="0%" stop-color="#FD7594"/>

<stop  offset="7.0588235294117645%" stop-color="#FD7E9B"/>

<stop  offset="18.823529411764707%" stop-color="#FD96AE"/>

<stop  offset="33.333333333333336%" stop-color="#FEBDCC"/>

<stop  offset="41.568627450980394%" stop-color="#FEB4C5"/>

<stop  offset="54.90196078431372%" stop-color="#FE9CB2"/>

<stop  offset="70.98039215686275%" stop-color="#FD7594"/>

<stop  offset="75.29411764705883%" stop-color="#FD6C8D"/>

<stop  offset="82.3529411764706%" stop-color="#FD547A"/>

<stop  offset="91.37254901960785%" stop-color="#FC2C5B"/>

<stop  offset="100%" stop-color="#FC0039"/>
</linearGradient>

<linearGradient id="Gradient_14" gradientUnits="userSpaceOnUse" x1="904.6875" y1="374.2375" x2="922.1125" y2="367.66249999999997" spreadMethod="pad">
<stop  offset="0%" stop-color="#FD3B67"/>

<stop  offset="6.666666666666667%" stop-color="#FD4972"/>

<stop  offset="23.92156862745098%" stop-color="#FD698B"/>

<stop  offset="33.333333333333336%" stop-color="#FD7594"/>

<stop  offset="39.21568627450981%" stop-color="#FD6C8D"/>

<stop  offset="48.627450980392155%" stop-color="#FD547A"/>

<stop  offset="60.78431372549019%" stop-color="#FC2C5B"/>

<stop  offset="72.15686274509804%" stop-color="#FC0039"/>

<stop  offset="74.50980392156863%" stop-color="#F60038"/>

<stop  offset="90.98039215686275%" stop-color="#D50033"/>

<stop  offset="100%" stop-color="#C80031"/>
</linearGradient>

<linearGradient id="Gradient_15" gradientUnits="userSpaceOnUse" x1="835.5125" y1="202.275" x2="847.9875" y2="185.725" spreadMethod="pad">
<stop  offset="0%" stop-color="#FD3B67"/>

<stop  offset="6.666666666666667%" stop-color="#FD4972"/>

<stop  offset="23.92156862745098%" stop-color="#FD698B"/>

<stop  offset="33.333333333333336%" stop-color="#FD7594"/>

<stop  offset="39.21568627450981%" stop-color="#FD6C8D"/>

<stop  offset="48.627450980392155%" stop-color="#FD547A"/>

<stop  offset="60.78431372549019%" stop-color="#FC2C5B"/>

<stop  offset="72.15686274509804%" stop-color="#FC0039"/>

<stop  offset="74.50980392156863%" stop-color="#F60038"/>

<stop  offset="90.98039215686275%" stop-color="#D50033"/>

<stop  offset="100%" stop-color="#C80031"/>
</linearGradient>

<linearGradient id="Gradient_16" gradientUnits="userSpaceOnUse" x1="891.2875" y1="338.7875" x2="908.7125" y2="332.2125" spreadMethod="pad">
<stop  offset="0%" stop-color="#FD3B67"/>

<stop  offset="6.666666666666667%" stop-color="#FD4972"/>

<stop  offset="23.92156862745098%" stop-color="#FD698B"/>

<stop  offset="33.333333333333336%" stop-color="#FD7594"/>

<stop  offset="39.21568627450981%" stop-color="#FD6C8D"/>

<stop  offset="48.627450980392155%" stop-color="#FD547A"/>

<stop  offset="60.78431372549019%" stop-color="#FC2C5B"/>

<stop  offset="72.15686274509804%" stop-color="#FC0039"/>

<stop  offset="74.50980392156863%" stop-color="#F60038"/>

<stop  offset="90.98039215686275%" stop-color="#D50033"/>

<stop  offset="100%" stop-color="#C80031"/>
</linearGradient>

<linearGradient id="Gradient_17" gradientUnits="userSpaceOnUse" x1="864.4375" y1="267.88750000000005" x2="881.8625" y2="261.3125" spreadMethod="pad">
<stop  offset="0%" stop-color="#FD3B67"/>

<stop  offset="6.666666666666667%" stop-color="#FD4972"/>

<stop  offset="23.92156862745098%" stop-color="#FD698B"/>

<stop  offset="33.333333333333336%" stop-color="#FD7594"/>

<stop  offset="39.21568627450981%" stop-color="#FD6C8D"/>

<stop  offset="48.627450980392155%" stop-color="#FD547A"/>

<stop  offset="60.78431372549019%" stop-color="#FC2C5B"/>

<stop  offset="72.15686274509804%" stop-color="#FC0039"/>

<stop  offset="74.50980392156863%" stop-color="#F60038"/>

<stop  offset="90.98039215686275%" stop-color="#D50033"/>

<stop  offset="100%" stop-color="#C80031"/>
</linearGradient>

<linearGradient id="Gradient_18" gradientUnits="userSpaceOnUse" x1="873.1375" y1="290.7875" x2="890.5625" y2="284.2125" spreadMethod="pad">
<stop  offset="0%" stop-color="#FD7594"/>

<stop  offset="7.0588235294117645%" stop-color="#FD7E9B"/>

<stop  offset="18.823529411764707%" stop-color="#FD96AE"/>

<stop  offset="33.333333333333336%" stop-color="#FEBDCC"/>

<stop  offset="41.568627450980394%" stop-color="#FEB4C5"/>

<stop  offset="54.90196078431372%" stop-color="#FE9CB2"/>

<stop  offset="70.98039215686275%" stop-color="#FD7594"/>

<stop  offset="75.29411764705883%" stop-color="#FD6C8D"/>

<stop  offset="82.3529411764706%" stop-color="#FD547A"/>

<stop  offset="91.37254901960785%" stop-color="#FC2C5B"/>

<stop  offset="100%" stop-color="#FC0039"/>
</linearGradient>

<linearGradient id="Gradient_19" gradientUnits="userSpaceOnUse" x1="859.6875" y1="255.3375" x2="877.1125" y2="248.76250000000002" spreadMethod="pad">
<stop  offset="0%" stop-color="#FD7594"/>

<stop  offset="7.0588235294117645%" stop-color="#FD7E9B"/>

<stop  offset="18.823529411764707%" stop-color="#FD96AE"/>

<stop  offset="33.333333333333336%" stop-color="#FEBDCC"/>

<stop  offset="41.568627450980394%" stop-color="#FEB4C5"/>

<stop  offset="54.90196078431372%" stop-color="#FE9CB2"/>

<stop  offset="70.98039215686275%" stop-color="#FD7594"/>

<stop  offset="75.29411764705883%" stop-color="#FD6C8D"/>

<stop  offset="82.3529411764706%" stop-color="#FD547A"/>

<stop  offset="91.37254901960785%" stop-color="#FC2C5B"/>

<stop  offset="100%" stop-color="#FC0039"/>
</linearGradient>

<linearGradient id="Gradient_20" gradientUnits="userSpaceOnUse" x1="877.8375" y1="303.33750000000003" x2="895.2624999999999" y2="296.7625" spreadMethod="pad">
<stop  offset="0%" stop-color="#FD3B67"/>

<stop  offset="6.666666666666667%" stop-color="#FD4972"/>

<stop  offset="23.92156862745098%" stop-color="#FD698B"/>

<stop  offset="33.333333333333336%" stop-color="#FD7594"/>

<stop  offset="39.21568627450981%" stop-color="#FD6C8D"/>

<stop  offset="48.627450980392155%" stop-color="#FD547A"/>

<stop  offset="60.78431372549019%" stop-color="#FC2C5B"/>

<stop  offset="72.15686274509804%" stop-color="#FC0039"/>

<stop  offset="74.50980392156863%" stop-color="#F60038"/>

<stop  offset="90.98039215686275%" stop-color="#D50033"/>

<stop  offset="100%" stop-color="#C80031"/>
</linearGradient>

<linearGradient id="Gradient_21" gradientUnits="userSpaceOnUse" x1="846.1375" y1="219.48749999999998" x2="863.5625" y2="212.9125" spreadMethod="pad">
<stop  offset="0%" stop-color="#FD7594"/>

<stop  offset="7.0588235294117645%" stop-color="#FD7E9B"/>

<stop  offset="18.823529411764707%" stop-color="#FD96AE"/>

<stop  offset="33.333333333333336%" stop-color="#FEBDCC"/>

<stop  offset="41.568627450980394%" stop-color="#FEB4C5"/>

<stop  offset="54.90196078431372%" stop-color="#FE9CB2"/>

<stop  offset="70.98039215686275%" stop-color="#FD7594"/>

<stop  offset="75.29411764705883%" stop-color="#FD6C8D"/>

<stop  offset="82.3529411764706%" stop-color="#FD547A"/>

<stop  offset="91.37254901960785%" stop-color="#FC2C5B"/>

<stop  offset="100%" stop-color="#FC0039"/>
</linearGradient>

<linearGradient id="Gradient_22" gradientUnits="userSpaceOnUse" x1="886.5375" y1="326.2375" x2="903.9625" y2="319.66249999999997" spreadMethod="pad">
<stop  offset="0%" stop-color="#FD7594"/>

<stop  offset="7.0588235294117645%" stop-color="#FD7E9B"/>

<stop  offset="18.823529411764707%" stop-color="#FD96AE"/>

<stop  offset="33.333333333333336%" stop-color="#FEBDCC"/>

<stop  offset="41.568627450980394%" stop-color="#FEB4C5"/>

<stop  offset="54.90196078431372%" stop-color="#FE9CB2"/>

<stop  offset="70.98039215686275%" stop-color="#FD7594"/>

<stop  offset="75.29411764705883%" stop-color="#FD6C8D"/>

<stop  offset="82.3529411764706%" stop-color="#FD547A"/>

<stop  offset="91.37254901960785%" stop-color="#FC2C5B"/>

<stop  offset="100%" stop-color="#FC0039"/>
</linearGradient>

<linearGradient id="Gradient_23" gradientUnits="userSpaceOnUse" x1="899.9375" y1="361.63750000000005" x2="917.3625" y2="355.0625" spreadMethod="pad">
<stop  offset="0%" stop-color="#FD7594"/>

<stop  offset="7.0588235294117645%" stop-color="#FD7E9B"/>

<stop  offset="18.823529411764707%" stop-color="#FD96AE"/>

<stop  offset="33.333333333333336%" stop-color="#FEBDCC"/>

<stop  offset="41.568627450980394%" stop-color="#FEB4C5"/>

<stop  offset="54.90196078431372%" stop-color="#FE9CB2"/>

<stop  offset="70.98039215686275%" stop-color="#FD7594"/>

<stop  offset="75.29411764705883%" stop-color="#FD6C8D"/>

<stop  offset="82.3529411764706%" stop-color="#FD547A"/>

<stop  offset="91.37254901960785%" stop-color="#FC2C5B"/>

<stop  offset="100%" stop-color="#FC0039"/>
</linearGradient>

<linearGradient id="Gradient_24" gradientUnits="userSpaceOnUse" x1="851.0375" y1="232.48749999999998" x2="868.4625" y2="225.9125" spreadMethod="pad">
<stop  offset="0%" stop-color="#FD3B67"/>

<stop  offset="6.666666666666667%" stop-color="#FD4972"/>

<stop  offset="23.92156862745098%" stop-color="#FD698B"/>

<stop  offset="33.333333333333336%" stop-color="#FD7594"/>

<stop  offset="39.21568627450981%" stop-color="#FD6C8D"/>

<stop  offset="48.627450980392155%" stop-color="#FD547A"/>

<stop  offset="60.78431372549019%" stop-color="#FC2C5B"/>

<stop  offset="72.15686274509804%" stop-color="#FC0039"/>

<stop  offset="74.50980392156863%" stop-color="#F60038"/>

<stop  offset="90.98039215686275%" stop-color="#D50033"/>

<stop  offset="100%" stop-color="#C80031"/>
</linearGradient>

<linearGradient id="Gradient_25" gradientUnits="userSpaceOnUse" x1="867.6" y1="256.4125" x2="951.1999999999999" y2="224.7875" spreadMethod="pad">
<stop  offset="0%" stop-color="#FED6DF"/>

<stop  offset="47.84313725490196%" stop-color="#FD7E9B"/>

<stop  offset="52.94117647058823%" stop-color="#FD7594"/>

<stop  offset="88.62745098039215%" stop-color="#FC1D50"/>

<stop  offset="100%" stop-color="#FC0039"/>
</linearGradient>

<linearGradient id="Gradient_26" gradientUnits="userSpaceOnUse" x1="842.275" y1="189.4625" x2="925.9250000000001" y2="157.8375" spreadMethod="pad">
<stop  offset="0%" stop-color="#FED6DF"/>

<stop  offset="47.84313725490196%" stop-color="#FD7E9B"/>

<stop  offset="52.94117647058823%" stop-color="#FD7594"/>

<stop  offset="88.62745098039215%" stop-color="#FC1D50"/>

<stop  offset="100%" stop-color="#FC0039"/>
</linearGradient>

<linearGradient id="Gradient_27" gradientUnits="userSpaceOnUse" x1="854.2249999999999" y1="221.0125" x2="937.875" y2="189.3875" spreadMethod="pad">
<stop  offset="0%" stop-color="#FED6DF"/>

<stop  offset="47.84313725490196%" stop-color="#FD7E9B"/>

<stop  offset="52.94117647058823%" stop-color="#FD7594"/>

<stop  offset="88.62745098039215%" stop-color="#FC1D50"/>

<stop  offset="100%" stop-color="#FC0039"/>
</linearGradient>

<linearGradient id="Gradient_28" gradientUnits="userSpaceOnUse" x1="907.8249999999999" y1="362.7125" x2="991.475" y2="331.0875" spreadMethod="pad">
<stop  offset="0%" stop-color="#FED6DF"/>

<stop  offset="47.84313725490196%" stop-color="#FD7E9B"/>

<stop  offset="52.94117647058823%" stop-color="#FD7594"/>

<stop  offset="88.62745098039215%" stop-color="#FC1D50"/>

<stop  offset="100%" stop-color="#FC0039"/>
</linearGradient>

<linearGradient id="Gradient_29" gradientUnits="userSpaceOnUse" x1="880.9875" y1="291.8125" x2="964.6125" y2="260.1875" spreadMethod="pad">
<stop  offset="0%" stop-color="#FED6DF"/>

<stop  offset="47.84313725490196%" stop-color="#FD7E9B"/>

<stop  offset="52.94117647058823%" stop-color="#FD7594"/>

<stop  offset="88.62745098039215%" stop-color="#FC1D50"/>

<stop  offset="100%" stop-color="#FC0039"/>
</linearGradient>

<linearGradient id="Gradient_30" gradientUnits="userSpaceOnUse" x1="855.5625" y1="236.2875" x2="875.6375" y2="228.7125" spreadMethod="pad">
<stop  offset="0%" stop-color="#FED6DF"/>

<stop  offset="47.84313725490196%" stop-color="#FD7E9B"/>

<stop  offset="52.94117647058823%" stop-color="#FD7594"/>

<stop  offset="88.62745098039215%" stop-color="#FC1D50"/>

<stop  offset="100%" stop-color="#FC0039"/>
</linearGradient>

<linearGradient id="Gradient_31" gradientUnits="userSpaceOnUse" x1="840.4499999999999" y1="203.10000000000002" x2="865.85" y2="193.5" spreadMethod="pad">
<stop  offset="0%" stop-color="#FED6DF"/>

<stop  offset="47.84313725490196%" stop-color="#FD7E9B"/>

<stop  offset="52.94117647058823%" stop-color="#FD7594"/>

<stop  offset="88.62745098039215%" stop-color="#FC1D50"/>

<stop  offset="100%" stop-color="#FC0039"/>
</linearGradient>

<linearGradient id="Gradient_32" gradientUnits="userSpaceOnUse" x1="868.9625" y1="271.6875" x2="889.0375" y2="264.11249999999995" spreadMethod="pad">
<stop  offset="0%" stop-color="#FED6DF"/>

<stop  offset="47.84313725490196%" stop-color="#FD7E9B"/>

<stop  offset="52.94117647058823%" stop-color="#FD7594"/>

<stop  offset="88.62745098039215%" stop-color="#FC1D50"/>

<stop  offset="100%" stop-color="#FC0039"/>
</linearGradient>

<linearGradient id="Gradient_33" gradientUnits="userSpaceOnUse" x1="895.7624999999999" y1="342.58750000000003" x2="915.8375" y2="335.0125" spreadMethod="pad">
<stop  offset="0%" stop-color="#FED6DF"/>

<stop  offset="47.84313725490196%" stop-color="#FD7E9B"/>

<stop  offset="52.94117647058823%" stop-color="#FD7594"/>

<stop  offset="88.62745098039215%" stop-color="#FC1D50"/>

<stop  offset="100%" stop-color="#FC0039"/>
</linearGradient>

<linearGradient id="Gradient_34" gradientUnits="userSpaceOnUse" x1="909.2125" y1="378.0375" x2="929.2875" y2="370.4625" spreadMethod="pad">
<stop  offset="0%" stop-color="#FED6DF"/>

<stop  offset="47.84313725490196%" stop-color="#FD7E9B"/>

<stop  offset="52.94117647058823%" stop-color="#FD7594"/>

<stop  offset="88.62745098039215%" stop-color="#FC1D50"/>

<stop  offset="100%" stop-color="#FC0039"/>
</linearGradient>

<linearGradient id="Gradient_35" gradientUnits="userSpaceOnUse" x1="882.375" y1="307.13750000000005" x2="902.425" y2="299.5625" spreadMethod="pad">
<stop  offset="0%" stop-color="#FED6DF"/>

<stop  offset="47.84313725490196%" stop-color="#FD7E9B"/>

<stop  offset="52.94117647058823%" stop-color="#FD7594"/>

<stop  offset="88.62745098039215%" stop-color="#FC1D50"/>

<stop  offset="100%" stop-color="#FC0039"/>
</linearGradient>

<linearGradient id="Gradient_36" gradientUnits="userSpaceOnUse" x1="894.425" y1="327.2625" x2="978.075" y2="295.6375" spreadMethod="pad">
<stop  offset="0%" stop-color="#FED6DF"/>

<stop  offset="47.84313725490196%" stop-color="#FD7E9B"/>

<stop  offset="52.94117647058823%" stop-color="#FD7594"/>

<stop  offset="88.62745098039215%" stop-color="#FC1D50"/>

<stop  offset="100%" stop-color="#FC0039"/>
</linearGradient>

<linearGradient id="Gradient_37" gradientUnits="userSpaceOnUse" x1="769.3875" y1="219.63750000000002" x2="787.0125" y2="214.1625" spreadMethod="pad">
<stop  offset="0%" stop-color="#FED6DF"/>

<stop  offset="47.84313725490196%" stop-color="#FD7E9B"/>

<stop  offset="52.94117647058823%" stop-color="#FD7594"/>

<stop  offset="88.62745098039215%" stop-color="#FC1D50"/>

<stop  offset="100%" stop-color="#FC0039"/>
</linearGradient>

<linearGradient id="Gradient_38" gradientUnits="userSpaceOnUse" x1="765.7875" y1="199.8875" x2="800.2125" y2="209.1125" spreadMethod="pad">
<stop  offset="0%" stop-color="#FED6DF"/>

<stop  offset="47.84313725490196%" stop-color="#FD7E9B"/>

<stop  offset="52.94117647058823%" stop-color="#FD7594"/>

<stop  offset="88.62745098039215%" stop-color="#FC1D50"/>

<stop  offset="100%" stop-color="#FC0039"/>
</linearGradient>

<linearGradient id="Gradient_39" gradientUnits="userSpaceOnUse" x1="798.5749999999999" y1="165.65" x2="820.225" y2="200.45000000000002" spreadMethod="pad">
<stop  offset="0%" stop-color="#FED6DF"/>

<stop  offset="47.84313725490196%" stop-color="#FD7E9B"/>

<stop  offset="52.94117647058823%" stop-color="#FD7594"/>

<stop  offset="88.62745098039215%" stop-color="#FC1D50"/>

<stop  offset="100%" stop-color="#FC0039"/>
</linearGradient>

<linearGradient id="Gradient_40" gradientUnits="userSpaceOnUse" x1="788.3000000000001" y1="180.78750000000002" x2="809.4" y2="191.3125" spreadMethod="pad">
<stop  offset="0%" stop-color="#FED6DF"/>

<stop  offset="47.84313725490196%" stop-color="#FD7E9B"/>

<stop  offset="52.94117647058823%" stop-color="#FD7594"/>

<stop  offset="88.62745098039215%" stop-color="#FC1D50"/>

<stop  offset="100%" stop-color="#FC0039"/>
</linearGradient>

<linearGradient id="Gradient_41" gradientUnits="userSpaceOnUse" x1="770.7625" y1="249.425" x2="822.2375" y2="215.675" spreadMethod="pad">
<stop  offset="0%" stop-color="#FED6DF"/>

<stop  offset="47.84313725490196%" stop-color="#FD7E9B"/>

<stop  offset="52.94117647058823%" stop-color="#FD7594"/>

<stop  offset="88.62745098039215%" stop-color="#FC1D50"/>

<stop  offset="100%" stop-color="#FC0039"/>
</linearGradient>

<linearGradient id="Gradient_42" gradientUnits="userSpaceOnUse" x1="790.125" y1="257.475" x2="804.2750000000001" y2="239.725" spreadMethod="pad">
<stop  offset="0%" stop-color="#FED6DF"/>

<stop  offset="47.84313725490196%" stop-color="#FD7E9B"/>

<stop  offset="52.94117647058823%" stop-color="#FD7594"/>

<stop  offset="88.62745098039215%" stop-color="#FC1D50"/>

<stop  offset="100%" stop-color="#FC0039"/>
</linearGradient>

<g id="Layer0_0_MEMBER_0_FILL">
<path fill="url(#Gradient_1)" stroke="none" d="
M 828.75 171.95
L 827.1 192.2
Q 838.55 199.55 845.85 218.7
L 911.25 391.7 911.7 392.35
Q 912.3 393.15 913.3 393.6 916.45 395.1 922.05 392.95 927.6 390.85 928.85 387.7 929.25 386.75 929.15 385.75
L 929 385 863.55 212
Q 858.3 198.15 850.7 188.55 843.35 179.3 834.15 174.4 831.65 173.05 828.75 171.95 Z"/>
</g>

<g id="Layer0_0_MEMBER_1_FILL">
<path fill="url(#Gradient_2)" stroke="none" d="
M 847.35 218.1
Q 843.55 208.15 837.6 201 832.55 195 827.2 192.3 838.55 199.55 845.85 218.7
L 911.25 391.7 911.7 392.35
Q 912.3 393.15 913.3 393.6 916.45 395.1 922.05 392.95
L 922.8 392.65
Q 917.65 394.4 914.7 392.95
L 912.8 391.1 847.35 218.1 Z"/>
</g>

<g id="Layer0_0_MEMBER_2_FILL">
<path fill="url(#Gradient_3)" stroke="none" d="
M 830.9 173.1
Q 840.45 178.15 848.3 187.65 856.9 198.05 862.35 212.45
L 927.75 385.45 927.65 388.05
Q 926.55 391.05 921.4 393.15
L 922.05 392.95
Q 927.6 390.85 928.85 387.7 929.25 386.75 929.15 385.75
L 929 385 863.55 212
Q 858.3 198.15 850.7 188.55 843.35 179.3 834.15 174.4 831.65 173.05 828.75 171.95
L 828.75 172.05
Q 829.45 172.4 830.9 173.1 Z"/>
</g>

<g id="Layer0_0_MEMBER_3_FILL">
<path fill="url(#Gradient_4)" stroke="none" d="
M 828.75 171.95
Q 821.15 169.15 813.05 169.3 805.4 169.45 798.3 172.2 785.9 176.9 777.9 187.15 770.15 196.95 768.6 209 767.2 220.35 771.5 231.7 775 240.95 781.9 249.15 788.7 257.25 798.2 263.55
L 798.95 263.8
Q 800 264 801.2 263.65 804.8 262.55 807.75 258.2 809.75 255.3 810.1 252.65 810.35 250.6 809.7 249.05 809.45 248.5 809.05 248.05
L 808.65 247.7
Q 801.5 243 796.4 236.95 791.55 231.2 789.2 225 786.55 217.95 787.4 211.4 788.35 204.6 792.8 198.85 797.55 192.75 805 189.9 815.6 186.05 825.25 191.1
L 827.1 192.2 828.75 171.95 Z"/>
</g>

<g id="Layer0_0_MEMBER_4_FILL">
<path fill="url(#Gradient_5)" stroke="none" d="
M 779.15 186.65
Q 786.7591796875 176.9697265625 798.3 172.2 785.9 176.9 777.9 187.15 770.15 196.95 768.6 209 767.2 220.35 771.5 231.7 775 240.95 781.9 249.15 788.7 257.25 798.2 263.55
L 798.95 263.8
Q 800 264 801.2 263.65
L 802.25 263.2
Q 801.15 263.5 800.2 263.3
L 799.5 263.05
Q 790 256.75 783.15 248.65 776.3 240.5 772.75 231.2 768.45 219.8 769.9 208.5 771.35 196.65 779.15 186.65 Z"/>
</g>

<g id="Layer0_0_MEMBER_5_FILL">
<path fill="url(#Gradient_6)" stroke="none" d="
M 818.35 186.35
Q 816.75 185.45 813.7 185.1 807.65 184.4 800.5 187.35 793.45 190.25 787.6 197.8 781.9 205.2 781.1 212.25 780.05 222.2 784.9 232.75 790.95 245.85 805.2 257
L 806.75 254.8
Q 808.2 252.35 807.8 251.05 804.35 248.95 800.25 245.35 792 238.2 788.55 230.65 784.15 220.95 784.45 213.3 784.85 204.65 791.3 196.75 797.2 189.55 806.8 187.05 813.8 185.25 818.35 186.35 Z"/>
</g>

<g id="Layer0_0_MEMBER_6_FILL">
<path fill="url(#Gradient_7)" stroke="none" d="
M 793.25 232.7
Q 790.95 235.9 791.6 244.6 792.9 253.45 791.05 258.2
L 792.9 259.7
Q 795.05 254.6 793.45 245.25 792.65 237.2 794.4 234.35
L 793.25 232.7 Z"/>
</g>

<g id="Layer0_0_MEMBER_7_FILL">
<path fill="url(#Gradient_8)" stroke="none" d="
M 785.95 238.85
Q 786.55 230.2 790.1 227.1
L 789.2 225
Q 788.5 223.1 787.95 220.9 786.2 221.35 784.6 223.2 782.05 226.2 780.3 232.4 778.9 241.15 778.1 244.15 780.6 247.85 784.2 251.75 785.95 247.65 785.95 238.85 Z"/>
</g>

<g id="Layer0_0_MEMBER_8_FILL">
<path fill="url(#Gradient_9)" stroke="none" d="
M 788.9 205.6
Q 784.9 205.15 778.75 211.1 772.75 218.4 768.65 220.65
L 769.1 223.2
Q 770.75 222.3 773.15 220.05 776.25 217.15 779.55 212.85 785 207.25 788.35 207.25
L 788.9 205.6 Z"/>
</g>

<g id="Layer0_0_MEMBER_9_FILL">
<path fill="url(#Gradient_10)" stroke="none" d="
M 809.65 188.65
Q 808.05 185 799.7 182.85 790.4 181.35 786.4 178.8
L 784.35 180.45
Q 786 181.5 789.05 182.4 793.15 183.7 798.5 184.35 806.15 186.1 807.95 189
L 809.65 188.65 Z"/>
</g>

<g id="Layer0_0_MEMBER_10_FILL">
<path fill="url(#Gradient_11)" stroke="none" d="
M 795.75 195.7
Q 792.25 192.05 782.05 194.9 772.4 199.2 770.8 199.9 769.2 204.4 768.6 209
L 768.5 210.25
Q 772.2 208.7 779.75 203.15 787.05 198.9 791.65 200.45
L 792.8 198.85
Q 794 197.3 795.75 195.7 Z"/>
</g>

<g id="Layer0_0_MEMBER_11_FILL">
<path fill="url(#Gradient_12)" stroke="none" d="
M 821.05 185.25
Q 819.8 181.6 815.2 177.15 806.55 171.2 805.15 170.2 801.45 171 798.3 172.2
L 795.1 173.5
Q 798.2 175.95 806.95 179.5 814.4 183.5 815.35 188.3 818.35 188.45 821.25 189.4 821.85 187.6 821.05 185.25 Z"/>
</g>

<g id="Layer0_0_MEMBER_12_FILL">
<path fill="#FFFFFF" stroke="none" d="
M 838.6 194.75
Q 833.4 189.2 827.4 187.3
L 822.4 186.45
Q 829.7 188.4 836.95 196.55 844.05 204.6 848.05 215.1
L 913.05 387
Q 914.3 390.3 916.1 390.4 917 390.45 917.65 389.85
L 857.3 230.25
Q 851.15 213.95 848.1 208.1 844.55 201.1 838.6 194.75 Z"/>
</g>

<g id="Layer0_0_MEMBER_13_FILL">
<path fill="#FFFFFF" stroke="none" d="
M 825.1 173.9
Q 818.65 172 811.9 172.35 805.5 172.65 799.55 174.9
L 799.35 174.95
Q 787.75 179.45 780.25 189 773.05 198.1 771.55 209.35 770.25 219.8 774.25 230.6
L 774.25 230.65
Q 777.6 239.4 784.1 247.15 790.55 254.85 799.6 260.9
L 800.25 260.8 800.55 260.7
Q 801.45 260.3 802.35 259.6 793.55 253.7 787.2 246.15 780.85 238.6 777.6 230.05
L 777.6 230
Q 773.7 219.5 775 209.2 776.3 198.4 783.45 189.25 790.95 179.8 802.2 175.55
L 802.35 175.45
Q 813.5 171.25 825.1 173.9 Z"/>
</g>

<g id="Layer0_0_MEMBER_14_FILL">
<path fill="url(#Gradient_13)" stroke="none" d="
M 834.35 186.75
Q 831.3 177.8 831.55 173.1
L 829.1 172.1
Q 828.95 177.35 832.45 186.4 834.4 194 833.1 197.15
L 834.4 198.6
Q 836.3 195.1 834.35 186.75 Z"/>
</g>

<g id="Layer0_0_MEMBER_15_FILL">
<path fill="url(#Gradient_14)" stroke="none" d="
M 917.8 355.4
Q 914.25 358.35 911.9 366.5 909.45 375.05 906.25 378.4
L 909.25 386.35
Q 910.65 385.6 912.15 383.35 914.4 379.9 916.3 373.7 918.55 366.45 920.75 363.25
L 917.8 355.4 Z"/>
</g>

<g id="Layer0_0_MEMBER_16_FILL">
<path fill="url(#Gradient_15)" stroke="none" d="
M 840.35 178.35
Q 839.55 182.4 840.75 191.55 841.3 200.1 838.45 203.9 840.55 207.2 842.15 210.3 846.2 207.8 847.25 197.1 847.45 188.1 847.8 185.2 844.25 181.3 840.35 178.35 Z"/>
</g>

<g id="Layer0_0_MEMBER_17_FILL">
<path fill="url(#Gradient_16)" stroke="none" d="
M 904.4 319.95
Q 900.85 322.85 898.45 331.05 896.05 339.6 892.85 342.95
L 895.85 350.95
Q 899.65 348.8 902.9 338.25 905.2 330.95 907.35 327.8
L 904.4 319.95 Z"/>
</g>

<g id="Layer0_0_MEMBER_18_FILL">
<path fill="url(#Gradient_17)" stroke="none" d="
M 877.6 249.05
Q 874 252.15 871.65 260.2 869.1 269 866 272.1
L 869.05 280.05
Q 872.85 277.9 876.1 267.4 878.4 260.05 880.55 256.9
L 877.6 249.05 Z"/>
</g>

<g id="Layer0_0_MEMBER_19_FILL">
<path fill="url(#Gradient_18)" stroke="none" d="
M 883.8 278.35
Q 881.35 281.75 879.95 286.95 877.8 295.05 875.75 297.75
L 876.6 300.05
Q 879.05 297.35 881.45 288.3 883.65 280.05 888.05 276.8
L 887.35 274.85
Q 885.45 276.05 883.8 278.35 Z"/>
</g>

<g id="Layer0_0_MEMBER_20_FILL">
<path fill="url(#Gradient_19)" stroke="none" d="
M 874.65 241.35
L 873.95 239.4
Q 868.95 242.7 866.55 251.5 864.35 259.7 862.3 262.3
L 863.2 264.6
Q 865.65 261.9 868.05 252.85 870.3 244.5 874.65 241.35 Z"/>
</g>

<g id="Layer0_0_MEMBER_21_FILL">
<path fill="url(#Gradient_20)" stroke="none" d="
M 893.95 292.35
L 891 284.5
Q 887.45 287.4 885.05 295.65 882.55 304.3 879.45 307.55
L 882.45 315.5
Q 886.25 313.35 889.5 302.8 891.8 295.5 893.95 292.35 Z"/>
</g>

<g id="Layer0_0_MEMBER_22_FILL">
<path fill="url(#Gradient_21)" stroke="none" d="
M 856.7 207.25
Q 854.5 210.9 853.2 216.1 850.85 224.45 848.9 226.9
L 849.8 229.15
Q 852.3 226.2 854.65 217.45 856.8 209.05 860.85 205.4
L 859.85 203.35
Q 858.2 204.75 856.7 207.25 Z"/>
</g>

<g id="Layer0_0_MEMBER_23_FILL">
<path fill="url(#Gradient_22)" stroke="none" d="
M 889.15 333.2
L 890 335.45
Q 892.45 332.75 894.85 323.75 897.1 315.35 901.45 312.25
L 900.75 310.3
Q 898.85 311.5 897.2 313.8 894.8 317.2 893.4 322.4 891.2 330.5 889.15 333.2 Z"/>
</g>

<g id="Layer0_0_MEMBER_24_FILL">
<path fill="url(#Gradient_23)" stroke="none" d="
M 908.25 359.2
Q 910.45 350.85 914.9 347.65
L 914.15 345.7
Q 909.2 348.95 906.8 357.85 904.6 365.95 902.55 368.65
L 903.4 370.9
Q 905.85 368.2 908.25 359.2 Z"/>
</g>

<g id="Layer0_0_MEMBER_25_FILL">
<path fill="url(#Gradient_24)" stroke="none" d="
M 864.2 213.65
Q 860.65 216.55 858.25 224.75 855.75 233.5 852.6 236.65
L 855.65 244.6
Q 857.05 243.9 858.55 241.55 860.8 238.15 862.7 231.95 864.95 224.7 867.15 221.5
L 864.2 213.65 Z"/>
</g>

<g id="Layer0_0_MEMBER_26_FILL">
<path fill="url(#Gradient_25)" stroke="none" d="
M 864.4 258.3
L 865.35 260.85
Q 866 259.4 867.1 256.15
L 866.05 253.35
Q 865.15 256.45 864.4 258.3 Z"/>
</g>

<g id="Layer0_0_MEMBER_27_FILL">
<path fill="url(#Gradient_26)" stroke="none" d="
M 833.25 190.15
Q 833.55 191.9 833.55 193.15
L 835.3 194.8
Q 835.35 193.65 835.2 191.6
L 833.25 190.15 Z"/>
</g>

<g id="Layer0_0_MEMBER_28_FILL">
<path fill="url(#Gradient_27)" stroke="none" d="
M 851 222.85
L 851.95 225.45
Q 852.9 223.15 853.65 220.8
L 852.6 218.1
Q 851.9 220.5 851 222.85 Z"/>
</g>

<g id="Layer0_0_MEMBER_29_FILL">
<path fill="url(#Gradient_28)" stroke="none" d="
M 904.6 364.6
L 905.55 367.2
Q 906.5 365 907.3 362.45
L 906.25 359.7
Q 905.4 362.6 904.6 364.6 Z"/>
</g>

<g id="Layer0_0_MEMBER_30_FILL">
<path fill="url(#Gradient_29)" stroke="none" d="
M 877.8 293.75
L 878.75 296.3
Q 879.4 294.85 880.5 291.6
L 879.45 288.8
Q 878.65 291.55 877.8 293.75 Z"/>
</g>

<g id="Layer0_0_MEMBER_31_MEMBER_0_FILL">
<path fill="url(#Gradient_30)" stroke="none" d="
M 860.35 238.3
L 856.85 229.05
Q 855.95 231.45 854.95 233.3
L 858.25 242.05
Q 859.35 240.45 860.35 238.3 Z"/>
</g>

<g id="Layer0_0_MEMBER_31_MEMBER_1_FILL">
<path fill="url(#Gradient_31)" stroke="none" d="
M 844.55 207.55
Q 845.25 206.35 845.95 204.2 843.85 200.75 840.7 197.05 840.5 198.65 840.05 200.45 842.45 203.6 844.55 207.55 Z"/>
</g>

<g id="Layer0_0_MEMBER_31_MEMBER_2_FILL">
<path fill="url(#Gradient_32)" stroke="none" d="
M 870.25 264.5
Q 869.35 266.9 868.35 268.75
L 871.65 277.45
Q 872.7 275.95 873.75 273.7
L 870.25 264.5 Z"/>
</g>

<g id="Layer0_0_MEMBER_31_MEMBER_3_FILL">
<path fill="url(#Gradient_33)" stroke="none" d="
M 897.05 335.35
Q 896.15 337.75 895.15 339.6
L 898.45 348.35
Q 899.45 347 900.55 344.6
L 897.05 335.35 Z"/>
</g>

<g id="Layer0_0_MEMBER_31_MEMBER_4_FILL">
<path fill="url(#Gradient_34)" stroke="none" d="
M 910.45 370.8
Q 909.55 373.2 908.55 375.05
L 911.85 383.8
Q 912.95 382.2 913.95 380.05
L 910.45 370.8 Z"/>
</g>

<g id="Layer0_0_MEMBER_31_MEMBER_5_FILL">
<path fill="url(#Gradient_35)" stroke="none" d="
M 883.65 299.9
Q 882.9 302.05 881.75 304.2
L 885.05 312.9
Q 886.05 311.55 887.15 309.15
L 883.65 299.9 Z"/>
</g>

<g id="Layer0_0_MEMBER_32_FILL">
<path fill="url(#Gradient_36)" stroke="none" d="
M 891.2 329.15
L 892.15 331.75
Q 893.1 329.7 893.9 327
L 892.85 324.25
Q 892 327.15 891.2 329.15 Z"/>
</g>

<g id="Layer0_0_MEMBER_33_FILL">
<path fill="url(#Gradient_37)" stroke="none" d="
M 774.85 218.35
L 774.7 215.65
Q 773 217.45 771.45 218.65
L 771.8 221.25
Q 773.15 220.15 774.85 218.35 Z"/>
</g>

<g id="Layer0_0_MEMBER_34_FILL">
<path fill="url(#Gradient_38)" stroke="none" d="
M 774.75 198.1
Q 772.45 203.35 771.7 208.6 773.1 207.8 775.5 206.2 776.6 200.95 779 196.25
L 774.75 198.1 Z"/>
</g>

<g id="Layer0_0_MEMBER_35_FILL">
<path fill="url(#Gradient_39)" stroke="none" d="
M 809.9 173.45
L 808.7 172.6
Q 803.8 173.3 799.55 174.9
L 799.35 174.95 798.2 175.45 800.05 176.45
Q 801.15 175.9 802.2 175.55
L 802.35 175.45
Q 805.8 174.15 809.9 173.45 Z"/>
</g>

<g id="Layer0_0_MEMBER_36_FILL">
<path fill="url(#Gradient_40)" stroke="none" d="
M 789.45 180.25
L 787.35 181.85 789.95 182.65 791.95 181.1 789.45 180.25 Z"/>
</g>

<g id="Layer0_0_MEMBER_37_FILL">
<path fill="url(#Gradient_41)" stroke="none" d="
M 779.9 235.1
L 779 240.1
Q 781.45 244.1 785.15 248.35 785.5 246.4 785.7 244.3 782.2 239.75 779.9 235.1 Z"/>
</g>

<g id="Layer0_0_MEMBER_38_FILL">
<path fill="url(#Gradient_42)" stroke="none" d="
M 792.1 251.4
Q 792.1 253.3 791.85 254.95
L 793.75 256.55
Q 794 255.1 794.05 253.2
L 792.1 251.4 Z"/>
</g>

<g id="Layer0_0_MEMBER_39_FILL">
<path fill="#FFFFFF" stroke="none" d="
M 927.35 384.9
Q 927.1 385.4 926.05 386.2 924.05 387.8 920.35 389.15 916.7 390.55 914.45 390.75
L 912.9 390.65 914.3 391.95
Q 916.6 392.9 921.15 391.2 925.65 389.5 926.95 387.05 927.6 385.8 927.35 384.9 Z"/>
</g>

<g id="Layer0_1_MEMBER_0_FILL">
<path fill="url(#Gradient_1)" stroke="none" d="
M 828.75 171.95
L 827.1 192.2
Q 838.55 199.55 845.85 218.7
L 911.25 391.7 911.7 392.35
Q 912.3 393.15 913.3 393.6 916.45 395.1 922.05 392.95 927.6 390.85 928.85 387.7 929.25 386.75 929.15 385.75
L 929 385 863.55 212
Q 858.3 198.15 850.7 188.55 843.35 179.3 834.15 174.4 831.65 173.05 828.75 171.95 Z"/>
</g>

<g id="Layer0_1_MEMBER_1_FILL">
<path fill="url(#Gradient_2)" stroke="none" d="
M 847.35 218.1
Q 843.55 208.15 837.6 201 832.55 195 827.2 192.3 838.55 199.55 845.85 218.7
L 911.25 391.7 911.7 392.35
Q 912.3 393.15 913.3 393.6 916.45 395.1 922.05 392.95
L 922.8 392.65
Q 917.65 394.4 914.7 392.95
L 912.8 391.1 847.35 218.1 Z"/>
</g>

<g id="Layer0_1_MEMBER_2_FILL">
<path fill="url(#Gradient_3)" stroke="none" d="
M 830.9 173.1
Q 840.45 178.15 848.3 187.65 856.9 198.05 862.35 212.45
L 927.75 385.45 927.65 388.05
Q 926.55 391.05 921.4 393.15
L 922.05 392.95
Q 927.6 390.85 928.85 387.7 929.25 386.75 929.15 385.75
L 929 385 863.55 212
Q 858.3 198.15 850.7 188.55 843.35 179.3 834.15 174.4 831.65 173.05 828.75 171.95
L 828.75 172.05
Q 829.45 172.4 830.9 173.1 Z"/>
</g>

<g id="Layer0_1_MEMBER_3_FILL">
<path fill="url(#Gradient_4)" stroke="none" d="
M 828.75 171.95
Q 821.15 169.15 813.05 169.3 805.4 169.45 798.3 172.2 785.9 176.9 777.9 187.15 770.15 196.95 768.6 209 767.2 220.35 771.5 231.7 775 240.95 781.9 249.15 788.7 257.25 798.2 263.55
L 798.95 263.8
Q 800 264 801.2 263.65 804.8 262.55 807.75 258.2 809.75 255.3 810.1 252.65 810.35 250.6 809.7 249.05 809.45 248.5 809.05 248.05
L 808.65 247.7
Q 801.5 243 796.4 236.95 791.55 231.2 789.2 225 786.55 217.95 787.4 211.4 788.35 204.6 792.8 198.85 797.55 192.75 805 189.9 815.6 186.05 825.25 191.1
L 827.1 192.2 828.75 171.95 Z"/>
</g>

<g id="Layer0_1_MEMBER_4_FILL">
<path fill="url(#Gradient_5)" stroke="none" d="
M 798.3 172.2
Q 785.9 176.9 777.9 187.15 770.15 196.95 768.6 209 767.2 220.35 771.5 231.7 775 240.95 781.9 249.15 788.7 257.25 798.2 263.55
L 798.95 263.8
Q 800 264 801.2 263.65
L 802.25 263.2
Q 801.15 263.5 800.2 263.3
L 799.5 263.05
Q 790 256.75 783.15 248.65 776.3 240.5 772.75 231.2 768.45 219.8 769.9 208.5 771.35 196.65 779.15 186.65 786.7591796875 176.9697265625 798.3 172.2 Z"/>
</g>

<g id="Layer0_1_MEMBER_5_FILL">
<path fill="url(#Gradient_6)" stroke="none" d="
M 818.35 186.35
Q 816.75 185.45 813.7 185.1 807.65 184.4 800.5 187.35 793.45 190.25 787.6 197.8 781.9 205.2 781.1 212.25 780.05 222.2 784.9 232.75 790.95 245.85 805.2 257
L 806.75 254.8
Q 808.2 252.35 807.8 251.05 804.35 248.95 800.25 245.35 792 238.2 788.55 230.65 784.15 220.95 784.45 213.3 784.85 204.65 791.3 196.75 797.2 189.55 806.8 187.05 813.8 185.25 818.35 186.35 Z"/>
</g>

<g id="Layer0_1_MEMBER_6_FILL">
<path fill="url(#Gradient_7)" stroke="none" d="
M 793.25 232.7
Q 790.95 235.9 791.6 244.6 792.9 253.45 791.05 258.2
L 792.9 259.7
Q 795.05 254.6 793.45 245.25 792.65 237.2 794.4 234.35
L 793.25 232.7 Z"/>
</g>

<g id="Layer0_1_MEMBER_7_FILL">
<path fill="url(#Gradient_8)" stroke="none" d="
M 785.95 238.85
Q 786.55 230.2 790.1 227.1
L 789.2 225
Q 788.5 223.1 787.95 220.9 786.2 221.35 784.6 223.2 782.05 226.2 780.3 232.4 778.9 241.15 778.1 244.15 780.6 247.85 784.2 251.75 785.95 247.65 785.95 238.85 Z"/>
</g>

<g id="Layer0_1_MEMBER_8_FILL">
<path fill="url(#Gradient_9)" stroke="none" d="
M 788.9 205.6
Q 784.9 205.15 778.75 211.1 772.75 218.4 768.65 220.65
L 769.1 223.2
Q 770.75 222.3 773.15 220.05 776.25 217.15 779.55 212.85 785 207.25 788.35 207.25
L 788.9 205.6 Z"/>
</g>

<g id="Layer0_1_MEMBER_9_FILL">
<path fill="url(#Gradient_10)" stroke="none" d="
M 809.65 188.65
Q 808.05 185 799.7 182.85 790.4 181.35 786.4 178.8
L 784.35 180.45
Q 786 181.5 789.05 182.4 793.15 183.7 798.5 184.35 806.15 186.1 807.95 189
L 809.65 188.65 Z"/>
</g>

<g id="Layer0_1_MEMBER_10_FILL">
<path fill="url(#Gradient_11)" stroke="none" d="
M 795.75 195.7
Q 792.25 192.05 782.05 194.9 772.4 199.2 770.8 199.9 769.2 204.4 768.6 209
L 768.5 210.25
Q 772.2 208.7 779.75 203.15 787.05 198.9 791.65 200.45
L 792.8 198.85
Q 794 197.3 795.75 195.7 Z"/>
</g>

<g id="Layer0_1_MEMBER_11_FILL">
<path fill="url(#Gradient_12)" stroke="none" d="
M 821.05 185.25
Q 819.8 181.6 815.2 177.15 806.55 171.2 805.15 170.2 801.45 171 798.3 172.2
L 795.1 173.5
Q 798.2 175.95 806.95 179.5 814.4 183.5 815.35 188.3 818.35 188.45 821.25 189.4 821.85 187.6 821.05 185.25 Z"/>
</g>

<g id="Layer0_1_MEMBER_12_FILL">
<path fill="#FFFFFF" stroke="none" d="
M 838.6 194.75
Q 833.4 189.2 827.4 187.3
L 822.4 186.45
Q 829.7 188.4 836.95 196.55 844.05 204.6 848.05 215.1
L 913.05 387
Q 914.3 390.3 916.1 390.4 917 390.45 917.65 389.85
L 857.3 230.25
Q 851.15 213.95 848.1 208.1 844.55 201.1 838.6 194.75 Z"/>
</g>

<g id="Layer0_1_MEMBER_13_FILL">
<path fill="#FFFFFF" stroke="none" d="
M 825.1 173.9
Q 818.65 172 811.9 172.35 805.5 172.65 799.55 174.9
L 799.35 174.95
Q 787.75 179.45 780.25 189 773.05 198.1 771.55 209.35 770.25 219.8 774.25 230.6
L 774.25 230.65
Q 777.6 239.4 784.1 247.15 790.55 254.85 799.6 260.9
L 800.25 260.8 800.55 260.7
Q 801.45 260.3 802.35 259.6 793.55 253.7 787.2 246.15 780.85 238.6 777.6 230.05
L 777.6 230
Q 773.7 219.5 775 209.2 776.3 198.4 783.45 189.25 790.95 179.8 802.2 175.55
L 802.35 175.45
Q 813.5 171.25 825.1 173.9 Z"/>
</g>

<g id="Layer0_1_MEMBER_14_FILL">
<path fill="url(#Gradient_13)" stroke="none" d="
M 834.35 186.75
Q 831.3 177.8 831.55 173.1
L 829.1 172.1
Q 828.95 177.35 832.45 186.4 834.4 194 833.1 197.15
L 834.4 198.6
Q 836.3 195.1 834.35 186.75 Z"/>
</g>

<g id="Layer0_1_MEMBER_15_FILL">
<path fill="url(#Gradient_14)" stroke="none" d="
M 917.8 355.4
Q 914.25 358.35 911.9 366.5 909.45 375.05 906.25 378.4
L 909.25 386.35
Q 910.65 385.6 912.15 383.35 914.4 379.9 916.3 373.7 918.55 366.45 920.75 363.25
L 917.8 355.4 Z"/>
</g>

<g id="Layer0_1_MEMBER_16_FILL">
<path fill="url(#Gradient_15)" stroke="none" d="
M 840.35 178.35
Q 839.55 182.4 840.75 191.55 841.3 200.1 838.45 203.9 840.55 207.2 842.15 210.3 846.2 207.8 847.25 197.1 847.45 188.1 847.8 185.2 844.25 181.3 840.35 178.35 Z"/>
</g>

<g id="Layer0_1_MEMBER_17_FILL">
<path fill="url(#Gradient_16)" stroke="none" d="
M 904.4 319.95
Q 900.85 322.85 898.45 331.05 896.05 339.6 892.85 342.95
L 895.85 350.95
Q 899.65 348.8 902.9 338.25 905.2 330.95 907.35 327.8
L 904.4 319.95 Z"/>
</g>

<g id="Layer0_1_MEMBER_18_FILL">
<path fill="url(#Gradient_17)" stroke="none" d="
M 877.6 249.05
Q 874 252.15 871.65 260.2 869.1 269 866 272.1
L 869.05 280.05
Q 872.85 277.9 876.1 267.4 878.4 260.05 880.55 256.9
L 877.6 249.05 Z"/>
</g>

<g id="Layer0_1_MEMBER_19_FILL">
<path fill="url(#Gradient_18)" stroke="none" d="
M 883.8 278.35
Q 881.35 281.75 879.95 286.95 877.8 295.05 875.75 297.75
L 876.6 300.05
Q 879.05 297.35 881.45 288.3 883.65 280.05 888.05 276.8
L 887.35 274.85
Q 885.45 276.05 883.8 278.35 Z"/>
</g>

<g id="Layer0_1_MEMBER_20_FILL">
<path fill="url(#Gradient_19)" stroke="none" d="
M 874.65 241.35
L 873.95 239.4
Q 868.95 242.7 866.55 251.5 864.35 259.7 862.3 262.3
L 863.2 264.6
Q 865.65 261.9 868.05 252.85 870.3 244.5 874.65 241.35 Z"/>
</g>

<g id="Layer0_1_MEMBER_21_FILL">
<path fill="url(#Gradient_20)" stroke="none" d="
M 893.95 292.35
L 891 284.5
Q 887.45 287.4 885.05 295.65 882.55 304.3 879.45 307.55
L 882.45 315.5
Q 886.25 313.35 889.5 302.8 891.8 295.5 893.95 292.35 Z"/>
</g>

<g id="Layer0_1_MEMBER_22_FILL">
<path fill="url(#Gradient_21)" stroke="none" d="
M 856.7 207.25
Q 854.5 210.9 853.2 216.1 850.85 224.45 848.9 226.9
L 849.8 229.15
Q 852.3 226.2 854.65 217.45 856.8 209.05 860.85 205.4
L 859.85 203.35
Q 858.2 204.75 856.7 207.25 Z"/>
</g>

<g id="Layer0_1_MEMBER_23_FILL">
<path fill="url(#Gradient_22)" stroke="none" d="
M 889.15 333.2
L 890 335.45
Q 892.45 332.75 894.85 323.75 897.1 315.35 901.45 312.25
L 900.75 310.3
Q 898.85 311.5 897.2 313.8 894.8 317.2 893.4 322.4 891.2 330.5 889.15 333.2 Z"/>
</g>

<g id="Layer0_1_MEMBER_24_FILL">
<path fill="url(#Gradient_23)" stroke="none" d="
M 908.25 359.2
Q 910.45 350.85 914.9 347.65
L 914.15 345.7
Q 909.2 348.95 906.8 357.85 904.6 365.95 902.55 368.65
L 903.4 370.9
Q 905.85 368.2 908.25 359.2 Z"/>
</g>

<g id="Layer0_1_MEMBER_25_FILL">
<path fill="url(#Gradient_24)" stroke="none" d="
M 864.2 213.65
Q 860.65 216.55 858.25 224.75 855.75 233.5 852.6 236.65
L 855.65 244.6
Q 857.05 243.9 858.55 241.55 860.8 238.15 862.7 231.95 864.95 224.7 867.15 221.5
L 864.2 213.65 Z"/>
</g>

<g id="Layer0_1_MEMBER_26_FILL">
<path fill="url(#Gradient_25)" stroke="none" d="
M 864.4 258.3
L 865.35 260.85
Q 866 259.4 867.1 256.15
L 866.05 253.35
Q 865.15 256.45 864.4 258.3 Z"/>
</g>

<g id="Layer0_1_MEMBER_27_FILL">
<path fill="url(#Gradient_26)" stroke="none" d="
M 833.25 190.15
Q 833.55 191.9 833.55 193.15
L 835.3 194.8
Q 835.35 193.65 835.2 191.6
L 833.25 190.15 Z"/>
</g>

<g id="Layer0_1_MEMBER_28_FILL">
<path fill="url(#Gradient_27)" stroke="none" d="
M 851 222.85
L 851.95 225.45
Q 852.9 223.15 853.65 220.8
L 852.6 218.1
Q 851.9 220.5 851 222.85 Z"/>
</g>

<g id="Layer0_1_MEMBER_29_FILL">
<path fill="url(#Gradient_28)" stroke="none" d="
M 904.6 364.6
L 905.55 367.2
Q 906.5 365 907.3 362.45
L 906.25 359.7
Q 905.4 362.6 904.6 364.6 Z"/>
</g>

<g id="Layer0_1_MEMBER_30_FILL">
<path fill="url(#Gradient_29)" stroke="none" d="
M 877.8 293.75
L 878.75 296.3
Q 879.4 294.85 880.5 291.6
L 879.45 288.8
Q 878.65 291.55 877.8 293.75 Z"/>
</g>

<g id="Layer0_1_MEMBER_31_MEMBER_0_FILL">
<path fill="url(#Gradient_30)" stroke="none" d="
M 860.35 238.3
L 856.85 229.05
Q 855.95 231.45 854.95 233.3
L 858.25 242.05
Q 859.35 240.45 860.35 238.3 Z"/>
</g>

<g id="Layer0_1_MEMBER_31_MEMBER_1_FILL">
<path fill="url(#Gradient_31)" stroke="none" d="
M 844.55 207.55
Q 845.25 206.35 845.95 204.2 843.85 200.75 840.7 197.05 840.5 198.65 840.05 200.45 842.45 203.6 844.55 207.55 Z"/>
</g>

<g id="Layer0_1_MEMBER_31_MEMBER_2_FILL">
<path fill="url(#Gradient_32)" stroke="none" d="
M 870.25 264.5
Q 869.35 266.9 868.35 268.75
L 871.65 277.45
Q 872.7 275.95 873.75 273.7
L 870.25 264.5 Z"/>
</g>

<g id="Layer0_1_MEMBER_31_MEMBER_3_FILL">
<path fill="url(#Gradient_33)" stroke="none" d="
M 897.05 335.35
Q 896.15 337.75 895.15 339.6
L 898.45 348.35
Q 899.45 347 900.55 344.6
L 897.05 335.35 Z"/>
</g>

<g id="Layer0_1_MEMBER_31_MEMBER_4_FILL">
<path fill="url(#Gradient_34)" stroke="none" d="
M 910.45 370.8
Q 909.55 373.2 908.55 375.05
L 911.85 383.8
Q 912.95 382.2 913.95 380.05
L 910.45 370.8 Z"/>
</g>

<g id="Layer0_1_MEMBER_31_MEMBER_5_FILL">
<path fill="url(#Gradient_35)" stroke="none" d="
M 883.65 299.9
Q 882.9 302.05 881.75 304.2
L 885.05 312.9
Q 886.05 311.55 887.15 309.15
L 883.65 299.9 Z"/>
</g>

<g id="Layer0_1_MEMBER_32_FILL">
<path fill="url(#Gradient_36)" stroke="none" d="
M 891.2 329.15
L 892.15 331.75
Q 893.1 329.7 893.9 327
L 892.85 324.25
Q 892 327.15 891.2 329.15 Z"/>
</g>

<g id="Layer0_1_MEMBER_33_FILL">
<path fill="url(#Gradient_37)" stroke="none" d="
M 774.85 218.35
L 774.7 215.65
Q 773 217.45 771.45 218.65
L 771.8 221.25
Q 773.15 220.15 774.85 218.35 Z"/>
</g>

<g id="Layer0_1_MEMBER_34_FILL">
<path fill="url(#Gradient_38)" stroke="none" d="
M 774.75 198.1
Q 772.45 203.35 771.7 208.6 773.1 207.8 775.5 206.2 776.6 200.95 779 196.25
L 774.75 198.1 Z"/>
</g>

<g id="Layer0_1_MEMBER_35_FILL">
<path fill="url(#Gradient_39)" stroke="none" d="
M 809.9 173.45
L 808.7 172.6
Q 803.8 173.3 799.55 174.9
L 799.35 174.95 798.2 175.45 800.05 176.45
Q 801.15 175.9 802.2 175.55
L 802.35 175.45
Q 805.8 174.15 809.9 173.45 Z"/>
</g>

<g id="Layer0_1_MEMBER_36_FILL">
<path fill="url(#Gradient_40)" stroke="none" d="
M 789.45 180.25
L 787.35 181.85 789.95 182.65 791.95 181.1 789.45 180.25 Z"/>
</g>

<g id="Layer0_1_MEMBER_37_FILL">
<path fill="url(#Gradient_41)" stroke="none" d="
M 779.9 235.1
L 779 240.1
Q 781.45 244.1 785.15 248.35 785.5 246.4 785.7 244.3 782.2 239.75 779.9 235.1 Z"/>
</g>

<g id="Layer0_1_MEMBER_38_FILL">
<path fill="url(#Gradient_42)" stroke="none" d="
M 792.1 251.4
Q 792.1 253.3 791.85 254.95
L 793.75 256.55
Q 794 255.1 794.05 253.2
L 792.1 251.4 Z"/>
</g>

<g id="Layer0_1_MEMBER_39_FILL">
<path fill="#FFFFFF" stroke="none" d="
M 927.35 384.9
Q 927.1 385.4 926.05 386.2 924.05 387.8 920.35 389.15 916.7 390.55 914.45 390.75
L 912.9 390.65 914.3 391.95
Q 916.6 392.9 921.15 391.2 925.65 389.5 926.95 387.05 927.6 385.8 927.35 384.9 Z"/>
</g>

<g id="Layer0_2_MEMBER_0_FILL">
<path fill="url(#Gradient_1)" stroke="none" d="
M 828.75 171.95
L 827.1 192.2
Q 838.55 199.55 845.85 218.7
L 911.25 391.7 911.7 392.35
Q 912.3 393.15 913.3 393.6 916.45 395.1 922.05 392.95 927.6 390.85 928.85 387.7 929.25 386.75 929.15 385.75
L 929 385 863.55 212
Q 858.3 198.15 850.7 188.55 843.35 179.3 834.15 174.4 831.65 173.05 828.75 171.95 Z"/>
</g>

<g id="Layer0_2_MEMBER_1_FILL">
<path fill="url(#Gradient_2)" stroke="none" d="
M 847.35 218.1
Q 843.55 208.15 837.6 201 832.55 195 827.2 192.3 838.55 199.55 845.85 218.7
L 911.25 391.7 911.7 392.35
Q 912.3 393.15 913.3 393.6 916.45 395.1 922.05 392.95
L 922.8 392.65
Q 917.65 394.4 914.7 392.95
L 912.8 391.1 847.35 218.1 Z"/>
</g>

<g id="Layer0_2_MEMBER_2_FILL">
<path fill="url(#Gradient_3)" stroke="none" d="
M 830.9 173.1
Q 840.45 178.15 848.3 187.65 856.9 198.05 862.35 212.45
L 927.75 385.45 927.65 388.05
Q 926.55 391.05 921.4 393.15
L 922.05 392.95
Q 927.6 390.85 928.85 387.7 929.25 386.75 929.15 385.75
L 929 385 863.55 212
Q 858.3 198.15 850.7 188.55 843.35 179.3 834.15 174.4 831.65 173.05 828.75 171.95
L 828.75 172.05
Q 829.45 172.4 830.9 173.1 Z"/>
</g>

<g id="Layer0_2_MEMBER_3_FILL">
<path fill="url(#Gradient_4)" stroke="none" d="
M 828.75 171.95
Q 821.15 169.15 813.05 169.3 805.4 169.45 798.3 172.2 785.9 176.9 777.9 187.15 770.15 196.95 768.6 209 767.2 220.35 771.5 231.7 775 240.95 781.9 249.15 788.7 257.25 798.2 263.55
L 798.95 263.8
Q 800 264 801.2 263.65 804.8 262.55 807.75 258.2 809.75 255.3 810.1 252.65 810.35 250.6 809.7 249.05 809.45 248.5 809.05 248.05
L 808.65 247.7
Q 801.5 243 796.4 236.95 791.55 231.2 789.2 225 786.55 217.95 787.4 211.4 788.35 204.6 792.8 198.85 797.55 192.75 805 189.9 815.6 186.05 825.25 191.1
L 827.1 192.2 828.75 171.95 Z"/>
</g>

<g id="Layer0_2_MEMBER_4_FILL">
<path fill="url(#Gradient_5)" stroke="none" d="
M 798.3 172.2
Q 785.9 176.9 777.9 187.15 770.15 196.95 768.6 209 767.2 220.35 771.5 231.7 775 240.95 781.9 249.15 788.7 257.25 798.2 263.55
L 798.95 263.8
Q 800 264 801.2 263.65
L 802.25 263.2
Q 801.15 263.5 800.2 263.3
L 799.5 263.05
Q 790 256.75 783.15 248.65 776.3 240.5 772.75 231.2 768.45 219.8 769.9 208.5 771.35 196.65 779.15 186.65 786.7591796875 176.9697265625 798.3 172.2 Z"/>
</g>

<g id="Layer0_2_MEMBER_5_FILL">
<path fill="url(#Gradient_6)" stroke="none" d="
M 818.35 186.35
Q 816.75 185.45 813.7 185.1 807.65 184.4 800.5 187.35 793.45 190.25 787.6 197.8 781.9 205.2 781.1 212.25 780.05 222.2 784.9 232.75 790.95 245.85 805.2 257
L 806.75 254.8
Q 808.2 252.35 807.8 251.05 804.35 248.95 800.25 245.35 792 238.2 788.55 230.65 784.15 220.95 784.45 213.3 784.85 204.65 791.3 196.75 797.2 189.55 806.8 187.05 813.8 185.25 818.35 186.35 Z"/>
</g>

<g id="Layer0_2_MEMBER_6_FILL">
<path fill="url(#Gradient_7)" stroke="none" d="
M 793.25 232.7
Q 790.95 235.9 791.6 244.6 792.9 253.45 791.05 258.2
L 792.9 259.7
Q 795.05 254.6 793.45 245.25 792.65 237.2 794.4 234.35
L 793.25 232.7 Z"/>
</g>

<g id="Layer0_2_MEMBER_7_FILL">
<path fill="url(#Gradient_8)" stroke="none" d="
M 785.95 238.85
Q 786.55 230.2 790.1 227.1
L 789.2 225
Q 788.5 223.1 787.95 220.9 786.2 221.35 784.6 223.2 782.05 226.2 780.3 232.4 778.9 241.15 778.1 244.15 780.6 247.85 784.2 251.75 785.95 247.65 785.95 238.85 Z"/>
</g>

<g id="Layer0_2_MEMBER_8_FILL">
<path fill="url(#Gradient_9)" stroke="none" d="
M 788.9 205.6
Q 784.9 205.15 778.75 211.1 772.75 218.4 768.65 220.65
L 769.1 223.2
Q 770.75 222.3 773.15 220.05 776.25 217.15 779.55 212.85 785 207.25 788.35 207.25
L 788.9 205.6 Z"/>
</g>

<g id="Layer0_2_MEMBER_9_FILL">
<path fill="url(#Gradient_10)" stroke="none" d="
M 809.65 188.65
Q 808.05 185 799.7 182.85 790.4 181.35 786.4 178.8
L 784.35 180.45
Q 786 181.5 789.05 182.4 793.15 183.7 798.5 184.35 806.15 186.1 807.95 189
L 809.65 188.65 Z"/>
</g>

<g id="Layer0_2_MEMBER_10_FILL">
<path fill="url(#Gradient_11)" stroke="none" d="
M 795.75 195.7
Q 792.25 192.05 782.05 194.9 772.4 199.2 770.8 199.9 769.2 204.4 768.6 209
L 768.5 210.25
Q 772.2 208.7 779.75 203.15 787.05 198.9 791.65 200.45
L 792.8 198.85
Q 794 197.3 795.75 195.7 Z"/>
</g>

<g id="Layer0_2_MEMBER_11_FILL">
<path fill="url(#Gradient_12)" stroke="none" d="
M 821.05 185.25
Q 819.8 181.6 815.2 177.15 806.55 171.2 805.15 170.2 801.45 171 798.3 172.2
L 795.1 173.5
Q 798.2 175.95 806.95 179.5 814.4 183.5 815.35 188.3 818.35 188.45 821.25 189.4 821.85 187.6 821.05 185.25 Z"/>
</g>

<g id="Layer0_2_MEMBER_12_FILL">
<path fill="#FFFFFF" stroke="none" d="
M 838.6 194.75
Q 833.4 189.2 827.4 187.3
L 822.4 186.45
Q 829.7 188.4 836.95 196.55 844.05 204.6 848.05 215.1
L 913.05 387
Q 914.3 390.3 916.1 390.4 917 390.45 917.65 389.85
L 857.3 230.25
Q 851.15 213.95 848.1 208.1 844.55 201.1 838.6 194.75 Z"/>
</g>

<g id="Layer0_2_MEMBER_13_FILL">
<path fill="#FFFFFF" stroke="none" d="
M 825.1 173.9
Q 818.65 172 811.9 172.35 805.5 172.65 799.55 174.9
L 799.35 174.95
Q 787.75 179.45 780.25 189 773.05 198.1 771.55 209.35 770.25 219.8 774.25 230.6
L 774.25 230.65
Q 777.6 239.4 784.1 247.15 790.55 254.85 799.6 260.9
L 800.25 260.8 800.55 260.7
Q 801.45 260.3 802.35 259.6 793.55 253.7 787.2 246.15 780.85 238.6 777.6 230.05
L 777.6 230
Q 773.7 219.5 775 209.2 776.3 198.4 783.45 189.25 790.95 179.8 802.2 175.55
L 802.35 175.45
Q 813.5 171.25 825.1 173.9 Z"/>
</g>

<g id="Layer0_2_MEMBER_14_FILL">
<path fill="url(#Gradient_13)" stroke="none" d="
M 834.35 186.75
Q 831.3 177.8 831.55 173.1
L 829.1 172.1
Q 828.95 177.35 832.45 186.4 834.4 194 833.1 197.15
L 834.4 198.6
Q 836.3 195.1 834.35 186.75 Z"/>
</g>

<g id="Layer0_2_MEMBER_15_FILL">
<path fill="url(#Gradient_14)" stroke="none" d="
M 917.8 355.4
Q 914.25 358.35 911.9 366.5 909.45 375.05 906.25 378.4
L 909.25 386.35
Q 910.65 385.6 912.15 383.35 914.4 379.9 916.3 373.7 918.55 366.45 920.75 363.25
L 917.8 355.4 Z"/>
</g>

<g id="Layer0_2_MEMBER_16_FILL">
<path fill="url(#Gradient_15)" stroke="none" d="
M 840.35 178.35
Q 839.55 182.4 840.75 191.55 841.3 200.1 838.45 203.9 840.55 207.2 842.15 210.3 846.2 207.8 847.25 197.1 847.45 188.1 847.8 185.2 844.25 181.3 840.35 178.35 Z"/>
</g>

<g id="Layer0_2_MEMBER_17_FILL">
<path fill="url(#Gradient_16)" stroke="none" d="
M 904.4 319.95
Q 900.85 322.85 898.45 331.05 896.05 339.6 892.85 342.95
L 895.85 350.95
Q 899.65 348.8 902.9 338.25 905.2 330.95 907.35 327.8
L 904.4 319.95 Z"/>
</g>

<g id="Layer0_2_MEMBER_18_FILL">
<path fill="url(#Gradient_17)" stroke="none" d="
M 877.6 249.05
Q 874 252.15 871.65 260.2 869.1 269 866 272.1
L 869.05 280.05
Q 872.85 277.9 876.1 267.4 878.4 260.05 880.55 256.9
L 877.6 249.05 Z"/>
</g>

<g id="Layer0_2_MEMBER_19_FILL">
<path fill="url(#Gradient_18)" stroke="none" d="
M 883.8 278.35
Q 881.35 281.75 879.95 286.95 877.8 295.05 875.75 297.75
L 876.6 300.05
Q 879.05 297.35 881.45 288.3 883.65 280.05 888.05 276.8
L 887.35 274.85
Q 885.45 276.05 883.8 278.35 Z"/>
</g>

<g id="Layer0_2_MEMBER_20_FILL">
<path fill="url(#Gradient_19)" stroke="none" d="
M 874.65 241.35
L 873.95 239.4
Q 868.95 242.7 866.55 251.5 864.35 259.7 862.3 262.3
L 863.2 264.6
Q 865.65 261.9 868.05 252.85 870.3 244.5 874.65 241.35 Z"/>
</g>

<g id="Layer0_2_MEMBER_21_FILL">
<path fill="url(#Gradient_20)" stroke="none" d="
M 893.95 292.35
L 891 284.5
Q 887.45 287.4 885.05 295.65 882.55 304.3 879.45 307.55
L 882.45 315.5
Q 886.25 313.35 889.5 302.8 891.8 295.5 893.95 292.35 Z"/>
</g>

<g id="Layer0_2_MEMBER_22_FILL">
<path fill="url(#Gradient_21)" stroke="none" d="
M 856.7 207.25
Q 854.5 210.9 853.2 216.1 850.85 224.45 848.9 226.9
L 849.8 229.15
Q 852.3 226.2 854.65 217.45 856.8 209.05 860.85 205.4
L 859.85 203.35
Q 858.2 204.75 856.7 207.25 Z"/>
</g>

<g id="Layer0_2_MEMBER_23_FILL">
<path fill="url(#Gradient_22)" stroke="none" d="
M 889.15 333.2
L 890 335.45
Q 892.45 332.75 894.85 323.75 897.1 315.35 901.45 312.25
L 900.75 310.3
Q 898.85 311.5 897.2 313.8 894.8 317.2 893.4 322.4 891.2 330.5 889.15 333.2 Z"/>
</g>

<g id="Layer0_2_MEMBER_24_FILL">
<path fill="url(#Gradient_23)" stroke="none" d="
M 908.25 359.2
Q 910.45 350.85 914.9 347.65
L 914.15 345.7
Q 909.2 348.95 906.8 357.85 904.6 365.95 902.55 368.65
L 903.4 370.9
Q 905.85 368.2 908.25 359.2 Z"/>
</g>

<g id="Layer0_2_MEMBER_25_FILL">
<path fill="url(#Gradient_24)" stroke="none" d="
M 864.2 213.65
Q 860.65 216.55 858.25 224.75 855.75 233.5 852.6 236.65
L 855.65 244.6
Q 857.05 243.9 858.55 241.55 860.8 238.15 862.7 231.95 864.95 224.7 867.15 221.5
L 864.2 213.65 Z"/>
</g>

<g id="Layer0_2_MEMBER_26_FILL">
<path fill="url(#Gradient_25)" stroke="none" d="
M 864.4 258.3
L 865.35 260.85
Q 866 259.4 867.1 256.15
L 866.05 253.35
Q 865.15 256.45 864.4 258.3 Z"/>
</g>

<g id="Layer0_2_MEMBER_27_FILL">
<path fill="url(#Gradient_26)" stroke="none" d="
M 833.25 190.15
Q 833.55 191.9 833.55 193.15
L 835.3 194.8
Q 835.35 193.65 835.2 191.6
L 833.25 190.15 Z"/>
</g>

<g id="Layer0_2_MEMBER_28_FILL">
<path fill="url(#Gradient_27)" stroke="none" d="
M 851 222.85
L 851.95 225.45
Q 852.9 223.15 853.65 220.8
L 852.6 218.1
Q 851.9 220.5 851 222.85 Z"/>
</g>

<g id="Layer0_2_MEMBER_29_FILL">
<path fill="url(#Gradient_28)" stroke="none" d="
M 904.6 364.6
L 905.55 367.2
Q 906.5 365 907.3 362.45
L 906.25 359.7
Q 905.4 362.6 904.6 364.6 Z"/>
</g>

<g id="Layer0_2_MEMBER_30_FILL">
<path fill="url(#Gradient_29)" stroke="none" d="
M 877.8 293.75
L 878.75 296.3
Q 879.4 294.85 880.5 291.6
L 879.45 288.8
Q 878.65 291.55 877.8 293.75 Z"/>
</g>

<g id="Layer0_2_MEMBER_31_MEMBER_0_FILL">
<path fill="url(#Gradient_30)" stroke="none" d="
M 860.35 238.3
L 856.85 229.05
Q 855.95 231.45 854.95 233.3
L 858.25 242.05
Q 859.35 240.45 860.35 238.3 Z"/>
</g>

<g id="Layer0_2_MEMBER_31_MEMBER_1_FILL">
<path fill="url(#Gradient_31)" stroke="none" d="
M 844.55 207.55
Q 845.25 206.35 845.95 204.2 843.85 200.75 840.7 197.05 840.5 198.65 840.05 200.45 842.45 203.6 844.55 207.55 Z"/>
</g>

<g id="Layer0_2_MEMBER_31_MEMBER_2_FILL">
<path fill="url(#Gradient_32)" stroke="none" d="
M 870.25 264.5
Q 869.35 266.9 868.35 268.75
L 871.65 277.45
Q 872.7 275.95 873.75 273.7
L 870.25 264.5 Z"/>
</g>

<g id="Layer0_2_MEMBER_31_MEMBER_3_FILL">
<path fill="url(#Gradient_33)" stroke="none" d="
M 897.05 335.35
Q 896.15 337.75 895.15 339.6
L 898.45 348.35
Q 899.45 347 900.55 344.6
L 897.05 335.35 Z"/>
</g>

<g id="Layer0_2_MEMBER_31_MEMBER_4_FILL">
<path fill="url(#Gradient_34)" stroke="none" d="
M 910.45 370.8
Q 909.55 373.2 908.55 375.05
L 911.85 383.8
Q 912.95 382.2 913.95 380.05
L 910.45 370.8 Z"/>
</g>

<g id="Layer0_2_MEMBER_31_MEMBER_5_FILL">
<path fill="url(#Gradient_35)" stroke="none" d="
M 883.65 299.9
Q 882.9 302.05 881.75 304.2
L 885.05 312.9
Q 886.05 311.55 887.15 309.15
L 883.65 299.9 Z"/>
</g>

<g id="Layer0_2_MEMBER_32_FILL">
<path fill="url(#Gradient_36)" stroke="none" d="
M 891.2 329.15
L 892.15 331.75
Q 893.1 329.7 893.9 327
L 892.85 324.25
Q 892 327.15 891.2 329.15 Z"/>
</g>

<g id="Layer0_2_MEMBER_33_FILL">
<path fill="url(#Gradient_37)" stroke="none" d="
M 774.85 218.35
L 774.7 215.65
Q 773 217.45 771.45 218.65
L 771.8 221.25
Q 773.15 220.15 774.85 218.35 Z"/>
</g>

<g id="Layer0_2_MEMBER_34_FILL">
<path fill="url(#Gradient_38)" stroke="none" d="
M 774.75 198.1
Q 772.45 203.35 771.7 208.6 773.1 207.8 775.5 206.2 776.6 200.95 779 196.25
L 774.75 198.1 Z"/>
</g>

<g id="Layer0_2_MEMBER_35_FILL">
<path fill="url(#Gradient_39)" stroke="none" d="
M 809.9 173.45
L 808.7 172.6
Q 803.8 173.3 799.55 174.9
L 799.35 174.95 798.2 175.45 800.05 176.45
Q 801.15 175.9 802.2 175.55
L 802.35 175.45
Q 805.8 174.15 809.9 173.45 Z"/>
</g>

<g id="Layer0_2_MEMBER_36_FILL">
<path fill="url(#Gradient_40)" stroke="none" d="
M 789.45 180.25
L 787.35 181.85 789.95 182.65 791.95 181.1 789.45 180.25 Z"/>
</g>

<g id="Layer0_2_MEMBER_37_FILL">
<path fill="url(#Gradient_41)" stroke="none" d="
M 779.9 235.1
L 779 240.1
Q 781.45 244.1 785.15 248.35 785.5 246.4 785.7 244.3 782.2 239.75 779.9 235.1 Z"/>
</g>

<g id="Layer0_2_MEMBER_38_FILL">
<path fill="url(#Gradient_42)" stroke="none" d="
M 792.1 251.4
Q 792.1 253.3 791.85 254.95
L 793.75 256.55
Q 794 255.1 794.05 253.2
L 792.1 251.4 Z"/>
</g>

<g id="Layer0_2_MEMBER_39_FILL">
<path fill="#FFFFFF" stroke="none" d="
M 927.35 384.9
Q 927.1 385.4 926.05 386.2 924.05 387.8 920.35 389.15 916.7 390.55 914.45 390.75
L 912.9 390.65 914.3 391.95
Q 916.6 392.9 921.15 391.2 925.65 389.5 926.95 387.05 927.6 385.8 927.35 384.9 Z"/>
</g>
</defs>

<g transform="matrix( 2.2014007568359375, 0, 0, 2.2014007568359375, -1677.25,-302.7) ">
<use xlink:href="#Layer0_0_MEMBER_0_FILL"/>
</g>

<g transform="matrix( 2.2014007568359375, 0, 0, 2.2014007568359375, -1677.25,-302.7) ">
<use xlink:href="#Layer0_0_MEMBER_1_FILL"/>
</g>

<g transform="matrix( 2.2014007568359375, 0, 0, 2.2014007568359375, -1677.25,-302.7) ">
<use xlink:href="#Layer0_0_MEMBER_2_FILL"/>
</g>

<g transform="matrix( 2.2014007568359375, 0, 0, 2.2014007568359375, -1677.25,-302.7) ">
<use xlink:href="#Layer0_0_MEMBER_3_FILL"/>
</g>

<g transform="matrix( 2.2014007568359375, 0, 0, 2.2014007568359375, -1677.25,-302.7) ">
<use xlink:href="#Layer0_0_MEMBER_4_FILL"/>
</g>

<g transform="matrix( 2.2014007568359375, 0, 0, 2.2014007568359375, -1677.25,-302.7) ">
<use xlink:href="#Layer0_0_MEMBER_5_FILL"/>
</g>

<g transform="matrix( 2.2014007568359375, 0, 0, 2.2014007568359375, -1677.25,-302.7) ">
<use xlink:href="#Layer0_0_MEMBER_6_FILL"/>
</g>

<g transform="matrix( 2.2014007568359375, 0, 0, 2.2014007568359375, -1677.25,-302.7) ">
<use xlink:href="#Layer0_0_MEMBER_7_FILL"/>
</g>

<g transform="matrix( 2.2014007568359375, 0, 0, 2.2014007568359375, -1677.25,-302.7) ">
<use xlink:href="#Layer0_0_MEMBER_8_FILL"/>
</g>

<g transform="matrix( 2.2014007568359375, 0, 0, 2.2014007568359375, -1677.25,-302.7) ">
<use xlink:href="#Layer0_0_MEMBER_9_FILL"/>
</g>

<g transform="matrix( 2.2014007568359375, 0, 0, 2.2014007568359375, -1677.25,-302.7) ">
<use xlink:href="#Layer0_0_MEMBER_10_FILL"/>
</g>

<g transform="matrix( 2.2014007568359375, 0, 0, 2.2014007568359375, -1677.25,-302.7) ">
<use xlink:href="#Layer0_0_MEMBER_11_FILL"/>
</g>

<g transform="matrix( 2.2014007568359375, 0, 0, 2.2014007568359375, -1677.25,-302.7) ">
<use xlink:href="#Layer0_0_MEMBER_12_FILL"/>
</g>

<g transform="matrix( 2.2014007568359375, 0, 0, 2.2014007568359375, -1677.25,-302.7) ">
<use xlink:href="#Layer0_0_MEMBER_13_FILL"/>
</g>

<g transform="matrix( 2.2014007568359375, 0, 0, 2.2014007568359375, -1677.25,-302.7) ">
<use xlink:href="#Layer0_0_MEMBER_14_FILL"/>
</g>

<g transform="matrix( 2.2014007568359375, 0, 0, 2.2014007568359375, -1677.25,-302.7) ">
<use xlink:href="#Layer0_0_MEMBER_15_FILL"/>
</g>

<g transform="matrix( 2.2014007568359375, 0, 0, 2.2014007568359375, -1677.25,-302.7) ">
<use xlink:href="#Layer0_0_MEMBER_16_FILL"/>
</g>

<g transform="matrix( 2.2014007568359375, 0, 0, 2.2014007568359375, -1677.25,-302.7) ">
<use xlink:href="#Layer0_0_MEMBER_17_FILL"/>
</g>

<g transform="matrix( 2.2014007568359375, 0, 0, 2.2014007568359375, -1677.25,-302.7) ">
<use xlink:href="#Layer0_0_MEMBER_18_FILL"/>
</g>

<g transform="matrix( 2.2014007568359375, 0, 0, 2.2014007568359375, -1677.25,-302.7) ">
<use xlink:href="#Layer0_0_MEMBER_19_FILL"/>
</g>

<g transform="matrix( 2.2014007568359375, 0, 0, 2.2014007568359375, -1677.25,-302.7) ">
<use xlink:href="#Layer0_0_MEMBER_20_FILL"/>
</g>

<g transform="matrix( 2.2014007568359375, 0, 0, 2.2014007568359375, -1677.25,-302.7) ">
<use xlink:href="#Layer0_0_MEMBER_21_FILL"/>
</g>

<g transform="matrix( 2.2014007568359375, 0, 0, 2.2014007568359375, -1677.25,-302.7) ">
<use xlink:href="#Layer0_0_MEMBER_22_FILL"/>
</g>

<g transform="matrix( 2.2014007568359375, 0, 0, 2.2014007568359375, -1677.25,-302.7) ">
<use xlink:href="#Layer0_0_MEMBER_23_FILL"/>
</g>

<g transform="matrix( 2.2014007568359375, 0, 0, 2.2014007568359375, -1677.25,-302.7) ">
<use xlink:href="#Layer0_0_MEMBER_24_FILL"/>
</g>

<g transform="matrix( 2.2014007568359375, 0, 0, 2.2014007568359375, -1677.25,-302.7) ">
<use xlink:href="#Layer0_0_MEMBER_25_FILL"/>
</g>

<g transform="matrix( 2.2014007568359375, 0, 0, 2.2014007568359375, -1677.25,-302.7) ">
<use xlink:href="#Layer0_0_MEMBER_26_FILL"/>
</g>

<g transform="matrix( 2.2014007568359375, 0, 0, 2.2014007568359375, -1677.25,-302.7) ">
<use xlink:href="#Layer0_0_MEMBER_27_FILL"/>
</g>

<g transform="matrix( 2.2014007568359375, 0, 0, 2.2014007568359375, -1677.25,-302.7) ">
<use xlink:href="#Layer0_0_MEMBER_28_FILL"/>
</g>

<g transform="matrix( 2.2014007568359375, 0, 0, 2.2014007568359375, -1677.25,-302.7) ">
<use xlink:href="#Layer0_0_MEMBER_29_FILL"/>
</g>

<g transform="matrix( 2.2014007568359375, 0, 0, 2.2014007568359375, -1677.25,-302.7) ">
<use xlink:href="#Layer0_0_MEMBER_30_FILL"/>
</g>

<g transform="matrix( 2.2014007568359375, 0, 0, 2.2014007568359375, -1677.25,-302.7) ">
<use xlink:href="#Layer0_0_MEMBER_31_MEMBER_0_FILL"/>
</g>

<g transform="matrix( 2.2014007568359375, 0, 0, 2.2014007568359375, -1677.25,-302.7) ">
<use xlink:href="#Layer0_0_MEMBER_31_MEMBER_1_FILL"/>
</g>

<g transform="matrix( 2.2014007568359375, 0, 0, 2.2014007568359375, -1677.25,-302.7) ">
<use xlink:href="#Layer0_0_MEMBER_31_MEMBER_2_FILL"/>
</g>

<g transform="matrix( 2.2014007568359375, 0, 0, 2.2014007568359375, -1677.25,-302.7) ">
<use xlink:href="#Layer0_0_MEMBER_31_MEMBER_3_FILL"/>
</g>

<g transform="matrix( 2.2014007568359375, 0, 0, 2.2014007568359375, -1677.25,-302.7) ">
<use xlink:href="#Layer0_0_MEMBER_31_MEMBER_4_FILL"/>
</g>

<g transform="matrix( 2.2014007568359375, 0, 0, 2.2014007568359375, -1677.25,-302.7) ">
<use xlink:href="#Layer0_0_MEMBER_31_MEMBER_5_FILL"/>
</g>

<g transform="matrix( 2.2014007568359375, 0, 0, 2.2014007568359375, -1677.25,-302.7) ">
<use xlink:href="#Layer0_0_MEMBER_32_FILL"/>
</g>

<g transform="matrix( 2.2014007568359375, 0, 0, 2.2014007568359375, -1677.25,-302.7) ">
<use xlink:href="#Layer0_0_MEMBER_33_FILL"/>
</g>

<g transform="matrix( 2.2014007568359375, 0, 0, 2.2014007568359375, -1677.25,-302.7) ">
<use xlink:href="#Layer0_0_MEMBER_34_FILL"/>
</g>

<g transform="matrix( 2.2014007568359375, 0, 0, 2.2014007568359375, -1677.25,-302.7) ">
<use xlink:href="#Layer0_0_MEMBER_35_FILL"/>
</g>

<g transform="matrix( 2.2014007568359375, 0, 0, 2.2014007568359375, -1677.25,-302.7) ">
<use xlink:href="#Layer0_0_MEMBER_36_FILL"/>
</g>

<g transform="matrix( 2.2014007568359375, 0, 0, 2.2014007568359375, -1677.25,-302.7) ">
<use xlink:href="#Layer0_0_MEMBER_37_FILL"/>
</g>

<g transform="matrix( 2.2014007568359375, 0, 0, 2.2014007568359375, -1677.25,-302.7) ">
<use xlink:href="#Layer0_0_MEMBER_38_FILL"/>
</g>

<g transform="matrix( 2.2014007568359375, 0, 0, 2.2014007568359375, -1677.25,-302.7) ">
<use xlink:href="#Layer0_0_MEMBER_39_FILL"/>
</g>

<g transform="matrix( 2.01922607421875, 0.8767242431640625, -0.8767242431640625, 2.01922607421875, -1222.6,-1029.4) ">
<use xlink:href="#Layer0_1_MEMBER_0_FILL"/>
</g>

<g transform="matrix( 2.01922607421875, 0.8767242431640625, -0.8767242431640625, 2.01922607421875, -1222.6,-1029.4) ">
<use xlink:href="#Layer0_1_MEMBER_1_FILL"/>
</g>

<g transform="matrix( 2.01922607421875, 0.8767242431640625, -0.8767242431640625, 2.01922607421875, -1222.6,-1029.4) ">
<use xlink:href="#Layer0_1_MEMBER_2_FILL"/>
</g>

<g transform="matrix( 2.01922607421875, 0.8767242431640625, -0.8767242431640625, 2.01922607421875, -1222.6,-1029.4) ">
<use xlink:href="#Layer0_1_MEMBER_3_FILL"/>
</g>

<g transform="matrix( 2.01922607421875, 0.8767242431640625, -0.8767242431640625, 2.01922607421875, -1222.6,-1029.4) ">
<use xlink:href="#Layer0_1_MEMBER_4_FILL"/>
</g>

<g transform="matrix( 2.01922607421875, 0.8767242431640625, -0.8767242431640625, 2.01922607421875, -1222.6,-1029.4) ">
<use xlink:href="#Layer0_1_MEMBER_5_FILL"/>
</g>

<g transform="matrix( 2.01922607421875, 0.8767242431640625, -0.8767242431640625, 2.01922607421875, -1222.6,-1029.4) ">
<use xlink:href="#Layer0_1_MEMBER_6_FILL"/>
</g>

<g transform="matrix( 2.01922607421875, 0.8767242431640625, -0.8767242431640625, 2.01922607421875, -1222.6,-1029.4) ">
<use xlink:href="#Layer0_1_MEMBER_7_FILL"/>
</g>

<g transform="matrix( 2.01922607421875, 0.8767242431640625, -0.8767242431640625, 2.01922607421875, -1222.6,-1029.4) ">
<use xlink:href="#Layer0_1_MEMBER_8_FILL"/>
</g>

<g transform="matrix( 2.01922607421875, 0.8767242431640625, -0.8767242431640625, 2.01922607421875, -1222.6,-1029.4) ">
<use xlink:href="#Layer0_1_MEMBER_9_FILL"/>
</g>

<g transform="matrix( 2.01922607421875, 0.8767242431640625, -0.8767242431640625, 2.01922607421875, -1222.6,-1029.4) ">
<use xlink:href="#Layer0_1_MEMBER_10_FILL"/>
</g>

<g transform="matrix( 2.01922607421875, 0.8767242431640625, -0.8767242431640625, 2.01922607421875, -1222.6,-1029.4) ">
<use xlink:href="#Layer0_1_MEMBER_11_FILL"/>
</g>

<g transform="matrix( 2.01922607421875, 0.8767242431640625, -0.8767242431640625, 2.01922607421875, -1222.6,-1029.4) ">
<use xlink:href="#Layer0_1_MEMBER_12_FILL"/>
</g>

<g transform="matrix( 2.01922607421875, 0.8767242431640625, -0.8767242431640625, 2.01922607421875, -1222.6,-1029.4) ">
<use xlink:href="#Layer0_1_MEMBER_13_FILL"/>
</g>

<g transform="matrix( 2.01922607421875, 0.8767242431640625, -0.8767242431640625, 2.01922607421875, -1222.6,-1029.4) ">
<use xlink:href="#Layer0_1_MEMBER_14_FILL"/>
</g>

<g transform="matrix( 2.01922607421875, 0.8767242431640625, -0.8767242431640625, 2.01922607421875, -1222.6,-1029.4) ">
<use xlink:href="#Layer0_1_MEMBER_15_FILL"/>
</g>

<g transform="matrix( 2.01922607421875, 0.8767242431640625, -0.8767242431640625, 2.01922607421875, -1222.6,-1029.4) ">
<use xlink:href="#Layer0_1_MEMBER_16_FILL"/>
</g>

<g transform="matrix( 2.01922607421875, 0.8767242431640625, -0.8767242431640625, 2.01922607421875, -1222.6,-1029.4) ">
<use xlink:href="#Layer0_1_MEMBER_17_FILL"/>
</g>

<g transform="matrix( 2.01922607421875, 0.8767242431640625, -0.8767242431640625, 2.01922607421875, -1222.6,-1029.4) ">
<use xlink:href="#Layer0_1_MEMBER_18_FILL"/>
</g>

<g transform="matrix( 2.01922607421875, 0.8767242431640625, -0.8767242431640625, 2.01922607421875, -1222.6,-1029.4) ">
<use xlink:href="#Layer0_1_MEMBER_19_FILL"/>
</g>

<g transform="matrix( 2.01922607421875, 0.8767242431640625, -0.8767242431640625, 2.01922607421875, -1222.6,-1029.4) ">
<use xlink:href="#Layer0_1_MEMBER_20_FILL"/>
</g>

<g transform="matrix( 2.01922607421875, 0.8767242431640625, -0.8767242431640625, 2.01922607421875, -1222.6,-1029.4) ">
<use xlink:href="#Layer0_1_MEMBER_21_FILL"/>
</g>

<g transform="matrix( 2.01922607421875, 0.8767242431640625, -0.8767242431640625, 2.01922607421875, -1222.6,-1029.4) ">
<use xlink:href="#Layer0_1_MEMBER_22_FILL"/>
</g>

<g transform="matrix( 2.01922607421875, 0.8767242431640625, -0.8767242431640625, 2.01922607421875, -1222.6,-1029.4) ">
<use xlink:href="#Layer0_1_MEMBER_23_FILL"/>
</g>

<g transform="matrix( 2.01922607421875, 0.8767242431640625, -0.8767242431640625, 2.01922607421875, -1222.6,-1029.4) ">
<use xlink:href="#Layer0_1_MEMBER_24_FILL"/>
</g>

<g transform="matrix( 2.01922607421875, 0.8767242431640625, -0.8767242431640625, 2.01922607421875, -1222.6,-1029.4) ">
<use xlink:href="#Layer0_1_MEMBER_25_FILL"/>
</g>

<g transform="matrix( 2.01922607421875, 0.8767242431640625, -0.8767242431640625, 2.01922607421875, -1222.6,-1029.4) ">
<use xlink:href="#Layer0_1_MEMBER_26_FILL"/>
</g>

<g transform="matrix( 2.01922607421875, 0.8767242431640625, -0.8767242431640625, 2.01922607421875, -1222.6,-1029.4) ">
<use xlink:href="#Layer0_1_MEMBER_27_FILL"/>
</g>

<g transform="matrix( 2.01922607421875, 0.8767242431640625, -0.8767242431640625, 2.01922607421875, -1222.6,-1029.4) ">
<use xlink:href="#Layer0_1_MEMBER_28_FILL"/>
</g>

<g transform="matrix( 2.01922607421875, 0.8767242431640625, -0.8767242431640625, 2.01922607421875, -1222.6,-1029.4) ">
<use xlink:href="#Layer0_1_MEMBER_29_FILL"/>
</g>

<g transform="matrix( 2.01922607421875, 0.8767242431640625, -0.8767242431640625, 2.01922607421875, -1222.6,-1029.4) ">
<use xlink:href="#Layer0_1_MEMBER_30_FILL"/>
</g>

<g transform="matrix( 2.019195556640625, 0.876708984375, -0.876708984375, 2.019195556640625, -1222.6,-1029.4) ">
<use xlink:href="#Layer0_1_MEMBER_31_MEMBER_0_FILL"/>
</g>

<g transform="matrix( 2.019195556640625, 0.876708984375, -0.876708984375, 2.019195556640625, -1222.6,-1029.4) ">
<use xlink:href="#Layer0_1_MEMBER_31_MEMBER_1_FILL"/>
</g>

<g transform="matrix( 2.019195556640625, 0.876708984375, -0.876708984375, 2.019195556640625, -1222.6,-1029.4) ">
<use xlink:href="#Layer0_1_MEMBER_31_MEMBER_2_FILL"/>
</g>

<g transform="matrix( 2.019195556640625, 0.876708984375, -0.876708984375, 2.019195556640625, -1222.6,-1029.4) ">
<use xlink:href="#Layer0_1_MEMBER_31_MEMBER_3_FILL"/>
</g>

<g transform="matrix( 2.019195556640625, 0.876708984375, -0.876708984375, 2.019195556640625, -1222.6,-1029.4) ">
<use xlink:href="#Layer0_1_MEMBER_31_MEMBER_4_FILL"/>
</g>

<g transform="matrix( 2.019195556640625, 0.876708984375, -0.876708984375, 2.019195556640625, -1222.6,-1029.4) ">
<use xlink:href="#Layer0_1_MEMBER_31_MEMBER_5_FILL"/>
</g>

<g transform="matrix( 2.01922607421875, 0.8767242431640625, -0.8767242431640625, 2.01922607421875, -1222.6,-1029.4) ">
<use xlink:href="#Layer0_1_MEMBER_32_FILL"/>
</g>

<g transform="matrix( 2.01922607421875, 0.8767242431640625, -0.8767242431640625, 2.01922607421875, -1222.6,-1029.4) ">
<use xlink:href="#Layer0_1_MEMBER_33_FILL"/>
</g>

<g transform="matrix( 2.01922607421875, 0.8767242431640625, -0.8767242431640625, 2.01922607421875, -1222.6,-1029.4) ">
<use xlink:href="#Layer0_1_MEMBER_34_FILL"/>
</g>

<g transform="matrix( 2.01922607421875, 0.8767242431640625, -0.8767242431640625, 2.01922607421875, -1222.6,-1029.4) ">
<use xlink:href="#Layer0_1_MEMBER_35_FILL"/>
</g>

<g transform="matrix( 2.01922607421875, 0.8767242431640625, -0.8767242431640625, 2.01922607421875, -1222.6,-1029.4) ">
<use xlink:href="#Layer0_1_MEMBER_36_FILL"/>
</g>

<g transform="matrix( 2.01922607421875, 0.8767242431640625, -0.8767242431640625, 2.01922607421875, -1222.6,-1029.4) ">
<use xlink:href="#Layer0_1_MEMBER_37_FILL"/>
</g>

<g transform="matrix( 2.01922607421875, 0.8767242431640625, -0.8767242431640625, 2.01922607421875, -1222.6,-1029.4) ">
<use xlink:href="#Layer0_1_MEMBER_38_FILL"/>
</g>

<g transform="matrix( 2.01922607421875, 0.8767242431640625, -0.8767242431640625, 2.01922607421875, -1222.6,-1029.4) ">
<use xlink:href="#Layer0_1_MEMBER_39_FILL"/>
</g>

<g transform="matrix( -1.6866455078125, 0.2511749267578125, 0.2511749267578125, 1.6866455078125, 1769.1,-324.05) ">
<use xlink:href="#Layer0_2_MEMBER_0_FILL"/>
</g>

<g transform="matrix( -1.6866455078125, 0.2511749267578125, 0.2511749267578125, 1.6866455078125, 1769.1,-324.05) ">
<use xlink:href="#Layer0_2_MEMBER_1_FILL"/>
</g>

<g transform="matrix( -1.6866455078125, 0.2511749267578125, 0.2511749267578125, 1.6866455078125, 1769.1,-324.05) ">
<use xlink:href="#Layer0_2_MEMBER_2_FILL"/>
</g>

<g transform="matrix( -1.6866455078125, 0.2511749267578125, 0.2511749267578125, 1.6866455078125, 1769.1,-324.05) ">
<use xlink:href="#Layer0_2_MEMBER_3_FILL"/>
</g>

<g transform="matrix( -1.6866455078125, 0.2511749267578125, 0.2511749267578125, 1.6866455078125, 1769.1,-324.05) ">
<use xlink:href="#Layer0_2_MEMBER_4_FILL"/>
</g>

<g transform="matrix( -1.6866455078125, 0.2511749267578125, 0.2511749267578125, 1.6866455078125, 1769.1,-324.05) ">
<use xlink:href="#Layer0_2_MEMBER_5_FILL"/>
</g>

<g transform="matrix( -1.6866455078125, 0.2511749267578125, 0.2511749267578125, 1.6866455078125, 1769.1,-324.05) ">
<use xlink:href="#Layer0_2_MEMBER_6_FILL"/>
</g>

<g transform="matrix( -1.6866455078125, 0.2511749267578125, 0.2511749267578125, 1.6866455078125, 1769.1,-324.05) ">
<use xlink:href="#Layer0_2_MEMBER_7_FILL"/>
</g>

<g transform="matrix( -1.6866455078125, 0.2511749267578125, 0.2511749267578125, 1.6866455078125, 1769.1,-324.05) ">
<use xlink:href="#Layer0_2_MEMBER_8_FILL"/>
</g>

<g transform="matrix( -1.6866455078125, 0.2511749267578125, 0.2511749267578125, 1.6866455078125, 1769.1,-324.05) ">
<use xlink:href="#Layer0_2_MEMBER_9_FILL"/>
</g>

<g transform="matrix( -1.6866455078125, 0.2511749267578125, 0.2511749267578125, 1.6866455078125, 1769.1,-324.05) ">
<use xlink:href="#Layer0_2_MEMBER_10_FILL"/>
</g>

<g transform="matrix( -1.6866455078125, 0.2511749267578125, 0.2511749267578125, 1.6866455078125, 1769.1,-324.05) ">
<use xlink:href="#Layer0_2_MEMBER_11_FILL"/>
</g>

<g transform="matrix( -1.6866455078125, 0.2511749267578125, 0.2511749267578125, 1.6866455078125, 1769.1,-324.05) ">
<use xlink:href="#Layer0_2_MEMBER_12_FILL"/>
</g>

<g transform="matrix( -1.6866455078125, 0.2511749267578125, 0.2511749267578125, 1.6866455078125, 1769.1,-324.05) ">
<use xlink:href="#Layer0_2_MEMBER_13_FILL"/>
</g>

<g transform="matrix( -1.6866455078125, 0.2511749267578125, 0.2511749267578125, 1.6866455078125, 1769.1,-324.05) ">
<use xlink:href="#Layer0_2_MEMBER_14_FILL"/>
</g>

<g transform="matrix( -1.6866455078125, 0.2511749267578125, 0.2511749267578125, 1.6866455078125, 1769.1,-324.05) ">
<use xlink:href="#Layer0_2_MEMBER_15_FILL"/>
</g>

<g transform="matrix( -1.6866455078125, 0.2511749267578125, 0.2511749267578125, 1.6866455078125, 1769.1,-324.05) ">
<use xlink:href="#Layer0_2_MEMBER_16_FILL"/>
</g>

<g transform="matrix( -1.6866455078125, 0.2511749267578125, 0.2511749267578125, 1.6866455078125, 1769.1,-324.05) ">
<use xlink:href="#Layer0_2_MEMBER_17_FILL"/>
</g>

<g transform="matrix( -1.6866455078125, 0.2511749267578125, 0.2511749267578125, 1.6866455078125, 1769.1,-324.05) ">
<use xlink:href="#Layer0_2_MEMBER_18_FILL"/>
</g>

<g transform="matrix( -1.6866455078125, 0.2511749267578125, 0.2511749267578125, 1.6866455078125, 1769.1,-324.05) ">
<use xlink:href="#Layer0_2_MEMBER_19_FILL"/>
</g>

<g transform="matrix( -1.6866455078125, 0.2511749267578125, 0.2511749267578125, 1.6866455078125, 1769.1,-324.05) ">
<use xlink:href="#Layer0_2_MEMBER_20_FILL"/>
</g>

<g transform="matrix( -1.6866455078125, 0.2511749267578125, 0.2511749267578125, 1.6866455078125, 1769.1,-324.05) ">
<use xlink:href="#Layer0_2_MEMBER_21_FILL"/>
</g>

<g transform="matrix( -1.6866455078125, 0.2511749267578125, 0.2511749267578125, 1.6866455078125, 1769.1,-324.05) ">
<use xlink:href="#Layer0_2_MEMBER_22_FILL"/>
</g>

<g transform="matrix( -1.6866455078125, 0.2511749267578125, 0.2511749267578125, 1.6866455078125, 1769.1,-324.05) ">
<use xlink:href="#Layer0_2_MEMBER_23_FILL"/>
</g>

<g transform="matrix( -1.6866455078125, 0.2511749267578125, 0.2511749267578125, 1.6866455078125, 1769.1,-324.05) ">
<use xlink:href="#Layer0_2_MEMBER_24_FILL"/>
</g>

<g transform="matrix( -1.6866455078125, 0.2511749267578125, 0.2511749267578125, 1.6866455078125, 1769.1,-324.05) ">
<use xlink:href="#Layer0_2_MEMBER_25_FILL"/>
</g>

<g transform="matrix( -1.6866455078125, 0.2511749267578125, 0.2511749267578125, 1.6866455078125, 1769.1,-324.05) ">
<use xlink:href="#Layer0_2_MEMBER_26_FILL"/>
</g>

<g transform="matrix( -1.6866455078125, 0.2511749267578125, 0.2511749267578125, 1.6866455078125, 1769.1,-324.05) ">
<use xlink:href="#Layer0_2_MEMBER_27_FILL"/>
</g>

<g transform="matrix( -1.6866455078125, 0.2511749267578125, 0.2511749267578125, 1.6866455078125, 1769.1,-324.05) ">
<use xlink:href="#Layer0_2_MEMBER_28_FILL"/>
</g>

<g transform="matrix( -1.6866455078125, 0.2511749267578125, 0.2511749267578125, 1.6866455078125, 1769.1,-324.05) ">
<use xlink:href="#Layer0_2_MEMBER_29_FILL"/>
</g>

<g transform="matrix( -1.6866455078125, 0.2511749267578125, 0.2511749267578125, 1.6866455078125, 1769.1,-324.05) ">
<use xlink:href="#Layer0_2_MEMBER_30_FILL"/>
</g>

<g transform="matrix( -1.6865997314453125, 0.251190185546875, 0.251190185546875, 1.6865997314453125, 1769.1,-324.05) ">
<use xlink:href="#Layer0_2_MEMBER_31_MEMBER_0_FILL"/>
</g>

<g transform="matrix( -1.6865997314453125, 0.251190185546875, 0.251190185546875, 1.6865997314453125, 1769.1,-324.05) ">
<use xlink:href="#Layer0_2_MEMBER_31_MEMBER_1_FILL"/>
</g>

<g transform="matrix( -1.6865997314453125, 0.251190185546875, 0.251190185546875, 1.6865997314453125, 1769.1,-324.05) ">
<use xlink:href="#Layer0_2_MEMBER_31_MEMBER_2_FILL"/>
</g>

<g transform="matrix( -1.6865997314453125, 0.251190185546875, 0.251190185546875, 1.6865997314453125, 1769.1,-324.05) ">
<use xlink:href="#Layer0_2_MEMBER_31_MEMBER_3_FILL"/>
</g>

<g transform="matrix( -1.6865997314453125, 0.251190185546875, 0.251190185546875, 1.6865997314453125, 1769.1,-324.05) ">
<use xlink:href="#Layer0_2_MEMBER_31_MEMBER_4_FILL"/>
</g>

<g transform="matrix( -1.6865997314453125, 0.251190185546875, 0.251190185546875, 1.6865997314453125, 1769.1,-324.05) ">
<use xlink:href="#Layer0_2_MEMBER_31_MEMBER_5_FILL"/>
</g>

<g transform="matrix( -1.6866455078125, 0.2511749267578125, 0.2511749267578125, 1.6866455078125, 1769.1,-324.05) ">
<use xlink:href="#Layer0_2_MEMBER_32_FILL"/>
</g>

<g transform="matrix( -1.6866455078125, 0.2511749267578125, 0.2511749267578125, 1.6866455078125, 1769.1,-324.05) ">
<use xlink:href="#Layer0_2_MEMBER_33_FILL"/>
</g>

<g transform="matrix( -1.6866455078125, 0.2511749267578125, 0.2511749267578125, 1.6866455078125, 1769.1,-324.05) ">
<use xlink:href="#Layer0_2_MEMBER_34_FILL"/>
</g>

<g transform="matrix( -1.6866455078125, 0.2511749267578125, 0.2511749267578125, 1.6866455078125, 1769.1,-324.05) ">
<use xlink:href="#Layer0_2_MEMBER_35_FILL"/>
</g>

<g transform="matrix( -1.6866455078125, 0.2511749267578125, 0.2511749267578125, 1.6866455078125, 1769.1,-324.05) ">
<use xlink:href="#Layer0_2_MEMBER_36_FILL"/>
</g>

<g transform="matrix( -1.6866455078125, 0.2511749267578125, 0.2511749267578125, 1.6866455078125, 1769.1,-324.05) ">
<use xlink:href="#Layer0_2_MEMBER_37_FILL"/>
</g>

<g transform="matrix( -1.6866455078125, 0.2511749267578125, 0.2511749267578125, 1.6866455078125, 1769.1,-324.05) ">
<use xlink:href="#Layer0_2_MEMBER_38_FILL"/>
</g>

<g transform="matrix( -1.6866455078125, 0.2511749267578125, 0.2511749267578125, 1.6866455078125, 1769.1,-324.05) ">
<use xlink:href="#Layer0_2_MEMBER_39_FILL"/>
</g>
</svg>
